<svg xmlns="http://www.w3.org/2000/svg" xmlns:xlink="http://www.w3.org/1999/xlink" width="390" zoomAndPan="magnify" viewBox="0 0 292.5 63.749997" height="85" preserveAspectRatio="xMidYMid meet" version="1.0"><defs><g/><clipPath id="8c847a113a"><path d="M 10.179688 25.285156 L 63.96875 25.285156 L 63.96875 37.980469 L 10.179688 37.980469 Z M 10.179688 25.285156 " clip-rule="nonzero"/></clipPath></defs><g fill="#ffd700" fill-opacity="1"><g transform="translate(74.096115, 39.968257)"><g><path d="M 6.421875 -8.5625 L 6.421875 0 L 1.546875 0 L 1.546875 -21.359375 L 6.421875 -21.359375 L 6.421875 -12.84375 L 13.3125 -12.84375 L 13.3125 -21.359375 L 18.171875 -21.359375 L 18.171875 0 L 13.3125 0 L 13.3125 -8.5625 Z M 6.421875 -8.5625 "/></g></g></g><g fill="#ffd700" fill-opacity="1"><g transform="translate(93.824818, 39.968257)"><g><path d="M 1.984375 -20.6875 C 2.523438 -21.21875 3.164062 -21.484375 3.90625 -21.484375 C 4.644531 -21.484375 5.28125 -21.21875 5.8125 -20.6875 C 6.351562 -20.15625 6.625 -19.515625 6.625 -18.765625 C 6.625 -18.023438 6.351562 -17.382812 5.8125 -16.84375 C 5.28125 -16.3125 4.644531 -16.046875 3.90625 -16.046875 C 3.164062 -16.046875 2.523438 -16.3125 1.984375 -16.84375 C 1.453125 -17.382812 1.1875 -18.023438 1.1875 -18.765625 C 1.1875 -19.515625 1.453125 -20.15625 1.984375 -20.6875 Z M 1.546875 -13.28125 L 1.546875 0 L 6.140625 0 L 6.140625 -13.28125 Z M 1.546875 -13.28125 "/></g></g></g><g fill="#ffd700" fill-opacity="1"><g transform="translate(101.643806, 39.968257)"><g><path d="M 2.453125 -1.640625 C 1.210938 -2.992188 0.59375 -4.65625 0.59375 -6.625 C 0.59375 -8.59375 1.210938 -10.257812 2.453125 -11.625 C 3.703125 -12.988281 5.285156 -13.671875 7.203125 -13.671875 C 8.960938 -13.671875 10.410156 -13.117188 11.546875 -12.015625 L 11.546875 -22.265625 L 16.125 -22.265625 L 16.125 0 L 11.59375 0 L 11.59375 -1.5 L 11.546875 -1.5 C 10.410156 -0.238281 8.960938 0.390625 7.203125 0.390625 C 5.285156 0.390625 3.703125 -0.285156 2.453125 -1.640625 Z M 6.359375 -8.875 C 5.765625 -8.289062 5.46875 -7.539062 5.46875 -6.625 C 5.46875 -5.707031 5.75 -4.957031 6.3125 -4.375 C 6.882812 -3.800781 7.632812 -3.515625 8.5625 -3.515625 C 9.46875 -3.515625 10.207031 -3.804688 10.78125 -4.390625 C 11.363281 -4.984375 11.65625 -5.726562 11.65625 -6.625 C 11.65625 -7.539062 11.351562 -8.289062 10.75 -8.875 C 10.15625 -9.46875 9.425781 -9.765625 8.5625 -9.765625 C 7.6875 -9.765625 6.953125 -9.46875 6.359375 -8.875 Z M 6.359375 -8.875 "/></g></g></g><g fill="#ffd700" fill-opacity="1"><g transform="translate(119.327139, 39.968257)"><g><path d="M 14.984375 -6 L 5.359375 -6 C 5.359375 -5.070312 5.660156 -4.382812 6.265625 -3.9375 C 6.867188 -3.488281 7.523438 -3.265625 8.234375 -3.265625 C 8.972656 -3.265625 9.554688 -3.363281 9.984375 -3.5625 C 10.421875 -3.757812 10.914062 -4.148438 11.46875 -4.734375 L 14.78125 -3.078125 C 13.40625 -0.765625 11.109375 0.390625 7.890625 0.390625 C 5.890625 0.390625 4.171875 -0.296875 2.734375 -1.671875 C 1.304688 -3.046875 0.59375 -4.695312 0.59375 -6.625 C 0.59375 -8.5625 1.304688 -10.21875 2.734375 -11.59375 C 4.171875 -12.976562 5.890625 -13.671875 7.890625 -13.671875 C 10.003906 -13.671875 11.71875 -13.0625 13.03125 -11.84375 C 14.351562 -10.625 15.015625 -8.882812 15.015625 -6.625 C 15.015625 -6.3125 15.003906 -6.101562 14.984375 -6 Z M 5.484375 -8.546875 L 10.53125 -8.546875 C 10.425781 -9.234375 10.15625 -9.757812 9.71875 -10.125 C 9.28125 -10.5 8.71875 -10.6875 8.03125 -10.6875 C 7.269531 -10.6875 6.664062 -10.488281 6.21875 -10.09375 C 5.769531 -9.695312 5.523438 -9.179688 5.484375 -8.546875 Z M 5.484375 -8.546875 "/></g></g></g><g fill="#ffd700" fill-opacity="1"><g transform="translate(134.939216, 39.968257)"><g/></g></g><g fill="#ffd700" fill-opacity="1"><g transform="translate(142.007372, 39.968257)"><g><path d="M 12.40625 -21.359375 L 21.015625 0 L 15.796875 0 L 14.21875 -4.265625 L 6.078125 -4.265625 L 4.5 0 L -0.71875 0 L 7.890625 -21.359375 Z M 12.5625 -8.546875 L 10.171875 -14.75 L 10.125 -14.75 L 7.734375 -8.546875 Z M 12.5625 -8.546875 "/></g></g></g><g fill="#ffd700" fill-opacity="1"><g transform="translate(162.305668, 39.968257)"><g><path d="M 2.453125 -1.640625 C 1.210938 -2.992188 0.59375 -4.65625 0.59375 -6.625 C 0.59375 -8.59375 1.210938 -10.257812 2.453125 -11.625 C 3.703125 -12.988281 5.285156 -13.671875 7.203125 -13.671875 C 8.960938 -13.671875 10.410156 -13.117188 11.546875 -12.015625 L 11.546875 -22.265625 L 16.125 -22.265625 L 16.125 0 L 11.59375 0 L 11.59375 -1.5 L 11.546875 -1.5 C 10.410156 -0.238281 8.960938 0.390625 7.203125 0.390625 C 5.285156 0.390625 3.703125 -0.285156 2.453125 -1.640625 Z M 6.359375 -8.875 C 5.765625 -8.289062 5.46875 -7.539062 5.46875 -6.625 C 5.46875 -5.707031 5.75 -4.957031 6.3125 -4.375 C 6.882812 -3.800781 7.632812 -3.515625 8.5625 -3.515625 C 9.46875 -3.515625 10.207031 -3.804688 10.78125 -4.390625 C 11.363281 -4.984375 11.65625 -5.726562 11.65625 -6.625 C 11.65625 -7.539062 11.351562 -8.289062 10.75 -8.875 C 10.15625 -9.46875 9.425781 -9.765625 8.5625 -9.765625 C 7.6875 -9.765625 6.953125 -9.46875 6.359375 -8.875 Z M 6.359375 -8.875 "/></g></g></g><g fill="#ffd700" fill-opacity="1"><g transform="translate(179.989002, 39.968257)"><g><path d="M 1.546875 0 L 1.546875 -13.28125 L 6.140625 -13.28125 L 6.140625 -11.890625 L 6.1875 -11.890625 C 7.375 -13.078125 8.644531 -13.671875 10 -13.671875 C 10.957031 -13.671875 11.859375 -13.472656 12.703125 -13.078125 C 13.554688 -12.679688 14.195312 -12.066406 14.625 -11.234375 C 15.96875 -12.859375 17.4375 -13.671875 19.03125 -13.671875 C 20.445312 -13.671875 21.660156 -13.269531 22.671875 -12.46875 C 23.691406 -11.675781 24.203125 -10.4375 24.203125 -8.75 L 24.203125 0 L 19.625 0 L 19.625 -7.515625 C 19.625 -8.210938 19.425781 -8.800781 19.03125 -9.28125 C 18.644531 -9.757812 18.066406 -10 17.296875 -10 C 16.617188 -10 16.101562 -9.796875 15.75 -9.390625 C 15.394531 -8.984375 15.203125 -8.492188 15.171875 -7.921875 L 15.171875 0 L 10.59375 0 L 10.59375 -7.515625 C 10.59375 -8.210938 10.394531 -8.800781 10 -9.28125 C 9.613281 -9.757812 9.035156 -10 8.265625 -10 C 7.554688 -10 7.023438 -9.773438 6.671875 -9.328125 C 6.316406 -8.890625 6.140625 -8.367188 6.140625 -7.765625 L 6.140625 0 Z M 1.546875 0 "/></g></g></g><g fill="#ffd700" fill-opacity="1"><g transform="translate(205.491323, 39.968257)"><g><path d="M 1.984375 -20.6875 C 2.523438 -21.21875 3.164062 -21.484375 3.90625 -21.484375 C 4.644531 -21.484375 5.28125 -21.21875 5.8125 -20.6875 C 6.351562 -20.15625 6.625 -19.515625 6.625 -18.765625 C 6.625 -18.023438 6.351562 -17.382812 5.8125 -16.84375 C 5.28125 -16.3125 4.644531 -16.046875 3.90625 -16.046875 C 3.164062 -16.046875 2.523438 -16.3125 1.984375 -16.84375 C 1.453125 -17.382812 1.1875 -18.023438 1.1875 -18.765625 C 1.1875 -19.515625 1.453125 -20.15625 1.984375 -20.6875 Z M 1.546875 -13.28125 L 1.546875 0 L 6.140625 0 L 6.140625 -13.28125 Z M 1.546875 -13.28125 "/></g></g></g><g fill="#ffd700" fill-opacity="1"><g transform="translate(213.310311, 39.968257)"><g><path d="M 1.546875 0 L 1.546875 -13.28125 L 6.140625 -13.28125 L 6.140625 -11.890625 L 6.1875 -11.890625 C 7.375 -13.078125 8.644531 -13.671875 10 -13.671875 C 10.65625 -13.671875 11.304688 -13.582031 11.953125 -13.40625 C 12.597656 -13.238281 13.21875 -12.972656 13.8125 -12.609375 C 14.40625 -12.242188 14.882812 -11.726562 15.25 -11.0625 C 15.625 -10.40625 15.8125 -9.632812 15.8125 -8.75 L 15.8125 0 L 11.234375 0 L 11.234375 -7.515625 C 11.234375 -8.203125 11.015625 -8.800781 10.578125 -9.3125 C 10.140625 -9.832031 9.566406 -10.09375 8.859375 -10.09375 C 8.160156 -10.09375 7.53125 -9.820312 6.96875 -9.28125 C 6.414062 -8.75 6.140625 -8.160156 6.140625 -7.515625 L 6.140625 0 Z M 1.546875 0 "/></g></g></g><g fill="#ffd700" fill-opacity="1"><g transform="translate(230.424051, 39.968257)"><g/></g></g><g fill="#ffd700" fill-opacity="1"><g transform="translate(237.492207, 39.968257)"><g><path d="M 1.546875 -21.359375 L 8.1875 -21.359375 C 10.1875 -21.359375 11.78125 -20.929688 12.96875 -20.078125 C 14.15625 -19.222656 14.75 -17.835938 14.75 -15.921875 C 14.75 -13.785156 13.863281 -12.257812 12.09375 -11.34375 C 15.125 -10.800781 16.640625 -9.003906 16.640625 -5.953125 C 16.640625 -4.160156 16.019531 -2.71875 14.78125 -1.625 C 13.539062 -0.539062 11.832031 0 9.65625 0 L 1.546875 0 Z M 6.421875 -13 L 6.8125 -13 C 7.894531 -13 8.703125 -13.1875 9.234375 -13.5625 C 9.773438 -13.945312 10.046875 -14.570312 10.046875 -15.4375 C 10.046875 -16.882812 8.96875 -17.609375 6.8125 -17.609375 L 6.421875 -17.609375 Z M 6.421875 -3.75 L 7.953125 -3.75 C 10.328125 -3.75 11.515625 -4.546875 11.515625 -6.140625 C 11.515625 -7.085938 11.21875 -7.765625 10.625 -8.171875 C 10.03125 -8.585938 9.140625 -8.796875 7.953125 -8.796875 L 6.421875 -8.796875 Z M 6.421875 -3.75 "/></g></g></g><g fill="#ffd700" fill-opacity="1"><g transform="translate(254.735399, 39.968257)"><g><path d="M 2.453125 -1.640625 C 1.210938 -2.992188 0.59375 -4.65625 0.59375 -6.625 C 0.59375 -8.59375 1.210938 -10.257812 2.453125 -11.625 C 3.703125 -12.988281 5.285156 -13.671875 7.203125 -13.671875 C 8.960938 -13.671875 10.410156 -13.117188 11.546875 -12.015625 L 11.546875 -13.28125 L 16.125 -13.28125 L 16.125 0 L 11.59375 0 L 11.59375 -1.5 L 11.546875 -1.5 C 10.410156 -0.238281 8.960938 0.390625 7.203125 0.390625 C 5.285156 0.390625 3.703125 -0.285156 2.453125 -1.640625 Z M 6.359375 -8.875 C 5.765625 -8.289062 5.46875 -7.539062 5.46875 -6.625 C 5.46875 -5.707031 5.75 -4.957031 6.3125 -4.375 C 6.882812 -3.800781 7.632812 -3.515625 8.5625 -3.515625 C 9.46875 -3.515625 10.207031 -3.804688 10.78125 -4.390625 C 11.363281 -4.984375 11.65625 -5.726562 11.65625 -6.625 C 11.65625 -7.539062 11.351562 -8.289062 10.75 -8.875 C 10.15625 -9.46875 9.425781 -9.765625 8.5625 -9.765625 C 7.6875 -9.765625 6.953125 -9.46875 6.359375 -8.875 Z M 6.359375 -8.875 "/></g></g></g><g fill="#ffd700" fill-opacity="1"><g transform="translate(272.418733, 39.968257)"><g><path d="M 1.546875 0 L 1.546875 -13.28125 L 6.140625 -13.28125 L 6.140625 -11.359375 L 6.1875 -11.359375 C 6.21875 -11.429688 6.269531 -11.519531 6.34375 -11.625 C 6.425781 -11.726562 6.597656 -11.910156 6.859375 -12.171875 C 7.117188 -12.429688 7.394531 -12.660156 7.6875 -12.859375 C 7.976562 -13.066406 8.359375 -13.253906 8.828125 -13.421875 C 9.296875 -13.585938 9.769531 -13.671875 10.25 -13.671875 C 10.75 -13.671875 11.238281 -13.597656 11.71875 -13.453125 C 12.207031 -13.316406 12.566406 -13.179688 12.796875 -13.046875 L 13.15625 -12.84375 L 11.234375 -8.953125 C 10.660156 -9.441406 9.867188 -9.6875 8.859375 -9.6875 C 8.304688 -9.6875 7.828125 -9.5625 7.421875 -9.3125 C 7.023438 -9.070312 6.742188 -8.78125 6.578125 -8.4375 C 6.421875 -8.09375 6.304688 -7.800781 6.234375 -7.5625 C 6.171875 -7.320312 6.140625 -7.128906 6.140625 -6.984375 L 6.140625 0 Z M 1.546875 0 "/></g></g></g><g clip-path="url(#8c847a113a)"><path fill="#ffd700" d="M 10.179688 31.746094 C 10.179688 35.316406 13.074219 38.207031 16.640625 38.207031 L 57.636719 38.207031 C 61.203125 38.207031 64.097656 35.316406 64.097656 31.746094 C 64.097656 28.175781 61.203125 25.285156 57.636719 25.285156 L 16.640625 25.285156 C 13.074219 25.285156 10.179688 28.175781 10.179688 31.746094 Z M 10.179688 31.746094 " fill-opacity="1" fill-rule="evenodd"/></g><path fill="#ffffff" d="M 21.53125 31.746094 C 21.53125 29.046875 19.34375 26.855469 16.640625 26.855469 C 13.941406 26.855469 11.753906 29.046875 11.753906 31.746094 C 11.753906 34.445312 13.941406 36.636719 16.640625 36.636719 C 19.34375 36.636719 21.53125 34.445312 21.53125 31.746094 Z M 21.53125 31.746094 " fill-opacity="1" fill-rule="evenodd"/><path fill="#ffd700" d="M 15.941406 34.273438 L 17.34375 34.273438 L 17.332031 34.363281 C 17.265625 34.609375 16.980469 34.796875 16.640625 34.796875 C 16.300781 34.796875 16.015625 34.609375 15.953125 34.363281 Z M 18.207031 29.636719 C 18.59375 29.636719 18.902344 29.949219 18.902344 30.332031 C 18.902344 30.71875 18.59375 31.027344 18.207031 31.027344 C 17.824219 31.027344 17.511719 30.71875 17.511719 30.332031 C 17.511719 29.949219 17.824219 29.636719 18.207031 29.636719 Z M 16.484375 28.695312 L 16.796875 28.695312 C 16.960938 28.695312 17.09375 28.828125 17.09375 28.992188 L 17.09375 29.257812 L 17.117188 29.261719 C 17.28125 29.304688 17.433594 29.363281 17.578125 29.441406 L 17.660156 29.492188 L 17.648438 29.5 C 17.378906 29.679688 17.203125 29.988281 17.203125 30.332031 C 17.203125 30.886719 17.652344 31.339844 18.207031 31.339844 C 18.347656 31.339844 18.480469 31.308594 18.597656 31.257812 L 18.625 31.246094 L 18.625 32.84375 L 19.027344 33.996094 L 14.257812 33.996094 L 14.65625 32.84375 L 14.65625 31.203125 C 14.65625 30.265625 15.300781 29.480469 16.167969 29.261719 L 16.1875 29.257812 L 16.1875 28.992188 C 16.1875 28.828125 16.320312 28.695312 16.484375 28.695312 Z M 16.484375 28.695312 " fill-opacity="1" fill-rule="evenodd"/></svg>