<svg xmlns="http://www.w3.org/2000/svg" width="300" height="208" viewBox="0 0 300 208"><g transform="translate(-242 -368)"><rect width="300" height="208" transform="translate(242 368)" fill="#ab0023"/><g transform="translate(5202 -4076)"><g transform="translate(0 -29)"><path d="M3,0H206a3,3,0,0,1,3,3V168a0,0,0,0,1,0,0H0a0,0,0,0,1,0,0V3A3,3,0,0,1,3,0Z" transform="translate(-4914 4513)" fill="#fff"/><path d="M3,0H206a3,3,0,0,1,3,3V17a0,0,0,0,1,0,0H0a0,0,0,0,1,0,0V3A3,3,0,0,1,3,0Z" transform="translate(-4914 4513)" fill="#f5f7f9"/><circle cx="2.5" cy="2.5" r="2.5" transform="translate(-4908 4519)" fill="#d8d8d8"/><circle cx="2.5" cy="2.5" r="2.5" transform="translate(-4901 4519)" fill="#d8d8d8"/><circle cx="2.5" cy="2.5" r="2.5" transform="translate(-4894 4519)" fill="#d8d8d8"/></g><rect width="120" height="5" transform="translate(-4899 4513)" fill="#eeeff3"/><rect width="60" height="5" transform="translate(-4899 4523)" fill="#eeeff3"/><g transform="translate(0 124)"><rect width="120" height="5" transform="translate(-4899 4513)" fill="#eeeff3"/><rect width="120" height="5" transform="translate(-4899 4503)" fill="#eeeff3"/></g><g transform="translate(0 134)"><rect width="103" height="5" transform="translate(-4899 4513)" fill="#eeeff3"/></g><rect width="44" height="45" transform="translate(-4764 4513)" fill="#f5f7f9"/><rect width="44" height="52" transform="translate(-4764 4564)" fill="#f5f7f9"/><rect width="44" height="29" transform="translate(-4764 4623)" fill="#f5f7f9"/><rect width="209" height="151" transform="translate(-4914 4501)" fill="#ab0023" opacity="0.4"/><g transform="translate(0 22)"><g transform="translate(-4899 4513)" fill="#fff" stroke="#ab0023" stroke-width="3"><rect width="179" height="87" stroke="none"/><rect x="1.5" y="1.5" width="176" height="84" fill="none"/></g><text transform="translate(-4899 4525)" fill="#ab0023" font-size="14" font-family="Inter" font-weight="700"><tspan x="17.75" y="14">Are You Old Enough?</tspan></text><rect width="60" height="5" transform="translate(-4839 4545)" fill="#eeeff3"/><rect width="88" height="5" transform="translate(-4853 4553)" fill="#eeeff3"/><g transform="translate(19.5 -4)"><rect width="41" height="16" transform="translate(-4874 4575)" fill="#ab0023"/><text transform="translate(-4853.5 4587.5)" fill="#fff" font-size="12" font-family="SegoeUI-Semibold, Segoe UI" font-weight="600" letter-spacing="0.08em"><tspan x="-10.795" y="0">YES</tspan></text></g><g transform="translate(68.5 -4)"><rect width="41" height="16" transform="translate(-4874 4575)" fill="#ab0023"/><text transform="translate(-4853.5 4587.5)" fill="#fff" font-size="12" font-family="SegoeUI-Semibold, Segoe UI" font-weight="600" letter-spacing="0.08em"><tspan x="-9.618" y="0">NO</tspan></text></g></g></g></g></svg>