<svg xmlns="http://www.w3.org/2000/svg" width="209" height="168" viewBox="0 0 209 168"><g transform="translate(4914 -4484)"><g transform="translate(0 -29)"><g transform="translate(-4914 4513)" fill="#fff" stroke="#eeeff3" stroke-width="1"><rect width="209" height="168" rx="3" stroke="none"/><rect x="0.5" y="0.5" width="208" height="167" rx="2.5" fill="none"/></g><path d="M3,0H206a3,3,0,0,1,3,3V16a0,0,0,0,1,0,0H0a0,0,0,0,1,0,0V3A3,3,0,0,1,3,0Z" transform="translate(-4914 4513)" fill="#eeeff3"/><circle cx="2" cy="2" r="2" transform="translate(-4908 4519)" fill="#b9c2c9"/><circle cx="2" cy="2" r="2" transform="translate(-4901 4519)" fill="#b9c2c9"/><circle cx="2" cy="2" r="2" transform="translate(-4894 4519)" fill="#b9c2c9"/></g><g transform="translate(0 -3)"><rect width="169" height="5" transform="translate(-4897 4537)" fill="#fff"/><rect width="169" height="5" transform="translate(-4897 4512)" fill="#eeeff3"/><rect width="93" height="5" transform="translate(-4897 4522)" fill="#eeeff3"/><rect width="169" height="5" transform="translate(-4897 4620)" fill="#eeeff3"/><rect width="142" height="5" transform="translate(-4897 4630)" fill="#eeeff3"/><rect width="117" height="5" transform="translate(-4897 4640)" fill="#eeeff3"/><g transform="translate(-4992.154 4415.8)"><path d="M131.6,123.2v47.288L155.889,145.2h0a2.345,2.345,0,0,1,3.47.074l21.3,23.81,16.722-14.618a2.4,2.4,0,0,1,3.249.148l23.108,24.1V123.2H131.6Zm49.612,9.45a7.088,7.088,0,1,1-7.088,7.088A7.088,7.088,0,0,1,181.212,132.65Zm-23.7,17.681L131.6,177.316V189.35h60.834Zm41.27,9.191-14.95,13.1,14.95,16.722h24.954v-3.8Z" transform="translate(2.554 1)" fill="#63829a"/></g><g transform="translate(-4930.271 4821.281)"><circle cx="23" cy="23" r="23" transform="translate(133.271 -251.281)" fill="#fff"/><path d="M459.562,296.794a19.962,19.962,0,1,0,19.962,19.962A19.962,19.962,0,0,0,459.562,296.794Zm0,7.13a2.851,2.851,0,0,1,2.852,2.852v13.1l2.273-2.273a2.824,2.824,0,0,1,4.01,0,2.8,2.8,0,0,1,0,4.01c-2.37,2.283-4.711,4.925-7.085,7.041a2.713,2.713,0,0,1-4.1,0c-2.332-2.158-4.765-4.707-7.085-7.041a2.836,2.836,0,0,1,4.01-4.01l2.273,2.273v-13.1A2.851,2.851,0,0,1,459.562,303.924Z" transform="translate(-303 -545)"/></g></g><g transform="translate(33.089 15.089)"><circle cx="17" cy="17" r="17" transform="translate(-4805.089 4537.911)" fill="#fff"/><circle cx="14" cy="14" r="14" transform="translate(-4802.089 4540.911)" fill="#d60000"/><rect width="22" height="6" rx="1" transform="translate(-4799.089 4551.911)" fill="#fff"/></g></g></svg>