<svg xmlns="http://www.w3.org/2000/svg" width="209" height="168" viewBox="0 0 209 168"><g transform="translate(4914 -4484)"><g transform="translate(0 -29)"><g transform="translate(-4914 4513)" fill="#fff" stroke="#eeeff3" stroke-width="1"><rect width="209" height="168" rx="3" stroke="none"/><rect x="0.5" y="0.5" width="208" height="167" rx="2.5" fill="none"/></g><path d="M3,0H206a3,3,0,0,1,3,3V16a0,0,0,0,1,0,0H0a0,0,0,0,1,0,0V3A3,3,0,0,1,3,0Z" transform="translate(-4914 4513)" fill="#eeeff3"/><circle cx="2" cy="2" r="2" transform="translate(-4908 4519)" fill="#b9c2c9"/><circle cx="2" cy="2" r="2" transform="translate(-4901 4519)" fill="#b9c2c9"/><circle cx="2" cy="2" r="2" transform="translate(-4894 4519)" fill="#b9c2c9"/></g><g transform="translate(0 -3)"><rect width="114" height="5" transform="translate(-4897 4537)" fill="#eeeff3"/><rect width="114" height="5" transform="translate(-4897 4527)" fill="#eeeff3"/><rect width="114" height="5" transform="translate(-4897 4517)" fill="#eeeff3"/><rect width="100" height="5" transform="translate(-4897 4547)" fill="#eeeff3"/><rect width="109" height="5" transform="translate(-4897 4557)" fill="#eeeff3"/><rect width="106" height="5" transform="translate(-4897 4567)" fill="#eeeff3"/><rect width="121" height="5" transform="translate(-4897 4587)" fill="#eeeff3"/><rect width="100" height="5" transform="translate(-4897 4597)" fill="#eeeff3"/><rect width="70" height="5" transform="translate(-4897 4607)" fill="#eeeff3"/><rect width="121" height="5" transform="translate(-4897 4627)" fill="#eeeff3"/><rect width="109" height="5" transform="translate(-4897 4637)" fill="#eeeff3"/></g><rect width="44" height="45" transform="translate(-4759 4514)" fill="#eeeff3"/><rect width="44" height="52" transform="translate(-4759 4565)" fill="#eeeff3"/><rect width="44" height="16" transform="translate(-4759 4624)" fill="#eeeff3"/><rect width="82" height="82" rx="4" transform="translate(-4850 4529)" fill="#fff"/><rect width="74" height="74" rx="2" transform="translate(-4846 4533)" fill="#f7a000"/><path d="M42.413,42.215a3.061,3.061,0,0,1-6.122,0A26.571,26.571,0,0,0,9.751,15.676a3.061,3.061,0,0,1,0-6.122A32.723,32.723,0,0,1,42.413,42.215ZM9.751,21.8a3.061,3.061,0,0,0,0,6.122A14.326,14.326,0,0,1,24.045,42.215a3.061,3.061,0,0,0,6.122,0A20.449,20.449,0,0,0,9.751,21.8Zm2.111,13.163A5.172,5.172,0,1,0,17,40.1,5.172,5.172,0,0,0,11.862,34.962Z" transform="translate(-4833.66 4542.446)" fill="#fff"/><g transform="translate(13.089 41.089)"><circle cx="24" cy="24" r="24" transform="translate(-4805.089 4537.911)" fill="#fff"/><circle cx="20" cy="20" r="20" transform="translate(-4801.089 4541.911)" fill="#d60000"/><rect width="30" height="9" rx="2" transform="translate(-4796.089 4557.911)" fill="#fff"/></g></g></svg>