<svg xmlns="http://www.w3.org/2000/svg" width="90" height="90" viewBox="0 0 90 90"><g transform="translate(-322 -118)"><rect width="90" height="90" transform="translate(322 118)" fill="#001edf"/><path d="M161.993,22.426a1.973,1.973,0,0,0-.74.226l-23.026,12.5A1.973,1.973,0,0,0,137.2,36.9c0,14.982,3.12,24.711,7.771,31.558s10.72,10.683,16.16,14.165a1.975,1.975,0,0,0,2.138,0c5.44-3.483,11.508-7.318,16.16-14.165S187.2,51.882,187.2,36.9a1.974,1.974,0,0,0-1.028-1.748l-23.027-12.5h0a1.975,1.975,0,0,0-1.151-.226Z" transform="translate(204.801 110.325)" fill="#fff"/><path d="M226.589,235.637c-4.3-2.487-7.192-5.734-7.565-8.217l-1.08,1.871c-1.2,2.069,2.024,6.256,7.026,9.148s10.241,3.58,11.433,1.511l1.079-1.871c-2.33.918-6.58.045-10.893-2.442Z" transform="translate(136.894 -63.199)" fill="#001edf"/><path d="M255.8,197.445a5.542,5.542,0,0,0-.818,2.982,1.427,1.427,0,0,1-.166,1.07c-.693.913-2.734.351-3.891-.315s-2.658-2.154-2.208-3.207a1.315,1.315,0,0,1,.769-.639,5.526,5.526,0,0,0,2.24-2.244c-4.349-1.988-8.33-2.186-9.342-.432l-.014.023c-1.151,2.083,2.056,6.256,7.035,9.13s10.191,3.576,11.424,1.529l.014-.023.009,0c1.017-1.754-1.151-5.1-5.051-7.879Z" transform="translate(114.416 -31.97)" fill="#001edf"/><path d="M344.82,31.157a4.905,4.905,0,0,0-.953-.423,4.781,4.781,0,0,0-4.957,1.223,4.867,4.867,0,0,0-1.372,3.9,12.09,12.09,0,0,1-.328,4.659,15.69,15.69,0,0,1-2.006,4.129l-.207.306c-1.169,1.7-1.812,2.627-2.928,3.1-.266.117-.41.184-.459.3-.189.436.675,1.628,1.92,2.348,1.142.657,2.685.909,3,.495.085-.108.072-.274.045-.5l-.009-.09c-.135-1.273.369-2.316,1.385-4.381a15.2,15.2,0,0,1,2.577-3.81,10.933,10.933,0,0,1,3.8-2.577,4.861,4.861,0,0,0,2.6-6.2,4.872,4.872,0,0,0-2.118-2.487Z" transform="translate(32.151 117.916)" fill="#001edf"/></g></svg>