<svg xmlns="http://www.w3.org/2000/svg" width="90" height="90" viewBox="0 0 90 90"><g transform="translate(-322 -118)"><rect width="90" height="90" transform="translate(322 118)" fill="#d60000"/><path d="M5316.406-2622.192h0a40.714,40.714,0,0,1-9.669-5.236,38,38,0,0,1-7.714-7.518,32.821,32.821,0,0,1-6.954-20.076v-15.886c.227.005.473.008.732.008,10.129,0,19.81-4.991,24.663-12.716a27.068,27.068,0,0,0,22.934,12.71l.346,0v15.886a32.823,32.823,0,0,1-6.953,20.076,38,38,0,0,1-7.714,7.518,40.7,40.7,0,0,1-9.67,5.236Zm-7.4-32.431a.838.838,0,0,0-.592.272.844.844,0,0,0-.224.613v11.609a.843.843,0,0,0,.224.613.838.838,0,0,0,.592.272H5323.8a.85.85,0,0,0,.592-.272.859.859,0,0,0,.224-.613v-11.64a.808.808,0,0,0-.2-.615.805.805,0,0,0-.587-.269h-1.182a.317.317,0,0,1-.3-.328V-2658c0-3.547-2.5-6.428-5.7-6.558-.072,0-.146,0-.218,0a6.2,6.2,0,0,0-5.933,6.431v3.179a.321.321,0,0,1-.3.328Zm11.243,0h-7.634a.314.314,0,0,1-.221-.1.316.316,0,0,1-.086-.227v-3.179h.031a4.276,4.276,0,0,1,4.088-4.433c.072,0,.144,0,.215.006a4.39,4.39,0,0,1,3.91,4.556v3.051A.316.316,0,0,1,5320.252-2654.624Z" transform="translate(-4949.404 2815.904)" fill="#fff"/></g></svg>