<svg xmlns="http://www.w3.org/2000/svg" width="209" height="168" viewBox="0 0 209 168"><g transform="translate(4914 -4484)"><g transform="translate(0 -29)"><g transform="translate(-4914 4513)" fill="#fff" stroke="#eeeff3" stroke-width="1"><rect width="209" height="168" rx="3" stroke="none"/><rect x="0.5" y="0.5" width="208" height="167" rx="2.5" fill="none"/></g><path d="M3,0H206a3,3,0,0,1,3,3V16a0,0,0,0,1,0,0H0a0,0,0,0,1,0,0V3A3,3,0,0,1,3,0Z" transform="translate(-4914 4513)" fill="#eeeff3"/><circle cx="2" cy="2" r="2" transform="translate(-4908 4519)" fill="#b9c2c9"/><circle cx="2" cy="2" r="2" transform="translate(-4901 4519)" fill="#b9c2c9"/><circle cx="2" cy="2" r="2" transform="translate(-4894 4519)" fill="#b9c2c9"/></g><g transform="translate(-1 -4)"><rect width="119" height="5" transform="translate(-4898 4537)" fill="#eeeff3"/><rect width="119" height="5" transform="translate(-4898 4527)" fill="#eeeff3"/><rect width="119" height="5" transform="translate(-4898 4517)" fill="#eeeff3"/><rect width="119" height="5" transform="translate(-4898 4547)" fill="#eeeff3"/><rect width="114" height="5" transform="translate(-4898 4557)" fill="#eeeff3"/><rect width="106" height="5" transform="translate(-4898 4567)" fill="#eeeff3"/><rect width="126" height="5" transform="translate(-4898 4587)" fill="#eeeff3"/><rect width="119" height="5" transform="translate(-4898 4597)" fill="#eeeff3"/><rect width="70" height="5" transform="translate(-4898 4607)" fill="#eeeff3"/><rect width="119" height="5" transform="translate(-4898 4627)" fill="#eeeff3"/><rect width="128" height="5" transform="translate(-4898 4637)" fill="#eeeff3"/></g><g transform="translate(-4830.581 4549.224)"><rect width="52" height="68" rx="26" transform="translate(-4.419 -5.224)" fill="#fff"/><g transform="translate(-0.419)"><path d="M229.4,68.137h-2.922a20.644,20.644,0,0,0-20.621,20.619v17.314a20.643,20.643,0,0,0,20.621,20.619H229.4a20.642,20.642,0,0,0,20.619-20.619V88.756A20.642,20.642,0,0,0,229.4,68.137Zm-2.5,16.431h2.878a.978.978,0,0,1,.965.965v9.394a.979.979,0,0,1-.965.965H226.9a.978.978,0,0,1-.965-.965V85.533A.978.978,0,0,1,226.9,84.568Zm-.7-12.128h1.743v7.892h-1.743a5.258,5.258,0,0,0-4.549,5.2V88.7h-11.5a16.34,16.34,0,0,1,16.045-16.264Zm3.2,49.961h-2.922a16.35,16.35,0,0,1-16.332-16.33V92.995h11.5v1.933a5.261,5.261,0,0,0,5.255,5.255h2.878a5.261,5.261,0,0,0,5.254-5.255V92.995h10.7V106.07A16.35,16.35,0,0,1,229.4,122.4Z" transform="translate(-205.856 -68.137)" fill="#4f6d84"/><path d="M21.917,4.188v8.026s7.039-.987,7.2,4.757v7.906H39.927C41.1,2.257,21.917,4.188,21.917,4.188Z"/></g></g><g transform="translate(3.089 -4.911)"><circle cx="17" cy="17" r="17" transform="translate(-4805.089 4537.911)" fill="#fff"/><circle cx="14" cy="14" r="14" transform="translate(-4802.089 4540.911)" fill="#d60000"/><rect width="22" height="6" rx="1" transform="translate(-4799.089 4551.911)" fill="#fff"/></g><rect width="44" height="45" transform="translate(-4764 4512)" fill="#eeeff3"/><rect width="44" height="52" transform="translate(-4764 4563)" fill="#eeeff3"/><rect width="44" height="16" transform="translate(-4764 4622)" fill="#eeeff3"/></g></svg>