<svg xmlns="http://www.w3.org/2000/svg" width="90" height="90" viewBox="0 0 90 90"><g transform="translate(-322 -118)"><rect width="90" height="90" transform="translate(322 118)" fill="#0066eb"/><path d="M161.993,22.426a1.972,1.972,0,0,0-.74.226l-23.026,12.5A1.973,1.973,0,0,0,137.2,36.9c0,14.982,3.12,24.711,7.771,31.558s10.72,10.683,16.16,14.165a1.976,1.976,0,0,0,2.139,0c5.44-3.483,11.508-7.318,16.16-14.165S187.2,51.882,187.2,36.9a1.974,1.974,0,0,0-1.028-1.748l-23.026-12.5h0a1.976,1.976,0,0,0-1.151-.226Z" transform="translate(204.801 110.325)" fill="#fff"/><path d="M347.627,261.356a2.568,2.568,0,0,0-3.526-.882l-4.408,2.469V257.83a2.469,2.469,0,0,0-4.937,0v5.113l-4.409-2.469a2.57,2.57,0,0,0-2.644,4.408l4.408,2.469L327.7,269.82a2.568,2.568,0,0,0-.882,3.526,2.3,2.3,0,0,0,2.116,1.235,3.26,3.26,0,0,0,1.235-.353l4.409-2.469v5.113a2.469,2.469,0,0,0,4.937,0v-5.113l4.408,2.469a3.282,3.282,0,0,0,1.235.353,2.444,2.444,0,0,0,2.115-1.235,2.567,2.567,0,0,0-.882-3.526l-4.408-2.469,4.408-2.469c1.41-.88,1.94-2.467,1.234-3.526Z" transform="translate(29.8 -104.676)" fill="#0066eb"/></g></svg>