<svg xmlns="http://www.w3.org/2000/svg" width="209" height="168" viewBox="0 0 209 168"><g transform="translate(4914 -4484)"><g transform="translate(0 -29)"><g transform="translate(-4914 4513)" fill="#fff" stroke="#eeeff3" stroke-width="1"><rect width="209" height="168" rx="3" stroke="none"/><rect x="0.5" y="0.5" width="208" height="167" rx="2.5" fill="none"/></g><path d="M3,0H206a3,3,0,0,1,3,3V16a0,0,0,0,1,0,0H0a0,0,0,0,1,0,0V3A3,3,0,0,1,3,0Z" transform="translate(-4914 4513)" fill="#eeeff3"/><circle cx="2" cy="2" r="2" transform="translate(-4908 4519)" fill="#b9c2c9"/><circle cx="2" cy="2" r="2" transform="translate(-4901 4519)" fill="#b9c2c9"/><circle cx="2" cy="2" r="2" transform="translate(-4894 4519)" fill="#b9c2c9"/></g><g transform="translate(0 -2)"><g transform="translate(-3 -2)"><rect width="114" height="5" transform="translate(-4897 4537)" fill="#eeeff3"/><rect width="114" height="5" transform="translate(-4897 4527)" fill="#eeeff3"/><rect width="114" height="5" transform="translate(-4897 4517)" fill="#eeeff3"/><rect width="100" height="5" transform="translate(-4897 4547)" fill="#eeeff3"/><rect width="109" height="5" transform="translate(-4897 4557)" fill="#eeeff3"/><rect width="106" height="5" transform="translate(-4897 4567)" fill="#eeeff3"/><rect width="121" height="5" transform="translate(-4897 4587)" fill="#eeeff3"/><rect width="100" height="5" transform="translate(-4897 4597)" fill="#eeeff3"/><rect width="70" height="5" transform="translate(-4897 4607)" fill="#eeeff3"/><rect width="121" height="5" transform="translate(-4897 4627)" fill="#eeeff3"/><rect width="109" height="5" transform="translate(-4897 4637)" fill="#eeeff3"/></g><rect width="44" height="45" transform="translate(-4762 4515)" fill="#eeeff3"/><rect width="44" height="52" transform="translate(-4762 4566)" fill="#eeeff3"/><rect width="44" height="16" transform="translate(-4762 4625)" fill="#eeeff3"/></g><g transform="translate(9 -4)"><rect width="142" height="43" rx="3" transform="translate(-4889 4554)" fill="#fff"/><rect width="134" height="35" rx="2" transform="translate(-4885 4558)" fill="#63829a"/><path d="M-21.491-12.364-21.485,0h-1.992L-29.3-8.422l-.109-.006L-29.406,0h-2.24V-12.364h2l5.82,8.428.115.006-.006-8.434ZM-13.239-3.9V-9.273h2.185V0h-2.119V-1.648h-.1A2.8,2.8,0,0,1-14.3-.374a3.018,3.018,0,0,1-1.76.5,3.129,3.129,0,0,1-1.609-.407,2.782,2.782,0,0,1-1.09-1.189,4.182,4.182,0,0,1-.392-1.893v-5.9h2.185v5.566a1.975,1.975,0,0,0,.483,1.4,1.651,1.651,0,0,0,1.268.519,2,2,0,0,0,.936-.235,1.918,1.918,0,0,0,.746-.7A2.176,2.176,0,0,0-13.239-3.9ZM-8.808,0V-9.273h2.089V-7.7h.109a2.476,2.476,0,0,1,.96-1.247,2.8,2.8,0,0,1,1.6-.45,2.7,2.7,0,0,1,1.591.456A2.42,2.42,0,0,1-1.545-7.7h.1A2.546,2.546,0,0,1-.407-8.932a3.2,3.2,0,0,1,1.742-.462,2.827,2.827,0,0,1,2.089.809,3.2,3.2,0,0,1,.809,2.36V0H2.04V-5.886a1.6,1.6,0,0,0-.459-1.265,1.645,1.645,0,0,0-1.123-.4A1.577,1.577,0,0,0-.776-7.06a1.834,1.834,0,0,0-.444,1.277V0H-3.363V-5.977a1.544,1.544,0,0,0-.432-1.147A1.529,1.529,0,0,0-4.92-7.552a1.6,1.6,0,0,0-.857.238,1.712,1.712,0,0,0-.616.67,2.111,2.111,0,0,0-.229,1.005V0ZM6.55,0V-12.364H8.735v4.624h.091A4.109,4.109,0,0,1,9.3-8.461a2.583,2.583,0,0,1,.833-.658,2.881,2.881,0,0,1,1.34-.275,3.563,3.563,0,0,1,1.941.546,3.765,3.765,0,0,1,1.376,1.612,6.016,6.016,0,0,1,.51,2.611,6.082,6.082,0,0,1-.5,2.6A3.816,3.816,0,0,1,13.438-.4a3.509,3.509,0,0,1-1.956.561A2.918,2.918,0,0,1,10.16-.1a2.63,2.63,0,0,1-.842-.643,3.977,3.977,0,0,1-.492-.715H8.7V0ZM8.693-4.636A4.43,4.43,0,0,0,8.95-3.061a2.35,2.35,0,0,0,.743,1.053,1.866,1.866,0,0,0,1.18.377,1.887,1.887,0,0,0,1.213-.389,2.381,2.381,0,0,0,.74-1.069,4.455,4.455,0,0,0,.251-1.548,4.408,4.408,0,0,0-.248-1.533,2.3,2.3,0,0,0-.737-1.05,1.926,1.926,0,0,0-1.219-.38,1.92,1.92,0,0,0-1.189.368A2.245,2.245,0,0,0,8.944-6.2,4.424,4.424,0,0,0,8.693-4.636ZM21.274.181A4.739,4.739,0,0,1,18.868-.4a3.9,3.9,0,0,1-1.555-1.654,5.521,5.521,0,0,1-.543-2.526A5.514,5.514,0,0,1,17.317-7.1a4.113,4.113,0,0,1,1.53-1.69,4.316,4.316,0,0,1,2.312-.607,4.753,4.753,0,0,1,1.621.275,3.724,3.724,0,0,1,1.352.848,3.987,3.987,0,0,1,.927,1.458,5.891,5.891,0,0,1,.338,2.1v.67H17.8V-5.512H23.3a2.369,2.369,0,0,0-.272-1.12,1.987,1.987,0,0,0-.74-.776,2.1,2.1,0,0,0-1.1-.284,2.144,2.144,0,0,0-1.177.323,2.252,2.252,0,0,0-.788.845,2.429,2.429,0,0,0-.287,1.144v1.286a3,3,0,0,0,.3,1.385,2.087,2.087,0,0,0,.827.881,2.455,2.455,0,0,0,1.244.3,2.59,2.59,0,0,0,.863-.136,1.88,1.88,0,0,0,.67-.4,1.685,1.685,0,0,0,.429-.658l2.04.229a3.175,3.175,0,0,1-.733,1.41,3.573,3.573,0,0,1-1.379.93A5.23,5.23,0,0,1,21.274.181ZM27.245,0V-9.273h2.119v1.545h.1a2.322,2.322,0,0,1,.872-1.241,2.391,2.391,0,0,1,1.416-.438q.181,0,.407.015a2.987,2.987,0,0,1,.377.045v2.01a2.4,2.4,0,0,0-.438-.088,4.43,4.43,0,0,0-.577-.039,2.214,2.214,0,0,0-1.072.257A1.916,1.916,0,0,0,29.7-6.5a1.99,1.99,0,0,0-.272,1.044V0Z" transform="translate(-4810 4582)" fill="#fff"/><path d="M93.953,39.514a1.679,1.679,0,0,1-.192.48A14.133,14.133,0,0,1,91.293,43a8.39,8.39,0,0,1-.9.629l-.72.046c-.348-.046-.7-.086-1.044-.149a14.311,14.311,0,0,1-4.375-1.68,37.174,37.174,0,0,1-6.4-4.679,37.379,37.379,0,0,1-4.991-5.2,15.244,15.244,0,0,1-2.475-4.345c-.134-.4-.226-.807-.336-1.2L70,25.686A6.255,6.255,0,0,1,71.568,23.4c.48-.495.975-.96,1.479-1.424a1.772,1.772,0,0,1,1.57-.432,1.239,1.239,0,0,1,.807.48c1.032,1.369,2.053,2.746,3.121,4.081h0a1.824,1.824,0,0,1,.264,1.921c-.13.343-.3.672-.456,1.006-.183.387-.365.776-.564,1.155h0a.274.274,0,0,0,.043.374c.72.737,1.407,1.508,2.161,2.216h0a33.814,33.814,0,0,0,4.485,3.673.375.375,0,0,0,.495,0q.875-.594,1.777-1.155a2.035,2.035,0,0,1,1.44-.355,1.35,1.35,0,0,1,.442.154q2.382,1.356,4.754,2.727a1.508,1.508,0,0,1,.569,1.692Z" transform="translate(-4944.007 4542.909)" fill="#fff"/></g><g transform="translate(-4854.709 4576.145)"><circle cx="23" cy="23" r="23" transform="translate(67.709 -2.145)" fill="#fff"/><circle cx="19" cy="19" r="19" transform="translate(71.709 1.855)"/><path d="M106.354,49.4H104.67V45.584a.714.714,0,0,0-.712-.712h-6.9v-3.3A1.25,1.25,0,0,0,95.8,40.319a1.265,1.265,0,0,0-1.257,1.257v3.3h-6.9a.714.714,0,0,0-.711.712V49.4h-1.66a.714.714,0,0,0-.712.712v5.241a.7.7,0,0,0,.712.712h1.66v3.818a.714.714,0,0,0,.711.712h16.34a.714.714,0,0,0,.712-.712V56.09h1.684a.714.714,0,0,0,.712-.712V50.113a.768.768,0,0,0-.735-.712Zm-16.245.83A1.968,1.968,0,1,1,92.078,52.2,1.963,1.963,0,0,1,90.109,50.232Zm9.557,6.617a.714.714,0,0,1-.712.711H92.623a.729.729,0,0,1-.712-.711v-.783a.729.729,0,0,1,.712-.712h6.332a.729.729,0,0,1,.712.712Zm-.142-4.672a1.968,1.968,0,1,1,1.968-1.968A1.963,1.963,0,0,1,99.524,52.177Z" transform="translate(-4.141 -31.675)" fill="#fff"/></g><g transform="translate(44.089 21.089)"><circle cx="17" cy="17" r="17" transform="translate(-4805.089 4537.911)" fill="#fff"/><circle cx="14" cy="14" r="14" transform="translate(-4802.089 4540.911)" fill="#d60000"/><rect width="22" height="6" rx="1" transform="translate(-4799.089 4551.911)" fill="#fff"/></g></g></svg>