<svg xmlns="http://www.w3.org/2000/svg" width="209" height="168" viewBox="0 0 209 168"><g transform="translate(4914 -4484)"><g transform="translate(0 -29)"><g transform="translate(-4914 4513)" fill="#fff" stroke="#eeeff3" stroke-width="1"><rect width="209" height="168" rx="3" stroke="none"/><rect x="0.5" y="0.5" width="208" height="167" rx="2.5" fill="none"/></g><path d="M3,0H206a3,3,0,0,1,3,3V16a0,0,0,0,1,0,0H0a0,0,0,0,1,0,0V3A3,3,0,0,1,3,0Z" transform="translate(-4914 4513)" fill="#eeeff3"/><circle cx="2" cy="2" r="2" transform="translate(-4908 4519)" fill="#b9c2c9"/><circle cx="2" cy="2" r="2" transform="translate(-4901 4519)" fill="#b9c2c9"/><circle cx="2" cy="2" r="2" transform="translate(-4894 4519)" fill="#b9c2c9"/></g><g transform="translate(0 -4)"><rect width="114" height="5" transform="translate(-4897 4537)" fill="#eeeff3"/><rect width="114" height="5" transform="translate(-4897 4527)" fill="#eeeff3"/><rect width="114" height="5" transform="translate(-4897 4517)" fill="#eeeff3"/><rect width="100" height="5" transform="translate(-4897 4547)" fill="#eeeff3"/><rect width="109" height="5" transform="translate(-4897 4557)" fill="#eeeff3"/><rect width="106" height="5" transform="translate(-4897 4567)" fill="#eeeff3"/><rect width="121" height="5" transform="translate(-4897 4587)" fill="#eeeff3"/><rect width="100" height="5" transform="translate(-4897 4597)" fill="#eeeff3"/><rect width="70" height="5" transform="translate(-4897 4607)" fill="#eeeff3"/><rect width="121" height="5" transform="translate(-4897 4627)" fill="#eeeff3"/><rect width="109" height="5" transform="translate(-4897 4637)" fill="#eeeff3"/></g><g transform="translate(1)"><path d="M0,0H105a0,0,0,0,1,0,0V150a2,2,0,0,1-2,2H0a0,0,0,0,1,0,0V0A0,0,0,0,1,0,0Z" transform="translate(-4811 4500)" fill="#63829a"/><rect width="99" height="8" transform="translate(-4808 4503)" fill="#86a0b5"/><rect width="99" height="73" transform="translate(-4808 4514)" fill="#86a0b5"/><rect width="50" height="59" transform="translate(-4808 4590)" fill="#86a0b5"/><rect width="46" height="40" transform="translate(-4755 4590)" fill="#86a0b5"/><rect width="46" height="16" transform="translate(-4755 4633)" fill="#86a0b5"/><rect width="38" height="32" transform="translate(-4751 4594)" fill="#63829a"/><rect width="32" height="26" transform="translate(-4748 4597)" fill="#86a0b5"/><rect width="26" height="20" transform="translate(-4745 4600)" fill="#63829a"/><rect width="20" height="14" transform="translate(-4742 4603)" fill="#86a0b5"/><path d="M309.337,236.124l-1.889,1.036a.2.2,0,0,0-.092.092l-1.052,1.867c-.082.184-.378.123-.45-.092l-1.431-4.524a.2.2,0,0,1,.266-.266l4.556,1.437c.215.071.276.368.092.45Z" transform="translate(-5110.548 4270.276)" fill="#fff"/><path d="M223.569,252.682a1.123,1.123,0,0,0-1.587-.062l-4.96,4.584a1.1,1.1,0,0,0-.29.482c-.005.015-.005.03-.01.045a1.072,1.072,0,0,0,0,.644c.005.015.005.03.01.045a1.1,1.1,0,0,0,.29.482l4.96,4.585a1.123,1.123,0,1,0,1.525-1.649l-4.093-3.784,4.093-3.784a1.125,1.125,0,0,0,.063-1.588Z" transform="translate(-5020.293 4268.414)" fill="#fff"/><path d="M406.379,258c-.005-.014-.005-.028-.01-.043a1.085,1.085,0,0,0-.29-.483l-4.96-4.585a1.123,1.123,0,1,0-1.525,1.649l4.094,3.784-4.094,3.784a1.123,1.123,0,0,0,1.526,1.649l4.96-4.585a1.086,1.086,0,0,0,.29-.483c.005-.014.005-.028.01-.043a1.1,1.1,0,0,0,.049-.324,1.115,1.115,0,0,0-.05-.321Z" transform="translate(-5187.234 4268.17)" fill="#fff"/><path d="M331.286,252.465a1.121,1.121,0,0,0-1.281.939l-1.419,9.217a1.123,1.123,0,1,0,2.219.343l1.419-9.218a1.122,1.122,0,0,0-.938-1.281Z" transform="translate(-5122.619 4268.295)" fill="#fff"/></g><g transform="translate(-27.911 14.089)"><circle cx="24" cy="24" r="24" transform="translate(-4805.089 4537.911)" fill="#fff"/><circle cx="20" cy="20" r="20" transform="translate(-4801.089 4541.911)" fill="#d60000"/><rect width="30" height="9" rx="2" transform="translate(-4796.089 4557.911)" fill="#fff"/></g><g transform="translate(-0.343)"><rect width="87.343" height="20" transform="translate(-4792 4484)" fill="#f7a000"/><path d="M-33,0l0-8h5.391v1.395l-3.7,0V-4.7h3.422V-3.3l-3.422,0v1.914l3.715,0V0Zm8.991-8,1.613,2.727h.063L-20.708-8h1.91L-21.24-4l2.5,4h-1.945l-1.641-2.73h-.062L-24.033,0H-25.97l2.5-4-2.457-4Zm13.636,2.8H-12.08a1.693,1.693,0,0,0-.191-.592,1.509,1.509,0,0,0-.371-.443,1.637,1.637,0,0,0-.521-.281,2.02,2.02,0,0,0-.639-.1,1.908,1.908,0,0,0-1.082.307,1.985,1.985,0,0,0-.715.891A3.543,3.543,0,0,0-15.854-4,3.572,3.572,0,0,0-15.6-2.562a1.936,1.936,0,0,0,.717.879,1.926,1.926,0,0,0,1.066.3,2.129,2.129,0,0,0,.631-.09,1.633,1.633,0,0,0,.518-.264,1.509,1.509,0,0,0,.377-.424,1.684,1.684,0,0,0,.209-.57l1.711.008a3.1,3.1,0,0,1-.33,1.061,3.2,3.2,0,0,1-.707.91,3.309,3.309,0,0,1-1.055.633,3.863,3.863,0,0,1-1.381.232,3.764,3.764,0,0,1-1.912-.484,3.422,3.422,0,0,1-1.328-1.4A4.694,4.694,0,0,1-17.569-4a4.657,4.657,0,0,1,.492-2.227,3.443,3.443,0,0,1,1.336-1.4,3.756,3.756,0,0,1,1.9-.482,4.121,4.121,0,0,1,1.291.2,3.293,3.293,0,0,1,1.057.568,2.981,2.981,0,0,1,.752.912A3.417,3.417,0,0,1-10.369-5.2ZM-8.48,0l0-8h1.691v6.605l3.426,0,0,1.391ZM3.371-8H5.063v5.2a2.8,2.8,0,0,1-.416,1.531A2.8,2.8,0,0,1,3.484-.252,3.909,3.909,0,0,1,1.746.113,3.918,3.918,0,0,1,0-.252a2.782,2.782,0,0,1-1.16-1.021A2.808,2.808,0,0,1-1.57-2.8V-8H.121v5.051a1.621,1.621,0,0,0,.2.813,1.439,1.439,0,0,0,.568.559,1.739,1.739,0,0,0,.855.2,1.736,1.736,0,0,0,.857-.2,1.443,1.443,0,0,0,.566-.559,1.621,1.621,0,0,0,.2-.812Zm8.093,2.3a.989.989,0,0,0-.4-.734A1.594,1.594,0,0,0,10.1-6.7a1.871,1.871,0,0,0-.7.115.983.983,0,0,0-.436.318.755.755,0,0,0-.15.461.649.649,0,0,0,.092.375.9.9,0,0,0,.275.275,1.967,1.967,0,0,0,.406.2,3.97,3.97,0,0,0,.492.143l.719.172a5.07,5.07,0,0,1,.961.313,2.919,2.919,0,0,1,.758.48,2.02,2.02,0,0,1,.5.672,2.143,2.143,0,0,1,.182.887,2.211,2.211,0,0,1-.373,1.271,2.377,2.377,0,0,1-1.062.832,4.257,4.257,0,0,1-1.67.295A4.386,4.386,0,0,1,8.4-.184a2.453,2.453,0,0,1-1.117-.881,2.608,2.608,0,0,1-.42-1.447H8.5a1.209,1.209,0,0,0,.232.67,1.246,1.246,0,0,0,.551.4,2.143,2.143,0,0,0,.783.135,2.041,2.041,0,0,0,.748-.125,1.145,1.145,0,0,0,.494-.348.8.8,0,0,0,.176-.512.67.67,0,0,0-.158-.453,1.235,1.235,0,0,0-.461-.312,4.762,4.762,0,0,0-.74-.234l-.871-.219a3.653,3.653,0,0,1-1.6-.77,1.785,1.785,0,0,1-.582-1.41,2.089,2.089,0,0,1,.389-1.27A2.6,2.6,0,0,1,8.546-7.8a3.819,3.819,0,0,1,1.563-.3,3.71,3.71,0,0,1,1.557.3,2.462,2.462,0,0,1,1.037.848A2.243,2.243,0,0,1,13.085-5.7ZM16.69-8V0H15l0-8ZM20.2-8l1.934,6.078h.074L24.146-8h1.875L23.263,0h-2.18L18.322-8Zm7.456,8,0-8h5.391v1.395l-3.7,0V-4.7h3.422V-3.3l-3.422,0v1.914l3.715,0V0Z" transform="translate(-4748 4498)" fill="#fff"/></g></g></svg>