<svg xmlns="http://www.w3.org/2000/svg" width="209" height="168" viewBox="0 0 209 168"><g transform="translate(4914 -4484)"><g transform="translate(0 -29)"><g transform="translate(-4914 4513)" fill="#fff" stroke="#eeeff3" stroke-width="1"><rect width="209" height="168" rx="3" stroke="none"/><rect x="0.5" y="0.5" width="208" height="167" rx="2.5" fill="none"/></g><path d="M3,0H206a3,3,0,0,1,3,3V16a0,0,0,0,1,0,0H0a0,0,0,0,1,0,0V3A3,3,0,0,1,3,0Z" transform="translate(-4914 4513)" fill="#eeeff3"/><circle cx="2" cy="2" r="2" transform="translate(-4908 4519)" fill="#b9c2c9"/><circle cx="2" cy="2" r="2" transform="translate(-4901 4519)" fill="#b9c2c9"/><circle cx="2" cy="2" r="2" transform="translate(-4894 4519)" fill="#b9c2c9"/></g><g transform="translate(-1 -4)"><rect width="119" height="5" transform="translate(-4898 4537)" fill="#eeeff3"/><rect width="119" height="5" transform="translate(-4898 4527)" fill="#eeeff3"/><rect width="119" height="5" transform="translate(-4898 4517)" fill="#eeeff3"/><rect width="119" height="5" transform="translate(-4898 4547)" fill="#eeeff3"/><rect width="114" height="5" transform="translate(-4898 4557)" fill="#eeeff3"/><rect width="106" height="5" transform="translate(-4898 4567)" fill="#eeeff3"/><rect width="126" height="5" transform="translate(-4898 4587)" fill="#eeeff3"/><rect width="119" height="5" transform="translate(-4898 4597)" fill="#eeeff3"/><rect width="70" height="5" transform="translate(-4898 4607)" fill="#eeeff3"/><rect width="119" height="5" transform="translate(-4898 4627)" fill="#eeeff3"/><rect width="128" height="5" transform="translate(-4898 4637)" fill="#eeeff3"/></g><rect width="44" height="45" transform="translate(-4764 4512)" fill="#eeeff3"/><rect width="44" height="52" transform="translate(-4764 4563)" fill="#eeeff3"/><rect width="44" height="16" transform="translate(-4764 4622)" fill="#eeeff3"/><g transform="translate(-2 -4)"><rect width="98" height="10" transform="translate(-4873 4534)" fill="#3390ff"/><rect width="125" height="11" transform="translate(-4900 4544)" fill="#3390ff"/><rect width="125" height="11" transform="translate(-4900 4554)" fill="#3390ff"/><rect width="125" height="12" transform="translate(-4900 4564)" fill="#3390ff"/><rect width="81" height="11" transform="translate(-4900 4584)" fill="#3390ff"/><rect width="92" height="5" transform="translate(-4870 4537)" fill="#fff"/><rect width="23" height="5" transform="translate(-4897 4537)" fill="#fff"/><rect width="24" height="5" transform="translate(-4897 4537)" fill="#eeeff3"/><rect width="119" height="5" transform="translate(-4897 4547)" fill="#fff"/><rect width="119" height="5" transform="translate(-4897 4557)" fill="#fff"/><rect width="119" height="5" transform="translate(-4897 4567)" fill="#fff"/><rect width="75" height="5" transform="translate(-4897 4587)" fill="#fff"/></g><g transform="translate(-4997.934 4575.821)"><g transform="translate(164.296 -1.721)"><path d="M8.2,33.695V4.9L29.076,25.776H16.838l-.72.18Z" transform="translate(0 0)" fill="#fff"/><path d="M23.937,30.476l-6.479,2.7L9,13.2l6.659-2.7Z" transform="translate(0.64 4.478)" fill="#fff"/><rect width="3.599" height="14.397" transform="translate(13.294 21.804) rotate(-22.773)"/><path d="M9.2,7.3V27.456l5.4-5.219.72-.18h8.638Z" transform="translate(0.8 1.919)"/></g></g><g transform="translate(-9.911 26.089)"><circle cx="17" cy="17" r="17" transform="translate(-4805.089 4537.911)" fill="#fff"/><circle cx="14" cy="14" r="14" transform="translate(-4802.089 4540.911)" fill="#d60000"/><rect width="22" height="6" rx="1" transform="translate(-4799.089 4551.911)" fill="#fff"/></g></g></svg>