<svg xmlns="http://www.w3.org/2000/svg" width="90" height="90" viewBox="0 0 90 90"><g transform="translate(-322 -118)"><rect width="90" height="90" transform="translate(322 118)" fill="#ab0023"/><g transform="translate(343.536 134.548)"><path d="M161.993,22.426a1.973,1.973,0,0,0-.74.226l-23.026,12.5A1.973,1.973,0,0,0,137.2,36.9c0,14.982,3.12,24.711,7.771,31.558s10.72,10.683,16.16,14.165a1.975,1.975,0,0,0,2.138,0c5.44-3.483,11.508-7.318,16.16-14.165S187.2,51.882,187.2,36.9a1.974,1.974,0,0,0-1.028-1.748l-23.027-12.5h0a1.975,1.975,0,0,0-1.151-.226Z" transform="translate(-138.735 -24.223)" fill="#fff"/><path d="M-2.909-14.316V0H-5.985V-10.84a3.684,3.684,0,0,1-.6.425,6.2,6.2,0,0,1-.737.361,6.584,6.584,0,0,1-.811.273,5.92,5.92,0,0,1-.83.161v-2.6a12.832,12.832,0,0,0,2.266-.9,12.894,12.894,0,0,0,1.924-1.2ZM.311-3.77A3.728,3.728,0,0,1,.482-4.9,3.418,3.418,0,0,1,.995-5.9a3.774,3.774,0,0,1,.854-.83,4.59,4.59,0,0,1,1.206-.6A4.325,4.325,0,0,1,1.4-8.687a3.091,3.091,0,0,1-.586-1.831A3.312,3.312,0,0,1,1.156-12a3.6,3.6,0,0,1,.933-1.182,4.362,4.362,0,0,1,1.421-.776,5.606,5.606,0,0,1,1.8-.278,5.716,5.716,0,0,1,1.826.278,4.466,4.466,0,0,1,1.431.771A3.5,3.5,0,0,1,9.5-12.021a3.269,3.269,0,0,1,.332,1.465,2.907,2.907,0,0,1-.625,1.812A4.653,4.653,0,0,1,7.479-7.4a4.712,4.712,0,0,1,1.2.6,3.866,3.866,0,0,1,.869.835,3.42,3.42,0,0,1,.527,1.021A3.757,3.757,0,0,1,10.253-3.8a3.667,3.667,0,0,1-.361,1.636A3.723,3.723,0,0,1,8.871-.894,4.816,4.816,0,0,1,7.3-.068,6.575,6.575,0,0,1,5.282.225a6.609,6.609,0,0,1-2-.288A4.8,4.8,0,0,1,1.713-.879,3.782,3.782,0,0,1,.682-2.144,3.565,3.565,0,0,1,.311-3.77Zm2.92-.264a2.379,2.379,0,0,0,.146.859,1.758,1.758,0,0,0,.42.645,1.876,1.876,0,0,0,.649.405,2.382,2.382,0,0,0,.845.142,2.254,2.254,0,0,0,.825-.146,1.936,1.936,0,0,0,.649-.41,1.866,1.866,0,0,0,.43-.645,2.219,2.219,0,0,0,.156-.85,2.211,2.211,0,0,0-.146-.8,1.9,1.9,0,0,0-.42-.659,2.074,2.074,0,0,0-.649-.444A2.07,2.07,0,0,0,5.292-6.1a2.2,2.2,0,0,0-.82.151,1.876,1.876,0,0,0-.654.43,2.027,2.027,0,0,0-.43.659A2.166,2.166,0,0,0,3.231-4.033Zm.43-6.2a1.85,1.85,0,0,0,.132.7,1.8,1.8,0,0,0,.356.566,1.629,1.629,0,0,0,.532.376,1.581,1.581,0,0,0,.649.137,1.571,1.571,0,0,0,.654-.137,1.664,1.664,0,0,0,.532-.381,1.83,1.83,0,0,0,.361-.566,1.813,1.813,0,0,0,.132-.693,1.94,1.94,0,0,0-.127-.708,1.693,1.693,0,0,0-.356-.566,1.685,1.685,0,0,0-.537-.376,1.6,1.6,0,0,0-.659-.137,1.6,1.6,0,0,0-.679.142,1.636,1.636,0,0,0-.527.381,1.712,1.712,0,0,0-.342.566A1.981,1.981,0,0,0,3.661-10.234Z" transform="translate(18.464 33.83)" fill="#a70929"/><path d="M1.09-4V-.721H-1.09V-4H-4.342V-6.17H-1.09V-9.431H1.09V-6.17H4.368V-4Z" transform="translate(34.899 31.86)" fill="#a70929"/></g></g></svg>