<svg xmlns="http://www.w3.org/2000/svg" width="209" height="168" viewBox="0 0 209 168"><g transform="translate(4914 -4484)"><g transform="translate(0 -29)"><g transform="translate(-4914 4513)" fill="#fff" stroke="#eeeff3" stroke-width="1"><rect width="209" height="168" rx="3" stroke="none"/><rect x="0.5" y="0.5" width="208" height="167" rx="2.5" fill="none"/></g><path d="M3,0H206a3,3,0,0,1,3,3V16a0,0,0,0,1,0,0H0a0,0,0,0,1,0,0V3A3,3,0,0,1,3,0Z" transform="translate(-4914 4513)" fill="#eeeff3"/><circle cx="2" cy="2" r="2" transform="translate(-4908 4519)" fill="#b9c2c9"/><circle cx="2" cy="2" r="2" transform="translate(-4901 4519)" fill="#b9c2c9"/><circle cx="2" cy="2" r="2" transform="translate(-4894 4519)" fill="#b9c2c9"/></g><g transform="translate(0 -2)"><g transform="translate(-3 -2)"><rect width="114" height="5" transform="translate(-4897 4537)" fill="#eeeff3"/><rect width="114" height="5" transform="translate(-4897 4527)" fill="#eeeff3"/><rect width="114" height="5" transform="translate(-4897 4517)" fill="#eeeff3"/><rect width="100" height="5" transform="translate(-4897 4547)" fill="#eeeff3"/><rect width="109" height="5" transform="translate(-4897 4557)" fill="#eeeff3"/><rect width="106" height="5" transform="translate(-4897 4567)" fill="#eeeff3"/><rect width="121" height="5" transform="translate(-4897 4587)" fill="#eeeff3"/><rect width="100" height="5" transform="translate(-4897 4597)" fill="#eeeff3"/><rect width="70" height="5" transform="translate(-4897 4607)" fill="#eeeff3"/><rect width="121" height="5" transform="translate(-4897 4627)" fill="#eeeff3"/><rect width="109" height="5" transform="translate(-4897 4637)" fill="#eeeff3"/></g><rect width="44" height="45" transform="translate(-4762 4515)" fill="#eeeff3"/><rect width="44" height="52" transform="translate(-4762 4566)" fill="#eeeff3"/><rect width="44" height="16" transform="translate(-4762 4625)" fill="#eeeff3"/></g><g transform="translate(23 -4)"><rect width="113" height="42" rx="3" transform="translate(-4889 4555)" fill="#fff"/><rect width="105" height="35" rx="2" transform="translate(-4885 4558)" fill="#63829a"/><path d="M242.314,159.6a12.111,12.111,0,0,0-10.771-11.231,12.005,12.005,0,1,0-2.4,23.89,9.863,9.863,0,0,0,1.225.051A11.451,11.451,0,0,0,237,170.27a1.14,1.14,0,1,0-1.276-1.889,9.7,9.7,0,0,1-12.2-14.957,9.685,9.685,0,0,1,16.539,6.279,10.142,10.142,0,0,1-.511,3.726,2.211,2.211,0,0,1-2.093,1.48,2.179,2.179,0,0,1-2.195-2.195v-7.2a1.187,1.187,0,0,0-1.174-1.174,1.155,1.155,0,0,0-1.174,1.174v.358a5.366,5.366,0,0,0-3.216-1.021,5.488,5.488,0,1,0,3.573,9.648,4.52,4.52,0,0,0,8.423-.255,14.366,14.366,0,0,0,.613-4.645ZM229.7,163.532a3.216,3.216,0,1,1,3.216-3.216A3.236,3.236,0,0,1,229.7,163.532Z" transform="translate(-5093.317 4414.689)" fill="#fff"/><path d="M-22.12,0V-13.091h8.508l.006,1.988h-6.149l.006,3.554,5.7.006.006,1.982h-5.708l.006,3.573h6.188L-13.554,0Zm10.835,0V-9.818h2.212V-8.15h.115A2.621,2.621,0,0,1-7.942-9.47a2.968,2.968,0,0,1,1.694-.476,2.857,2.857,0,0,1,1.684.483A2.563,2.563,0,0,1-3.6-8.15h.1a2.7,2.7,0,0,1,1.1-1.307A3.389,3.389,0,0,1-.547-9.946a2.993,2.993,0,0,1,2.212.857,3.386,3.386,0,0,1,.857,2.5V0H.2V-6.232A1.69,1.69,0,0,0-.284-7.571,1.742,1.742,0,0,0-1.473-8a1.67,1.67,0,0,0-1.307.521,1.941,1.941,0,0,0-.47,1.352V0H-5.52V-6.328a1.635,1.635,0,0,0-.457-1.214A1.619,1.619,0,0,0-7.169-8a1.694,1.694,0,0,0-.908.252,1.812,1.812,0,0,0-.652.71A2.235,2.235,0,0,0-8.971-5.97V0ZM7.7.2A4.041,4.041,0,0,1,6.021-.137a2.7,2.7,0,0,1-1.176-.994,2.9,2.9,0,0,1-.431-1.624,2.768,2.768,0,0,1,.307-1.374A2.374,2.374,0,0,1,5.558-5a4.286,4.286,0,0,1,1.2-.5A9.925,9.925,0,0,1,8.14-5.74Q9-5.83,9.54-5.9a2.03,2.03,0,0,0,.783-.23.538.538,0,0,0,.246-.489v-.038a1.448,1.448,0,0,0-.428-1.119,1.752,1.752,0,0,0-1.234-.4A2.2,2.2,0,0,0,7.562-7.8a1.834,1.834,0,0,0-.668.876L4.733-7.236a3.474,3.474,0,0,1,.844-1.5,3.719,3.719,0,0,1,1.438-.908,5.554,5.554,0,0,1,1.879-.3,6.122,6.122,0,0,1,1.413.166,4.015,4.015,0,0,1,1.285.547A2.813,2.813,0,0,1,12.528-8.2a3.38,3.38,0,0,1,.355,1.63V0H10.659V-1.349h-.077a2.808,2.808,0,0,1-.591.764,2.832,2.832,0,0,1-.952.569A3.814,3.814,0,0,1,7.7.2Zm.6-1.7A2.492,2.492,0,0,0,9.508-1.78a2.033,2.033,0,0,0,.789-.738,1.905,1.905,0,0,0,.278-1V-4.679a1.087,1.087,0,0,1-.368.166,5.434,5.434,0,0,1-.578.134q-.32.058-.633.1L8.453-4.2a4.041,4.041,0,0,0-.927.23,1.553,1.553,0,0,0-.646.444,1.106,1.106,0,0,0-.237.732,1.1,1.1,0,0,0,.467.965A2.029,2.029,0,0,0,8.3-1.5ZM15.216,0V-9.818h2.308L17.53,0ZM16.38-11.212a1.326,1.326,0,0,1-.943-.371,1.179,1.179,0,0,1-.393-.888,1.148,1.148,0,0,1,.387-.885,1.34,1.34,0,0,1,.949-.368,1.323,1.323,0,0,1,.946.371,1.176,1.176,0,0,1,.39.882,1.155,1.155,0,0,1-.387.892A1.34,1.34,0,0,1,16.38-11.212Zm5.836-1.879L22.222,0H19.908V-13.091Z" transform="translate(-4821 4582)" fill="#fff"/></g><g transform="translate(-4858.709 4576.145)"><circle cx="23" cy="23" r="23" transform="translate(67.709 -2.145)" fill="#fff"/><circle cx="19" cy="19" r="19" transform="translate(71.709 1.855)"/><path d="M106.354,49.4H104.67V45.584a.714.714,0,0,0-.712-.712h-6.9v-3.3A1.25,1.25,0,0,0,95.8,40.319a1.265,1.265,0,0,0-1.257,1.257v3.3h-6.9a.714.714,0,0,0-.711.712V49.4h-1.66a.714.714,0,0,0-.712.712v5.241a.7.7,0,0,0,.712.712h1.66v3.818a.714.714,0,0,0,.711.712h16.34a.714.714,0,0,0,.712-.712V56.09h1.684a.714.714,0,0,0,.712-.712V50.113a.768.768,0,0,0-.735-.712Zm-16.245.83A1.968,1.968,0,1,1,92.078,52.2,1.963,1.963,0,0,1,90.109,50.232Zm9.557,6.617a.714.714,0,0,1-.712.711H92.623a.729.729,0,0,1-.712-.711v-.783a.729.729,0,0,1,.712-.712h6.332a.729.729,0,0,1,.712.712Zm-.142-4.672a1.968,1.968,0,1,1,1.968-1.968A1.963,1.963,0,0,1,99.524,52.177Z" transform="translate(-4.141 -31.675)" fill="#fff"/></g><g transform="translate(40.089 21.089)"><circle cx="17" cy="17" r="17" transform="translate(-4805.089 4537.911)" fill="#fff"/><circle cx="14" cy="14" r="14" transform="translate(-4802.089 4540.911)" fill="#d60000"/><rect width="22" height="6" rx="1" transform="translate(-4799.089 4551.911)" fill="#fff"/></g></g></svg>