<svg xmlns="http://www.w3.org/2000/svg" width="209" height="168" viewBox="0 0 209 168"><g transform="translate(4914 -4484)"><g transform="translate(0 -29)"><g transform="translate(-4914 4513)" fill="#fff" stroke="#eeeff3" stroke-width="1"><rect width="209" height="168" rx="3" stroke="none"/><rect x="0.5" y="0.5" width="208" height="167" rx="2.5" fill="none"/></g><path d="M3,0H206a3,3,0,0,1,3,3V16a0,0,0,0,1,0,0H0a0,0,0,0,1,0,0V3A3,3,0,0,1,3,0Z" transform="translate(-4914 4513)" fill="#eeeff3"/><circle cx="2" cy="2" r="2" transform="translate(-4908 4519)" fill="#b9c2c9"/><circle cx="2" cy="2" r="2" transform="translate(-4901 4519)" fill="#b9c2c9"/><circle cx="2" cy="2" r="2" transform="translate(-4894 4519)" fill="#b9c2c9"/></g><g transform="translate(0 6)"><rect width="169" height="5" transform="translate(-4897 4537)" fill="#fff"/><rect width="169" height="5" transform="translate(-4897 4512)" fill="#eeeff3"/><rect width="160" height="5" transform="translate(-4897 4522)" fill="#eeeff3"/><rect width="137" height="5" transform="translate(-4897 4532)" fill="#eeeff3"/><rect width="93" height="5" transform="translate(-4897 4542)" fill="#eeeff3"/><rect width="169" height="5" transform="translate(-4897 4593)" fill="#eeeff3"/><rect width="142" height="5" transform="translate(-4897 4603)" fill="#eeeff3"/><rect width="160" height="5" transform="translate(-4897 4613)" fill="#eeeff3"/><rect width="93" height="5" transform="translate(-4897 4623)" fill="#eeeff3"/><g transform="translate(-4992.154 4435.8)"><rect width="175" height="19" rx="2" transform="translate(96.154 124.2)" fill="#63829a"/><path d="M291.049,195.817l7.063-4.168a.82.82,0,0,0,0-1.409l-7.063-4.168a.819.819,0,0,0-1.229.7v8.33a.82.82,0,0,0,1.229.71Z" transform="translate(-187.596 -57.277)" fill="#fff"/><path d="M103.9-1.055,99.235.43A1.371,1.371,0,0,0,98.28,1.7V6.585a1.262,1.262,0,0,0-1.061-.212A2.25,2.25,0,0,0,95.2,8.283c0,.849.849,1.38,2.016,1.273a2.021,2.021,0,0,0,1.8-1.8V3.614c0-.424.531-.637.531-.637L103.586,1.7s.424-.106.424.318v3.29a2.121,2.121,0,0,0-1.167-.106,2.044,2.044,0,0,0-1.91,1.8c0,.849.849,1.38,1.91,1.273a2.067,2.067,0,0,0,2.016-1.8V-.312a.744.744,0,0,0-.955-.743Z" transform="translate(159.579 129.275)" fill="#fff"/><rect width="99" height="3" transform="translate(117.154 132.2)" fill="#fff" opacity="0.3"/><rect width="32" height="3" transform="translate(117.154 132.2)" fill="#fff"/><circle cx="2.5" cy="2.5" r="2.5" transform="translate(146.154 131.2)" fill="#fff"/></g><g transform="translate(-4930.271 4812.281)"><circle cx="23" cy="23" r="23" transform="translate(133.271 -251.281)" fill="#fff"/><path d="M459.562,296.794a19.962,19.962,0,1,0,19.962,19.962A19.962,19.962,0,0,0,459.562,296.794Zm0,7.13a2.851,2.851,0,0,1,2.852,2.852v13.1l2.273-2.273a2.824,2.824,0,0,1,4.01,0,2.8,2.8,0,0,1,0,4.01c-2.37,2.283-4.711,4.925-7.085,7.041a2.713,2.713,0,0,1-4.1,0c-2.332-2.158-4.765-4.707-7.085-7.041a2.836,2.836,0,0,1,4.01-4.01l2.273,2.273v-13.1A2.851,2.851,0,0,1,459.562,303.924Z" transform="translate(-303 -545)"/></g></g><g transform="translate(33.089 15.089)"><circle cx="17" cy="17" r="17" transform="translate(-4805.089 4537.911)" fill="#fff"/><circle cx="14" cy="14" r="14" transform="translate(-4802.089 4540.911)" fill="#d60000"/><rect width="22" height="6" rx="1" transform="translate(-4799.089 4551.911)" fill="#fff"/></g></g></svg>