<svg xmlns="http://www.w3.org/2000/svg" width="300" height="208" viewBox="0 0 300 208"><g transform="translate(-242 -368)"><rect width="300" height="208" transform="translate(242 368)" fill="#0066eb"/><g transform="translate(5202 -4076)"><g transform="translate(0 -29)"><path d="M3,0H206a3,3,0,0,1,3,3V168a0,0,0,0,1,0,0H0a0,0,0,0,1,0,0V3A3,3,0,0,1,3,0Z" transform="translate(-4914 4513)" fill="#fff"/><path d="M3,0H206a3,3,0,0,1,3,3V17a0,0,0,0,1,0,0H0a0,0,0,0,1,0,0V3A3,3,0,0,1,3,0Z" transform="translate(-4914 4513)" fill="#f5f7f9"/><circle cx="2.5" cy="2.5" r="2.5" transform="translate(-4908 4519)" fill="#d8d8d8"/><circle cx="2.5" cy="2.5" r="2.5" transform="translate(-4901 4519)" fill="#d8d8d8"/><circle cx="2.5" cy="2.5" r="2.5" transform="translate(-4894 4519)" fill="#d8d8d8"/></g><rect width="179" height="5" transform="translate(-4899 4513)" fill="#eeeff3"/><rect width="60" height="5" transform="translate(-4899 4523)" fill="#eeeff3"/><g transform="translate(0 124)"><rect width="179" height="5" transform="translate(-4899 4513)" fill="#eeeff3"/></g><g transform="translate(0 134)"><rect width="103" height="5" transform="translate(-4899 4513)" fill="#eeeff3"/></g><g transform="translate(0 26)"><g transform="translate(-4899 4513)" fill="rgba(0,102,235,0.22)" stroke="#0066eb" stroke-width="3"><rect width="179" height="87" stroke="none"/><rect x="1.5" y="1.5" width="176" height="84" fill="none"/></g><text transform="translate(-4899 4525)" fill="#0066eb" font-size="14" font-family="Inter" font-weight="700"><tspan x="20.44" y="14">Password Protected</tspan></text><rect width="60" height="5" transform="translate(-4839 4545)" fill="#fff"/><rect width="88" height="5" transform="translate(-4853 4553)" fill="#fff"/><g transform="translate(17 -4)"><g transform="translate(-4874 4571)" fill="#fff" stroke="#0066eb" stroke-width="3"><rect width="95" height="20" stroke="none"/><rect x="-1.5" y="-1.5" width="98" height="23" fill="none"/></g><path d="M335.409,258.327c-.292-.511-1.489-1.292-2-1l-1,1v-2a.962.962,0,0,0-1-1c-.584,0-2,.416-2,1v2l-1-1c-.512-.292-1.708.489-2,1s.488.708,1,1l1,1-1,1c-.512.292-1.292.489-1,1,.219.365.635,1,1,1a4.552,4.552,0,0,0,1,0l1-1v2a1,1,0,0,0,2,0v-2l2,1a4.59,4.59,0,0,0,1,0c.365,0,.854-.708,1-1,.292-.512-.489-.708-1-1l-2-1,2-1C334.993,258.962,335.7,258.766,335.409,258.327Z" transform="translate(-5157.409 4320.673)" fill="#0066eb"/><path d="M335.409,258.327c-.292-.511-1.489-1.292-2-1l-1,1v-2a.962.962,0,0,0-1-1c-.584,0-2,.416-2,1v2l-1-1c-.512-.292-1.708.489-2,1s.488.708,1,1l1,1-1,1c-.512.292-1.292.489-1,1,.219.365.635,1,1,1a4.552,4.552,0,0,0,1,0l1-1v2a1,1,0,0,0,2,0v-2l2,1a4.59,4.59,0,0,0,1,0c.365,0,.854-.708,1-1,.292-.512-.489-.708-1-1l-2-1,2-1C334.993,258.962,335.7,258.766,335.409,258.327Z" transform="translate(-5170.409 4320.673)" fill="#0066eb"/><path d="M335.409,258.327c-.292-.511-1.489-1.292-2-1l-1,1v-2a.962.962,0,0,0-1-1c-.584,0-2,.416-2,1v2l-1-1c-.512-.292-1.708.489-2,1s.488.708,1,1l1,1-1,1c-.512.292-1.292.489-1,1,.219.365.635,1,1,1a4.552,4.552,0,0,0,1,0l1-1v2a1,1,0,0,0,2,0v-2l2,1a4.59,4.59,0,0,0,1,0c.365,0,.854-.708,1-1,.292-.512-.489-.708-1-1l-2-1,2-1C334.993,258.962,335.7,258.766,335.409,258.327Z" transform="translate(-5144.409 4320.673)" fill="#0066eb"/><path d="M335.409,258.327c-.292-.511-1.489-1.292-2-1l-1,1v-2a.962.962,0,0,0-1-1c-.584,0-2,.416-2,1v2l-1-1c-.512-.292-1.708.489-2,1s.488.708,1,1l1,1-1,1c-.512.292-1.292.489-1,1,.219.365.635,1,1,1a4.552,4.552,0,0,0,1,0l1-1v2a1,1,0,0,0,2,0v-2l2,1a4.59,4.59,0,0,0,1,0c.365,0,.854-.708,1-1,.292-.512-.489-.708-1-1l-2-1,2-1C334.993,258.962,335.7,258.766,335.409,258.327Z" transform="translate(-5131.409 4320.673)" fill="#0066eb"/><path d="M335.409,258.327c-.292-.511-1.489-1.292-2-1l-1,1v-2a.962.962,0,0,0-1-1c-.584,0-2,.416-2,1v2l-1-1c-.512-.292-1.708.489-2,1s.488.708,1,1l1,1-1,1c-.512.292-1.292.489-1,1,.219.365.635,1,1,1a4.552,4.552,0,0,0,1,0l1-1v2a1,1,0,0,0,2,0v-2l2,1a4.59,4.59,0,0,0,1,0c.365,0,.854-.708,1-1,.292-.512-.489-.708-1-1l-2-1,2-1C334.993,258.962,335.7,258.766,335.409,258.327Z" transform="translate(-5183.409 4320.673)" fill="#0066eb"/></g></g></g></g></svg>