<svg xmlns="http://www.w3.org/2000/svg" width="300" height="208" viewBox="0 0 300 208"><g transform="translate(-242 -368)"><rect width="300" height="208" transform="translate(242 368)" fill="#001edf"/><g transform="translate(5202 -4076)"><g transform="translate(0 -29)"><path d="M3,0H206a3,3,0,0,1,3,3V168a0,0,0,0,1,0,0H0a0,0,0,0,1,0,0V3A3,3,0,0,1,3,0Z" transform="translate(-4914 4513)" fill="#fff"/><path d="M3,0H206a3,3,0,0,1,3,3V17a0,0,0,0,1,0,0H0a0,0,0,0,1,0,0V3A3,3,0,0,1,3,0Z" transform="translate(-4914 4513)" fill="#f5f7f9"/><circle cx="2.5" cy="2.5" r="2.5" transform="translate(-4908 4519)" fill="#d8d8d8"/><circle cx="2.5" cy="2.5" r="2.5" transform="translate(-4901 4519)" fill="#d8d8d8"/><circle cx="2.5" cy="2.5" r="2.5" transform="translate(-4894 4519)" fill="#d8d8d8"/></g><rect width="44" height="45" transform="translate(-4764 4513)" fill="#f5f7f9"/><rect width="44" height="52" transform="translate(-4764 4564)" fill="#f5f7f9"/><rect width="44" height="29" transform="translate(-4764 4623)" fill="#f5f7f9"/><g transform="translate(-2 -3)"><rect width="86" height="5" transform="translate(-4898 4537)" fill="#eeeff3"/><rect width="119" height="5" transform="translate(-4898 4527)" fill="#eeeff3"/><rect width="119" height="5" transform="translate(-4898 4517)" fill="#eeeff3"/><rect width="119" height="5" transform="translate(-4898 4627)" fill="#eeeff3"/><rect width="128" height="5" transform="translate(-4898 4637)" fill="#eeeff3"/><rect width="56" height="5" transform="translate(-4898 4647)" fill="#eeeff3"/><path d="M131.6,123.2v54.329l31.371-29.052h0a3.2,3.2,0,0,1,1.717-.806,3.27,3.27,0,0,1,2.765.891l27.51,27.356,21.6-16.795a3.384,3.384,0,0,1,4.2.17L250.6,186.985V123.2h-119Zm64.076,10.857c5.056,0,9.154,3.646,9.154,8.143s-4.1,8.143-9.154,8.143-9.154-3.646-9.154-8.143S190.62,134.057,195.676,134.057ZM165.068,154.37l-33.468,31V199.2h78.57Zm53.3,10.56-19.309,15.056L218.37,199.2H250.6V194.83Z" transform="translate(-5029.6 4427.8)" fill="#001edf" opacity="0.22"/><rect width="67" height="17" transform="translate(-4846 4610)" fill="#001edf"/><text transform="translate(-4812.5 4622)" fill="#fff" font-size="9" font-family="Inter" font-weight="600" letter-spacing="0.004em"><tspan x="-29.717" y="0">YOUR BRAND</tspan></text></g></g></g></svg>