<svg xmlns="http://www.w3.org/2000/svg" width="209" height="168" viewBox="0 0 209 168"><g transform="translate(4914 -4484)"><g transform="translate(0 -29)"><g transform="translate(-4914 4513)" fill="#fff" stroke="#eeeff3" stroke-width="1"><rect width="209" height="168" rx="3" stroke="none"/><rect x="0.5" y="0.5" width="208" height="167" rx="2.5" fill="none"/></g><path d="M3,0H206a3,3,0,0,1,3,3V16a0,0,0,0,1,0,0H0a0,0,0,0,1,0,0V3A3,3,0,0,1,3,0Z" transform="translate(-4914 4513)" fill="#eeeff3"/><circle cx="2" cy="2" r="2" transform="translate(-4908 4519)" fill="#b9c2c9"/><circle cx="2" cy="2" r="2" transform="translate(-4901 4519)" fill="#b9c2c9"/><circle cx="2" cy="2" r="2" transform="translate(-4894 4519)" fill="#b9c2c9"/></g><g transform="translate(-2 -4)"><rect width="114" height="5" transform="translate(-4897 4527)" fill="#eeeff3"/><rect width="114" height="5" transform="translate(-4897 4517)" fill="#eeeff3"/><rect width="109" height="5" transform="translate(-4897 4627)" fill="#eeeff3"/><rect width="92" height="5" transform="translate(-4897 4637)" fill="#eeeff3"/></g><rect width="52" height="14" transform="translate(-4772 4513)" fill="#eeeff3"/><rect width="179" height="78" rx="3" transform="translate(-4899 4537)" fill="#63829a"/><g transform="translate(46.089 51.089)"><circle cx="24" cy="24" r="24" transform="translate(-4805.089 4537.911)" fill="#fff"/><circle cx="20" cy="20" r="20" transform="translate(-4801.089 4541.911)" fill="#d60000"/><rect width="30" height="9" rx="2" transform="translate(-4796.089 4557.911)" fill="#fff"/></g><g transform="translate(-1.831 -2.701)"><path d="M235.528,253.308a3.069,3.069,0,0,0-4.34-.17l-13.56,12.534a3,3,0,0,0-.792,1.319c-.015.041-.015.082-.028.122a2.93,2.93,0,0,0,0,1.76c.015.041.015.082.028.122a3,3,0,0,0,.792,1.319l13.56,12.537a3.07,3.07,0,1,0,4.169-4.509L224.167,268l11.19-10.345a3.076,3.076,0,0,0,.171-4.343Z" transform="translate(-5055.22 4310.679)" fill="#fff"/><path d="M418.769,267.377c-.015-.039-.015-.078-.028-.117a2.966,2.966,0,0,0-.792-1.32L404.389,253.4a3.071,3.071,0,0,0-4.17,4.509l11.192,10.345L400.219,278.6a3.071,3.071,0,0,0,4.171,4.509l13.56-12.537a2.967,2.967,0,0,0,.792-1.32c.015-.039.015-.078.028-.117a3.007,3.007,0,0,0,.135-.885,3.049,3.049,0,0,0-.137-.876Z" transform="translate(-5195.076 4310.475)" fill="#fff"/><path d="M335.992,252.49a3.064,3.064,0,0,0-3.5,2.567l-3.881,25.2a3.072,3.072,0,0,0,2.567,3.5,3.063,3.063,0,0,0,3.5-2.565l3.881-25.2a3.067,3.067,0,0,0-2.564-3.5Z" transform="translate(-5140.945 4310.58)" fill="#fff"/></g></g></svg>