<svg xmlns="http://www.w3.org/2000/svg" width="209" height="168" viewBox="0 0 209 168"><g transform="translate(4914 -4483)"><g transform="translate(0 -30)"><g transform="translate(-4914 4513)" fill="#fff" stroke="#eeeff3" stroke-width="1"><rect width="209" height="168" rx="3" stroke="none"/><rect x="0.5" y="0.5" width="208" height="167" rx="2.5" fill="none"/></g><path d="M3,0H206a3,3,0,0,1,3,3V16a0,0,0,0,1,0,0H0a0,0,0,0,1,0,0V3A3,3,0,0,1,3,0Z" transform="translate(-4914 4513)" fill="#eeeff3"/><circle cx="2" cy="2" r="2" transform="translate(-4908 4519)" fill="#b9c2c9"/><circle cx="2" cy="2" r="2" transform="translate(-4901 4519)" fill="#b9c2c9"/><circle cx="2" cy="2" r="2" transform="translate(-4894 4519)" fill="#b9c2c9"/></g><g transform="translate(0 -4)"><g transform="translate(-3 -2)"><rect width="114" height="5" transform="translate(-4897 4537)" fill="#eeeff3"/><rect width="114" height="5" transform="translate(-4897 4527)" fill="#eeeff3"/><rect width="114" height="5" transform="translate(-4897 4517)" fill="#eeeff3"/><rect width="100" height="5" transform="translate(-4897 4547)" fill="#eeeff3"/><rect width="109" height="5" transform="translate(-4897 4557)" fill="#eeeff3"/><rect width="106" height="5" transform="translate(-4897 4567)" fill="#eeeff3"/><rect width="121" height="5" transform="translate(-4897 4587)" fill="#eeeff3"/><rect width="100" height="5" transform="translate(-4897 4597)" fill="#eeeff3"/><rect width="70" height="5" transform="translate(-4897 4607)" fill="#eeeff3"/><rect width="121" height="5" transform="translate(-4897 4627)" fill="#eeeff3"/><rect width="109" height="5" transform="translate(-4897 4637)" fill="#eeeff3"/></g><rect width="44" height="45" transform="translate(-4762 4515)" fill="#eeeff3"/><rect width="44" height="52" transform="translate(-4762 4566)" fill="#eeeff3"/><rect width="44" height="16" transform="translate(-4762 4625)" fill="#eeeff3"/></g><g transform="translate(25 -4)"><rect width="113" height="42" rx="3" transform="translate(-4889 4555)" fill="#fff"/><rect width="105" height="35" rx="2" transform="translate(-4885 4558)" fill="#63829a"/><path d="M-39.79-13.091h2.352v9.2a4.3,4.3,0,0,1-.537,2.176,3.566,3.566,0,0,1-1.48,1.4,4.758,4.758,0,0,1-2.208.489,4.991,4.991,0,0,1-2.068-.412,3.35,3.35,0,0,1-1.454-1.224,3.585,3.585,0,0,1-.537-2.02h2.359a1.807,1.807,0,0,0,.233.914,1.511,1.511,0,0,0,.63.588,2.019,2.019,0,0,0,.927.2,1.832,1.832,0,0,0,.965-.24,1.516,1.516,0,0,0,.6-.713,2.961,2.961,0,0,0,.214-1.163ZM-32.139.2a4.041,4.041,0,0,1-1.678-.336,2.7,2.7,0,0,1-1.176-.994,2.9,2.9,0,0,1-.431-1.624,2.768,2.768,0,0,1,.307-1.374A2.375,2.375,0,0,1-34.281-5a4.286,4.286,0,0,1,1.2-.5A9.925,9.925,0,0,1-31.7-5.74q.863-.089,1.4-.163a2.03,2.03,0,0,0,.783-.23.538.538,0,0,0,.246-.489v-.038A1.448,1.448,0,0,0-29.7-7.779a1.752,1.752,0,0,0-1.234-.4,2.2,2.2,0,0,0-1.346.371,1.834,1.834,0,0,0-.668.876l-2.161-.307a3.474,3.474,0,0,1,.844-1.5,3.719,3.719,0,0,1,1.438-.908,5.554,5.554,0,0,1,1.879-.3,6.122,6.122,0,0,1,1.413.166,4.015,4.015,0,0,1,1.285.547A2.813,2.813,0,0,1-27.31-8.2a3.38,3.38,0,0,1,.355,1.63V0H-29.18V-1.349h-.077a2.808,2.808,0,0,1-.591.764,2.832,2.832,0,0,1-.952.569A3.814,3.814,0,0,1-32.139.2Zm.6-1.7A2.492,2.492,0,0,0-30.33-1.78a2.033,2.033,0,0,0,.789-.738,1.905,1.905,0,0,0,.278-1V-4.679a1.087,1.087,0,0,1-.368.166,5.434,5.434,0,0,1-.578.134q-.32.058-.633.1l-.543.077a4.041,4.041,0,0,0-.927.23,1.553,1.553,0,0,0-.646.444,1.106,1.106,0,0,0-.237.732,1.1,1.1,0,0,0,.467.965A2.029,2.029,0,0,0-31.538-1.5ZM-16.21-9.818-19.707,0h-2.557l-3.5-9.818h2.467l2.256,7.293h.1l2.263-7.293ZM-12.075.2a4.041,4.041,0,0,1-1.678-.336,2.7,2.7,0,0,1-1.176-.994,2.9,2.9,0,0,1-.431-1.624,2.768,2.768,0,0,1,.307-1.374A2.374,2.374,0,0,1-14.216-5a4.286,4.286,0,0,1,1.2-.5,9.925,9.925,0,0,1,1.384-.246q.863-.089,1.4-.163a2.03,2.03,0,0,0,.783-.23A.538.538,0,0,0-9.2-6.622v-.038a1.448,1.448,0,0,0-.428-1.119,1.752,1.752,0,0,0-1.234-.4,2.2,2.2,0,0,0-1.346.371,1.834,1.834,0,0,0-.668.876l-2.161-.307a3.474,3.474,0,0,1,.844-1.5,3.719,3.719,0,0,1,1.438-.908,5.554,5.554,0,0,1,1.879-.3,6.122,6.122,0,0,1,1.413.166,4.015,4.015,0,0,1,1.285.547A2.813,2.813,0,0,1-7.245-8.2a3.38,3.38,0,0,1,.355,1.63V0H-9.115V-1.349h-.077a2.808,2.808,0,0,1-.591.764,2.832,2.832,0,0,1-.952.569A3.814,3.814,0,0,1-12.075.2Zm.6-1.7a2.492,2.492,0,0,0,1.208-.278,2.033,2.033,0,0,0,.789-.738,1.905,1.905,0,0,0,.278-1V-4.679a1.087,1.087,0,0,1-.368.166,5.434,5.434,0,0,1-.578.134q-.32.058-.633.1l-.543.077a4.041,4.041,0,0,0-.927.23,1.553,1.553,0,0,0-.646.444,1.106,1.106,0,0,0-.237.732,1.1,1.1,0,0,0,.467.965A2.029,2.029,0,0,0-11.474-1.5ZM2.659-9.492a1.748,1.748,0,0,0-.751-1.3,2.913,2.913,0,0,0-1.716-.467,3.265,3.265,0,0,0-1.272.224,1.883,1.883,0,0,0-.812.607,1.477,1.477,0,0,0-.288.876,1.307,1.307,0,0,0,.189.71,1.629,1.629,0,0,0,.515.508,3.543,3.543,0,0,0,.722.348,7.769,7.769,0,0,0,.8.237l1.227.307A8.552,8.552,0,0,1,2.7-6.98a5.1,5.1,0,0,1,1.234.741A3.308,3.308,0,0,1,4.8-5.158a3.25,3.25,0,0,1,.32,1.483,3.534,3.534,0,0,1-.588,2.023,3.859,3.859,0,0,1-1.7,1.362A6.625,6.625,0,0,1,.153.2,6.789,6.789,0,0,1-2.5-.275,3.928,3.928,0,0,1-4.248-1.656a4.075,4.075,0,0,1-.681-2.212H-2.6a1.983,1.983,0,0,0,.422,1.138,2.231,2.231,0,0,0,.968.678,3.8,3.8,0,0,0,1.339.224,3.649,3.649,0,0,0,1.358-.233,2.163,2.163,0,0,0,.917-.652,1.561,1.561,0,0,0,.339-.981,1.264,1.264,0,0,0-.3-.847A2.256,2.256,0,0,0,1.627-5.1,8.329,8.329,0,0,0,.4-5.51l-1.489-.384A5.948,5.948,0,0,1-3.647-7.156a2.89,2.89,0,0,1-.936-2.253,3.363,3.363,0,0,1,.63-2.026,4.139,4.139,0,0,1,1.716-1.352A6,6,0,0,1,.224-13.27a5.808,5.808,0,0,1,2.445.483,4.018,4.018,0,0,1,1.652,1.336,3.425,3.425,0,0,1,.62,1.959ZM11.41.192A4.727,4.727,0,0,1,8.888-.454,4.279,4.279,0,0,1,7.271-2.24a5.848,5.848,0,0,1-.566-2.63,5.821,5.821,0,0,1,.575-2.643A4.312,4.312,0,0,1,8.907-9.3a4.682,4.682,0,0,1,2.49-.642,4.891,4.891,0,0,1,2.119.438,3.652,3.652,0,0,1,1.473,1.234,3.667,3.667,0,0,1,.626,1.857H13.4A2.139,2.139,0,0,0,12.768-7.6a1.865,1.865,0,0,0-1.339-.476,2.1,2.1,0,0,0-1.246.38,2.457,2.457,0,0,0-.834,1.09,4.39,4.39,0,0,0-.3,1.7,4.545,4.545,0,0,0,.294,1.723,2.484,2.484,0,0,0,.828,1.106,2.083,2.083,0,0,0,1.256.387,2.092,2.092,0,0,0,.917-.195,1.816,1.816,0,0,0,.681-.566,2.185,2.185,0,0,0,.377-.9h2.212A3.836,3.836,0,0,1,15-1.512,3.6,3.6,0,0,1,13.558-.259,4.8,4.8,0,0,1,11.41.192ZM17.521,0V-9.818h2.244v1.636h.1A2.458,2.458,0,0,1,20.79-9.5a2.531,2.531,0,0,1,1.5-.463q.192,0,.431.016a3.163,3.163,0,0,1,.4.048v2.129a2.547,2.547,0,0,0-.463-.093,4.69,4.69,0,0,0-.61-.042,2.344,2.344,0,0,0-1.135.272,2.029,2.029,0,0,0-.789.751,2.107,2.107,0,0,0-.288,1.106V0Zm7.14,0V-9.818h2.308L26.974,0Zm1.163-11.212a1.326,1.326,0,0,1-.943-.371,1.179,1.179,0,0,1-.393-.888,1.148,1.148,0,0,1,.387-.885,1.34,1.34,0,0,1,.949-.368,1.323,1.323,0,0,1,.946.371,1.176,1.176,0,0,1,.39.882,1.155,1.155,0,0,1-.387.892A1.34,1.34,0,0,1,25.824-11.212ZM29.352,3.682v-13.5h2.276v1.624h.134a4.351,4.351,0,0,1,.5-.764,2.735,2.735,0,0,1,.882-.7,3.05,3.05,0,0,1,1.419-.291,3.772,3.772,0,0,1,2.055.578,3.987,3.987,0,0,1,1.457,1.707,6.37,6.37,0,0,1,.54,2.765,6.44,6.44,0,0,1-.531,2.749A4.04,4.04,0,0,1,36.646-.422a3.715,3.715,0,0,1-2.071.594,3.089,3.089,0,0,1-1.4-.281,2.785,2.785,0,0,1-.892-.681,4.211,4.211,0,0,1-.521-.757h-.1V3.682Zm2.269-8.591a4.69,4.69,0,0,0,.272,1.668,2.488,2.488,0,0,0,.786,1.115,1.976,1.976,0,0,0,1.25.4,2,2,0,0,0,1.285-.412A2.521,2.521,0,0,0,36-3.27a4.718,4.718,0,0,0,.265-1.64A4.668,4.668,0,0,0,36-6.533a2.438,2.438,0,0,0-.78-1.112,2.04,2.04,0,0,0-1.291-.4,2.033,2.033,0,0,0-1.259.39,2.377,2.377,0,0,0-.783,1.093A4.685,4.685,0,0,0,31.621-4.909ZM45.5-9.818v1.79H39.854v-1.79ZM41.248-12.17h2.314v9.217a1.432,1.432,0,0,0,.144.713.741.741,0,0,0,.38.336,1.471,1.471,0,0,0,.524.089,2.318,2.318,0,0,0,.4-.032q.182-.032.278-.058L45.678-.1a5.216,5.216,0,0,1-.527.141,4.4,4.4,0,0,1-.834.089A3.739,3.739,0,0,1,42.75-.131a2.4,2.4,0,0,1-1.1-.9,2.688,2.688,0,0,1-.4-1.534Z" transform="translate(-4832 4582)" fill="#fff"/></g><g transform="translate(-4865.709 4577.145)"><circle cx="23" cy="23" r="23" transform="translate(67.709 -2.145)" fill="#fff"/><circle cx="19" cy="19" r="19" transform="translate(71.709 1.855)"/><path d="M85.6,13.319l5.125,5.125a1.61,1.61,0,0,1-2.277,2.277L83.319,15.6l-5.125,5.125a1.61,1.61,0,0,1-2.277-2.277l5.125-5.125L75.917,8.194a1.61,1.61,0,0,1,2.277-2.277l5.125,5.125,5.125-5.125a1.61,1.61,0,0,1,2.277,2.277Z" transform="translate(7.264 7.535)" fill="#fff"/></g><g transform="translate(33.089 22.089)"><circle cx="17" cy="17" r="17" transform="translate(-4805.089 4537.911)" fill="#fff"/><circle cx="14" cy="14" r="14" transform="translate(-4802.089 4540.911)" fill="#d60000"/><rect width="22" height="6" rx="1" transform="translate(-4799.089 4551.911)" fill="#fff"/></g></g></svg>