<svg xmlns="http://www.w3.org/2000/svg" xmlns:xlink="http://www.w3.org/1999/xlink" width="209" height="168" viewBox="0 0 209 168"><defs><filter id="a" x="31" y="13" width="148" height="125" filterUnits="userSpaceOnUse"><feOffset dy="3" input="SourceAlpha"/><feGaussianBlur stdDeviation="2" result="b"/><feFlood flood-opacity="0.161"/><feComposite operator="in" in2="b"/><feComposite in="SourceGraphic"/></filter><clipPath id="c"><rect width="56" height="57" transform="translate(0.5 0.5)" fill="#fff"/></clipPath></defs><g transform="translate(4914 -4484)"><g transform="translate(0 -29)"><g transform="translate(-4914 4513)" fill="#fff" stroke="#eeeff3" stroke-width="1"><rect width="209" height="168" rx="3" stroke="none"/><rect x="0.5" y="0.5" width="208" height="167" rx="2.5" fill="none"/></g><path d="M3,0H206a3,3,0,0,1,3,3V16a0,0,0,0,1,0,0H0a0,0,0,0,1,0,0V3A3,3,0,0,1,3,0Z" transform="translate(-4914 4513)" fill="#eeeff3"/><circle cx="2" cy="2" r="2" transform="translate(-4908 4519)" fill="#b9c2c9"/><circle cx="2" cy="2" r="2" transform="translate(-4901 4519)" fill="#b9c2c9"/><circle cx="2" cy="2" r="2" transform="translate(-4894 4519)" fill="#b9c2c9"/></g><g transform="translate(0 -1)"><rect width="114" height="5" transform="translate(-4897 4537)" fill="#eeeff3"/><rect width="114" height="5" transform="translate(-4897 4527)" fill="#eeeff3"/><rect width="114" height="5" transform="translate(-4897 4517)" fill="#eeeff3"/><rect width="100" height="5" transform="translate(-4897 4547)" fill="#eeeff3"/><rect width="109" height="5" transform="translate(-4897 4557)" fill="#eeeff3"/><rect width="106" height="5" transform="translate(-4897 4567)" fill="#eeeff3"/><rect width="121" height="5" transform="translate(-4897 4587)" fill="#eeeff3"/><rect width="100" height="5" transform="translate(-4897 4597)" fill="#eeeff3"/><rect width="70" height="5" transform="translate(-4897 4607)" fill="#eeeff3"/><rect width="121" height="5" transform="translate(-4897 4627)" fill="#eeeff3"/><rect width="109" height="5" transform="translate(-4897 4637)" fill="#eeeff3"/></g><rect width="44" height="45" transform="translate(-4759 4516)" fill="#eeeff3"/><rect width="44" height="52" transform="translate(-4759 4567)" fill="#eeeff3"/><rect width="44" height="16" transform="translate(-4759 4626)" fill="#eeeff3"/><g transform="matrix(1, 0, 0, 1, -4914, 4484)" filter="url(#a)"><rect width="136" height="113" transform="translate(37 16)" fill="#63829a"/></g><rect width="110" height="5" transform="translate(-4869 4508)" fill="#86a0b5" opacity="0.3"/><rect width="116" height="5" transform="translate(-4869 4516)" fill="#86a0b5" opacity="0.3"/><rect width="85" height="5" transform="translate(-4869 4524)" fill="#86a0b5" opacity="0.3"/><rect width="118" height="5" transform="translate(-4869 4539)" fill="#86a0b5" opacity="0.3"/><rect width="112" height="5" transform="translate(-4869 4547)" fill="#86a0b5" opacity="0.3"/><rect width="108" height="5" transform="translate(-4869 4555)" fill="#86a0b5" opacity="0.3"/><rect width="98" height="5" transform="translate(-4869 4563)" fill="#86a0b5" opacity="0.3"/><rect width="110" height="5" transform="translate(-4869 4578)" fill="#86a0b5" opacity="0.3"/><rect width="110" height="5" transform="translate(-4869 4586)" fill="#86a0b5" opacity="0.3"/><rect width="55" height="5" transform="translate(-4869 4594)" fill="#86a0b5" opacity="0.3"/><path d="M0,0H27V11.513l8.195.649V35.987L27,37.075V51H0V37.23l-8.934-2.693L-7.9,12.162,0,10.969Z" transform="translate(-4822 4534)" fill="#63829a"/><g transform="translate(-4852.145 4511.773)"><g transform="translate(14.645 17.727)" clip-path="url(#c)"><path d="M45.771,14.675H43.912V5.082A2.089,2.089,0,0,0,41.831,3H16.309a2.089,2.089,0,0,0-2.1,2.089v9.593H12.354A8.354,8.354,0,0,0,4,23.029V37.272a8.354,8.354,0,0,0,8.355,8.355h1.857v9.593a2.089,2.089,0,0,0,2.1,2.082H41.831a2.089,2.089,0,0,0,2.089-2.089V45.62h1.859a8.354,8.354,0,0,0,8.354-8.354V23.029a8.354,8.354,0,0,0-8.361-8.354ZM18.39,7.178H39.735v7.5L18.39,14.675ZM39.735,39.564V53.125H18.39V39.564a5.89,5.89,0,0,0-.313-1.922H40.048a5.89,5.89,0,0,0-.313,1.922Zm10.213-2.3a4.178,4.178,0,0,1-4.178,4.178H43.912V39.564a1.922,1.922,0,0,1,1.922-1.922,2.089,2.089,0,1,0,0-4.178H12.354a2.089,2.089,0,0,0,0,4.178,1.922,1.922,0,0,1,1.922,1.922v1.879H12.354a4.178,4.178,0,0,1-4.178-4.178V23.029a4.178,4.178,0,0,1,4.178-4.178H45.771a4.178,4.178,0,0,1,4.178,4.178ZM44.559,27.2a2.089,2.089,0,0,1-2.089,2.089H40.383a2.089,2.089,0,1,1,0-4.178h2.089a2.089,2.089,0,0,1,2.089,2.1Z" transform="translate(-0.5 -1.5)" fill="#fff"/></g></g><g transform="translate(28.089 40.089)"><circle cx="24" cy="24" r="24" transform="translate(-4805.089 4537.911)" fill="#fff"/><circle cx="20" cy="20" r="20" transform="translate(-4801.089 4541.911)" fill="#d60000"/><rect width="30" height="9" rx="2" transform="translate(-4796.089 4557.911)" fill="#fff"/></g></g></svg>