<svg xmlns="http://www.w3.org/2000/svg" width="209" height="168" viewBox="0 0 209 168"><g transform="translate(4914 -4484)"><g transform="translate(0 -29)"><g transform="translate(-4914 4513)" fill="#fff" stroke="#eeeff3" stroke-width="1"><rect width="209" height="168" rx="3" stroke="none"/><rect x="0.5" y="0.5" width="208" height="167" rx="2.5" fill="none"/></g><path d="M3,0H206a3,3,0,0,1,3,3V16a0,0,0,0,1,0,0H0a0,0,0,0,1,0,0V3A3,3,0,0,1,3,0Z" transform="translate(-4914 4513)" fill="#eeeff3"/><circle cx="2" cy="2" r="2" transform="translate(-4908 4519)" fill="#b9c2c9"/><circle cx="2" cy="2" r="2" transform="translate(-4901 4519)" fill="#b9c2c9"/><circle cx="2" cy="2" r="2" transform="translate(-4894 4519)" fill="#b9c2c9"/></g><g transform="translate(0 -3)"><g transform="translate(-3 -2)"><rect width="114" height="5" transform="translate(-4897 4537)" fill="#eeeff3"/><rect width="114" height="5" transform="translate(-4897 4527)" fill="#eeeff3"/><rect width="114" height="5" transform="translate(-4897 4517)" fill="#eeeff3"/><rect width="100" height="5" transform="translate(-4897 4547)" fill="#eeeff3"/><rect width="109" height="5" transform="translate(-4897 4557)" fill="#eeeff3"/><rect width="106" height="5" transform="translate(-4897 4567)" fill="#eeeff3"/><rect width="121" height="5" transform="translate(-4897 4587)" fill="#eeeff3"/><rect width="100" height="5" transform="translate(-4897 4597)" fill="#eeeff3"/><rect width="70" height="5" transform="translate(-4897 4607)" fill="#eeeff3"/><rect width="121" height="5" transform="translate(-4897 4627)" fill="#eeeff3"/><rect width="109" height="5" transform="translate(-4897 4637)" fill="#eeeff3"/></g><rect width="44" height="45" transform="translate(-4762 4515)" fill="#eeeff3"/><rect width="44" height="52" transform="translate(-4762 4566)" fill="#eeeff3"/><rect width="44" height="16" transform="translate(-4762 4625)" fill="#eeeff3"/></g><g transform="translate(25 -3)"><rect width="189" height="42" rx="3" transform="translate(-4929 4555)" fill="#fff"/><rect width="183" height="35" rx="2" transform="translate(-4926 4558)" fill="#63829a"/><path d="M-57.088-8.192h-2.258a2.841,2.841,0,0,0-.356-.987,2.663,2.663,0,0,0-.646-.733,2.743,2.743,0,0,0-.878-.456,3.53,3.53,0,0,0-1.059-.154,3.215,3.215,0,0,0-1.787.5,3.349,3.349,0,0,0-1.219,1.473,5.69,5.69,0,0,0-.441,2.363,5.722,5.722,0,0,0,.444,2.388A3.3,3.3,0,0,0-64.07-2.333a3.248,3.248,0,0,0,1.778.492,3.559,3.559,0,0,0,1.041-.148,2.836,2.836,0,0,0,.875-.438,2.652,2.652,0,0,0,.658-.712,2.723,2.723,0,0,0,.371-.966l2.258.012a4.9,4.9,0,0,1-.546,1.654,4.882,4.882,0,0,1-1.1,1.361,4.963,4.963,0,0,1-1.582.918,5.851,5.851,0,0,1-2.01.329,5.62,5.62,0,0,1-2.91-.755,5.266,5.266,0,0,1-2.016-2.179,7.358,7.358,0,0,1-.737-3.417,7.3,7.3,0,0,1,.743-3.42,5.31,5.31,0,0,1,2.022-2.176,5.6,5.6,0,0,1,2.9-.755,6.151,6.151,0,0,1,1.92.29,4.95,4.95,0,0,1,1.582.848,4.619,4.619,0,0,1,1.144,1.364A5.142,5.142,0,0,1-57.088-8.192ZM-51.081.181a4.49,4.49,0,0,1-2.354-.6,4.038,4.038,0,0,1-1.542-1.672A5.472,5.472,0,0,1-55.525-4.6a5.509,5.509,0,0,1,.546-2.517A4.03,4.03,0,0,1-53.436-8.8a4.49,4.49,0,0,1,2.354-.6,4.49,4.49,0,0,1,2.354.6,4.03,4.03,0,0,1,1.542,1.678A5.509,5.509,0,0,1-46.638-4.6a5.472,5.472,0,0,1-.546,2.511A4.038,4.038,0,0,1-48.727-.417,4.49,4.49,0,0,1-51.081.181Zm.012-1.751a1.874,1.874,0,0,0,1.232-.407,2.438,2.438,0,0,0,.74-1.1,4.556,4.556,0,0,0,.244-1.533A4.6,4.6,0,0,0-49.1-6.149a2.458,2.458,0,0,0-.74-1.1,1.865,1.865,0,0,0-1.232-.411,1.9,1.9,0,0,0-1.253.411,2.447,2.447,0,0,0-.743,1.1,4.6,4.6,0,0,0-.244,1.542,4.556,4.556,0,0,0,.244,1.533,2.428,2.428,0,0,0,.743,1.1A1.913,1.913,0,0,0-51.069-1.57Zm6.278,5.047V-9.273h2.149v1.533h.127a4.109,4.109,0,0,1,.477-.721,2.583,2.583,0,0,1,.833-.658,2.881,2.881,0,0,1,1.34-.275,3.563,3.563,0,0,1,1.941.546,3.765,3.765,0,0,1,1.376,1.612,6.016,6.016,0,0,1,.51,2.611,6.082,6.082,0,0,1-.5,2.6A3.815,3.815,0,0,1-37.9-.4a3.509,3.509,0,0,1-1.956.561A2.918,2.918,0,0,1-41.181-.1a2.63,2.63,0,0,1-.842-.643,3.977,3.977,0,0,1-.492-.715h-.091V3.477Zm2.143-8.114a4.43,4.43,0,0,0,.257,1.576,2.35,2.35,0,0,0,.743,1.053,1.866,1.866,0,0,0,1.18.377,1.887,1.887,0,0,0,1.213-.389,2.381,2.381,0,0,0,.74-1.069,4.455,4.455,0,0,0,.251-1.548,4.408,4.408,0,0,0-.248-1.533,2.3,2.3,0,0,0-.737-1.05,1.926,1.926,0,0,0-1.219-.38,1.92,1.92,0,0,0-1.189.368A2.245,2.245,0,0,0-42.4-6.2,4.424,4.424,0,0,0-42.648-4.636Zm9.514,8.114a4.561,4.561,0,0,1-.824-.069,3.183,3.183,0,0,1-.6-.16l.507-1.7a2.915,2.915,0,0,0,.851.133,1.066,1.066,0,0,0,.661-.232,1.707,1.707,0,0,0,.486-.752l.187-.5-3.363-9.466h2.318l2.137,7h.1l2.143-7h2.324l-3.713,10.4a4.205,4.205,0,0,1-.688,1.265,2.845,2.845,0,0,1-1.047.809A3.551,3.551,0,0,1-33.134,3.477ZM-20.384,0V-12.364h8.035l.006,1.877H-18.15l.006,3.357,5.379.006.006,1.871H-18.15l.006,3.375H-12.3L-12.294,0Zm12.02-9.273L-6.493-5.85l1.9-3.423h2.312l-2.8,4.636L-2.231,0h-2.3L-6.493-3.338-8.437,0h-2.318L-7.93-4.636l-2.753-4.636Zm12.406,0v1.69H-1.289v-1.69ZM.027-11.494H2.213v8.705a1.352,1.352,0,0,0,.136.673.7.7,0,0,0,.359.317,1.389,1.389,0,0,0,.5.085,2.189,2.189,0,0,0,.377-.03q.172-.03.263-.054L4.211-.091a4.927,4.927,0,0,1-.5.133,4.156,4.156,0,0,1-.788.085A3.531,3.531,0,0,1,1.446-.124,2.264,2.264,0,0,1,.4-.978,2.539,2.539,0,0,1,.027-2.427ZM9.879.181A4.739,4.739,0,0,1,7.474-.4,3.9,3.9,0,0,1,5.919-2.056a5.521,5.521,0,0,1-.543-2.526A5.514,5.514,0,0,1,5.922-7.1a4.113,4.113,0,0,1,1.53-1.69,4.316,4.316,0,0,1,2.312-.607,4.753,4.753,0,0,1,1.621.275,3.724,3.724,0,0,1,1.352.848,3.987,3.987,0,0,1,.927,1.458A5.891,5.891,0,0,1,14-4.709v.67H6.4V-5.512h5.506a2.369,2.369,0,0,0-.272-1.12,1.987,1.987,0,0,0-.74-.776,2.1,2.1,0,0,0-1.1-.284,2.144,2.144,0,0,0-1.177.323,2.252,2.252,0,0,0-.788.845,2.429,2.429,0,0,0-.287,1.144v1.286a3,3,0,0,0,.3,1.385,2.087,2.087,0,0,0,.827.881,2.455,2.455,0,0,0,1.244.3,2.59,2.59,0,0,0,.863-.136,1.88,1.88,0,0,0,.67-.4,1.685,1.685,0,0,0,.429-.658l2.04.229a3.175,3.175,0,0,1-.733,1.41,3.573,3.573,0,0,1-1.379.93A5.23,5.23,0,0,1,9.879.181Zm8.156-5.614V0H15.85V-9.273h2.089V-7.7h.109a2.645,2.645,0,0,1,1.023-1.238,3.122,3.122,0,0,1,1.742-.459,3.308,3.308,0,0,1,1.675.411A2.789,2.789,0,0,1,23.6-7.794a4.086,4.086,0,0,1,.389,1.89V0H21.8V-5.566a2.077,2.077,0,0,0-.48-1.455A1.705,1.705,0,0,0,20-7.546,2.033,2.033,0,0,0,18.98-7.3a1.753,1.753,0,0,0-.694.721A2.4,2.4,0,0,0,18.035-5.433ZM33.544-6.822,31.552-6.6a1.626,1.626,0,0,0-.293-.567A1.5,1.5,0,0,0,30.7-7.6a2.023,2.023,0,0,0-.857-.163,2.08,2.08,0,0,0-1.144.3.869.869,0,0,0-.456.767.8.8,0,0,0,.3.658,2.5,2.5,0,0,0,1.011.417l1.582.338a4.014,4.014,0,0,1,1.959.9,2.149,2.149,0,0,1,.649,1.612,2.519,2.519,0,0,1-.51,1.542,3.3,3.3,0,0,1-1.4,1.041,5.275,5.275,0,0,1-2.053.374,4.743,4.743,0,0,1-2.741-.715,2.853,2.853,0,0,1-1.238-2l2.131-.205a1.5,1.5,0,0,0,.616.948,2.14,2.14,0,0,0,1.225.32,2.2,2.2,0,0,0,1.253-.32.936.936,0,0,0,.474-.791.827.827,0,0,0-.3-.658,2.173,2.173,0,0,0-.945-.4l-1.582-.332A3.749,3.749,0,0,1,26.7-4.905a2.29,2.29,0,0,1-.634-1.675,2.379,2.379,0,0,1,.468-1.488,3.052,3.052,0,0,1,1.322-.978,5.142,5.142,0,0,1,1.959-.347,4.236,4.236,0,0,1,2.569.694A2.924,2.924,0,0,1,33.544-6.822Zm2,6.822V-9.273h2.179L37.734,0Zm1.1-10.589a1.252,1.252,0,0,1-.89-.35,1.113,1.113,0,0,1-.371-.839,1.084,1.084,0,0,1,.365-.836,1.266,1.266,0,0,1,.9-.347,1.249,1.249,0,0,1,.893.35,1.111,1.111,0,0,1,.368.833,1.091,1.091,0,0,1-.365.842A1.266,1.266,0,0,1,36.647-10.589ZM44.024.181a4.49,4.49,0,0,1-2.354-.6,4.038,4.038,0,0,1-1.542-1.672A5.472,5.472,0,0,1,39.581-4.6a5.509,5.509,0,0,1,.546-2.517A4.03,4.03,0,0,1,41.67-8.8a4.49,4.49,0,0,1,2.354-.6,4.49,4.49,0,0,1,2.354.6,4.03,4.03,0,0,1,1.542,1.678A5.509,5.509,0,0,1,48.467-4.6a5.472,5.472,0,0,1-.546,2.511A4.038,4.038,0,0,1,46.379-.417,4.49,4.49,0,0,1,44.024.181Zm.012-1.751a1.874,1.874,0,0,0,1.232-.407,2.438,2.438,0,0,0,.74-1.1,4.556,4.556,0,0,0,.244-1.533,4.6,4.6,0,0,0-.244-1.542,2.458,2.458,0,0,0-.74-1.1,1.865,1.865,0,0,0-1.232-.411,1.9,1.9,0,0,0-1.253.411,2.447,2.447,0,0,0-.743,1.1A4.6,4.6,0,0,0,41.8-4.606a4.556,4.556,0,0,0,.244,1.533,2.428,2.428,0,0,0,.743,1.1A1.913,1.913,0,0,0,44.036-1.57ZM52.5-5.433V0H50.315V-9.273H52.4V-7.7h.109a2.645,2.645,0,0,1,1.023-1.238,3.122,3.122,0,0,1,1.742-.459,3.308,3.308,0,0,1,1.675.411,2.789,2.789,0,0,1,1.111,1.189,4.086,4.086,0,0,1,.389,1.89V0H56.267V-5.566a2.077,2.077,0,0,0-.48-1.455,1.705,1.705,0,0,0-1.325-.525,2.033,2.033,0,0,0-1.017.251,1.753,1.753,0,0,0-.694.721A2.4,2.4,0,0,0,52.5-5.433ZM68.009-6.822,66.017-6.6a1.626,1.626,0,0,0-.293-.567,1.5,1.5,0,0,0-.558-.429,2.023,2.023,0,0,0-.857-.163,2.08,2.08,0,0,0-1.144.3.869.869,0,0,0-.456.767.8.8,0,0,0,.3.658,2.5,2.5,0,0,0,1.011.417l1.582.338a4.014,4.014,0,0,1,1.959.9,2.149,2.149,0,0,1,.649,1.612,2.519,2.519,0,0,1-.51,1.542A3.3,3.3,0,0,1,66.3-.193a5.275,5.275,0,0,1-2.053.374,4.743,4.743,0,0,1-2.741-.715,2.853,2.853,0,0,1-1.238-2L62.4-2.735a1.5,1.5,0,0,0,.616.948,2.14,2.14,0,0,0,1.225.32,2.2,2.2,0,0,0,1.253-.32.936.936,0,0,0,.474-.791.827.827,0,0,0-.3-.658,2.173,2.173,0,0,0-.945-.4l-1.582-.332a3.749,3.749,0,0,1-1.974-.939,2.29,2.29,0,0,1-.634-1.675A2.379,2.379,0,0,1,61-8.068a3.052,3.052,0,0,1,1.322-.978,5.142,5.142,0,0,1,1.959-.347,4.236,4.236,0,0,1,2.569.694A2.924,2.924,0,0,1,68.009-6.822Z" transform="translate(-4825 4581)" fill="#fff"/><path d="M4.771,2.295V3.72H1.907c-.835,0-2.148.6-2.148,1.425V7.284A.647.647,0,0,0,.476,8a2.154,2.154,0,1,1,0,4.276.689.689,0,0,0-.716.713v2.138a2.825,2.825,0,0,0,2.148,2.138H4.055a.689.689,0,0,0,.716-.713,2.16,2.16,0,1,1,4.3,0c0,.414-.417.713,0,.713h2.863c.918,0,1.432-1.228,1.432-2.138V12.273h1.432c2.588,0,2.588-4.276,0-4.276H13.361V5.146A1.333,1.333,0,0,0,11.929,3.72H9.066V2.295c-.083-2.564-4.3-2.564-4.3,0Z" transform="translate(-4916.391 4565.334)" fill="#fff" fill-rule="evenodd"/></g><g transform="translate(-4865.709 4578.145)"><circle cx="23" cy="23" r="23" transform="translate(67.709 -2.145)" fill="#fff"/><circle cx="19" cy="19" r="19" transform="translate(71.709 1.855)"/><g transform="translate(81.06 11.207)"><path d="M234.263,52.968V64.747a1.469,1.469,0,0,0,1.468,1.472h1.943V57.482a2.572,2.572,0,0,1,2.567-2.572h8.741V52.968a1.469,1.469,0,0,0-1.47-1.468H235.733a1.47,1.47,0,0,0-1.47,1.468Z" transform="translate(-234.496 -51.734)" fill="#fff"/><path d="M122.775,164.13h12.383a1.168,1.168,0,0,1,1.168,1.168v12.383a1.168,1.168,0,0,1-1.168,1.168H122.775a1.168,1.168,0,0,1-1.168-1.168V165.3a1.168,1.168,0,0,1,1.168-1.168Zm3.1,10.163h6.2a.71.71,0,0,0,.713-.649h0a.7.7,0,0,0-.7-.753h-6.2a.71.71,0,0,0-.713.649h0a.7.7,0,0,0,.7.753Zm0-4.206h6.2a.71.71,0,0,0,.713-.649h0a.7.7,0,0,0-.7-.753h-6.2a.71.71,0,0,0-.713.649h0a.7.7,0,0,0,.7.753Z" transform="translate(-116.793 -159.318)" fill="#fff"/></g></g><g transform="translate(33.089 23.089)"><circle cx="17" cy="17" r="17" transform="translate(-4805.089 4537.911)" fill="#fff"/><circle cx="14" cy="14" r="14" transform="translate(-4802.089 4540.911)" fill="#d60000"/><rect width="22" height="6" rx="1" transform="translate(-4799.089 4551.911)" fill="#fff"/></g><g transform="translate(-0.343)"><rect width="87.343" height="20" transform="translate(-4792 4484)" fill="#f7a000"/><path d="M-33,0l0-8h5.391v1.395l-3.7,0V-4.7h3.422V-3.3l-3.422,0v1.914l3.715,0V0Zm8.991-8,1.613,2.727h.063L-20.708-8h1.91L-21.24-4l2.5,4h-1.945l-1.641-2.73h-.062L-24.033,0H-25.97l2.5-4-2.457-4Zm13.636,2.8H-12.08a1.693,1.693,0,0,0-.191-.592,1.509,1.509,0,0,0-.371-.443,1.637,1.637,0,0,0-.521-.281,2.02,2.02,0,0,0-.639-.1,1.908,1.908,0,0,0-1.082.307,1.985,1.985,0,0,0-.715.891A3.543,3.543,0,0,0-15.854-4,3.572,3.572,0,0,0-15.6-2.562a1.936,1.936,0,0,0,.717.879,1.926,1.926,0,0,0,1.066.3,2.129,2.129,0,0,0,.631-.09,1.633,1.633,0,0,0,.518-.264,1.509,1.509,0,0,0,.377-.424,1.684,1.684,0,0,0,.209-.57l1.711.008a3.1,3.1,0,0,1-.33,1.061,3.2,3.2,0,0,1-.707.91,3.309,3.309,0,0,1-1.055.633,3.863,3.863,0,0,1-1.381.232,3.764,3.764,0,0,1-1.912-.484,3.422,3.422,0,0,1-1.328-1.4A4.694,4.694,0,0,1-17.569-4a4.657,4.657,0,0,1,.492-2.227,3.443,3.443,0,0,1,1.336-1.4,3.756,3.756,0,0,1,1.9-.482,4.121,4.121,0,0,1,1.291.2,3.293,3.293,0,0,1,1.057.568,2.981,2.981,0,0,1,.752.912A3.417,3.417,0,0,1-10.369-5.2ZM-8.48,0l0-8h1.691v6.605l3.426,0,0,1.391ZM3.371-8H5.063v5.2a2.8,2.8,0,0,1-.416,1.531A2.8,2.8,0,0,1,3.484-.252,3.909,3.909,0,0,1,1.746.113,3.918,3.918,0,0,1,0-.252a2.782,2.782,0,0,1-1.16-1.021A2.808,2.808,0,0,1-1.57-2.8V-8H.121v5.051a1.621,1.621,0,0,0,.2.813,1.439,1.439,0,0,0,.568.559,1.739,1.739,0,0,0,.855.2,1.736,1.736,0,0,0,.857-.2,1.443,1.443,0,0,0,.566-.559,1.621,1.621,0,0,0,.2-.812Zm8.093,2.3a.989.989,0,0,0-.4-.734A1.594,1.594,0,0,0,10.1-6.7a1.871,1.871,0,0,0-.7.115.983.983,0,0,0-.436.318.755.755,0,0,0-.15.461.649.649,0,0,0,.092.375.9.9,0,0,0,.275.275,1.967,1.967,0,0,0,.406.2,3.97,3.97,0,0,0,.492.143l.719.172a5.07,5.07,0,0,1,.961.313,2.919,2.919,0,0,1,.758.48,2.02,2.02,0,0,1,.5.672,2.143,2.143,0,0,1,.182.887,2.211,2.211,0,0,1-.373,1.271,2.377,2.377,0,0,1-1.062.832,4.257,4.257,0,0,1-1.67.295A4.386,4.386,0,0,1,8.4-.184a2.453,2.453,0,0,1-1.117-.881,2.608,2.608,0,0,1-.42-1.447H8.5a1.209,1.209,0,0,0,.232.67,1.246,1.246,0,0,0,.551.4,2.143,2.143,0,0,0,.783.135,2.041,2.041,0,0,0,.748-.125,1.145,1.145,0,0,0,.494-.348.8.8,0,0,0,.176-.512.67.67,0,0,0-.158-.453,1.235,1.235,0,0,0-.461-.312,4.762,4.762,0,0,0-.74-.234l-.871-.219a3.653,3.653,0,0,1-1.6-.77,1.785,1.785,0,0,1-.582-1.41,2.089,2.089,0,0,1,.389-1.27A2.6,2.6,0,0,1,8.546-7.8a3.819,3.819,0,0,1,1.563-.3,3.71,3.71,0,0,1,1.557.3,2.462,2.462,0,0,1,1.037.848A2.243,2.243,0,0,1,13.085-5.7ZM16.69-8V0H15l0-8ZM20.2-8l1.934,6.078h.074L24.146-8h1.875L23.263,0h-2.18L18.322-8Zm7.456,8,0-8h5.391v1.395l-3.7,0V-4.7h3.422V-3.3l-3.422,0v1.914l3.715,0V0Z" transform="translate(-4748 4498)" fill="#fff"/></g></g></svg>