<svg xmlns="http://www.w3.org/2000/svg" width="209" height="168" viewBox="0 0 209 168"><g transform="translate(4914 -4484)"><g transform="translate(0 -29)"><g transform="translate(-4914 4513)" fill="#fff" stroke="#eeeff3" stroke-width="1"><rect width="209" height="168" rx="3" stroke="none"/><rect x="0.5" y="0.5" width="208" height="167" rx="2.5" fill="none"/></g><path d="M3,0H206a3,3,0,0,1,3,3V16a0,0,0,0,1,0,0H0a0,0,0,0,1,0,0V3A3,3,0,0,1,3,0Z" transform="translate(-4914 4513)" fill="#eeeff3"/><circle cx="2" cy="2" r="2" transform="translate(-4908 4519)" fill="#b9c2c9"/><circle cx="2" cy="2" r="2" transform="translate(-4901 4519)" fill="#b9c2c9"/><circle cx="2" cy="2" r="2" transform="translate(-4894 4519)" fill="#b9c2c9"/></g><g transform="translate(0 -2)"><rect width="169" height="5" transform="translate(-4897 4537)" fill="#fff"/><rect width="169" height="5" transform="translate(-4897 4512)" fill="#eeeff3"/><rect width="93" height="5" transform="translate(-4897 4522)" fill="#eeeff3"/><rect width="169" height="5" transform="translate(-4897 4620)" fill="#eeeff3"/><rect width="142" height="5" transform="translate(-4897 4630)" fill="#eeeff3"/><rect width="117" height="5" transform="translate(-4897 4640)" fill="#eeeff3"/><g transform="translate(-4997.486 4415.8)"><path d="M131.6,123.2v47.288L158.613,145.2h0a2.739,2.739,0,0,1,1.478-.7,2.8,2.8,0,0,1,2.381.775l23.689,23.81,18.6-14.618a2.89,2.89,0,0,1,3.613.148l25.7,24.1V123.2H131.6Zm55.175,9.45c4.354,0,7.883,3.173,7.883,7.088s-3.529,7.088-7.883,7.088-7.883-3.173-7.883-7.088S182.422,132.65,186.775,132.65Zm-26.356,17.681L131.6,177.316V189.35h67.656Zm45.9,9.191-16.627,13.1,16.627,16.722h27.752v-3.8Z" transform="translate(2.554 1)" fill="#91abbf"/><rect width="113" height="66" rx="2" transform="translate(131.486 124.2)" fill="#63829a"/><path d="M293.538,215.78l21.371-12.611a2.48,2.48,0,0,0,0-4.264l-21.371-12.611a2.479,2.479,0,0,0-3.719,2.132v25.2a2.48,2.48,0,0,0,3.719,2.149Z" transform="translate(-115.246 -43.762)" fill="#fff"/><rect width="99" height="3" transform="translate(137.486 183.2)" fill="#fff" opacity="0.41"/><rect width="33" height="3" transform="translate(137.486 183.2)" fill="#fff"/><circle cx="2.5" cy="2.5" r="2.5" transform="translate(166.486 182.2)" fill="#fff"/></g><g transform="translate(-4927.271 4821.281)"><circle cx="23" cy="23" r="23" transform="translate(133.271 -251.281)" fill="#fff"/><path d="M459.562,296.794a19.962,19.962,0,1,0,19.962,19.962A19.962,19.962,0,0,0,459.562,296.794Zm0,7.13a2.851,2.851,0,0,1,2.852,2.852v13.1l2.273-2.273a2.824,2.824,0,0,1,4.01,0,2.8,2.8,0,0,1,0,4.01c-2.37,2.283-4.711,4.925-7.085,7.041a2.713,2.713,0,0,1-4.1,0c-2.332-2.158-4.765-4.707-7.085-7.041a2.836,2.836,0,0,1,4.01-4.01l2.273,2.273v-13.1A2.851,2.851,0,0,1,459.562,303.924Z" transform="translate(-303 -545)"/></g></g><g transform="translate(36.089 16.089)"><circle cx="17" cy="17" r="17" transform="translate(-4805.089 4537.911)" fill="#fff"/><circle cx="14" cy="14" r="14" transform="translate(-4802.089 4540.911)" fill="#d60000"/><rect width="22" height="6" rx="1" transform="translate(-4799.089 4551.911)" fill="#fff"/></g></g></svg>