<svg xmlns="http://www.w3.org/2000/svg" xmlns:xlink="http://www.w3.org/1999/xlink" width="30" height="30" viewBox="0 0 30 30"><defs><clipPath id="b"><rect width="30" height="30"/></clipPath></defs><g id="a" clip-path="url(#b)"><path d="M42.724,46.22,19.88,43.553,23.673,16.22l15.365,1.725,6.5,8.355ZM37.622,19.6,25.444,18.381,21.994,41.8l18.958,2.312,2.291-15.792-7.306-.98ZM27.448,37.665c-.132-.172-1.3-1.149-1.523-1.452,3.116-3.457,10.725-3.414,12.838,1.159-.352.129-1.924.808-2.233.98C35.649,35.8,30.486,35,27.448,37.665Zm5.859-9.45-1.284.963-1.931-2.317-2.629,1.406L26.4,26.5l2.391-1.2L27.21,23.4l1.926-1.284,1.537,2.246L33.41,23l.825,1.65-2.467,1.32Z" transform="translate(-17.88 -16.22)" fill-rule="evenodd"/></g></svg>