<svg width="512" height="512" viewBox="0 0 512 512" xmlns="http://www.w3.org/2000/svg">
    <path d="m21 198c-7 36-12 65-12 66l0 1 43 0 2-2c3-4 9-10 13-12 7-4 19-6 29-4 17 3 29 14 33 32 1 3 1 6 1 12 0 7 0 9-2 13-4 16-14 27-28 32-3 0-4 1-12 1-9 0-12-1-18-4-11-5-18-16-20-28l-1-4-24 0c-13 0-24 0-24 1 0 0 0 2 0 5 2 19 9 32 21 45 9 8 19 15 31 19 12 3 23 5 37 5 16 0 26-2 40-8 17-9 30-22 39-39l3-5 0 2c8 18 25 35 44 43 10 4 17 5 32 5 10 0 12 0 17-1 14-3 28-10 41-20 6-5 12-11 24-22 8-9 9-10 10-9 2 3 15 17 20 22 18 16 35 25 54 29 4 1 6 1 16 1 13 0 18 0 27-3 19-7 34-20 44-38 12-22 14-53 6-78-9-28-30-47-59-53-5-1-7-1-17-1-13 0-17 0-26 3-10 4-19 8-28 14-10 8-19 17-34 34l-4 5-7-7c-7-9-21-23-26-27-11-9-23-15-33-19-9-2-14-3-25-3-10-1-17 0-25 2-22 6-41 22-50 43-1 2-1 4-2 5 0 0 0 1 0 1 0 0-1-2-2-4-8-16-25-30-42-35-8-2-13-3-22-3-19 0-31 4-44 15-2 3-3 3-4 3 0-1 2-13 5-28 2-14 4-26 4-27 0 0 23 0 50 0l49 0 0-39-133 0z m236 51c2 0 6 2 10 4 11 5 20 12 35 26l9 9-1 2c-2 2-15 15-19 18-11 9-23 15-33 18-5 1-17 1-23 0-6-2-10-4-14-9-4-3-5-5-7-9-3-7-4-11-4-20 0-5 0-8 1-10 3-12 11-23 19-27 6-3 10-4 17-3 5 0 8 0 10 1z m184 0c12 3 22 13 26 27 1 6 1 18 0 23-4 14-13 23-24 27-5 1-15 1-21 0-15-2-32-13-48-30-3-3-6-6-6-7-1 0 1-2 6-8 19-20 32-29 47-33 4-1 16-1 20 1z"></path>
</svg>