<svg xmlns="http://www.w3.org/2000/svg" xmlns:xlink="http://www.w3.org/1999/xlink" width="30" height="30" viewBox="0 0 30 30"><defs><clipPath id="b"><rect width="30" height="30"/></clipPath></defs><g id="a" clip-path="url(#b)"><path d="M63.9,43.006a.839.839,0,0,0,.5-.189.768.768,0,0,0,0-1.01.839.839,0,0,0-.5-.189.695.695,0,1,0,0,1.388Zm7.573,0a.695.695,0,1,0,0-1.388.839.839,0,0,0-.5.189.768.768,0,0,0,0,1.01A.839.839,0,0,0,71.471,43.006ZM56.83,46.351a1.733,1.733,0,0,1,1.83,1.83v7.762a1.539,1.539,0,0,1-.5,1.262,1.83,1.83,0,0,1-2.65,0,1.762,1.762,0,0,1-.5-1.262V48.181a2.037,2.037,0,0,1,.5-1.325A1.756,1.756,0,0,1,56.83,46.351Zm19.121.316v11.99a2.106,2.106,0,0,1-.568,1.451,1.855,1.855,0,0,1-1.388.568H72.67v4.1A1.589,1.589,0,0,1,72.1,66.04a1.83,1.83,0,0,1-2.65,0,1.762,1.762,0,0,1-.5-1.262v-4.1H66.422v4.1a1.762,1.762,0,0,1-.5,1.262,1.83,1.83,0,0,1-2.65,0,1.762,1.762,0,0,1-.5-1.262l-.063-4.1H61.374a1.958,1.958,0,0,1-1.388-.568,2.106,2.106,0,0,1-.568-1.451V46.666Zm-4.165-7.32a8.209,8.209,0,0,1,3.092,2.777,7.086,7.086,0,0,1,1.136,3.913H59.354a7.086,7.086,0,0,1,1.136-3.913,8.209,8.209,0,0,1,3.092-2.777L62.32,37.011c-.063-.189-.063-.316.063-.379a.281.281,0,0,1,.379.126l1.325,2.4a8.922,8.922,0,0,1,7.194,0l1.325-2.4a.281.281,0,0,1,.379-.126c.126.063.126.189.063.379Zm8.582,8.835v7.762a1.762,1.762,0,0,1-.5,1.262,1.83,1.83,0,0,1-2.65,0,1.539,1.539,0,0,1-.5-1.262V48.181a1.875,1.875,0,0,1,3.155-1.325A2.037,2.037,0,0,1,80.369,48.181Z" transform="translate(-53 -36.608)"/></g></svg>