<svg xmlns="http://www.w3.org/2000/svg" xmlns:xlink="http://www.w3.org/1999/xlink" width="30" height="30" viewBox="0 0 30 30"><defs><clipPath id="b"><rect width="30" height="30"/></clipPath></defs><g id="a" clip-path="url(#b)"><path d="M13.415.58l-2.759-.7A4.683,4.683,0,0,0,4.962,3.217L4.316,5.855A14.135,14.135,0,0,1,13.415.58ZM1.264,16.993.618,19.572a4.742,4.742,0,0,0,3.287,5.686l2.642.645A13.914,13.914,0,0,1,1.264,16.993Zm25.77-12.72L24.04,3.511a14.305,14.305,0,0,1,5.4,9.555l.881-3.107A4.686,4.686,0,0,0,27.034,4.273ZM17.466,28.834l2.818.762a4.75,4.75,0,0,0,5.694-3.283l.881-2.99A14.71,14.71,0,0,1,17.466,28.834Zm-2-27.023A13.043,13.043,0,1,0,28.5,14.882,13.006,13.006,0,0,0,15.47,1.811m-7.4,6.507a3.763,3.763,0,0,1,4.4-2.931,3.564,3.564,0,0,1,2.876,4.338A3.538,3.538,0,0,1,11.067,12.6,3.57,3.57,0,0,1,8.073,8.317m5.4,11.255a3.621,3.621,0,0,1-4.285,2.872,3.68,3.68,0,0,1-2.818-4.4A3.772,3.772,0,0,1,10.6,15.117a3.873,3.873,0,0,1,2.876,4.455m1.644-3.048a1.6,1.6,0,1,1,.528-3.165h.117a1.645,1.645,0,0,1,1.291,1.993,1.672,1.672,0,0,1-1.937,1.172m7.69,4.807a3.686,3.686,0,0,1-4.344,2.99,3.638,3.638,0,0,1-2.994-4.279v-.117a3.713,3.713,0,0,1,4.4-2.814,3.612,3.612,0,0,1,2.935,4.221m-2.465-6.858a3.534,3.534,0,0,1-2.876-4.279,3.537,3.537,0,0,1,4.285-2.931,3.673,3.673,0,1,1-1.409,7.21" transform="translate(-0.47 0.256)"/></g></svg>