<svg width="512" height="512" viewBox="0 0 512 512" xmlns="http://www.w3.org/2000/svg">
    <path d="m453 347c-8 24-19 48-35 72-25 37-49 56-74 56-9 0-22-3-40-10-16-6-30-9-43-9-11 0-25 3-40 10-16 6-28 9-38 9-29 0-58-24-86-74-28-49-42-97-42-143 0-44 11-79 32-107 21-28 49-41 81-41 14 0 31 3 51 8 20 6 33 9 39 9 9 0 22-3 41-10 20-6 36-10 50-10 22 0 43 7 60 19 10 7 20 16 30 29-15 12-26 24-32 33-13 18-19 38-19 59 0 24 7 45 20 64 13 19 28 31 45 36z m-108-335c0 12-2 25-8 39-6 14-14 27-26 39-11 11-21 17-31 21-7 2-17 4-30 5 1-29 8-53 22-74 14-20 38-34 72-42 0 1 0 2 0 3 1 2 1 3 1 3 0 1 0 2 0 3 0 1 0 2 0 3z"></path>
</svg>