<svg width="512" height="512" viewBox="0 0 512 512" xmlns="http://www.w3.org/2000/svg">
    <path d="m512 50c0-1 0-2 0-3 0 0 0-2-1-3 0-1 0-1 0-2 0-1-1-2-1-3 0-1 0-2-1-2 0-1 0-2-1-3 0-1 0-2-1-2 0-1-1-2-1-3-1-1-1-1-1-2-1-1-1-2-2-2 0-1-1-2-1-3l-2-2c-1-1-2-2-3-4l0 0-1 0c-1-1-2-2-3-3l-2-2-3-2-2-1-2-1-3-2-2-1-3-1-2-1-4 0-3-1-2 0-3-1-296 0c-31 0-55 25-55 55 0 31 24 56 55 56l157 0-307 306c-21 22-21 57 0 79 22 21 57 21 79 0l306-307 0 157c0 30 25 55 56 55 30 0 55-25 55-55l0-291c0-1 0-3 0-5z"></path>
</svg>