<svg width="512" height="512" viewBox="0 0 512 512" xmlns="http://www.w3.org/2000/svg">
    <path d="m489 231c1 1 1 1 1 2 1 0 1 1 2 1 0 1 0 1 1 2 0 1 0 1 1 2 0 0 0 1 0 1 1 1 1 2 1 2 1 1 1 1 1 2 0 1 0 1 1 2 0 1 0 1 0 2 0 0 0 1 0 2 1 0 1 1 1 2l0 1c0 2 0 3 0 4l0 0 0 1c0 1 0 2 0 3l0 2 0 2-1 2 0 2-1 1-1 2 0 2-1 2-2 2-1 2-1 1-1 2-2 2-147 147c-16 16-41 16-56 0-16-15-16-40 0-56l82-82-329 0c-22 0-37-15-37-37 0-22 15-37 37-37l329 0-82-81c-16-16-16-41 0-56 15-16 40-16 56 0l146 147c1 1 2 1 3 2z"></path>
</svg>