<svg xmlns="http://www.w3.org/2000/svg" xmlns:xlink="http://www.w3.org/1999/xlink" width="30" height="30" viewBox="0 0 30 30"><defs><clipPath id="b"><rect width="30" height="30"/></clipPath></defs><g id="a" clip-path="url(#b)"><path d="M-1.59,0H24.187A2.053,2.053,0,0,1,26.3,1.994a2.058,2.058,0,0,1-2.112,2H-1.59a2.058,2.058,0,0,1-2.112-2A2.053,2.053,0,0,1-1.59,0Z" transform="translate(3.701)"/><path d="M25.12,30.954a1.979,1.979,0,0,1-1.979-1.979V15.744l-4.013,4.009a1.983,1.983,0,0,1-3.313-1.933,2.018,2.018,0,0,1,.537-.9L23.7,9.554a2,2,0,0,1,2.807,0l7.407,7.4a1.979,1.979,0,1,1-2.822,2.776L27.1,15.744V28.975A1.979,1.979,0,0,1,25.12,30.954Z" transform="translate(-10.119 -0.954)"/></g></svg>