<svg width="512" height="512" viewBox="0 0 512 512" xmlns="http://www.w3.org/2000/svg">
    <path d="m207 238c19 0 33 6 43 20c10 14 16 27 16 41c0 0 0 20 0 20c0 20-3 36-10 50c-7 13-15 23-26 29c-10 6-20 11-30 14c-10 3-18 5-25 6c0 0-10 0-10 0c0 0-165 0-165 0c0 0 0-331 0-331c0 0 165 0 165 0c26 0 48 8 65 23c17 15 25 36 25 65c0 17-4 31-12 42c-8 10-16 16-24 19c0 0-12 2-12 2m-134-93c0 0 0 74 0 74c0 0 87 0 87 0c9 0 15-2 20-8c5-5 7-15 7-31c0-10-1-18-5-24c-4-6-8-9-12-10c0 0-5-1-5-1c0 0-92 0-92 0m88 213c25 0 38-14 38-43c0-13-3-24-9-31c-5-8-10-12-16-13c0 0-9-1-9-1c0 0-92 0-92 0c0 0 0 88 0 88c0 0 88 0 88 0m239-187c24 0 44 5 61 15c16 10 28 22 34 36c7 14 11 28 14 42c3 14 4 25 3 35c0 0-1 15-1 15c0 0-164 0-164 0c0 19 5 33 14 42c9 10 19 15 28 15c0 0 13 1 13 1c16 0 28-3 37-9c8-6 13-11 14-17c0 0 1-9 1-9c0 0 55 0 55 0c0 28-9 49-27 63c-18 15-36 22-54 23c0 0-28 1-28 1c-24 0-45-4-62-13c-17-8-29-19-37-32c-7-12-13-25-17-37c-4-12-5-23-5-31c0 0 0-13 0-13c0-3 0-8 0-14c0-6 3-16 7-31c5-14 11-27 19-38c7-11 20-21 37-30c16-9 36-14 58-14m51 99c0-1-1-3-1-5c0-3-1-7-3-13c-2-5-4-11-7-15c-2-4-7-8-14-12c-7-4-15-6-24-6c-14 0-26 4-35 13c-10 8-16 17-18 26c0 0-3 12-3 12c0 0 105 0 105 0m13-164c0 0 0 40 0 40c0 0-131 0-131 0c0 0 0-40 0-40c0 0 131 0 131 0"></path>
</svg>