<svg xmlns="http://www.w3.org/2000/svg" xmlns:xlink="http://www.w3.org/1999/xlink" width="30" height="30" viewBox="0 0 30 30"><defs><clipPath id="b"><rect width="30" height="30"/></clipPath></defs><g id="a" clip-path="url(#b)"><path d="M-210-118a14.9,14.9,0,0,1-10.607-4.393A14.9,14.9,0,0,1-225-133a14.9,14.9,0,0,1,4.393-10.606A14.9,14.9,0,0,1-210-148a14.9,14.9,0,0,1,10.606,4.393A14.9,14.9,0,0,1-195-133a14.9,14.9,0,0,1-4.393,10.607A14.9,14.9,0,0,1-210-118Zm-9-12.012V-124h18v-18h-5.989v6.012h-6.024v5.976H-219Z" transform="translate(225 148)" fill="#a7aaad"/></g></svg>