<svg width="512" height="512" viewBox="0 0 512 512" xmlns="http://www.w3.org/2000/svg">
    <path d="m482 37l-24 0 0 73c0 23-19 42-41 42l-13 0c-23 0-40-19-40-42l0-73-59 0 0 73c0 23-19 42-42 42l-13 0c-22 0-40-19-40-42l0-73-49 0 0 73c0 23-18 42-41 42l-13 0c-22 0-40-19-40-42l0-73-36 0c-17 0-31 16-31 33l0 411c0 8 3 16 9 22 6 6 14 9 22 9l451 0c17 0 30-13 30-31l0-411c0-17-13-33-30-33z m-13 409c0 12-10 22-22 22l-381 0c-13 0-23-10-23-22l0-230c0-13 10-23 23-23l381 0c12 0 22 10 22 23z m-218-313l13 0c6 0 12-3 16-7 5-4 7-10 7-17l0-85c0-13-11-24-23-24l-13 0c-13 0-23 11-23 24l0 85c0 14 10 24 23 24z m153 0l13 0c13 0 23-10 23-24l0-85c0-13-10-24-23-24l-13 0c-12 0-23 11-23 24l0 85c0 13 10 24 23 24z m-296 0l12 0c13 0 23-10 23-24l0-85c0-13-10-24-23-24l-12 0c-13 0-24 11-24 24l0 85c0 13 11 24 24 24z m-16 104l66 0c7 0 12 5 12 12l0 52c0 7-5 12-12 12l-66 0c-7 0-12-5-12-12l0-52c0-7 5-12 12-12z m0 111l66 0c7 0 12 5 12 12l0 52c0 7-5 12-12 12l-66 0c-7 0-12-5-12-12l0-52c0-7 5-12 12-12z m131-111l66 0c7 0 12 5 12 12l0 52c0 7-5 12-12 12l-66 0c-7 0-12-5-12-12l0-52c0-7 5-12 12-12z m0 111l66 0c7 0 12 5 12 12l0 52c0 7-5 12-12 12l-66 0c-7 0-12-5-12-12l0-52c0-7 5-12 12-12z m134-111l66 0c7 0 12 5 12 12l0 52c0 7-5 12-12 12l-66 0c-7 0-12-5-12-12l0-52c0-7 5-12 12-12z m0 111l66 0c7 0 12 5 12 12l0 52c0 7-5 12-12 12l-66 0c-7 0-12-5-12-12l0-52c0-7 5-12 12-12z"></path>
</svg>