<svg xmlns="http://www.w3.org/2000/svg" xmlns:xlink="http://www.w3.org/1999/xlink" width="30" height="30" viewBox="0 0 30 30"><defs><clipPath id="b"><rect width="30" height="30"/></clipPath></defs><g id="a" clip-path="url(#b)"><path d="M10.438,4.83H5.25A1.25,1.25,0,0,0,4,6.08v5.137a1.25,1.25,0,0,0,1.25,1.25h5.188a1.25,1.25,0,0,0,1.25-1.25V6.08A1.25,1.25,0,0,0,10.438,4.83ZM6.5,9.967h0V7.33H9.188A2.625,2.625,0,0,1,6.5,9.968ZM32.75,4.83H15.438a1.25,1.25,0,0,0-1.25,1.25v5.137a1.25,1.25,0,0,0,1.25,1.25H32.75A1.25,1.25,0,0,0,34,11.217V6.08A1.25,1.25,0,0,0,32.75,4.83ZM27.612,9.967H16.688V7.33H30.25a2.625,2.625,0,0,1-2.637,2.638Zm-17.175,5H5.25A1.25,1.25,0,0,0,4,16.217v5.15a1.25,1.25,0,0,0,1.25,1.25h5.188a1.25,1.25,0,0,0,1.25-1.25v-5.15A1.25,1.25,0,0,0,10.438,14.967Zm-1.25,2.5A2.637,2.637,0,0,1,6.5,20.117h0v-2.65Zm23.563-2.5H15.438a1.25,1.25,0,0,0-1.25,1.25v5.15a1.25,1.25,0,0,0,1.25,1.25H32.75A1.25,1.25,0,0,0,34,21.367v-5.15A1.25,1.25,0,0,0,32.75,14.967Zm-2.5,2.5A2.638,2.638,0,0,1,27.612,20.1H16.688V17.467Zm-19.812,7.65H5.25A1.25,1.25,0,0,0,4,26.367v5.138a1.25,1.25,0,0,0,1.25,1.25h5.188a1.25,1.25,0,0,0,1.25-1.25V26.367A1.25,1.25,0,0,0,10.438,25.117ZM6.5,30.255h0V27.617H9.188A2.637,2.637,0,0,1,6.5,30.255Zm26.25-5.138H15.438a1.25,1.25,0,0,0-1.25,1.25v5.138a1.25,1.25,0,0,0,1.25,1.25H32.75A1.25,1.25,0,0,0,34,31.505V26.367A1.25,1.25,0,0,0,32.75,25.117Zm-5.138,5.138H16.688V27.617H30.25a2.638,2.638,0,0,1-2.638,2.638Z" transform="translate(-4 -3.83)"/></g></svg>