<?xml version="1.0" encoding="utf-8"?>
<!-- Generator: Adobe Illustrator 23.0.1, SVG Export Plug-In . SVG Version: 6.00 Build 0)  -->
<svg version="1.1" id="Layer_1" xmlns="http://www.w3.org/2000/svg" xmlns:xlink="http://www.w3.org/1999/xlink" x="0px" y="0px"
	 viewBox="0 0 512 512" style="enable-background:new 0 0 512 512;" xml:space="preserve">
<path d="M256,2C115.3,2,1,116.3,1,257s114.3,255,255,255s255-114.3,255-255S396.7,2,256,2z M256.5,353.2c38.1,0,70.8-22,86.3-54.2
	H423c-18.8,74.2-86.3,129.7-166.5,129.7C161.6,428.8,84.7,352,84.7,257c0-94.9,76.8-171.8,171.8-171.8
	c80.2,0,147.7,55.5,166.5,130.4h-80.2c-15.3-32.1-48.2-54.2-86.3-54.2c-52.8,0-96.2,43.5-96.2,96.2
	C160.3,310.5,203.7,353.2,256.5,353.2L256.5,353.2z"/>
</svg>
