<svg width="512" height="512" viewBox="0 0 512 512" xmlns="http://www.w3.org/2000/svg">
    <path d="m512 256c0 33-11 64-34 92-23 28-54 50-93 66-40 17-83 25-129 25-13 0-27-1-41-2-38 33-82 56-132 69-9 2-20 4-32 6-4 0-7 0-9-3-3-2-4-4-5-8l0 0c-1-1-1-2 0-4 0-1 0-2 0-2 0-1 1-2 2-3l1-3 2-2 3-3c1-1 4-5 8-10 5-5 8-8 10-10 2-3 5-6 9-12 4-5 7-10 9-14 3-5 5-10 8-17 3-7 5-14 8-22-30-17-54-38-71-63-17-25-26-51-26-80 0-25 7-48 20-71 14-23 32-42 55-58 23-17 50-30 82-39 31-10 64-15 99-15 46 0 89 8 129 25 39 16 70 38 93 66 23 28 34 59 34 92z"></path>
</svg>