<svg width="512" height="512" viewBox="0 0 512 512" xmlns="http://www.w3.org/2000/svg">
    <path d="m402 219c0 27-9 51-27 74c-17 22-42 40-73 53c-31 13-64 20-101 20c-16 0-33-2-50-5c-24 17-50 29-80 37c-6 1-15 3-24 4l-1 0c-2 0-4 0-6-2c-2-2-3-4-3-6c0-1 0-1 0-2c0-1 0-1 0-2c0 0 0-1 0-1l1-2c0 0 0 0 1-1c1-1 1-2 1-2c0 0 1 0 1-1c1-1 2-2 2-2c1-1 3-3 6-7c4-3 6-6 8-8c1-2 3-5 6-8c3-4 5-8 7-11c2-4 4-8 6-13c-24-14-42-31-56-51c-13-20-20-41-20-64c0-26 9-51 27-73c18-22 42-40 73-53c31-13 65-20 101-20c37 0 70 7 101 20c31 13 56 31 73 53c18 22 27 47 27 73z m110 74c0 22-7 44-20 64c-14 20-32 36-56 50c2 5 4 9 6 13c2 4 4 7 7 11c3 3 5 6 6 8c2 2 4 5 8 8c3 4 5 6 6 8c1 0 1 0 2 1c0 1 1 1 1 1c0 1 1 1 1 2c0 0 1 1 1 1l1 2c0 0 0 0 0 1c1 2 1 2 0 2c0 0 0 1 0 2c0 3-2 5-4 6c-1 2-4 3-6 2c-9-1-18-2-24-4c-30-8-56-20-80-37c-17 3-34 5-50 5c-52 0-97-13-135-38c11 1 19 1 25 1c31 0 60-4 88-13c29-8 54-20 76-36c24-18 42-38 55-61c12-23 19-47 19-73c0-14-2-29-7-43c25 14 44 30 59 51c14 20 21 42 21 66z"></path>
</svg>