<?xml version="1.0" encoding="utf-8"?>
<!-- Generator: Adobe Illustrator 23.0.1, SVG Export Plug-In . SVG Version: 6.00 Build 0)  -->
<svg version="1.1" id="Layer_1" xmlns="http://www.w3.org/2000/svg" xmlns:xlink="http://www.w3.org/1999/xlink" x="0px" y="0px"
	 viewBox="0 0 30 30" style="enable-background:new 0 0 30 30;" xml:space="preserve">
<style type="text/css">
	.st0{fill-rule:evenodd;clip-rule:evenodd;}
</style>
<path class="st0" d="M15,0c8.3,0,15,6.7,15,15s-6.7,15-15,15S0,23.3,0,15S6.7,0,15,0L15,0z M15,7.3c1.8,0,3.5,0.6,4.8,1.7
	c0.4,0.3,0.4,0.8,0.1,1.2l-1.5,1.5c-0.3,0.3-0.7,0.3-1,0.1C16.7,11.3,15.9,11,15,11c-2.2,0-4,1.8-4,4s1.8,4,4,4
	c0.9,0,1.7-0.3,2.3-0.8c0.3-0.2,0.7-0.2,1,0.1l1.5,1.5c0.3,0.3,0.3,0.9-0.1,1.2c-1.3,1.1-3,1.7-4.8,1.7c-4.3,0-7.7-3.5-7.7-7.7
	C7.3,10.7,10.7,7.3,15,7.3L15,7.3z M15,4c6.1,0,11,4.9,11,11s-4.9,11-11,11S4,21.1,4,15S8.9,4,15,4L15,4z"/>
</svg>
