<svg xmlns="http://www.w3.org/2000/svg" xmlns:xlink="http://www.w3.org/1999/xlink" width="30" height="30" viewBox="0 0 30 30"><defs><clipPath id="b"><rect width="30" height="30"/></clipPath></defs><g id="a" clip-path="url(#b)"><path d="M34.3,30.742c-.7-1.144-1.4-2.352-2.161-3.5-.763-1.208-1.4-2.1-1.843-2.733s-.7-1.017-.763-1.081a11.894,11.894,0,0,0-4.513,3.623,12.734,12.734,0,0,0-2.542,5.275A44.143,44.143,0,0,0,34.3,30.742m1.589,4.322a1.5,1.5,0,0,1,.508-.127,17.174,17.174,0,0,0-1.081-2.225,44.637,44.637,0,0,1-13.093,1.843V35a12.4,12.4,0,0,0,3.242,8.517c.127-.191.254-.381.445-.7.191-.254.636-.826,1.271-1.589a17.915,17.915,0,0,1,2.1-2.288,19.7,19.7,0,0,1,2.86-2.1,18.325,18.325,0,0,1,3.75-1.78m-8.771,9.979c-.064,0-.064-.064-.127-.064l-.127-.127.254.191m4.831-22.5h0m11.5,2.8A12.719,12.719,0,0,0,35,22.161a11.665,11.665,0,0,0-2.987.381,56.84,56.84,0,0,1,4.767,7.436A13.821,13.821,0,0,0,43.39,25.4l.064-.064M35,50a14.41,14.41,0,0,1-10.551-4.449,14.735,14.735,0,0,1,0-21.1,14.735,14.735,0,0,1,21.1,0,14.735,14.735,0,0,1,0,21.1A14.41,14.41,0,0,1,35,50m2.225-12.9c-4.7,1.589-8.008,4.195-10.042,7.881l-.064.064A13.034,13.034,0,0,0,35,47.775a12.747,12.747,0,0,0,5.021-1.081,54.825,54.825,0,0,0-2.733-9.661l-.064.064m.508-5.148a17.379,17.379,0,0,1,.826,1.843c.064,0,.127.127.191.254.064.191.127.254.127.381a18.758,18.758,0,0,1,4.195-.127,30.656,30.656,0,0,1,3.305.318,9.317,9.317,0,0,1,1.4.254,12.373,12.373,0,0,0-2.86-8.008l-.254.318a11.544,11.544,0,0,1-.89.89,12.446,12.446,0,0,1-1.335,1.144,15.8,15.8,0,0,1-2.034,1.4,17.439,17.439,0,0,1-2.669,1.335m1.97,4.513a72.689,72.689,0,0,1,2.479,9.089,12.426,12.426,0,0,0,5.466-8.517,8.229,8.229,0,0,0-1.271-.381q-1.049-.191-2.86-.381a12.831,12.831,0,0,0-3.814.191" transform="translate(-20 -20)"/></g></svg>