<svg xmlns="http://www.w3.org/2000/svg" xmlns:xlink="http://www.w3.org/1999/xlink" width="30" height="30" viewBox="0 0 30 30"><defs><clipPath id="b"><rect width="30" height="30"/></clipPath></defs><g id="a" clip-path="url(#b)"><path d="M33.961,17.482V28.967a4.993,4.993,0,0,1-4.993,4.993H8.993A4.993,4.993,0,0,1,4,28.967V8.993A4.993,4.993,0,0,1,8.993,4H20.478a1.248,1.248,0,1,1,0,2.5H8.993a2.5,2.5,0,0,0-2.5,2.5V28.967a2.5,2.5,0,0,0,2.5,2.5H20.478c3.02,0,11.1-2.467,10.986-10.524V17.482a1.248,1.248,0,0,1,2.5,0ZM15.235,15.809,26.084,4.974a3.371,3.371,0,0,1,4.681,0l2.26,2.26a3.3,3.3,0,0,1,0,4.681l-1.885,1.9h0l-8.988,8.913a4.993,4.993,0,0,1-3.533,1.461h-.1l-3.483-.075a1.248,1.248,0,0,1-1.248-1.248l-.075-3.483a5.068,5.068,0,0,1,1.523-3.57ZM26.8,7.745l2.172,2.128a2.384,2.384,0,0,0,1.336.508,1.108,1.108,0,0,0,.924-.254.8.8,0,0,0,0-1.133l-2.26-2.26a.836.836,0,0,0-1.161,0ZM16.234,19.392v2.285h2.285a2.609,2.609,0,0,0,1.81-.737l5.682-5.556a3.733,3.733,0,0,0,.622-4.218l-1.6-1.648L16.97,17.57A2.5,2.5,0,0,0,16.234,19.392Z" transform="translate(-4 -4)"/></g></svg>