<svg xmlns="http://www.w3.org/2000/svg" xmlns:xlink="http://www.w3.org/1999/xlink" width="30" height="30" viewBox="0 0 30 30"><defs><clipPath id="b"><rect width="30" height="30"/></clipPath></defs><g id="a" clip-path="url(#b)"><path d="M28.651,6.09H8.189A4.769,4.769,0,0,0,3.42,10.859V24.953a4.769,4.769,0,0,0,4.769,4.769H28.651a4.769,4.769,0,0,0,4.769-4.769V10.859A4.769,4.769,0,0,0,28.651,6.09Zm2.385,9.324A11.924,11.924,0,0,1,19.112,27.338H8.189A2.385,2.385,0,0,1,5.8,24.953V10.859A2.385,2.385,0,0,1,8.189,8.475H28.651a2.385,2.385,0,0,1,2.385,2.385ZM28.15,11.229a1.192,1.192,0,0,1,0,1.693l-7.226,6.832a3.577,3.577,0,0,1-4.913,0L8.738,12.922a1.2,1.2,0,0,1,1.645-1.741L17.6,18.026a1.192,1.192,0,0,0,1.645,0L26.4,11.181a1.192,1.192,0,0,1,1.753.048Z" transform="translate(-3.42 -3.09)"/></g></svg>