<svg xmlns="http://www.w3.org/2000/svg" xmlns:xlink="http://www.w3.org/1999/xlink" width="30" height="30" viewBox="0 0 30 30"><defs><clipPath id="b"><rect width="30" height="30"/></clipPath></defs><g id="a" clip-path="url(#b)"><path d="M31.273,4H6.727A2.727,2.727,0,0,0,4,6.727V31.273A2.727,2.727,0,0,0,6.727,34H20.364V21.727H16.273V17.636h4.091v-2.2c0-4.159,2.026-5.985,5.483-5.985a20.014,20.014,0,0,1,2.945.179v3.912H26.435c-1.467,0-1.98.775-1.98,2.343v1.748h4.3l-.584,4.091H24.455V34h6.818A2.727,2.727,0,0,0,34,31.273V6.727A2.727,2.727,0,0,0,31.273,4Z" transform="translate(-4 -4)"/></g></svg>