<svg width="512" height="512" viewBox="0 0 512 512" xmlns="http://www.w3.org/2000/svg">
    <path d="m443 285c-21-29-31-52-34-89-2-28 10-60 10-60-15 10-15 9-24 17-50 41-63 82-65 87 0 1 0 1 0 1l0-1c0 0 39-152-69-222-9-6-30-18-30-18 0 0 54 132-42 210-19-77-119-78-119-78 0 0 8 27 9 33 16 84-34 110-44 190 2-9 1-6 0 0 0 0 0 0 0 0 0 0 0 0 0 0 0 0 0 0 0 0-7 62 22 111 68 143 2-22 11-44 24-62 14-21 21-36 23-62 1-19-7-41-7-41 10 7 10 6 17 11 28 23 39 47 43 56 0 0 0 0 0 0-5-21-18-105 49-149 7-4 21-12 21-12 0 0-38 83 46 151-2-28 8-54 28-73 11-11 30-16 30-16 0 0-5 18-6 23-11 58 38 103 27 158-2 10-4 20-8 30l4 0c25-13 48-30 64-54 35-54 19-122-15-173z"></path>
</svg>