<svg xmlns="http://www.w3.org/2000/svg" xmlns:xlink="http://www.w3.org/1999/xlink" width="30" height="30" viewBox="0 0 30 30"><defs><clipPath id="b"><rect width="30" height="30"/></clipPath></defs><g id="a" clip-path="url(#b)"><path d="M94,141.156a1.643,1.643,0,0,1-.495,1.054l-5.365,6.323a5.414,5.414,0,0,1-1.924,1.381,5.543,5.543,0,0,1-2.291.567H66.555a2.166,2.166,0,0,1-.966-.208.71.71,0,0,1-.423-.687,1.643,1.643,0,0,1,.495-1.054l5.365-6.323a5.414,5.414,0,0,1,1.924-1.381,5.543,5.543,0,0,1,2.291-.567H92.611a2.166,2.166,0,0,1,.966.208A.71.71,0,0,1,94,141.156Zm-5.476-5.492v2.555H75.24a8.289,8.289,0,0,0-5.764,2.666L64.1,147.207l-.08.1q0-.064-.008-.2T64,146.9V131.576A3.6,3.6,0,0,1,67.576,128h5.109a3.6,3.6,0,0,1,3.576,3.576v.511h8.685a3.6,3.6,0,0,1,3.576,3.576Z" transform="translate(-64 -124)"/></g></svg>