<svg xmlns="http://www.w3.org/2000/svg" xmlns:xlink="http://www.w3.org/1999/xlink" width="30" height="30" viewBox="0 0 30 30"><defs><clipPath id="b"><rect width="30" height="30"/></clipPath></defs><g id="a" clip-path="url(#b)"><g transform="translate(14.5 -53.5)"><path d="M83.5,68.5a15,15,0,1,0,15,15A15.016,15.016,0,0,0,83.5,68.5Zm10.376,9H89.044a22.445,22.445,0,0,0-1.4-5.248A12.043,12.043,0,0,1,93.876,77.5Zm1.624,6a11.952,11.952,0,0,1-.392,3h-5.72c.072-1,.112-2,.112-3s-.04-2-.112-3h5.72A11.952,11.952,0,0,1,95.5,83.5Zm-12,12c-.544,0-1.8-2.048-2.5-6H86C85.3,93.452,84.044,95.5,83.5,95.5Zm-2.88-9c-.072-.936-.12-1.928-.12-3s.048-2.064.12-3h5.76c.072.936.12,1.928.12,3s-.048,2.064-.12,3Zm-9.12-3a11.952,11.952,0,0,1,.392-3h5.72c-.072,1-.112,2-.112,3s.04,2,.112,3h-5.72A11.952,11.952,0,0,1,71.5,83.5Zm12-12c.544,0,1.8,2.048,2.5,6H81C81.7,73.548,82.956,71.5,83.5,71.5Zm-4.144.752a22.446,22.446,0,0,0-1.4,5.248H73.124A12.043,12.043,0,0,1,79.356,72.252ZM73.124,89.5h4.832a22.446,22.446,0,0,0,1.4,5.248A12.043,12.043,0,0,1,73.124,89.5Zm14.52,5.248a22.446,22.446,0,0,0,1.4-5.248h4.832A12.043,12.043,0,0,1,87.644,94.748Z" transform="translate(-83 -15)"/></g></g></svg>