<svg width="512" height="512" viewBox="0 0 512 512" xmlns="http://www.w3.org/2000/svg">
    <path d="m500 223l-32 0 0-33c0-6-6-12-13-12l-43 0c-7 0-12 6-12 12l0 33-32 0c-7 0-13 5-13 12l0 43c0 7 6 12 13 12l32 0 0 32c0 7 5 13 12 13l43 0c7 0 13-6 13-13l0-32 32 0c7 0 12-5 12-12l0-43c0-7-5-12-12-12z m-334-54c14 0 29 4 41 12l14 9c4 4 11 3 15-1l40-40c3-3 4-6 4-10 0-3-2-7-5-9l-24-16c0 0-1-1-1-1l-23-11c0 0-1 0-1 0-19-8-40-12-61-12-44 0-85 17-116 47-31 31-49 73-49 118 0 45 17 87 48 118 31 31 74 49 120 49 45 0 87-17 115-48 23-24 37-56 41-93 0 0 0-1 0-1l0-33c0-1 0-1 0-2l-2-11c-1-6-6-11-12-11l-141 0c-6 0-12 6-12 12l0 49c0 7 6 12 12 12l72 0c-3 8-8 15-15 22-14 16-36 25-58 25-24 0-46-10-62-25-32-34-32-92 1-124 15-16 37-25 59-25z"></path>
</svg>