<svg xmlns="http://www.w3.org/2000/svg" xmlns:xlink="http://www.w3.org/1999/xlink" width="30" height="30" viewBox="0 0 30 30"><defs><clipPath id="b"><rect width="30" height="30"/></clipPath></defs><g id="a" clip-path="url(#b)"><path d="M14.7,16.725,12.425,19,14.7,21.275a1.246,1.246,0,0,1-1.762,1.762l-3.163-3.15a1.25,1.25,0,0,1,0-1.775l3.163-3.15A1.25,1.25,0,0,1,14.7,16.725Zm10.362-1.762A1.25,1.25,0,0,0,23.3,16.725L25.575,19,23.3,21.275a1.246,1.246,0,0,0,1.762,1.762l3.163-3.15a1.25,1.25,0,0,0,0-1.775ZM34,9V29a5,5,0,0,1-5,5H9a5,5,0,0,1-5-5V9A5,5,0,0,1,9,4H29A5,5,0,0,1,34,9Zm-2.5,5A7.5,7.5,0,0,0,24,6.5H9A2.5,2.5,0,0,0,6.5,9V29A2.5,2.5,0,0,0,9,31.5h7.5a15,15,0,0,0,15-15Zm-10.25.738a1.25,1.25,0,0,0-1.688.525l-3.337,6.25a1.25,1.25,0,1,0,2.213,1.163l3.337-6.25A1.25,1.25,0,0,0,21.25,14.738Z" transform="translate(-4 -4)"/></g></svg>