<svg xmlns="http://www.w3.org/2000/svg" xmlns:xlink="http://www.w3.org/1999/xlink" width="30" height="30" viewBox="0 0 30 30"><defs><clipPath id="b"><rect width="30" height="30"/></clipPath></defs><g id="a" clip-path="url(#b)"><path d="M30.287,16.665H26.906l-.348-3.937A2.2,2.2,0,0,0,25.7,11.18a2.3,2.3,0,0,0-1.675-.506L4.6,12.728a2.282,2.282,0,0,0-2.022,2.528L4.122,30.013A2.293,2.293,0,0,0,6.4,32.067H6.65l1.833-.19v1.359a2.266,2.266,0,0,0,2.275,2.275H30.287a2.266,2.266,0,0,0,2.275-2.275V18.94A2.266,2.266,0,0,0,30.287,16.665Zm-2.022,4.722a1.77,1.77,0,1,1-1.77-1.77A1.767,1.767,0,0,1,28.264,21.386ZM6.872,29.7c-.221,0-.474-.158-.474-.379L5.074,15.67a.448.448,0,0,1,.379-.474l18.1-2h.032a.6.6,0,0,1,.284.095.316.316,0,0,1,.158.284l.284,3.09-13.588-.032a2.266,2.266,0,0,0-2.275,2.275V29.318Zm23.415,3.95H10.727a.452.452,0,0,1-.442-.442V26.853l3.729-3.729a1.049,1.049,0,0,1,1.485,0l7.489,7.489a.916.916,0,0,0,1.327,0,.935.935,0,0,0,0-1.3l-1.454-1.454,1.928-1.928a1.069,1.069,0,0,1,1.548,0l4.392,4.392v2.907A.472.472,0,0,1,30.287,33.647Z" transform="translate(-2.562 -7.662)"/></g></svg>