<svg xmlns="http://www.w3.org/2000/svg" xmlns:xlink="http://www.w3.org/1999/xlink" width="30" height="30" viewBox="0 0 30 30"><defs><clipPath id="b"><rect width="30" height="30"/></clipPath></defs><g id="a" clip-path="url(#b)"><path d="M21.035,0H8.965A8.928,8.928,0,0,0,0,8.965v12.07A8.928,8.928,0,0,0,8.965,30h12.07A8.928,8.928,0,0,0,30,21.035V8.965A8.928,8.928,0,0,0,21.035,0Zm5.918,21.035a5.9,5.9,0,0,1-5.918,5.918H8.965a5.9,5.9,0,0,1-5.918-5.918V8.965A5.9,5.9,0,0,1,8.965,3.047h12.07a5.9,5.9,0,0,1,5.918,5.918ZM15,7.266A7.734,7.734,0,1,0,22.734,15,7.727,7.727,0,0,0,15,7.266Zm0,12.48A4.746,4.746,0,1,1,19.746,15,4.726,4.726,0,0,1,15,19.746ZM24.609,7.324a1.846,1.846,0,0,1-3.691,0,1.846,1.846,0,1,1,3.691,0Z"/></g></svg>