<svg width="512" height="512" viewBox="0 0 512 512" xmlns="http://www.w3.org/2000/svg">
    <path d="m511 199l0 0 0-1c0 0 0 0 0 0 0 0 0 0 0 0l-1-5c0-1 0-2 0-4l0-1-1 0c-6-35-23-69-50-98-26-28-61-51-99-65-33-12-68-18-104-18-49 0-96 11-137 33-79 42-125 119-118 196 3 40 19 78 45 109 24 31 58 55 96 71 23 9 46 14 71 19l3 0c7 2 8 4 9 4 1 2 0 4 0 6 0 1-1 3-1 4-3 11-5 22-3 34 2 14 11 22 24 22 0 0 0 0 0 0 14 0 30-9 40-15l1-1c25-15 49-31 67-44 38-28 82-59 115-100 33-42 49-94 43-146z m-352 78l-44 0c-6 0-12-5-12-12l0-93c0-6 6-12 12-12 7 0 12 6 12 12l0 81 32 0c7 0 13 5 13 12 0 7-6 12-13 12z m47-12c0 6-6 12-13 12-6 0-12-6-12-12l0-93c0-7 6-12 12-12 7 0 13 5 13 12z m109 0c0 5-4 10-9 11-1 1-2 1-3 1-4 0-8-2-10-5l-44-60 0 53c0 6-5 12-12 12-6 0-12-6-12-12l0-90c0-5 4-10 9-12 5-1 10 0 13 5l44 60 0-56c0-7 5-12 12-12 6 0 12 5 12 12z m88 10l-60 0c-7 0-12-5-12-12l0-93c0-6 5-12 12-12l58 0c7 0 12 6 12 12 0 7-5 12-12 12l-46 0 0 22 37 0c7 0 12 6 12 13 0 6-5 12-12 12l-37 0 0 22 48 0c7 0 12 5 12 12 0 7-5 12-12 12z"></path>
</svg>