<svg width="512" height="512" viewBox="0 0 512 512" xmlns="http://www.w3.org/2000/svg">
    <path d="m0 430l0-227c8 9 18 17 29 25 69 47 116 79 142 98 11 8 20 15 26 19 7 4 16 9 27 14 12 4 22 7 32 7l0 0c10 0 20-3 32-7 11-5 20-10 27-14 6-4 15-11 26-19 33-23 80-56 142-98 11-8 21-16 29-25l0 227c0 12-4 23-13 32-9 9-20 13-33 13l-420 0c-13 0-24-4-33-13-9-9-13-20-13-32z m0-305c0-15 4-27 12-37 8-10 19-15 34-15l420 0c13 0 23 5 32 14 9 9 14 19 14 32 0 15-5 29-14 43-9 14-21 25-35 35-71 50-116 81-134 93-1 1-6 4-12 9-6 4-11 8-15 11-4 2-9 5-15 9-6 3-11 6-16 8-6 1-10 2-15 2l0 0c-5 0-9-1-15-2-5-2-10-5-16-8-6-4-11-7-15-9-4-3-9-7-15-11-6-5-11-8-12-9-18-12-43-30-75-52-33-23-52-36-59-41-12-8-23-19-33-33-11-14-16-27-16-39z"></path>
</svg>