<svg width="512" height="512" viewBox="0 0 512 512" xmlns="http://www.w3.org/2000/svg">
    <path d="m492 295l-83-40c20-12 33-36 33-63c0-40-28-72-62-72c-12 0-23 4-32 11c6 14 9 29 9 46c0 24-7 48-20 67c4 5 9 9 15 12l0 0l53 25c15 8 25 24 25 41l0 70l57 0c7 0 14-7 14-16l0-66c0-7-4-13-9-15z m-330-40c4-3 8-6 12-10c-13-19-21-43-21-68c0-17 4-33 10-47c-10-6-20-10-31-10c-34 0-62 32-62 72c0 28 14 52 34 64l-84 39c-5 2-9 8-9 15l0 66c0 9 7 16 14 16l55 0l0-70c0-17 10-34 26-41z m232 49l-72-34l-31-15c14-8 25-21 32-37c5-12 9-26 9-41c0-9-2-17-4-24c-9-38-38-65-73-65c-34 0-63 26-73 63c-2 8-3 17-3 26c0 16 3 31 10 44c7 14 18 27 31 35l-29 13l-75 35c-6 3-10 10-10 18l0 82c0 11 7 20 17 20l264 0c10 0 18-9 18-20l0-82c0-8-5-15-11-18z"></path>
</svg>