<?xml version="1.0" encoding="utf-8"?>
<!-- Generator: Adobe Illustrator 23.0.1, SVG Export Plug-In . SVG Version: 6.00 Build 0)  -->
<svg version="1.1" id="Layer_1" xmlns="http://www.w3.org/2000/svg" xmlns:xlink="http://www.w3.org/1999/xlink" x="0px" y="0px"
	 viewBox="0 0 30 30" style="enable-background:new 0 0 30 30;" xml:space="preserve">
<path d="M16.9,27c0-0.5-0.2-1-0.6-1.3s-0.8-0.6-1.3-0.6s-1,0.2-1.3,0.6s-0.6,0.8-0.6,1.3s0.2,1,0.6,1.3s0.8,0.6,1.3,0.6
	s1-0.2,1.3-0.6C16.6,27.9,16.9,27.5,16.9,27z M21.8,23.3V6.8c0-0.2-0.1-0.4-0.2-0.5S21.2,6,21,6H9C8.8,6,8.6,6.1,8.5,6.2
	S8.3,6.5,8.3,6.8v16.5c0,0.2,0.1,0.4,0.2,0.5S8.8,24,9,24h12c0.2,0,0.4-0.1,0.5-0.2S21.8,23.5,21.8,23.3z M17.3,3.4
	c0-0.2-0.1-0.4-0.4-0.4h-3.8c-0.3,0-0.4,0.1-0.4,0.4s0.1,0.4,0.4,0.4h3.8C17.1,3.8,17.3,3.6,17.3,3.4z M24,3v24
	c0,0.8-0.3,1.5-0.9,2.1S21.8,30,21,30H9c-0.8,0-1.5-0.3-2.1-0.9S6,27.8,6,27V3c0-0.8,0.3-1.5,0.9-2.1S8.2,0,9,0h12
	c0.8,0,1.5,0.3,2.1,0.9S24,2.2,24,3z"/>
</svg>
