<svg width="512" height="512" viewBox="0 0 512 512" xmlns="http://www.w3.org/2000/svg">
    <path d="m309 372c27-7 53-17 77-32 18-12 24-35 12-54-11-18-35-23-53-12-54 34-124 34-178 0-18-11-42-6-53 12-12 19-6 42 12 54 24 15 50 25 77 32l-74 73c-15 15-15 40 0 55 7 8 17 11 27 11 10 0 20-3 27-11l73-72 73 72c15 15 39 15 54 0 15-15 15-40 0-55z m-53-295c30 0 55 25 55 55 0 30-25 55-55 55-30 0-55-25-55-55 0-30 25-55 55-55z m0 187c73 0 132-59 132-132 0-73-59-132-132-132-73 0-132 59-132 132 0 73 59 132 132 132z"></path>
</svg>