<svg xmlns="http://www.w3.org/2000/svg" xmlns:xlink="http://www.w3.org/1999/xlink" width="30" height="30" viewBox="0 0 30 30"><defs><clipPath id="b"><rect width="30" height="30"/></clipPath></defs><g id="a" clip-path="url(#b)"><path d="M27.077,9.45H26.05v-5.3A1.154,1.154,0,0,0,24.9,3H10.8A1.154,1.154,0,0,0,9.642,4.154v5.3H8.615A4.615,4.615,0,0,0,4,14.065v7.869A4.615,4.615,0,0,0,8.615,26.55H9.642v5.3A1.154,1.154,0,0,0,10.8,33H24.9a1.154,1.154,0,0,0,1.154-1.154v-5.3h1.027a4.615,4.615,0,0,0,4.615-4.615V14.065A4.615,4.615,0,0,0,27.077,9.45ZM11.95,5.308H23.742A4.142,4.142,0,0,1,19.6,9.45H11.95ZM23.742,23.2V26.55A4.142,4.142,0,0,1,19.6,30.692H11.95V23.2a3.254,3.254,0,0,0-.173-1.062H23.915A3.254,3.254,0,0,0,23.742,23.2Zm5.642-1.269a2.308,2.308,0,0,1-2.308,2.308H26.05V23.2a1.062,1.062,0,0,1,1.062-1.062,1.154,1.154,0,1,0,0-2.308H8.615a1.154,1.154,0,0,0,0,2.308A1.062,1.062,0,0,1,9.677,23.2v1.038H8.615a2.308,2.308,0,0,1-2.308-2.308V14.065a2.308,2.308,0,0,1,2.308-2.308H27.077a2.308,2.308,0,0,1,2.308,2.308Zm-2.977-5.562a1.154,1.154,0,0,1-1.154,1.154H24.1a1.154,1.154,0,1,1,0-2.308h1.154A1.154,1.154,0,0,1,26.408,16.373Z" transform="translate(-3 -3)"/></g></svg>