<svg xmlns="http://www.w3.org/2000/svg" xmlns:xlink="http://www.w3.org/1999/xlink" width="30" height="30" viewBox="0 0 30 30"><defs><clipPath id="b"><rect width="30" height="30"/></clipPath></defs><g id="a" clip-path="url(#b)"><path d="M-546-76a14.9,14.9,0,0,1-10.606-4.393A14.9,14.9,0,0,1-561-91a14.9,14.9,0,0,1,4.393-10.607A14.9,14.9,0,0,1-546-106a14.9,14.9,0,0,1,10.607,4.393A14.9,14.9,0,0,1-531-91a14.9,14.9,0,0,1-4.393,10.607A14.9,14.9,0,0,1-546-76Zm10.3-18.87h0A10.936,10.936,0,0,0-545-84a10.959,10.959,0,0,0,.7,3.87A10.936,10.936,0,0,0-535-91a10.959,10.959,0,0,0-.7-3.87Zm-20.6,0A10.971,10.971,0,0,0-557-91a11.07,11.07,0,0,0,9.3,10.868A10.948,10.948,0,0,0-547-84a10.937,10.937,0,0,0-9.3-10.87h0ZM-546-102a4.005,4.005,0,0,0-4,4,4,4,0,0,0,4,4,4,4,0,0,0,4-4A4,4,0,0,0-546-102Z" transform="translate(561 106)" fill="#a7aaad"/></g></svg>