<svg width="512" height="512" viewBox="0 0 512 512" xmlns="http://www.w3.org/2000/svg">
    <path d="m512 34c0 16 0 32 0 47 0 0-1 0-1 0 0 0-1 0-1 0 0 0-1 0-1 0 0 0 0 0-1 0 0 0 0 0 0 0 0 0-1 0-1 0 0 0 0 0 0 0 0 0-1 0-1 0 0 0-1 0-1 0-1 0-1 0-1 0-1 0-1 0-1 0-1 1-1 1-2 1 0 0-1 0-1 0 0 0-1 0-1 0 0 0 0 0-1 0 0 0-1 0-2 0 0 0 0 0 0 0-1 0-1 0-2 0 0 1-1 0-1 1 0 0-1 0-1 0-1 0-2 0-3 0 0 0 0 0 0 0-1 0-2 0-2 1-1 0-2 0-2 0-1 0-1 0-2 0-1 1-3 1-4 2-1 0-1 0-1 0-1 0-3 0-4 1-4 1-7 2-11 4 0 0-1 0-1 0-1 1-3 1-4 2-1 0-1 1-2 1-1 0-1 0-2 1 0 0 0 0-1 0 0 0 0 1-1 1 0 0 0 0-1 0 0 0 0 0 0 1-1 0-2 1-3 1-1 1-3 1-4 2-1 1-3 2-5 3 0 1-1 1-2 2-1 0-2 1-3 2-1 1-3 2-4 3-2 1-3 2-4 3-1 0-1 1-1 1-1 0-1 0-1 0 0 1-1 1-1 2 0 0-1 0-1 0 0 1-1 1-2 2 0 0 0 0 0 0-1 1-2 2-2 2 0 0 0 0 0 0-1 0-1 1-1 1 0 0 0 0-1 0 0 1 0 1-1 1 0 1-1 2-1 2-1 1-1 1-1 1-1 1-1 1-1 1 0 0 0 0-1 0 0 1 0 1 0 1 0 0-1 0-1 1 0 0 0 0 0 0 0 0 0 0-1 1 0 0 0 0 0 0 0 0 0 0 0 0-1 1-2 2-2 2 0 1-1 1-1 1 0 1-1 1-2 2 0 1 0 1 0 1-1 1-1 1-2 2-1 2-3 3-4 5-1 1-2 3-3 4 0 1-1 2-1 2-1 1-2 2-2 3-1 1-2 2-2 3-1 1-2 3-3 4-1 2-1 3-2 4 0 0 0 1-1 1 0 1-1 2-1 3 0 1 0 1-1 1 0 1 0 1 0 2-1 0-1 1-1 1 0 0 0 1-1 1 0 1 0 1-1 2 0 1 0 2-1 3 0 1 0 1-1 2-1 4-3 8-4 12-1 2-1 3-2 5 0 1 0 1 0 1-1 2-1 4-2 6 0 1 0 1 0 2 0 0 0 0 0 1-1 1-1 2-1 3 0 0 0 1 0 1 0 1 0 1 0 2 0 0 0 0 0 0-1 1-1 1-1 2 0 1 0 2 0 3 0 0 0 0 0 1 0 0 0 1 0 2 0 0 0 0 0 1 0 0 0 0 0 1 0 0 0 0 0 0 0 0 0 1 0 1 0 1 0 1 0 2-1 0-1 0-1 1 0 0 0 1 0 1 0 0 0 1 1 1 0 0-1 1 0 1 0 0 0 0 0 1 0 0 0 0 0 0 0 1 0 1 0 1 0 1 0 2 0 2 0 1 0 2 0 3 0 0 0 1 0 1 0 0 0 1 0 1 0 1 1 2 1 3 0 0 0 0 0 0 0 1 0 2 0 2 1 2 1 3 1 4 2 5 4 9 6 12 4 6 10 11 17 14 1 1 3 1 5 2 1 0 2 0 3 1 1 0 2 0 3 0 0 0 1 0 1 0 1 1 1 1 2 1 1 0 1 0 2 0 1 0 2 0 3 0 0 0 0 0 1 0 0 0 0 0 0 0 1 0 2 0 3 0 0 0 1 0 1 0 0 0 1 0 1 0 0 0 0 0 1 0 0 0 0 0 0 0 1 0 1 0 1 0 0 0 1 0 1 0 0 0 0 0 0 0 1 0 1 0 2 0 0 0 0 0 0 0 1 1 1 1 2 1 0 0 0 0 0 0 1 0 2 0 3 0 0 0 0 0 1 0 0 0 0 0 1 0 0 0 1 1 2 1 0 0 1 0 1 0 1 0 1 0 2 0 0 0 1 0 1 0 0 1 1 1 2 1 2 0 3 1 5 1 1 1 3 1 4 2 0 0 0 0 1 0 0 0 1 0 2 1 1 0 3 1 4 2 1 0 2 0 2 1 0 0 1 0 1 0 0 0 1 0 1 1 1 0 1 0 1 0 1 0 1 0 1 1 1 0 2 1 3 1 2 2 5 3 7 5 1 0 2 1 4 2 0 1 1 1 1 2 1 0 2 1 3 2 0 0 1 0 1 1 0 0 0 0 0 0 1 0 1 1 1 1 0 0 1 0 1 0 0 1 0 1 1 1 0 0 0 1 0 1 1 0 1 0 1 1 0 0 1 0 1 1 0 0 0 0 1 0 0 1 0 1 1 1 0 1 0 1 0 1 1 0 1 1 2 1 0 1 0 1 0 1 1 1 1 1 2 2 0 0 0 1 1 1 1 1 1 2 2 3 2 2 3 4 4 6 1 2 2 3 3 4 0 1 1 2 1 3 0 0 0 0 0 0 1 1 1 1 1 2 0 0 0 1 1 1 0 1 0 1 1 2 0 2 1 3 2 5 0 0 0 1 0 2 1 1 1 2 2 4 0 1 0 2 1 2 0 1 0 2 1 4 0 0 0 0 0 1 0 0 0 0 0 1 1 1 1 3 1 4 0 1 0 1 0 1 1 1 1 2 1 3 0 1 0 1 0 2 0 0 0 0 0 0 0 0 0 1 0 1 0 1 0 2 1 3 0 1 0 2 0 3 0 0 0 0 0 1 0 0 0 0 0 0 0 0 0 1 0 1 0 1 0 1 0 2 0 0 0 1 0 1 0 0 0 1 0 1 0 1 0 1 0 2 0 0 0 1 0 1 0 0 0 1 0 1 0 0 0 0 0 0 0 1 0 1 0 1 0 1 0 1 0 1 0 0 0 0 0 1 0 0 0 0 0 0 0 1 0 1 0 2 0 0 0 0 0 1 0 0 0 1-1 1 0 0 0 0 0 1 0 0 0 0 0 1 0 0 0 0 0 0 0 0 0 1 0 1 0 1 0 2 0 3 0 1 0 1-1 2 0 1 0 3 0 4 0 0 0 0-1 1 0 1 0 2 0 3 0 0 0 1-1 1 0 1 0 2 0 3-1 2-2 5-3 7 0 0 0 1 0 1-1 1-1 2-2 4 0 0-1 1-1 2 0 1 0 1 0 1-1 1-1 2-2 2 0 1 0 1 0 1 0 1 0 1-1 2-1 1-1 2-2 4-1 1-2 3-3 4-1 1-1 2-2 3-1 1-2 2-3 4 0 0-1 1-1 1 0 0 0 0 0 0-1 1-1 2-2 2 0 0 0 0 0 0-1 1-1 2-2 2 0 0 0 0 0 0 0 1 0 1 0 1 0 0-1 0-1 0 0 0 0 1 0 1 0 0 0 0 0 0-1 0-1 0-1 1 0 0 0 0-1 0 0 0 0 1 0 1-1 0-1 0-1 0 0 0 0 0 0 1-1 0-1 0-2 1 0 0 0 0 0 0 0 1-1 1-1 1-1 1-1 1-1 1-1 1-2 2-3 2-1 1-1 1-2 2-2 1-3 2-5 3-1 1-3 2-4 3-1 0-1 1-2 1 0 0 0 0 0 0-1 0-1 1-2 1 0 0 0 0 0 0-1 0-1 1-2 1 0 0 0 0 0 0-1 0-2 1-2 1-1 1-2 1-3 1-2 1-3 2-5 2 0 0 0 0-1 1-1 0-3 1-5 1 0 0-1 0-1 1-2 0-3 0-5 1 0 0-1 0-1 0-1 0-2 0-3 0-1 1-2 1-3 1 0 0 0 0 0 0-1 0-2 0-3 0 0 0 0 0 0 0-1 0-1 0-2 0-1 1-2 1-3 1 0 0 0 0 0 0 0 0-1 0-1 0 0 0 0 0 0 0-1 0-1 0-1 0-1 0-2 0-3 0 0 0 0 0 0 0 0 0-1 0-1 0-1 0-1 0-2 0 0 0-1 0-1 0 0 0-1 0-1 0-1 0-1 0-1 0 0 0 0 0 0 0-1 0-1 0-1 0-1 0-1 0-1 0 0 0-1 0-1 0 0 0-1 0-2 0 0-1 0-1-1-1 0 0-1 0-2 0 0 0 0 0 0 0-1 0-1 0-2 0 0 0 0 0 0 0-1 0-1 0-2 0 0 0 0 0 0 0 0 0-1 0-1 0-1 0-3-1-4-1-1 0-1 0-2 0 0 0-1 0-1 0-1 0-2-1-3-1-1 0-1 0-1 0-1 0-1 0-1 0-1-1-3-1-4-1 0 0-1 0-2-1 0 0 0 0 0 0-1 0-2 0-2 0-2-1-4-1-6-2-1 0-2-1-3-1 0 0-1 0-2-1-1 0-2-1-4-1-1-1-2-1-3-2-1 0-1 0-2 0 0-1-1-1-1-1-1 0-1-1-1-1-1 0-1 0-1 0-1-1-2-1-2-1-1-1-1-1-1-1-1 0-2-1-3-1-2-2-5-4-7-5-2-1-3-3-5-4 0 0 0 0-1 0-1-1-1-2-2-3-1 0-1 0-1-1 0 0 0 0-1 0 0 0 0 0-1-1 0 0 0 0 0 0 0 0 0 0 0 0-1-1-1-1-1-1 0 0 0 0-1-1 0 0 0 0-1-1 0 0-1-1-1-1 0 0-1-1-1-1 0 0 0 0 0 0 0 0 0-1-1-1 0 0 0 0 0 0 0-1-1-1-1-2 0 0-1 0-1 0 0 0 0-1-1-1 0 0 0 0 0 0-1-2-2-3-3-4 0 0 0 0 0 0-1-1-2-3-3-4 0-1-1-1-2-2 0-1 0-1 0-1-1-1-1-1-1-2-1-1-2-2-3-4 0-1-1-2-2-3 0-1-1-2-2-3 0-1 0-1 0-1 0-1 0-1-1-1 0-1 0-1 0-1 0 0 0-1-1-1 0-1 0-1 0-2 0 0 0 0-1 0 0-1-1-2-1-4-1-2-2-4-3-6 0-2-1-3-2-5 0-1 0-1 0-2 0 0 0-1-1-1 0-1 0-2-1-3 0-2-1-4-1-5 0-1-1-2-1-3 0 0 0-1 0-1 0-1-1-2-1-3 0 0 0 0 0-1 0-1-1-2-1-4 0 0 0 0 0-1-1-1-1-3-1-4 0 0 0-1 0-1 0-1 0-1 0-1-1-1-1-3-1-4 0 0 0 0 0-1 0 0 0 0 0 0 0 0 0-1-1-2 0 0 0 0 0 0 0 0 0-1 0-2 0 0 0 0 0 0 0-1 0-2 0-3 0 0 0 0 0-1 0 0 0-1-1-1 0 0 0 0 0 0 0-1 0-1 0-2 0 0 0 0 0 0 0-1 0-1 0-2 0 0 0 0 0-1 0 0 0-1 0-2 0-1 0-3-1-4 0-2 0-3 0-5 0 0 0 0 0 0 0 0 0-1 0-1 0-2 0-3 0-5 0 0 0 0 0 0 0-1 0-1 0-1 0-1 0-2 0-3 0 0 0 0 0 0 0-1 0-1 0-1 0-2 0-3 0-4 0-1 0-2 0-3 0 0 0 0 0-1 0 0 0 0 0 0 0 0 0-1 0-1 0 0 0 0 0-1 0 0 0 0 0 0 0-1 0-1 0-1 0 0 0 0 0 0 0-1 0-1 0-1 0 0 0-1 0-1 0-1 0-1 0-1 0-2 0-3 0-4 0 0 0-1 0-1 0 0 0 0 0 0 1-1 0-2 1-2 0 0 0-1 0-1 0 0 0 0 0 0 0-1 0-2 0-2 0 0 0 0 0-1 0 0 0-1 0-1 0 0 0 0 0 0 0-1 0-1 0-1 0-1 0-1 0-1 0-2 0-3 1-5 0-1 0-2 0-3 0 0 0 0 0 0 0-1 0-1 0-2 0 0 0 0 0 0 0-1 0-1 0-2 0 0 0 0 1-1 0 0 0 0 0-1 0-1 0-1 0-2 0-1 0-1 0-2 0 0 0-1 0-1 1-1 1-1 1-1 0-1 0-1 0-1 0-1 0-2 0-3 0-1 0-1 1-2 0 0 0-1 0-1 0-1 0-3 0-4 1 0 1-1 1-1 0-1 0-2 0-3 0-1 0-1 0-1 1-1 1-2 1-3 0 0 0 0 0 0 0-1 0-2 1-3 0 0 0-1 0-1 0-2 1-3 1-5 0 0 0-1 0-2 1-1 1-1 1-2 0-1 0-1 0-1 1-1 1-1 1-2 0 0 0 0 0-1 0 0 0-1 0-1 1-1 1-3 2-4 0-1 0-1 0-2 0 0 0-1 1-2 0-2 1-5 2-7 0-1 1-3 1-4 1-1 1-2 1-3 0 0 0 0 0-1 1 0 1-1 1-2 0-1 0-1 1-1 0-1 0-3 1-4 0 0 0 0 0-1 1-1 1-2 2-3 0-1 0-1 0-1 1-2 1-3 2-4 0-1 0-1 0-1 1-2 2-5 3-7 1-3 2-6 4-9 0-1 1-2 1-3 0 0 0 0 1-1 0 0 0-1 0-2 0 0 1 0 1 0 0-1 1-3 1-4 1-1 1-2 2-3 0 0 0 0 0 0 0 0 0-1 1-1 0 0 0 0 0 0 0-1 0-1 0-2 0 0 1 0 1 0 0 0 0-1 0-2 1 0 1 0 1 0 0-1 0-1 1-2 0 0 0 0 0-1 0 0 1-1 1-1 1-2 2-3 3-5 0 0 0 0 0-1 1-2 2-4 4-6 2-4 5-8 7-12 1-1 2-2 2-2 1-2 3-4 4-6 1-1 2-2 3-3 0-1 0-1 0-1 2-2 3-3 4-5 0 0 1-1 1-1 1-1 2-2 2-3 1-1 1-1 2-2 0 0 0 0 0 0 0-1 1-1 1-2 0 0 1 0 1-1 1 0 1-1 2-2 0 0 0 0 0 0 1-1 1-1 1-1 0 0 0 0 0 0 1-1 1-1 1-2 0 0 0 0 1 0 0 0 0-1 1-1 0-1 0-1 0-1 1-1 2-1 2-2 0 0 1 0 1 0 0-1 1-1 1-2 0 0 0 0 1 0 0 0 0-1 0-1 0 0 0 0 0 0 0 0 0 0 1 0 0-1 0-1 0-1 0 0 1 0 1-1 0 0 1 0 1-1 0 0 1-1 1-1 1-1 1-1 1-1 0 0 0 0 1 0 0-1 0-1 1-1 0-1 0-1 0-1 0 0 0 0 0 0 0 0 1-1 1-1 0 0 0 0 0 0 0 0 0 0 1 0 0 0 0-1 0-1 0 0 1 0 1-1 0 0 0 0 1 0 0 0 0-1 1-1 0 0 0 0 0-1 0 0 1 0 1-1 0 0 0 0 1 0 0 0 0 0 1-1 0 0 0 0 0 0 1-1 2-2 3-2 0-1 0-1 0-1 1 0 1-1 1-1 1 0 1 0 1 0 1-1 2-2 4-3 0 0 0-1 0-1 1-1 3-2 4-3 1-1 2-2 4-3 1 0 2-1 3-2 3-2 5-4 8-5 2-1 3-2 5-3 1-1 3-2 4-3 1 0 1 0 2 0 1-1 2-2 3-2 1 0 1-1 1-1 1 0 1 0 1 0 1-1 1-1 2-1 0 0 0 0 0 0 1 0 1-1 1-1 1 0 1 0 2 0 1-1 2-1 3-2 1-1 3-1 4-2 2 0 3-1 5-2 0 0 1 0 1 0 1 0 1-1 2-1 0 0 1 0 1 0 1 0 1-1 2-1 0 0 0 0 0 0 1 0 1 0 1 0 1-1 1-1 2-1 0 0 1 0 2-1 1 0 3 0 4-1 1 0 2 0 4-1 0 0 0 0 1 0 0 0 1 0 1 0 0-1 1-1 1-1 2 0 3 0 5-1 0 0 1 0 2 0 0 0 0 0 1 0 0-1 1-1 1-1 1 0 1 0 1 0 1 0 2 0 3 0 1-1 1-1 1-1 1 0 1 0 2 0 0 0 1 0 1 0 1 0 2 0 2 0 0 0 1 0 1 0 0-1 1-1 2-1 0 0 0 0 1 0 0 0 0 0 1 0 0 0 1 0 1 0 0 0 1 0 2 0 0 0 1 0 2 0 0 0 0 0 1 0 0 0 0 0 1 0 0 0 0-1 1-1 0 0 1 0 2 0 0 0 0 0 0 0 1 0 1 0 1 0 1 0 1 0 2 0 0 0 0 0 0 0 0 0 0 0 1 0 0 0 0 0 1 0 0 0 0 0 0 0 0 0 1 0 1 0 1 0 1 0 1 0 1 0 1 0 2 0z m-283 0c0 16 0 32 0 47 0 0-1 0-1 0 0 0-1 0-1 0 0 0 0 0-1 0 0 0 0 0-1 0 0 0 0 0 0 0 0 0 0 0-1 0 0 0 0 0 0 0 0 0 0 0-1 0 0 0 0 0 0 0-1 0-1 0-2 0 0 0 0 0-1 0 0 1 0 0 0 1-1 0-2 0-2 0-1 0-1 0-1 0 0 0-1 0-1 0 0 0-1 0-1 0-1 0-1 0-2 0 0 0 0 0 0 0-1 0-1 0-2 0 0 0 0 0-1 1 0 0 0 0-1 0-1 0-2 0-3 0-1 0-1 0-2 1 0 0 0 0 0 0-1 0-1 0-2 0 0 0-1 0-1 0-1 1-3 1-4 1-1 0-1 0-1 1-1 0-3 0-4 1-1 0-2 0-3 0-3 1-5 2-8 4-1 0-1 0-2 0-1 1-2 1-4 2-1 0-1 1-2 1-1 0-1 1-2 1 0 0-1 0-1 1-1 0-1 0-1 0 0 0 0 0-1 0 0 0 0 1-1 1 0 0 0 0 0 0-1 0-2 1-2 1-2 1-4 2-5 3-2 1-3 2-5 3 0 0-1 0-1 1-1 1-3 2-4 3-2 1-4 2-5 3-1 1-1 2-2 2 0 0 0 0-1 0 0 1-1 2-2 3 0 0 0 0-1 0 0 1-1 1-2 2 0 0 0 0-1 1 0 0 0 0 0 0 0 0-1 1-2 1 0 1 0 1 0 1 0 0 0 0 0 0 0 0 0 0 0 0-1 0-1 1-1 1 0 0 0 0 0 0 0 0-1 0-1 1 0 0 0 0-1 1 0 0 0 0-1 1 0 0 0 0 0 0 0 0-1 0-1 1 0 0 0 0 0 0-1 0-1 1-1 1 0 0-1 1-1 1 0 0 0 0 0 0-1 1-1 1-1 1 0 0-1 1-1 1-1 1-1 1-2 2 0 1 0 1-1 1 0 1-1 2-2 3 0 0 0 0 0 0-1 1-2 2-2 3-1 1-2 1-2 2-1 1-2 3-3 4-2 3-4 5-5 8-2 2-3 4-4 5-1 2-1 3-2 4 0 1 0 1-1 1 0 1 0 1 0 1 0 0-1 1-1 2 0 0 0 0 0 0 0 0 0 0 0 1 0 0 0 0-1 0 0 0 0 1 0 1 0 0-1 1-1 1 0 1 0 1 0 1 0 1-1 1-1 1 0 1 0 1 0 1-1 1-1 2-1 3-1 1-1 2-2 3 0 1-1 3-1 4-1 1-1 2-1 3-1 1-1 2-2 3 0 1 0 1 0 1 0 0 0 1 0 1-1 2-1 3-2 5 0 0 0 1 0 1-1 2-1 4-1 5-1 1-1 2-1 2 0 1 0 1 0 1 0 1 0 2-1 4 0 0 0 0 0 1 0 0 0 1 0 2 0 0 0 0 0 0 0 1 0 1-1 2 0 1 0 2 0 3 0 0 0 0 0 0 0 1 0 2 0 2 0 1 0 1 0 1 0 0 0 1 0 1 0 0 0 1 0 1 0 0 0 0 0 1 0 0 0 1 0 1 0 1 0 1 0 2 0 0 0 1 0 1 0 1 0 1 0 1 0 1 0 1 0 1 0 0 0 0 0 1 0 0 0 1 0 1 0 0 0 1 0 1 0 1 0 2 0 2 0 1 0 2 0 3 0 0 0 1 0 1 1 1 1 2 1 3 0 0 0 1 0 1 0 0 0 1 0 1 1 2 1 3 2 4 1 4 2 7 4 10 0 1 1 2 1 2 1 1 1 2 2 2 0 1 1 1 1 2 0 0 1 0 1 1 0 0 0 0 0 0 0 0 1 0 1 1 0 0 0 0 0 0 0 0 0 0 0 0 1 0 1 1 1 1 0 0 0 0 1 0 0 1 1 1 1 2 1 0 2 1 2 1 1 1 2 1 3 2 1 1 2 1 4 2 1 1 3 1 5 2 1 0 2 0 3 1 1 0 2 0 3 0 0 0 0 0 1 0 0 1 1 1 2 1 0 0 1 0 2 0 1 0 2 0 2 0 1 0 1 0 1 0 0 0 0 0 1 0 0 0 0 0 1 0 0 0 1 0 2 0 0 0 1 0 1 0 0 0 1 0 1 0 0 0 0 0 1 0 0 0 0 0 0 0 0 0 1 0 1 0 1 0 1 0 2 0 0 0 1 0 1 0 0 0 0 0 1 0 0 1 0 1 1 1 0 0 0 0 0 0 0 0 1 0 1 0 1 0 1 0 2 0 0 0 1 0 1 0 0 0 1 0 1 0 1 1 2 1 3 1 0 0 0 0 0 0 1 0 2 0 3 1 1 0 2 0 2 0 0 0 0 0 1 0 0 0 1 0 1 0 1 1 2 1 4 1 2 1 5 2 8 4 1 0 2 1 3 1 1 0 1 1 2 1 0 0 1 0 1 1 1 0 1 0 1 0 0 0 0 0 1 0 0 0 0 0 0 1 1 0 1 0 2 0 0 1 1 1 2 1 1 1 2 2 3 3 2 1 4 2 5 3 1 1 1 1 1 1 1 1 2 1 2 2 1 0 1 0 2 1 0 0 0 0 1 1 0 0 0 0 0 0 1 1 1 1 2 2 0 0 0 0 1 0 0 0 0 0 0 0 0 1 0 1 0 1 1 0 1 0 1 1 0 0 1 0 1 0 0 1 0 1 1 1 0 0 0 0 0 0 0 0 0 1 0 1 1 0 1 0 1 0 0 0 0 1 1 1 0 0 0 0 0 0 0 1 0 1 1 1 0 0 0 0 0 0 0 1 0 1 1 1 0 1 0 1 0 1 1 1 2 2 2 2 0 0 0 1 0 1 1 0 1 1 2 1 0 1 1 2 2 3 0 1 1 1 1 2 0 0 1 1 1 1 1 2 2 4 3 5 1 1 1 2 2 4 0 0 0 0 1 1 0 0 0 1 1 2 0 0 0 1 1 2 0 2 1 3 2 5 1 2 2 5 2 7 1 1 1 2 1 3 0 0 0 1 0 1 1 1 1 2 1 3 0 0 0 0 0 0 1 2 1 3 1 5 0 0 0 0 0 1 1 1 1 2 1 3 0 0 0 0 0 1 0 0 0 0 0 0 0 1 0 1 0 2 0 1 0 1 1 2 0 1 0 2 0 3 0 1 0 1 0 1 0 0 0 1 0 1 0 0 0 0 0 0 0 1 0 2 0 2 0 0 0 0 0 1 0 0 0 0 0 0 0 1 0 1 0 1 0 0 0 1 0 1 0 0 0 1 0 1 0 0 0 1 0 1 0 0 0 1 0 1 0 0 0 0 0 1 0 0 0 0 0 0 0 1 0 1 0 2 0 0 0 0 0 0 0 1 0 1 0 2 0 0 0 0 0 0 0 1 0 1 0 2 0 0 0 0 0 0-1 1-1 1-1 2 0 0 0 0 0 0 0 0 0 1 0 1 0 1 0 2 0 2 0 1 0 1 0 1 0 1 0 1 0 2-1 0-1 1-1 1 0 1 0 2 0 3 0 1 0 1-1 1 0 1 0 2 0 3 0 0 0 1 0 1-1 1-1 2-1 3-1 2-2 5-3 7 0 1 0 2-1 2-1 3-2 5-3 7 0 1-1 2-1 3 0 0 0 0 0 0-1 1-1 2-2 3 0 1-1 2-2 3-1 2-3 4-4 6-1 2-2 3-3 4-1 1-1 1-1 2 0 0-1 0-1 0 0 0-1 1-1 2 0 0 0 0-1 0 0 0-1 1-1 1 0 1 0 1 0 1-1 0-1 0-1 0 0 1 0 1-1 1 0 1 0 1-1 1 0 0 0 0 0 1 0 0 0 0-1 0 0 0 0 0 0 0 0 0 0 1 0 1 0 0 0 0 0 0-1 0-1 1-2 1 0 0 0 0 0 0-1 1-1 1-2 2 0 0 0 0 0 0-1 1-2 2-3 2 0 1-1 1-2 2-2 1-3 2-5 4-2 0-3 1-4 2-1 1-2 1-2 1-1 0-1 1-2 1 0 0 0 0 0 0-1 0-1 1-1 1-1 0-1 0-1 0-2 1-3 2-5 2-1 1-3 1-4 2 0 0-1 0-1 0-2 1-3 1-5 2-1 0-1 0-2 0-1 1-3 1-4 2-1 0-2 0-2 0-1 0-2 0-3 0-1 1-2 1-3 1 0 0 0 0 0 0-1 0-2 0-3 0 0 0 0 0-1 0 0 0 0 0-1 0-1 1-2 1-3 1 0 0 0 0 0 0 0 0-1 0-1 0 0 0 0 0 0 0-1 0-1 0-1 0-1 0-2 0-2 0-1 0-1 0-1 0 0 0-1 0-1 0-1 0-1 0-2 0 0 0-1 0-1 0 0 0-1 0-1 0 0 0-1 0-1 0 0 0 0 0 0 0-1 0-1 0-1 0-1 0-1 0-1 0 0 0-1 0-1 0 0 0-1 0-2 0 0-1 0-1 0-1-1 0-2 0-2 0-1 0-1 0-1 0 0 0-1 0-2 0 0 0 0 0 0 0-1 0-1 0-1 0-1 0-1 0-1 0 0 0-1 0-1 0-1 0-3-1-4-1-1 0-1 0-2 0 0 0 0 0-1 0-1 0-2-1-3-1-1 0-1 0-1 0-1 0-1 0-1 0-1-1-3-1-4-1 0 0-1 0-2-1 0 0 0 0 0 0-1 0-2 0-2 0-2-1-4-1-6-2-1 0-2-1-3-1 0 0-1 0-2-1-1 0-2-1-4-1-1-1-2-1-4-2 0 0-1 0-1-1-1 0-1 0-2 0 0-1 0-1-1-1 0 0 0 0-1-1-1 0-1 0-2-1 0 0-1 0-1 0-1-1-1-1-2-2-3-1-5-3-8-5-1-1-3-2-4-3 0 0-1-1-1-1-1 0-2-1-3-2 0 0 0-1-1-1 0 0 0 0 0 0 0 0 0-1-1-1 0 0 0 0 0 0 0 0-1-1-1-1 0 0 0 0 0 0 0 0 0 0-1-1 0 0 0-1-1-1 0 0-1-1-1-1 0-1 0-1-1-1 0 0 0 0 0 0 0 0 0 0 0 0-1-1-1-1-1-1 0-1 0-1-1-1 0 0-1-1-1-1 0-1 0-1 0-1-1 0-1-1-1-1-1 0-1-1-1-1-1-1-2-2-3-3-2-3-4-6-6-9-1-1-2-3-3-4 0-1 0-2-1-3 0 0 0 0 0 0-1-1-1-2-2-3 0 0 0-1 0-1 0 0-1-1-1-1 0 0 0-1 0-1 0 0-1-1-1-1 0 0 0-1 0-1 0 0-1-1-1-1 0-1-1-2-1-3-1-2-2-4-3-7 0-1-1-3-2-4 0-1 0-1 0-2 0 0 0-1-1-1 0-1 0-2 0-3-1-2-2-4-2-5 0-1-1-2-1-3 0 0 0-1 0-1 0-1-1-2-1-3 0 0 0-1 0-1 0-1-1-2-1-4 0 0 0 0 0-1-1-1-1-3-1-4 0-1 0-1 0-1 0-1 0-1 0-1-1-2-1-3-1-4 0 0 0-1 0-1 0 0 0 0 0 0 0-1 0-1 0-2 0 0-1 0-1 0 0-1 0-1 0-2 0 0 0 0 0 0 0-1 0-2 0-3 0-1 0-1 0-1 0-1 0-1 0-1 0 0 0-1 0-1-1 0-1-1-1-1 0 0 0 0 0-1 0 0 0-1 0-1 0-1 0-1 0-1 0-1 0-1 0-2 0-2 0-3 0-4-1-2-1-3-1-5 0 0 0 0 0 0 0-1 0-1 0-1 0-2 0-3 0-5 0 0 0 0 0 0 0 0 0-1 0-1 0-1 0-2 0-3 0 0 0 0 0 0 0 0 0-1 0-1 0-1 0-3 0-4 0 0 0-1 0-1 0-1 0-1 0-2 0 0 0 0 0-1 0 0 0 0 0 0 0 0 0-1 0-1 0 0 0-1 0-1 0 0 0 0 0 0 0-1 0-1 0-1 0 0 0 0 0-1 0 0 0-1 0-1 0 0 0-1 0-1 0-1 0-3 0-4 1-1 1-2 1-4 0 0 0 0 0 0 0-1 0-1 0-2 0 0 0 0 0 0 0-1 0-2 0-2 0 0 0 0 0 0 0-1 0-1 0-2 0 0 0 0 0 0 0-2 1-4 1-5 0-1 0-2 0-3 0 0 0 0 0 0 0-1 0-1 0-2 0 0 0 0 0 0 0-1 0-1 0-2 1 0 1 0 1-1 0 0 0 0 0-1 0-1 0-1 0-2 0-1 0-1 0-2 0 0 0-1 1-1 0-1 0-1 0-1 0-1 0-1 0-1 0-1 0-2 0-3 0-1 0-1 1-2 0 0 0-1 0-1 0-1 0-3 0-4 1 0 1 0 1-1 0-1 0-2 0-3 0 0 0-1 0-1 1-1 1-2 1-3 0 0 0 0 0 0 0-1 0-2 1-2 0-1 0-2 0-2 0-2 1-3 1-5 0-1 0-1 1-2 0 0 0-1 0-2 0 0 0-1 0-1 1-1 1-1 1-2 0 0 0-1 0-1 0 0 0-1 1-2 0-1 1-3 1-5 0 0 0 0 0-1 1-1 1-2 1-2 1-3 1-5 2-7 1-1 1-3 1-4 1 0 1-1 1-2 0 0 0 0 0 0 1-1 1-2 1-3 0 0 0-1 1-1 0-1 0-2 1-3 0 0 0-1 0-1 1-1 1-3 1-4 1 0 1-1 1-1 0-1 1-3 1-4 1-2 2-5 3-7 2-3 3-6 4-9 1-2 2-4 4-7 0-1 0-1 1-2 0 0 0-1 0-1 0 0 1-1 1-2 0 0 1-1 1-2 0-1 1-1 1-1 0-1 1-3 2-4 0 0 0 0 0 0 0-1 1-1 1-2 0-1 1-1 1-2 1-1 2-3 2-4 1-1 1-1 1-1 2-3 3-6 5-8 1-2 2-4 3-5 0-1 1-2 1-2 2-4 5-7 7-10 1-2 2-3 3-4 0 0 0-1 0-1 1-1 2-2 3-4 0 0 1 0 1-1 1-1 2-3 3-4 1 0 1-1 2-1 0-2 1-3 2-4 0 0 1 0 1-1 0 0 0 0 0 0 1-1 1-1 2-1 0-1 0-1 0-1 0 0 1-1 1-1 1-1 1-1 1-1 1-1 2-2 2-3 0 0 1 0 1 0 0-1 1-1 2-2 0 0 0-1 0-1 0 0 0 0 0 0 0 0 1 0 1 0 0 0 0-1 0-1 0 0 0 0 1 0 0 0 0 0 0 0 0-1 0-1 0-1 0 0 1 0 1 0 0-1 0-1 0-1 0 0 1 0 1-1 1 0 1-1 2-2 0 0 1 0 1-1 0 0 1 0 1-1 0 0 0 0 1 0 0 0 0 0 0-1 0 0 0 0 1 0 0 0 0-1 0-1 0 0 1-1 1-1 0 0 0 0 1 0 0 0 0-1 1-1 0 0 0-1 0-1 1 0 1 0 1-1 0 0 1 0 1 0 0 0 0-1 1-1 0 0 0 0 0 0 1-1 2-2 3-2 0-1 0-1 0-1 1 0 1-1 1-1 2-1 3-2 4-3 0 0 0 0 1-1 1-1 2-2 4-3 1-1 2-2 3-3 2-1 3-1 5-2 2-2 5-4 8-6 1-1 3-2 5-3 1-1 2-1 4-2 0 0 1-1 1-1 1 0 1-1 2-1 1-1 2-1 3-2 1 0 1 0 1 0 1 0 1-1 1-1 1 0 1 0 2-1 0 0 0 0 0 0 1 0 2-1 3-1 1-1 3-1 4-2 2-1 3-1 4-2 2 0 4-1 5-2 1 0 2 0 2 0 1-1 2-1 3-1 0 0 0 0 0 0 1-1 2-1 3-1 1-1 3-1 4-2 1 0 2 0 2 0 2-1 3-1 4-1 0 0 0 0 1 0 0-1 1-1 2-1 1 0 2 0 4-1 0 0 0 0 1 0 0 0 0 0 0 0 1 0 2 0 2 0 1-1 2-1 2-1 1 0 1 0 1 0 1 0 2 0 3-1 0 0 1 0 1 0 0 0 1 0 1 0 1 0 1 0 2 0 0 0 1 0 2 0 0 0 0 0 0 0 1-1 2-1 2-1 1 0 1 0 1 0 1 0 1 0 1 0 0 0 1 0 1 0 0 0 0 0 1 0 0 0 1 0 1 0 1 0 2 0 3 0 0 0 0 0 0 0 1-1 1 0 1-1 1 0 1 0 1 0 1 0 1 0 2 0 0 0 0 0 0 0 1 0 1 0 1 0 0 0 0 0 1 0 0 0 1 0 1 0 0 0 1 0 1 0 0 0 1 0 1 0 0 0 0 0 0 0 1 0 1 0 1 0 1 0 1 0 1 0 1 0 1 0 2 0z"></path>
</svg>