<svg xmlns="http://www.w3.org/2000/svg" xmlns:xlink="http://www.w3.org/1999/xlink" width="30" height="30" viewBox="0 0 30 30"><defs><clipPath id="b"><rect width="30" height="30"/></clipPath></defs><g id="a" clip-path="url(#b)"><path d="M32.4,6.813C26.075,3.375,19.844,5.705,18,6.547c-1.846-.842-8.076-3.173-14.4.265a1.154,1.154,0,0,0-.6,1V29.23a1.142,1.142,0,0,0,1.719.992c6.219-3.392,12.691,0,12.691,0h.138a1.558,1.558,0,0,0,.45.162h.162l.231-.058h.1c.069,0,6.53-3.392,12.749,0A1.179,1.179,0,0,0,33,29.23V7.816A1.154,1.154,0,0,0,32.4,6.813ZM16.845,23.1A3.461,3.461,0,0,1,12.9,26.565a15.4,15.4,0,0,0-7.592.854V8.532a13.845,13.845,0,0,1,9.9-.554,2.307,2.307,0,0,1,1.638,2.215ZM30.69,18.269a8.365,8.365,0,0,1-7.5,8.249,18.033,18.033,0,0,0-4.038.969V8.555a16.383,16.383,0,0,1,5.584-1.246,5.769,5.769,0,0,1,5.953,5.769Z" transform="translate(-3 -2.991)"/></g></svg>