<svg xmlns="http://www.w3.org/2000/svg" xmlns:xlink="http://www.w3.org/1999/xlink" width="30" height="30" viewBox="0 0 30 30"><defs><clipPath id="b"><rect width="30" height="30"/></clipPath></defs><g id="a" clip-path="url(#b)"><g transform="translate(-18.314 -17)"><g transform="translate(19.7 17)"><path d="M30.909,57.455H20V68.818h3.636V64.455a14.3,14.3,0,0,0,22.682-4.273l.773-1.636L43.818,57l-.773,1.636a10.65,10.65,0,0,1-9.636,6.045,10.88,10.88,0,0,1-8-3.591h5.5Z" transform="translate(-19.864 -38.818)"/><path d="M23.745,27.227a10.684,10.684,0,0,1,9.5-5.818,10.989,10.989,0,0,1,7.727,3.273H35.291v3.636H46.2V17H42.564v4.273a14.473,14.473,0,0,0-9.318-3.455,14.227,14.227,0,0,0-12.727,7.773L19.7,27.227l3.227,1.682Z" transform="translate(-19.7 -17)"/></g></g></g></svg>