<svg xmlns="http://www.w3.org/2000/svg" xmlns:xlink="http://www.w3.org/1999/xlink" width="30" height="30" viewBox="0 0 30 30"><defs><clipPath id="b"><rect width="30" height="30"/></clipPath></defs><g id="a" clip-path="url(#b)"><path d="M23.587,27.75a1.25,1.25,0,0,1-2.5,0A10.85,10.85,0,0,0,10.25,16.913a1.25,1.25,0,0,1,0-2.5A13.362,13.362,0,0,1,23.587,27.75ZM10.25,19.413a1.25,1.25,0,0,0,0,2.5,5.85,5.85,0,0,1,5.837,5.837,1.25,1.25,0,1,0,2.5,0A8.35,8.35,0,0,0,10.25,19.413Zm.862,5.375a2.112,2.112,0,1,0,2.1,2.1,2.112,2.112,0,0,0-2.1-2.1ZM34,9V29a5,5,0,0,1-5,5H9a5,5,0,0,1-5-5V9A5,5,0,0,1,9,4H29A5,5,0,0,1,34,9Zm-2.5,5A7.5,7.5,0,0,0,24,6.5H9A2.5,2.5,0,0,0,6.5,9V29A2.5,2.5,0,0,0,9,31.5h7.5a15,15,0,0,0,15-15Z" transform="translate(-4 -4)"/></g></svg>