<svg xmlns="http://www.w3.org/2000/svg" xmlns:xlink="http://www.w3.org/1999/xlink" width="30" height="30" viewBox="0 0 30 30"><defs><clipPath id="b"><rect width="30" height="30"/></clipPath></defs><g id="a" clip-path="url(#b)"><g transform="translate(-2.5 -5.5)"><path d="M32.192,12.459a1.4,1.4,0,0,0-1.074-.505H10.46L9.8,8.606A1.381,1.381,0,0,0,8.47,7.5H3.858a1.358,1.358,0,1,0,0,2.717H7.333l3.254,16.394a1.381,1.381,0,0,0,1.327,1.106H28.276A1.352,1.352,0,0,0,29.6,26.642L32.445,13.6A1.152,1.152,0,0,0,32.192,12.459Z" transform="translate(0 0)"/><circle cx="2.495" cy="2.495" r="2.495" transform="translate(12.482 29.39)"/><circle cx="2.495" cy="2.495" r="2.495" transform="translate(22.621 29.39)"/></g></g></svg>