<svg xmlns="http://www.w3.org/2000/svg" xmlns:xlink="http://www.w3.org/1999/xlink" width="30" height="30" viewBox="0 0 30 30"><defs><clipPath id="b"><rect width="30" height="30"/></clipPath></defs><g id="a" clip-path="url(#b)"><g transform="translate(-7.796 -12.057)"><path d="M21.254,15.057a3.757,3.757,0,0,0-2.825,1.4,10.2,10.2,0,0,0-1.2,2.11l-1.691,3.491h3.364L19.959,19.9a10.554,10.554,0,0,1,.838-1.543c.217-.272.178-.264.456-.264H33.61c.278,0,.24-.008.458.264a10.591,10.591,0,0,1,.839,1.543l1.053,2.159h3.363c-.53-1.158-1.125-2.332-1.69-3.491a10.225,10.225,0,0,0-1.2-2.11,3.752,3.752,0,0,0-2.825-1.4H21.254Z" transform="translate(-4.636 0)"/><path d="M29.993,39.325h.648a.779.779,0,0,1,.771,1.053L29.736,46.65A1.471,1.471,0,0,1,28.4,47.7h-.648a.78.78,0,0,1-.772-1.054l1.677-6.272A1.471,1.471,0,0,1,29.993,39.325Zm-7.521,0h.65a1.049,1.049,0,0,1,1.052,1.053V46.65A1.05,1.05,0,0,1,23.122,47.7h-.65A1.049,1.049,0,0,1,21.42,46.65V40.378A1.049,1.049,0,0,1,22.472,39.325Zm-7.521,0h.65a1.467,1.467,0,0,1,1.334,1.053l1.679,6.272a.781.781,0,0,1-.772,1.054H17.2a1.47,1.47,0,0,1-1.336-1.054l-1.677-6.272A.778.778,0,0,1,14.951,39.325ZM9.718,35.48A1.965,1.965,0,0,0,7.8,37.492V37.8a1.965,1.965,0,0,0,1.922,2.012h.8L13.192,48.9c.341,1.42,1.112,2.645,2.495,2.645h14.22c1.382,0,2.153-1.226,2.495-2.645l2.672-9.089h.8A1.965,1.965,0,0,0,37.8,37.8v-.308a1.965,1.965,0,0,0-1.922-2.012Z" transform="translate(0 -12.224)"/></g></g></svg>