<?xml version="1.0" encoding="utf-8"?>
<!-- Generator: Adobe Illustrator 23.0.1, SVG Export Plug-In . SVG Version: 6.00 Build 0)  -->
<svg version="1.1" id="Layer_1" xmlns="http://www.w3.org/2000/svg" xmlns:xlink="http://www.w3.org/1999/xlink" x="0px" y="0px"
	 viewBox="0 0 512 512" style="enable-background:new 0 0 512 512;" xml:space="preserve">
<path d="M371.7,182.9c-7-7-18.9-7-25.9,0c-7,7-7,18.9,0,25.9l29.7,29.7H137l29.7-29.7c7-7,7-18.9,0-25.9c-7-7-18.9-7-25.9,0
	l-61,60.4c-7,7-7,18.9,0,25.9l60.4,60.4c3.8,3.8,8.1,5.4,12.9,5.4c4.9,0,9.2-1.6,12.9-5.4c7-7,7-18.9,0-25.9l-29.7-29.7H375
	l-29.7,29.7c-7,7-7,18.9,0,25.9c3.8,3.8,8.1,5.4,12.9,5.4c4.9,0,9.2-1.6,12.9-5.4l60.4-60.4c7-7,7-18.9,0-25.9L371.7,182.9z"/>
<path d="M423,0H89.6C40.5,0,0,40.5,0,89.6v332.9C0,472.1,40.5,512,89.6,512h332.9c49.6,0,89.6-40.5,89.6-89.6V89.6
	C512.5,40.5,472.1,0,423,0L423,0z M475.9,423c0,29.1-23.7,53.4-53.4,53.4H89.6c-29.1,0-53.4-23.7-53.4-53.4V89.6
	c0-29.1,23.7-53.4,53.4-53.4h332.9c29.1,0,53.4,23.7,53.4,53.4V423z"/>
</svg>
