<svg width="512" height="512" viewBox="0 0 512 512" xmlns="http://www.w3.org/2000/svg">
    <path d="m465 291c2-10 3-22 3-33c0-118-96-214-214-214c-11 0-22 1-33 3c-20-12-43-19-68-19c-71 0-129 57-129 129c0 25 7 48 19 68c-2 11-2 22-2 33c0 118 95 214 213 214c12 0 23-1 34-3c19 12 43 19 68 19c71 0 129-57 129-129c0-25-7-48-20-68z m-109 64c-9 13-23 23-40 31c-17 7-38 11-62 11c-28 0-52-5-70-15c-13-7-24-17-32-29c-9-12-13-24-13-36c0-6 3-12 8-17c5-5 12-7 19-7c7 0 12 2 16 5c5 4 9 10 12 17c3 8 7 15 11 21c4 5 10 10 18 14c7 3 17 5 30 5c17 0 31-4 41-11c11-7 16-16 16-27c0-9-3-15-8-21c-6-5-13-9-23-12c-9-3-21-6-36-9c-21-5-38-10-52-16c-14-6-26-15-34-25c-8-11-12-24-12-39c0-15 4-28 13-40c9-11 21-20 38-26c16-7 35-10 58-10c17 0 33 2 46 6c13 5 23 10 32 17c9 7 15 14 19 21c4 8 6 15 6 22c0 7-3 13-8 18c-5 6-11 8-19 8c-7 0-12-1-16-5c-3-3-7-8-11-15c-5-10-11-18-19-23c-7-6-18-8-34-8c-15 0-27 3-36 9c-9 6-13 13-13 21c0 5 1 9 4 13c3 4 7 7 13 10c5 3 11 5 16 6c6 2 15 4 28 7c16 4 31 8 44 12c13 4 24 9 34 15c9 7 16 14 22 24c5 9 7 21 7 34c0 17-4 31-13 44z"></path>
</svg>