<svg xmlns="http://www.w3.org/2000/svg" xmlns:xlink="http://www.w3.org/1999/xlink" width="30" height="30" viewBox="0 0 30 30"><defs><clipPath id="b"><rect width="30" height="30"/></clipPath></defs><g id="a" clip-path="url(#b)"><path d="M90.787,87.753c.4-.079.714-.238,1.031-.317a3.026,3.026,0,0,1,1.507.238.96.96,0,0,1,.159,1.745,8.279,8.279,0,0,1-1.9.873c-1.428.555-1.666,1.031-.873,2.38a8.423,8.423,0,0,0,5.553,4.68c.238,0,.714.317.635.476a1.178,1.178,0,0,1-.476,1.031,15.523,15.523,0,0,1-2.7.952c-.635.159-.873.317-.952.873-.317,1.19-.555,1.348-1.666,1.111a6.067,6.067,0,0,0-4.918,1.11c-3.173,2.221-5.473,2.221-8.567-.079a5.913,5.913,0,0,0-4.839-1.031c-1.269.238-1.428.079-1.745-1.111-.079-.476-.317-.714-.873-.873a10.164,10.164,0,0,1-2.618-.873,1.311,1.311,0,0,1-.635-1.031c-.079-.159.476-.555.873-.635a8.622,8.622,0,0,0,5.632-5.235.933.933,0,0,0-.4-1.348,10.592,10.592,0,0,0-1.428-.555l-.952-.476c-.555-.317-1.031-.714-.635-1.507a1.48,1.48,0,0,1,1.824-.714,4.587,4.587,0,0,0,1.11.4c.555.079.793-.079.793-.714,0-1.428-.079-2.856,0-4.283a7.023,7.023,0,0,1,4.759-6.187c3.966-1.507,8.646-.317,10.788,3.49a8.913,8.913,0,0,1,.952,4.283c-.079.952-.079,1.824-.159,2.776C89.994,87.753,90.311,87.912,90.787,87.753Z" transform="translate(-66.904 -75.015)"/></g></svg>