<svg xmlns="http://www.w3.org/2000/svg" xmlns:xlink="http://www.w3.org/1999/xlink" width="30" height="30" viewBox="0 0 30 30"><defs><clipPath id="b"><rect width="30" height="30"/></clipPath></defs><g id="a" clip-path="url(#b)"><path d="M11.089,159.778c0,.082-.444.141-.771.141a1.235,1.235,0,0,1-.508-.163l-.572-3.6.572-4.577a1.235,1.235,0,0,1,.508-.163c.327,0,.771.1.771.186l.736,4.577-.736,3.6m4.744.795c0,.327-.555.49-.882.49-.409,0-.77-.141-.77-.3l-.49-4.577.49-8.676c0-.327.362-.513.77-.513.327,0,.882.163.882.49l.49,8.676-.49,4.414m3.052.817c-.409,0-.572-.245-.572-.654v-16.51a.54.54,0,0,1,.49-.572A9.292,9.292,0,0,1,22.319,143a9.164,9.164,0,0,1,6.375,2.452,8.762,8.762,0,0,1,3.106,5.967,4.573,4.573,0,0,1,2.043-.409,5.241,5.241,0,0,1,3.842,1.553,4.71,4.71,0,0,1,1.553,3.6,5.06,5.06,0,0,1-1.553,3.76,5.585,5.585,0,0,1-3.842,1.553l-14.957-.082" transform="translate(-9.238 -137)"/></g></svg>