<?xml version="1.0" encoding="utf-8"?>
<!-- Generator: Adobe Illustrator 23.0.1, SVG Export Plug-In . SVG Version: 6.00 Build 0)  -->
<svg version="1.1" id="Layer_1" xmlns="http://www.w3.org/2000/svg" xmlns:xlink="http://www.w3.org/1999/xlink" x="0px" y="0px"
	 viewBox="0 0 30 30" style="enable-background:new 0 0 30 30;" xml:space="preserve">
<g>
	<path d="M12,16.2v1.3h6.1v-1.3c0-1.9,0.7-3.9,2.1-5.6c0.9-1.1,1.3-2.4,1.3-3.7c0-3.4-2.9-6.1-6.5-6.1c-0.2,0-0.5,0-0.7,0
		C11.4,1,9,3.2,8.6,6C8.3,7.7,8.8,9.4,10,10.8C11.2,12.2,12,14.1,12,16.2L12,16.2z"/>
	<path d="M25.4,20.9c0-0.7-0.2-1.3-0.6-1.8l-19.6,0c-0.4,0.5-0.6,1.1-0.6,1.8v2h20.8L25.4,20.9z"/>
	<path d="M27.1,24.6H2.9c-0.1,0.2-0.1,0.4-0.1,0.6v3.5c0,0.3,0.3,0.6,0.6,0.6h23.2c0.3,0,0.6-0.3,0.6-0.6v-3.5
		C27.2,25,27.2,24.8,27.1,24.6L27.1,24.6z"/>
</g>
</svg>
