<svg width="512" height="512" viewBox="0 0 512 512" xmlns="http://www.w3.org/2000/svg">
    <path d="m0 399l29 12c5 24 17 43 36 59 20 16 42 24 67 24 27 0 50-10 70-28 20-18 32-41 34-67l135-99c26 0 49-6 71-19 21-12 39-30 51-51 13-22 19-45 19-71 0-25-6-49-19-70-12-22-30-39-51-52-22-12-45-18-71-18-25 0-49 6-70 18-22 13-39 29-51 51-13 21-20 45-20 70l-87 126c-5-1-9-1-11-1-20 0-38 5-54 15l-78-32z m63 26l38 15c8 3 16 5 23 5l24-5c16-7 27-18 33-34 3-8 5-15 5-23 0-8-2-16-5-24-7-16-18-27-34-33l-32-13c5-1 11-2 17-2 21 0 39 8 54 23 15 15 23 33 23 55 0 21-8 39-23 54-15 15-33 23-54 23-15 0-29-4-41-11-12-8-21-18-28-30z m214-266c0-26 9-48 27-66 19-19 41-28 67-28 26 0 48 9 67 28 18 18 28 40 28 66 0 26-10 48-28 67-19 18-41 28-67 28-26 0-48-10-67-28-18-19-27-41-27-67z m19 0c0 21 7 38 22 53 15 15 33 22 54 22 20 0 38-7 53-22 15-15 22-32 22-53 0-21-7-39-22-53-15-15-33-22-53-22-21 0-39 7-54 22-15 14-22 32-22 53z"></path>
</svg>