<svg xmlns="http://www.w3.org/2000/svg" xmlns:xlink="http://www.w3.org/1999/xlink" width="30" height="30" viewBox="0 0 30 30"><defs><clipPath id="b"><rect width="30" height="30"/></clipPath></defs><g id="a" clip-path="url(#b)"><path d="M19.77,4.77a15,15,0,1,0,15,15,15,15,0,0,0-15-15Zm6.358,25.552a12.208,12.208,0,0,1-8.255,1.63A12.355,12.355,0,0,1,7.588,21.667a12.208,12.208,0,0,1,1.63-8.255,1.336,1.336,0,0,1,2.084-.227L26.355,28.238a1.336,1.336,0,0,1-.227,2.084Zm4.194-4.194a1.336,1.336,0,0,1-2.084.227L13.185,11.3a1.336,1.336,0,0,1,.227-2.084,12.208,12.208,0,0,1,8.255-1.63A12.355,12.355,0,0,1,31.952,17.873a12.208,12.208,0,0,1-1.63,8.255Z" transform="translate(-4.77 -4.77)"/></g></svg>