<svg width="512" height="512" viewBox="0 0 512 512" xmlns="http://www.w3.org/2000/svg">
    <path d="m492 124l0 0c-12-49-65-100-115-111l0 0c-80-15-161-15-241 0l0 0c-49 11-103 62-115 111l0 0c-15 67-15 136 0 203l0 0c11 46 61 96 109 109l0 54c0 20 23 29 37 15l54-57c12 1 24 1 36 1 40 0 80-3 120-11l0 0c50-11 103-62 115-111l0 0c15-67 15-136 0-203z m-43 193c-8 31-48 71-81 78-42 8-85 11-128 10-1 0-10 0-12 1-6 6-24 25-24 25l-42 43c-3 4-9 1-9-3l3-73c0-2-10-3-11-3-32-7-73-47-81-78-13-61-13-122 0-183 8-31 49-71 81-78 74-14 149-14 223 0 33 7 73 47 81 78 14 61 14 122 0 183z m-122 41c-5-1-10-2-14-4-46-19-88-44-121-81-19-21-34-45-46-71-6-12-11-25-16-37-5-11 2-23 9-32 7-8 16-14 25-18 7-4 15-2 20 4 12 14 22 28 31 44 5 9 4 21-6 28-2 1-4 3-7 5-1 1-3 3-5 5-2 4-2 9-1 13 12 33 32 58 65 72 6 2 11 4 17 4 10-1 13-13 20-18 7-6 16-6 24-1 7 4 15 9 22 15 7 5 14 10 20 15 7 6 9 13 5 21-6 13-16 25-29 32-4 2-9 3-13 4-5-1 4-1 0 0z m-70-259c59 2 109 41 119 100 2 10 2 21 3 31 1 4-2 8-6 8-5 0-7-4-8-8 0-8-1-17-2-25-6-45-42-82-86-90-7-1-13-1-20-2-4 0-10-1-11-6-1-4 3-8 7-8 1 0 3 0 4 0 59 2-1 0 0 0z m90 118c0 0 0 2 0 4-2 6-11 6-13 0 0-1-1-3-1-5 0-13-2-26-9-37-6-11-16-20-28-26-7-4-15-6-23-7-3-1-6-1-10-2-4 0-6-3-6-7 0-4 3-6 7-6 14 1 27 4 39 10 25 13 39 34 43 62 0 1 1 2 1 3 0 3 0 6 0 11 0 0 0-5 0 0z m-37-2c-5 0-7-3-8-7 0-3 0-7-1-10-2-6-5-11-10-15-3-2-5-3-8-4-4-1-8-1-11-2-4-1-7-4-6-8 1-3 4-6 8-5 23 1 39 13 42 40 0 2 0 4 0 6-1 3-3 5-6 5-5 0 3 0 0 0z"></path>
</svg>