<svg width="512" height="512" viewBox="0 0 512 512" xmlns="http://www.w3.org/2000/svg">
    <path d="m31 77c6 42 13 82 22 119 9 38 18 70 28 97 10 27 21 52 33 75 11 23 22 42 33 57 10 15 21 28 31 40 11 11 20 20 27 26 6 5 13 10 18 13 9 5 18 8 26 8 8 0 16-2 24-7 5-3 12-8 21-16 8-7 18-17 29-29 11-12 23-24 34-38 11-14 22-30 33-47 11-18 21-35 29-52 21 0 42-3 62-7l0-61c-15 3-28 4-38 4-33 0-61-11-82-33-22-22-33-53-33-91 0-18 4-33 10-43 7-10 15-15 26-15 10 0 19 5 25 14 6 9 9 22 9 40 0 16-4 35-10 57 0 0 0 1 1 1 0 1 1 2 2 3 1 2 3 3 4 5 2 1 3 3 6 5 2 2 5 3 8 5 3 1 6 2 10 4 4 1 8 2 12 3 4 0 9 0 14 0 6 0 11-1 17-2 12-26 18-56 18-88 0-39-10-70-29-92-20-21-48-32-84-32-25 0-46 6-64 18-19 11-32 27-42 48-9 20-14 43-14 68 0 38 9 72 25 103 17 30 40 53 69 68-24 48-54 90-88 125-13-16-25-31-35-46-10-15-21-34-32-55-11-21-20-43-28-67-8-23-16-51-23-82-7-32-12-66-17-103z"></path>
</svg>