<svg width="512" height="512" viewBox="0 0 512 512" xmlns="http://www.w3.org/2000/svg">
    <path d="m0 159c0-2 0-3 1-4l1-2c2-3 7-5 15-5l73-1c2 1 4 1 6 2 2 1 3 2 4 2l2 1c2 2 5 5 6 9 4 9 8 18 12 27 5 10 9 17 11 22l4 8c6 11 11 20 15 28 5 7 10 14 13 18 4 4 8 8 11 10 4 3 7 4 9 4 3 0 5-1 8-1 0-1 0-1 1-2 1-1 2-2 3-6 2-3 3-7 4-12 1-5 1-13 2-22 1-9 1-20 0-33 0-7-1-14-2-20-1-5-3-10-4-12l-1-3c-5-6-12-10-23-12-2 0-2-2 1-6 3-3 7-6 10-8 10-5 31-7 64-6 15 0 27 1 36 3 4 1 7 2 9 4 2 1 4 3 6 6 1 3 2 6 2 9 1 3 1 7 1 12 0 5 0 10 0 14 0 5 0 11-1 19 0 8 0 16 0 22 0 2 0 6 0 11-1 6-1 10 0 13 0 3 0 7 0 11 1 4 2 8 4 10 1 3 3 5 6 7 1 0 2 1 4 1 2 0 4-1 7-3 3-2 6-5 10-9 4-4 8-10 14-18 6-8 12-18 18-29 11-18 20-38 29-60 0-1 1-3 2-4 1-2 2-3 3-3l1-1 2-1c0 0 1 0 3 0 2-1 4-1 5 0l77-1c7-1 13-1 17 1 5 1 8 2 9 4l1 3c4 11-9 37-40 78-4 6-10 13-17 23-14 18-22 29-24 35-3 7-2 14 4 21 3 4 10 11 21 22l0 0 1 0 0 1 1 0c25 24 42 43 50 59 1 1 2 2 2 4 1 1 1 3 2 7 1 3 1 6 0 9-1 2-3 5-7 7-3 2-9 3-15 3l-69 1c-4 1-9 1-15-1-5-2-10-4-14-6l-5-3c-5-4-11-9-19-17-7-8-13-15-18-21-5-6-10-11-16-15-6-4-11-6-15-4-1 0-1 0-2 1-1 0-3 1-5 3-2 3-4 5-6 8-1 3-3 8-4 14-1 6-2 13-2 21 0 3 0 5-1 7 0 2-1 4-2 5l-1 1c-3 4-8 6-14 6l-31 0c-12 1-25 0-39-4-13-4-25-8-35-14-10-6-19-12-27-18-8-6-15-11-19-15l-7-7c-1-1-4-4-7-8-3-3-9-11-19-24-10-12-19-26-28-40-9-14-20-33-33-56-12-24-24-48-35-73-1-3-1-5-1-7z"></path>
</svg>