<?xml version="1.0" encoding="utf-8"?>
<!-- Generator: Adobe Illustrator 23.0.1, SVG Export Plug-In . SVG Version: 6.00 Build 0)  -->
<svg version="1.1" id="Layer_1" xmlns="http://www.w3.org/2000/svg" xmlns:xlink="http://www.w3.org/1999/xlink" x="0px" y="0px"
	 viewBox="0 0 30 30" style="enable-background:new 0 0 30 30;" xml:space="preserve">
<path d="M29.5,22.7L18.1,3.6c-0.7-1.1-1.8-1.8-3.1-1.8s-2.4,0.7-3.1,1.7L0.5,22.7c-0.7,1.1-0.7,2.5,0,3.6c0.6,1.1,1.8,1.8,3.1,1.8
	h22.8c1.3,0,2.5-0.7,3.1-1.8C30.2,25.2,30.2,23.8,29.5,22.7L29.5,22.7z M13.5,11c0-0.8,0.7-1.5,1.5-1.5c0.8,0,1.5,0.7,1.5,1.5v6
	c0,0.8-0.7,1.5-1.5,1.5c-0.8,0-1.5-0.7-1.5-1.5V11z M15,23.5c-1,0-1.8-0.8-1.8-1.8c0-1,0.8-1.8,1.8-1.8s1.8,0.8,1.8,1.8
	C16.8,22.7,16,23.5,15,23.5z"/>
</svg>
