<svg width="512" height="512" viewBox="0 0 512 512" xmlns="http://www.w3.org/2000/svg">
    <path d="m512 249c0 138-113 250-251 250-44 0-86-11-122-31l-139 44 45-134c-23-37-36-81-36-129 0-137 113-249 252-249 138 0 251 112 251 249z m-251-209c-117 0-212 94-212 209 0 46 15 89 41 123l-27 78 81-26c34 22 74 35 117 35 116 0 211-94 211-210 0-115-95-209-211-209z m127 267c-2-3-6-4-12-7-6-3-37-18-42-20-6-2-10-3-14 3-4 6-16 20-20 24-3 4-7 4-13 1-6-3-26-9-50-30-18-16-30-36-34-42-3-6 0-10 3-13 3-2 6-7 9-10 3-4 4-7 6-11 2-4 1-7 0-10-2-3-14-33-19-46-5-12-11-10-14-10-4 0-8 0-12 0-4 0-11 1-16 7-6 6-22 21-22 51 0 30 22 59 25 63 3 4 43 68 105 93 63 24 63 16 74 15 12-1 37-15 42-29 5-14 5-27 4-29z"></path>
</svg>