<svg xmlns="http://www.w3.org/2000/svg" xmlns:xlink="http://www.w3.org/1999/xlink" width="30" height="30" viewBox="0 0 30 30"><defs><clipPath id="b"><rect width="30" height="30"/></clipPath></defs><g id="a" clip-path="url(#b)"><path d="M-183-318v0l2.636-7.85a14.29,14.29,0,0,1-2.109-7.559A14.7,14.7,0,0,1-167.707-348a14.662,14.662,0,0,1,10.386,4.285A14.427,14.427,0,0,1-153-333.41a14.694,14.694,0,0,1-14.707,14.648,14.743,14.743,0,0,1-7.149-1.816L-183-318Zm10.312-22.031a1.208,1.208,0,0,0-.938.41l-.035.035a3.9,3.9,0,0,0-1.254,2.954,6.774,6.774,0,0,0,1.462,3.687l0,0c.012.016.035.05.068.1l0,0a14.279,14.279,0,0,0,6.081,5.346,11.115,11.115,0,0,0,3.543,1,1.926,1.926,0,0,0,.5-.067,1.953,1.953,0,0,1,.294-.054,3.6,3.6,0,0,0,2.461-1.7,3.547,3.547,0,0,0,.234-1.7.965.965,0,0,0-.438-.286c-.079-.035-.168-.075-.264-.124-.382-.191-2.171-1.056-2.462-1.172a1.334,1.334,0,0,0-.4-.091.488.488,0,0,0-.419.267,14.852,14.852,0,0,1-1.172,1.406.41.41,0,0,1-.342.184.973.973,0,0,1-.419-.126c-.062-.031-.148-.067-.256-.112a9.083,9.083,0,0,1-2.674-1.646,11.3,11.3,0,0,1-1.9-2.319l-.092-.141a.6.6,0,0,1,.175-.761,1.681,1.681,0,0,0,.316-.337,2.961,2.961,0,0,1,.211-.248,2.384,2.384,0,0,0,.268-.471c.026-.056.053-.113.084-.174a.684.684,0,0,0,0-.585c-.121-.18-.835-1.971-1.114-2.7-.219-.526-.467-.593-.659-.593-.034,0-.065,0-.094,0l-.068,0Z" transform="translate(183 348)"/></g></svg>