<svg xmlns="http://www.w3.org/2000/svg" xmlns:xlink="http://www.w3.org/1999/xlink" width="30" height="30" viewBox="0 0 30 30"><defs><clipPath id="b"><rect width="30" height="30"/></clipPath></defs><g id="a" clip-path="url(#b)"><g transform="translate(0 6.071)"><path d="M-205.351-378.213h0l-5.284-2.943H-222.2a2.8,2.8,0,0,1-2.8-2.8v-9.321a2.751,2.751,0,0,1,.807-1.971,2.768,2.768,0,0,1,1.978-.825H-197.8a2.8,2.8,0,0,1,2.8,2.8v9.321a2.8,2.8,0,0,1-2.8,2.8h-8.757l1.2,2.941Zm-11.672-10.029v0a12.128,12.128,0,0,0,2.695,5.193,1.265,1.265,0,0,0,.9.453l.068,0a.783.783,0,0,0,.646-.439,1.448,1.448,0,0,0,.147-.8,22.85,22.85,0,0,1,.341-4.647,14.624,14.624,0,0,1,1.184-4.4,1.056,1.056,0,0,0,.121-.586.947.947,0,0,0-.378-.695,1.074,1.074,0,0,0-.675-.248c-.03,0-.061,0-.093,0a.935.935,0,0,0-.805.536,18.857,18.857,0,0,0-1.609,6.707,22.928,22.928,0,0,1-1.159-4.171c-.129-.691-.431-1.027-.924-1.027l-.076,0a1.162,1.162,0,0,0-.914.732l-2.671,5.086c-.449-1.811-.862-3.99-1.231-6.476a.879.879,0,0,0-.932-.883c-.041,0-.085,0-.129.005a.977.977,0,0,0-.769.378,1.039,1.039,0,0,0-.194.817,53.09,53.09,0,0,0,2.012,9.256c.236.567.5.843.815.843h.039c.512-.036,1.114-.73,1.841-2.121.373-.772.964-1.953,1.755-3.51Zm17.329-4.854a3.305,3.305,0,0,0-2.866,1.83,6.485,6.485,0,0,0-.951,3.439,4.752,4.752,0,0,0,.585,2.415A2.8,2.8,0,0,0-200.975-384a3.233,3.233,0,0,0,.659.073,3.279,3.279,0,0,0,2.866-1.83,6.569,6.569,0,0,0,.951-3.451,4.532,4.532,0,0,0-.585-2.4,2.8,2.8,0,0,0-1.951-1.415A3.233,3.233,0,0,0-199.694-393.1Zm-7.634,0a3.308,3.308,0,0,0-2.867,1.83,6.492,6.492,0,0,0-.951,3.439,4.744,4.744,0,0,0,.586,2.415A2.8,2.8,0,0,0-208.608-384a3.22,3.22,0,0,0,.659.073,3.279,3.279,0,0,0,2.866-1.83,6.577,6.577,0,0,0,.951-3.451,4.592,4.592,0,0,0-.586-2.4,2.844,2.844,0,0,0-1.951-1.415A3.216,3.216,0,0,0-207.328-393.1Zm6.937,7.075a.747.747,0,0,1-.144-.014c-.3-.063-.541-.329-.719-.793a3.068,3.068,0,0,1-.22-1.11,4.265,4.265,0,0,1,.085-.89,3.978,3.978,0,0,1,.647-1.452,1.418,1.418,0,0,1,1.1-.773.89.89,0,0,1,.17.017c.3.063.541.329.719.793a3.068,3.068,0,0,1,.22,1.11,4.228,4.228,0,0,1-.085.9,3.2,3.2,0,0,1-.927,1.8A1.318,1.318,0,0,1-200.391-386.02Zm-7.646,0a.747.747,0,0,1-.144-.014c-.3-.062-.541-.329-.72-.793a3.086,3.086,0,0,1-.219-1.11,4.208,4.208,0,0,1,.085-.89,3.96,3.96,0,0,1,.646-1.452,1.418,1.418,0,0,1,1.1-.773.89.89,0,0,1,.17.017c.3.063.541.329.719.793a3.068,3.068,0,0,1,.22,1.11,3.586,3.586,0,0,1-.086.9,3.207,3.207,0,0,1-.926,1.8A1.322,1.322,0,0,1-208.037-386.02Z" transform="translate(225 396.071)"/></g></g></svg>