<svg xmlns="http://www.w3.org/2000/svg" xmlns:xlink="http://www.w3.org/1999/xlink" width="30" height="30" viewBox="0 0 30 30"><defs><clipPath id="b"><rect width="30" height="30"/></clipPath></defs><g id="a" clip-path="url(#b)"><g transform="translate(0 6.071)"><path d="M-203.919-366.309h0l-10.338-4.9h-6.08a4.666,4.666,0,0,1-4.66-4.661v-15.536a4.582,4.582,0,0,1,1.343-3.285,4.612,4.612,0,0,1,3.3-1.375h20.7a4.666,4.666,0,0,1,4.661,4.66v15.536a4.666,4.666,0,0,1-4.661,4.661h-4.259v4.9Zm-6.119-16.713v0a20.189,20.189,0,0,0,4.491,8.656,2.105,2.105,0,0,0,1.493.757c.038,0,.076,0,.113,0a1.307,1.307,0,0,0,1.077-.732,2.424,2.424,0,0,0,.244-1.342,37.97,37.97,0,0,1,.569-7.744,24.364,24.364,0,0,1,1.972-7.338,1.766,1.766,0,0,0,.2-.976,1.586,1.586,0,0,0-.631-1.158,1.789,1.789,0,0,0-1.125-.414c-.051,0-.1,0-.155.007a1.559,1.559,0,0,0-1.342.895c-1.255,2.288-2.158,6.049-2.683,11.179a38.2,38.2,0,0,1-1.93-6.952c-.215-1.152-.719-1.712-1.541-1.712-.041,0-.084,0-.126,0a1.94,1.94,0,0,0-1.525,1.22l-4.451,8.476c-.745-3-1.435-6.632-2.053-10.793a1.463,1.463,0,0,0-1.551-1.472c-.07,0-.143,0-.217.009a1.627,1.627,0,0,0-1.281.63,1.729,1.729,0,0,0-.325,1.362c1.193,7.585,2.321,12.776,3.353,15.427.394.945.838,1.4,1.358,1.4l.065,0c.854-.061,1.858-1.218,3.069-3.537.63-1.3,1.614-3.269,2.926-5.85Z" transform="translate(225 390.237)"/></g></g></svg>