<svg xmlns="http://www.w3.org/2000/svg" xmlns:xlink="http://www.w3.org/1999/xlink" width="30" height="30" viewBox="0 0 30 30"><defs><clipPath id="a"><rect width="30" height="30"/></clipPath></defs><g clip-path="url(#a)"><path d="M6264-2335.142h0a18.026,18.026,0,0,1-7.752-5.89,15.088,15.088,0,0,1-3.247-9.111v-6c.081,0,.167,0,.271,0a12.91,12.91,0,0,0,10.729-6,12.031,12.031,0,0,0,9.876,6H6274v6a16.423,16.423,0,0,1-2.748,9.111,15.3,15.3,0,0,1-7.251,5.89Zm2.319-16.884v7.089h1.568v-2.442h.748a2.976,2.976,0,0,0,2.019-.66,2.2,2.2,0,0,0,.754-1.729c0-1.5-.886-2.258-2.632-2.258Zm-5.752,1.745h.021a3.868,3.868,0,0,0,.112.8l1.156,4.547h1.738l1.841-7.089h-1.583l-.962,4.73a5.091,5.091,0,0,0-.1.792h-.019a5.838,5.838,0,0,0-.112-.762l-1.141-4.76h-1.682l-1.261,4.7a3.921,3.921,0,0,0-.142.83h-.028a5.763,5.763,0,0,0-.093-.811l-.981-4.72h-1.715l1.832,7.089h1.811l1.186-4.547a4.827,4.827,0,0,0,.126-.8Zm7.938,1.691h-.617v-2.211h.617c.832,0,1.253.368,1.253,1.093C6269.757-2348.967,6269.335-2348.591,6268.5-2348.591Z" transform="translate(-6248.999 2364.142)" fill="#a7aaad"/></g></svg>