<svg xmlns="http://www.w3.org/2000/svg" xmlns:xlink="http://www.w3.org/1999/xlink" width="30" height="30"
     viewBox="0 0 30 30">
    <defs>
        <clipPath id="b">
            <rect width="30" height="30"/>
        </clipPath>
    </defs>
    <g id="a" clip-path="url(#b)">
        <path d="M-411-276h-18a6.006,6.006,0,0,1-6-6v-18a6.007,6.007,0,0,1,6-6h18a6.007,6.007,0,0,1,6,6v18A6.007,6.007,0,0,1-411-276Zm-14-23.245a1,1,0,0,0-1,1v15.486a1,1,0,0,0,1,1,1,1,0,0,0,.509-.142l13.041-7.743a.992.992,0,0,0,.489-.861.991.991,0,0,0-.489-.859L-424.49-299.1A1,1,0,0,0-425-299.245Z"
              transform="translate(435 306)"/>
    </g>
</svg>