<?xml version="1.0" encoding="utf-8"?>
<!-- Generator: Adobe Illustrator 23.0.1, SVG Export Plug-In . SVG Version: 6.00 Build 0)  -->
<svg version="1.1" id="Layer_1" xmlns="http://www.w3.org/2000/svg" xmlns:xlink="http://www.w3.org/1999/xlink" x="0px" y="0px"
	 viewBox="0 0 16 16" style="enable-background:new 0 0 16 16;" xml:space="preserve">
<style type="text/css">
	.st0{display:none;}
</style>
<g transform="translate(0 -0.204)">
	<path d="M8,16.2H2c-1.1,0-2-0.9-2-2v-12c0-1.1,0.9-2,2-2h12c1.1,0,2,0.9,2,2v6h-1v-6c0-0.6-0.4-1-1-1H2c-0.6,0-1,0.4-1,1v12
		c0,0.6,0.4,1,1,1h6V16.2z"/>
	<path class="st0" d="M15.8,10.6l-3.7,1.7c-0.1,0-0.1,0.1-0.1,0.1L10.3,16c-0.1,0.3-0.7,0.2-0.8-0.1L6.9,7.7c-0.1-0.2,0-0.4,0.2-0.4
		c0.1,0,0.2,0,0.3,0l8.3,2.6C16,9.9,16.1,10.4,15.8,10.6L15.8,10.6z"/>
	<path class="st0" d="M12.4,11.2l3.5,4l-1.3,1L11.4,12l-2.2,3.4L7.6,6L16,9.5L12.4,11.2z"/>
</g>
<polygon points="10,10.1 11.4,9.1 15.3,15 13.8,16 "/>
<polygon points="7.6,4.9 8.6,14 11.3,11.1 11.6,11 15.5,9.3 "/>
</svg>
