<?xml version="1.0" encoding="utf-8"?>
<!-- Generator: Adobe Illustrator 23.0.1, SVG Export Plug-In . SVG Version: 6.00 Build 0)  -->
<svg version="1.1" id="Layer_1" xmlns="http://www.w3.org/2000/svg" xmlns:xlink="http://www.w3.org/1999/xlink" x="0px" y="0px"
	 viewBox="0 0 16 16" style="enable-background:new 0 0 16 16;" xml:space="preserve">
<g transform="translate(0 0.071)">
	<path d="M14,15.9H2c-1.1,0-2-0.9-2-2v-12c0-1.1,0.9-2,2-2h12c1.1,0,2,0.9,2,2v12C16,15,15.1,15.9,14,15.9z M2,0.9c-0.6,0-1,0.5-1,1
		v11.9c0,0.6,0.5,1,1,1H14c0.6,0,1-0.5,1-1V2c0-0.6-0.5-1-1-1H2z"/>
	<path d="M8,9.5c-0.5,0-1-0.2-1.4-0.6l-6-6V1h0.1l6.6,6.6c0.4,0.4,1,0.4,1.4,0l6.5-6.5v2L9.4,8.9C9,9.3,8.5,9.5,8,9.5z"/>
</g>
</svg>
