<svg width="16" height="16" viewBox="0 0 16 16" fill="none" xmlns="http://www.w3.org/2000/svg">
<g clip-path="url(#clip0_2_47)">
<path d="M14 16H2C0.9 16 0 15.1 0 14V2C0 0.9 0.9 0 2 0H14C15.1 0 16 0.9 16 2V14C16 15.1 15.1 16 14 16ZM2 1C1.5 1 1 1.5 1 2V14C1 14.6 1.5 15 2 15H14C14.6 15 15 14.5 15 14V2C15 1.4 14.5 1 14 1H2Z" fill="black"/>
<path d="M4.25418 3.87654L6.02589 8.42942L4.25418 13.0029V3.87654Z" fill="#058305"/>
<path d="M4.25418 3.87654L13.1402 8.43629H5.75121L4.25418 3.87654Z" fill="#00FE00"/>
<path d="M4.25418 12.996L13.1402 8.43629H5.75121L4.25418 12.996Z" fill="#040404"/>
</g>
<defs>
<clipPath id="clip0_2_47">
<rect width="16" height="16" fill="white"/>
</clipPath>
</defs>
</svg>
