<?xml version="1.0" encoding="utf-8"?>
<!-- Generator: Adobe Illustrator 23.0.1, SVG Export Plug-In . SVG Version: 6.00 Build 0)  -->
<svg version="1.1" id="Layer_1" xmlns="http://www.w3.org/2000/svg" xmlns:xlink="http://www.w3.org/1999/xlink" x="0px" y="0px"
	 viewBox="0 0 16 16" style="enable-background:new 0 0 16 16;" xml:space="preserve">
<g transform="translate(0 -0.497)">
	<path d="M14,16.5H2c-1.1,0-2-0.9-2-2v-12c0-1.1,0.9-2,2-2h12c1.1,0,2,0.9,2,2v12C16,15.6,15.1,16.5,14,16.5z M2,1.5
		c-0.6,0-1,0.5-1,1v11.9c0,0.6,0.5,1,1,1H14c0.6,0,1-0.5,1-1V2.5c0-0.6-0.5-1-1-1H2z"/>
	<path d="M8,13.6c-2.8,0-5-2.3-5-5s2.3-5,5-5s5,2.3,5,5C13,11.3,10.8,13.6,8,13.6z M8,4.7c-2.1,0-3.8,1.7-3.8,3.8s1.7,3.8,3.8,3.8
		s3.8-1.7,3.8-3.8C11.8,6.4,10.1,4.7,8,4.7z"/>
	<polygon points="10.5,5.1 11.3,6 5.5,11.9 4.7,11.1 	"/>
</g>
</svg>
