<?xml version="1.0" encoding="utf-8"?>
<!-- Generator: Adobe Illustrator 23.0.1, SVG Export Plug-In . SVG Version: 6.00 Build 0)  -->
<svg version="1.1" id="Layer_1" xmlns="http://www.w3.org/2000/svg" xmlns:xlink="http://www.w3.org/1999/xlink" x="0px" y="0px"
	 viewBox="0 0 16 16" style="enable-background:new 0 0 16 16;" xml:space="preserve">
<g transform="translate(0 0)">
	<path d="M14,16H2c-1.1,0-2-0.9-2-2V2c0-1.1,0.9-2,2-2h12c1.1,0,2,0.9,2,2v12C16,15.1,15.1,16,14,16z M2,1C1.5,1,1,1.5,1,2v12
		c0,0.6,0.5,1,1,1h12c0.6,0,1-0.5,1-1V2c0-0.6-0.5-1-1-1H2z"/>
	<path d="M9.6,5.2c0,0.7,0.5,1.2,1.2,1.2S12,5.9,12,5.2S11.5,4,10.8,4l0,0C10.1,4,9.6,4.5,9.6,5.2"/>
	<path d="M5.8,6.1c0.1-0.2,0.4-0.3,0.6-0.2C6.5,6,6.5,6,6.5,6.1l2.4,3.4l1.5-1.6c0.2-0.2,0.5-0.2,0.7,0L11.2,8l2.4,3.7
		c0.1,0.2,0.1,0.5-0.2,0.7c-0.1,0-0.1,0.1-0.2,0.1H2.8c-0.3,0-0.5-0.2-0.5-0.5c0-0.1,0-0.2,0.1-0.2L5.8,6.1z"/>
</g>
</svg>
