<svg xmlns="http://www.w3.org/2000/svg" width="16" height="15.999" viewBox="0 0 16 15.999"><g transform="translate(0 0)"><path d="M14,16H2a2,2,0,0,1-2-2V2A2,2,0,0,1,2,0H14a2,2,0,0,1,2,2V14A2,2,0,0,1,14,16ZM2.2,1.2a1,1,0,0,0-1,1V13.8a1,1,0,0,0,1,1H13.8a1,1,0,0,0,1-1V2.2a1,1,0,0,0-1-1Z" transform="translate(0 0)"/><path d="M233.33,164.53a1.2,1.2,0,1,0,1.2-1.2,1.2,1.2,0,0,0-1.2,1.2" transform="translate(-223.728 -159.33)" opacity="0.4"/><path d="M213.231,233.556a.454.454,0,0,1,.762-.031l2.322,3.281,1.422-1.506a.454.454,0,0,1,.712.064l2.346,3.6a.482.482,0,0,1-.389.727h-10a.482.482,0,0,1-.395-.721Z" transform="translate(-207.404 -227.314)" opacity="0.4"/><rect width="7" height="5" transform="translate(1 10)"/></g></svg>