<?xml version="1.0" encoding="utf-8"?>
<!-- Generator: Adobe Illustrator 23.0.1, SVG Export Plug-In . SVG Version: 6.00 Build 0)  -->
<svg version="1.1" id="Layer_1" xmlns="http://www.w3.org/2000/svg" xmlns:xlink="http://www.w3.org/1999/xlink" x="0px" y="0px"
	 viewBox="0 0 16 16" style="enable-background:new 0 0 16 16;" xml:space="preserve">
<g transform="translate(0 -0.375)">
	<path d="M14,16.4H2c-1.1,0-2-0.9-2-2v-12c0-1.1,0.9-2,2-2h12c1.1,0,2,0.9,2,2v12C16,15.5,15.1,16.4,14,16.4z M2,1.4
		c-0.6,0-1,0.5-1,1v11.9c0,0.6,0.5,1,1,1H14c0.6,0,1-0.5,1-1V2.4c0-0.6-0.5-1-1-1H2z"/>
	<path d="M10.4,12c-0.4,0-0.9-0.1-1.3-0.2c-0.3-0.1-0.6-0.3-0.9-0.5c-0.1,0-0.1-0.1-0.1-0.2c0-0.1,0-0.2,0.1-0.2l0.5-0.6
		c0.1-0.1,0.3-0.1,0.4-0.1c0.2,0.1,0.4,0.2,0.6,0.3c0.3,0.1,0.6,0.2,0.9,0.2c0.2,0,0.5,0,0.7-0.2c0.2-0.1,0.2-0.3,0.2-0.5
		c0-0.1,0-0.2-0.1-0.3c-0.1-0.1-0.1-0.1-0.2-0.2c-0.1-0.1-0.2-0.1-0.3-0.2l-0.4-0.2L9.5,8.9C9.3,8.8,9.2,8.7,9,8.6
		C8.8,8.5,8.7,8.4,8.6,8.2C8.4,8.1,8.3,7.9,8.3,7.7C8.2,7.5,8.2,7.3,8.2,7.1c0-0.3,0.1-0.5,0.2-0.8C8.5,6,8.6,5.8,8.8,5.6
		c0.2-0.2,0.5-0.3,0.7-0.4c0.3-0.1,0.6-0.2,1-0.2c0.4,0,0.8,0.1,1.2,0.2c0.3,0.1,0.5,0.3,0.8,0.5c0.1,0.1,0.1,0.3,0,0.4l-0.4,0.5
		c-0.1,0.1-0.3,0.1-0.4,0.1c-0.1-0.1-0.3-0.2-0.4-0.2c-0.2-0.1-0.5-0.1-0.7-0.1c-0.2,0-0.4,0-0.6,0.2C9.8,6.6,9.7,6.8,9.7,7
		c0,0.1,0,0.2,0.1,0.3C9.8,7.3,9.9,7.4,10,7.4c0.1,0.1,0.2,0.1,0.3,0.2l0.4,0.2l0.9,0.3c0.4,0.1,0.7,0.4,1,0.7
		c0.2,0.3,0.4,0.7,0.4,1.1c0,0.3-0.1,0.5-0.2,0.8c-0.1,0.3-0.3,0.5-0.5,0.7c-0.2,0.2-0.5,0.4-0.8,0.5C11.1,12,10.8,12,10.4,12
		L10.4,12z M3.5,11.7c-0.3-0.2-0.5-0.4-0.7-0.7c-0.1-0.1-0.1-0.3,0.1-0.4l0.5-0.4c0.1-0.1,0.3-0.1,0.4,0.1c0.1,0.1,0.2,0.2,0.3,0.3
		c0.1,0.1,0.3,0.2,0.5,0.2c0.2,0,0.5-0.1,0.6-0.3c0.2-0.3,0.2-0.6,0.2-0.9V5.5c0-0.2,0.1-0.3,0.3-0.3h0.9c0.1,0,0.2,0,0.2,0.1
		c0.1,0.1,0.1,0.1,0.1,0.2v4.2c0,0.3,0,0.6-0.1,0.9c-0.1,0.3-0.2,0.5-0.4,0.8c-0.2,0.2-0.4,0.4-0.7,0.5c-0.3,0.1-0.6,0.2-1,0.2H4.7
		C4.2,12,3.8,11.9,3.5,11.7L3.5,11.7z"/>
</g>
</svg>
