<svg xmlns="http://www.w3.org/2000/svg" width="16" height="16" viewBox="0 0 16 16"><path d="M14,16H2a2.006,2.006,0,0,1-2-2V5.1a2.006,2.006,0,0,1,2-2H14a2.006,2.006,0,0,1,2,2V14A2.006,2.006,0,0,1,14,16ZM2.4,4.5a.945.945,0,0,0-1,1v8.1a.945.945,0,0,0,1,1H13.6a.945.945,0,0,0,1-1V5.5a.945.945,0,0,0-1-1ZM8.8,3.1V2.5A2.394,2.394,0,0,0,6.4,0H5.3a.715.715,0,0,0-.5.9.821.821,0,0,0,.5.5H6.4a.908.908,0,0,1,.7.3,1.136,1.136,0,0,1,.3.8v.6"/><g transform="translate(3 7)"><path d="M204.4,314.16h1v1h-1Z" transform="translate(-204.4 -314.16)"/><path d="M204.4,314.16h1v1h-1Z" transform="translate(-204.4 -312.16)"/><path d="M204.4,314.16h1v1h-1Z" transform="translate(-202.4 -314.16)"/><path d="M204.4,314.16h1v1h-1Z" transform="translate(-202.4 -312.16)"/><path d="M204.4,314.16h1v1h-1Z" transform="translate(-200.4 -314.16)"/><path d="M204.4,314.16h1v1h-1Z" transform="translate(-200.4 -312.16)"/><path d="M204.4,314.16h1v1h-1Z" transform="translate(-196.4 -310.16)"/><path d="M204.4,314.16h1v1h-1Z" transform="translate(-198.4 -310.16)"/><path d="M204.4,314.16h1v1h-1Z" transform="translate(-198.4 -314.16)"/><path d="M204.4,314.16h1v1h-1Z" transform="translate(-198.4 -312.16)"/><path d="M204.4,314.16h1v1h-1Z" transform="translate(-196.4 -314.16)"/><path d="M204.4,314.16h1v1h-1Z" transform="translate(-194.4 -312.16)" opacity="0.4"/><path d="M204.4,314.16h1v1h-1Z" transform="translate(-194.4 -314.16)" opacity="0.4"/><path d="M204.4,314.16h2.5v1h-2.5Z" transform="translate(-197.9 -312.16)"/><rect width="5" height="1" transform="translate(0 4)"/></g></svg>