<?xml version="1.0" encoding="utf-8"?>
<!-- Generator: Adobe Illustrator 23.0.1, SVG Export Plug-In . SVG Version: 6.00 Build 0)  -->
<svg version="1.1" id="Layer_1" xmlns="http://www.w3.org/2000/svg" xmlns:xlink="http://www.w3.org/1999/xlink" x="0px" y="0px"
	 viewBox="0 0 16 16" style="enable-background:new 0 0 16 16;" xml:space="preserve">
<g transform="translate(0 0)">
	<path d="M14,16H2c-1.1,0-2-0.9-2-2V2c0-1.1,0.9-2,2-2h12c1.1,0,2,0.9,2,2v12C16,15.1,15.1,16,14,16z M2,1C1.5,1,1,1.5,1,2V14
		c0,0.6,0.5,1,1,1H14c0.6,0,1-0.5,1-1V2c0-0.6-0.5-1-1-1H2z"/>
	<path d="M11.2,3.4L7.1,4.7C6.6,4.9,6.2,5.4,6.2,5.9v4.4C5.9,10,5.6,10,5.3,10c-0.9,0.1-1.6,0.8-1.7,1.7c0,0.8,0.7,1.2,1.7,1.2
		c0.8-0.1,1.5-0.8,1.6-1.6V7.6C6.9,7.2,7.3,7,7.3,7l3.6-1.1c0,0,0.4-0.1,0.4,0.3v2.9C11,9,10.6,8.9,10.3,9c-0.9,0.1-1.6,0.7-1.7,1.6
		c0,0.8,0.7,1.3,1.7,1.2c0.9,0,1.7-0.8,1.8-1.7V4.1c0-0.4-0.3-0.7-0.6-0.7C11.4,3.4,11.3,3.4,11.2,3.4L11.2,3.4z"/>
</g>
</svg>
