<?xml version="1.0" encoding="utf-8"?>
<!-- Generator: Adobe Illustrator 23.0.1, SVG Export Plug-In . SVG Version: 6.00 Build 0)  -->
<svg version="1.1" id="Layer_1" xmlns="http://www.w3.org/2000/svg" xmlns:xlink="http://www.w3.org/1999/xlink" x="0px" y="0px"
	 viewBox="0 0 16 16" style="enable-background:new 0 0 16 16;" xml:space="preserve">
<g transform="translate(0 0.364)">
	<path d="M14,15.6H2c-1.1,0-2-0.9-2-2v-12c0-1.1,0.9-2,2-2h12c1.1,0,2,0.9,2,2v12C16,14.7,15.1,15.6,14,15.6z M2,0.6
		c-0.6,0-1,0.5-1,1v11.9c0,0.6,0.5,1,1,1H14c0.6,0,1-0.5,1-1V1.7c0-0.6-0.5-1-1-1H2z"/>
	<path d="M12.8,11.5c-0.4,0.9-1.3,1.5-2.3,1.6c-0.1,0-2.1,0.1-4.9-2.6C4.1,9.2,3.2,7.5,3,5.6c0-1,0.6-1.9,1.6-2.3
		c0.2-0.1,0.5-0.1,0.6,0c0,0,1.3,2.1,1.3,2.2c0,0.1,0,0.1,0,0.2c0,0.1-0.1,0.3-0.2,0.4C6.2,6.1,6.1,6.2,5.9,6.3
		C5.8,6.4,5.6,6.6,5.5,6.7C5.4,6.8,5.3,6.9,5.3,7c0,0.2,0.2,1,1.6,2.2c0.6,0.6,1.3,1.1,2.1,1.6c0.1,0,0.1,0,0.2,0
		c0.1,0,0.2-0.1,0.3-0.2c0.1-0.1,0.6-0.7,0.7-0.9c0.1-0.1,0.2-0.2,0.4-0.2c0.1,0,0.1,0,0.2,0c0.1,0,2.1,1.2,2.2,1.3
		C13,11,12.9,11.3,12.8,11.5"/>
</g>
</svg>
