<?xml version="1.0" encoding="utf-8"?>
<!-- Generator: Adobe Illustrator 23.0.1, SVG Export Plug-In . SVG Version: 6.00 Build 0)  -->
<svg version="1.1" id="Layer_1" xmlns="http://www.w3.org/2000/svg" xmlns:xlink="http://www.w3.org/1999/xlink" x="0px" y="0px"
	 width="20px" height="20px" viewBox="0 0 20 20" enable-background="new 0 0 20 20" xml:space="preserve">
<path id="Path_969" d="M10,0C4.5,0,0,4.5,0,10s4.5,10,10,10s10-4.5,10-10C20,4.5,15.5,0,10,0z M10,0.9c5,0,9.1,4.1,9.1,9.1
	S15,19.1,10,19.1c-5,0-9.1-4.1-9.1-9.1v0C0.9,5,5,0.9,10,0.9C10,0.9,10,0.9,10,0.9L10,0.9z M7.6,5.7c-0.6,0-1,0.5-1,1v6.6
	c0,0.6,0.4,1,1,1c0.2,0,0.4,0,0.5-0.1l5.7-3.3c0.5-0.3,0.7-0.9,0.4-1.4c-0.1-0.2-0.2-0.3-0.4-0.4L8.1,5.8C8,5.7,7.8,5.7,7.6,5.7
	L7.6,5.7z"/>
</svg>
