<?xml version="1.0" encoding="utf-8"?>
<!-- Generator: Adobe Illustrator 23.0.1, SVG Export Plug-In . SVG Version: 6.00 Build 0)  -->
<svg version="1.1" id="Layer_1" xmlns="http://www.w3.org/2000/svg" xmlns:xlink="http://www.w3.org/1999/xlink" x="0px" y="0px"
	 viewBox="0 0 16 16" style="enable-background:new 0 0 16 16;" xml:space="preserve">
<g transform="translate(-14 -17.082)">
	<g>
		<g transform="translate(14 17)">
			<path d="M13.5,3.4h-1.2V0.6C12.3,0.3,12,0,11.7,0H4.2C3.8,0,3.5,0.3,3.5,0.6c0,0,0,0,0,0v2.8H2.5C1.1,3.4,0,4.5,0,5.9v4.2
				c0,1.4,1.1,2.5,2.5,2.5c0,0,0,0,0,0h1.1v2.9c0,0.3,0.3,0.6,0.6,0.6c0,0,0,0,0,0h7.5c0.3,0,0.6-0.3,0.6-0.6v-2.9h1.2
				c1.4,0,2.5-1.1,2.5-2.5V5.9C16,4.5,14.9,3.4,13.5,3.4C13.5,3.4,13.5,3.4,13.5,3.4z M4.5,1.1h6.7v2.4H4.5V1.1z M11.3,10.8v4.3H4.5
				v-4.3c0-0.2,0-0.4-0.1-0.6h6.9C11.3,10.4,11.3,10.6,11.3,10.8L11.3,10.8z M15,10.1c0,0.7-0.6,1.5-1.2,1.5c0,0,0,0,0,0h-1.5v-0.8
				c0-0.3,0.2-0.3,0.5-0.3l0,0c0.3,0,0.6-0.3,0.6-0.6c0-0.3-0.3-0.6-0.6-0.6H3c-0.3,0-0.6,0.3-0.6,0.6c0,0.3,0.3,0.6,0.6,0.6l0,0
				c0.3,0,0.6,0,0.6,0.3l0,0l0,0.8H2.2c-0.7,0-1.2-0.8-1.2-1.5V5.7C1,5,1.6,4.4,2.2,4.4h11.5c0.7,0,1.2,0.8,1.2,1.5V5.7L15,10.1z
				 M12.5,7.1c0,0.4-0.3,0.7-0.6,0.7h-0.6c-0.3,0-0.6-0.3-0.6-0.7c0-0.4,0.3-0.7,0.6-0.7h0.6C12.2,6.4,12.5,6.7,12.5,7.1
				C12.5,7.1,12.5,7.1,12.5,7.1L12.5,7.1z"/>
		</g>
	</g>
</g>
</svg>
