<?xml version="1.0" encoding="utf-8"?>
<!-- Generator: Adobe Illustrator 23.0.1, SVG Export Plug-In . SVG Version: 6.00 Build 0)  -->
<svg version="1.1" id="Layer_1" xmlns="http://www.w3.org/2000/svg" xmlns:xlink="http://www.w3.org/1999/xlink" x="0px" y="0px"
	 width="16px" height="16px" viewBox="0 0 16 16" enable-background="new 0 0 16 16" xml:space="preserve">
<g transform="translate(0 -0.497)">
	<path d="M14,16.5H2c-1.1,0-2-0.9-2-2v-12c0-1.1,0.9-2,2-2h12c1.1,0,2,0.9,2,1.7v12C16,15.6,15.1,16.5,14,16.5z M2,1.5
		c-0.6,0-1,0.5-1,1v11.9c0,0.6,0.5,1,1,1h12c0.6,0,1-0.5,1-1.3V2.2c0-0.3-0.5-0.7-1-0.7H2z"/>
</g>
<path fill-rule="evenodd" clip-rule="evenodd" d="M6.2,4.1V5H4.5C4,5,3.7,5.4,3.7,5.8v1.3c0,0.2,0.2,0.4,0.4,0.4
	c1.7,0,1.7,2.1,0,2.1c-0.2,0-0.4,0.2-0.4,0.4v1.3c0,0.5,0.4,0.8,0.8,0.8h1.3c0.2,0,0.4-0.2,0.4-0.4c0-1.7,2.1-1.7,2.1,0
	c0,0.2,0.2,0.4,0.4,0.4h1.3c0.5,0,0.8-0.4,0.8-0.8V9.6h0.8c1.4,0,1.4-2.1,0-2.1h-0.8V5.8c0-0.4-0.4-0.8-0.8-0.8H8.2V4.1
	C8.2,2.8,6.2,2.8,6.2,4.1L6.2,4.1z"/>
</svg>
