<?xml version="1.0" encoding="utf-8"?>
<!-- Generator: Adobe Illustrator 23.0.1, SVG Export Plug-In . SVG Version: 6.00 Build 0)  -->
<svg version="1.1" id="Layer_1" xmlns="http://www.w3.org/2000/svg" xmlns:xlink="http://www.w3.org/1999/xlink" x="0px" y="0px"
	 viewBox="0 0 16 16" style="enable-background:new 0 0 16 16;" xml:space="preserve">
<g transform="translate(0 0)">
	<path d="M9,16H7c-3.9,0-7-3.1-7-7V2c0-1.1,0.9-2,2-2h12c1.1,0,2,0.9,2,2v7C16,12.9,12.9,16,9,16z M2,1C1.4,1,1,1.4,1,2v6.8
		C1,12.2,3.8,15,7.2,15h1.6c3.4,0,6.2-2.8,6.2-6.2V2c0-0.6-0.4-1-1-1H2z"/>
</g>
<rect x="0.8" y="6.5" width="14.2" height="1"/>
<path d="M8,6.9h7.2V2.2C15.2,1.5,14.6,1,14,1H8V6.9z"/>
</svg>
