<?xml version="1.0" encoding="utf-8"?>
<!-- Generator: Adobe Illustrator 23.0.1, SVG Export Plug-In . SVG Version: 6.00 Build 0)  -->
<svg version="1.1" id="Layer_1" xmlns="http://www.w3.org/2000/svg" xmlns:xlink="http://www.w3.org/1999/xlink" x="0px" y="0px"
	 viewBox="0 0 16 16" style="enable-background:new 0 0 16 16;" xml:space="preserve">
<g transform="translate(0 0.21)">
	<path d="M14,15.8H2c-1.1,0-2-0.9-2-2v-12c0-1.1,0.9-2,2-2h12c1.1,0,2,0.9,2,2v12C16,14.9,15.1,15.8,14,15.8z M2,0.8
		c-0.6,0-1,0.5-1,1v11.9c0,0.6,0.5,1,1,1H14c0.6,0,1-0.5,1-1V1.8c0-0.6-0.5-1-1-1H2z"/>
	<path d="M10.7,12.6c0,0.4-0.3,0.7-0.7,0.7c-0.4,0-0.6-0.3-0.7-0.7c0-3.3-2.7-6-6-6C3,6.6,2.7,6.3,2.7,5.9c0-0.4,0.3-0.6,0.7-0.7
		C7.4,5.3,10.7,8.6,10.7,12.6z M3.4,8C3,8,2.7,8.4,2.7,8.8c0,0.4,0.3,0.6,0.7,0.7c1.8,0,3.2,1.4,3.2,3.2c0,0.4,0.3,0.7,0.7,0.7
		C7.7,13.3,8,13,8,12.6C8,10.1,5.9,8,3.4,8z M3.8,11c-0.6,0-1.2,0.5-1.2,1.2c0,0.6,0.5,1.2,1.2,1.2c0.6,0,1.2-0.5,1.2-1.2
		c0,0,0,0,0,0C5,11.5,4.5,11,3.8,11z"/>
</g>
</svg>
