<?xml version="1.0" encoding="utf-8"?>
<!-- Generator: Adobe Illustrator 23.0.1, SVG Export Plug-In . SVG Version: 6.00 Build 0)  -->
<svg version="1.1" id="Layer_1" xmlns="http://www.w3.org/2000/svg" xmlns:xlink="http://www.w3.org/1999/xlink" x="0px" y="0px"
	 viewBox="0 0 16 16" style="enable-background:new 0 0 16 16;" xml:space="preserve">
<g transform="translate(0 0)">
	<path d="M11,13H2c-1.1,0-2-0.9-2-2V2c0-1.1,0.9-2,2-2h9c1.1,0,2,0.9,2,2v9C13,12.1,12.1,13,11,13z M2,1C1.4,1,1,1.4,1,2V11
		c0,0.6,0.4,1,1,1H11c0.6,0,1-0.4,1-1V2c0-0.6-0.4-1-1-1H2z"/>
</g>
<g transform="translate(0 0)">
	<path d="M14,16H6c-1.1,0-2-0.9-2-2V6c0-1.1,0.9-2,2-2h8c1.1,0,2,0.9,2,2v8C16,15.1,15.1,16,14,16z"/>
</g>
</svg>
