<?xml version="1.0" encoding="utf-8"?>
<!-- Generator: Adobe Illustrator 23.0.1, SVG Export Plug-In . SVG Version: 6.00 Build 0)  -->
<svg version="1.1" id="Layer_1" xmlns="http://www.w3.org/2000/svg" xmlns:xlink="http://www.w3.org/1999/xlink" x="0px" y="0px"
	 viewBox="0 0 16 16" style="enable-background:new 0 0 16 16;" xml:space="preserve">
<g transform="translate(0 0)">
	<path d="M14,16H2c-1.1,0-2-0.9-2-2V2c0-1.1,0.9-2,2-2h12c1.1,0,2,0.9,2,2v12C16,15.1,15.1,16,14,16z M2,1C1.5,1,1,1.5,1,2v12
		c0,0.6,0.5,1,1,1h12c0.6,0,1-0.5,1-1V2c0-0.6-0.5-1-1-1H2z"/>
	<path d="M6.2,11.7l5.3-3.1c0.3-0.2,0.4-0.6,0.2-0.9c-0.1-0.1-0.1-0.2-0.2-0.2L6.2,4.4C5.9,4.2,5.5,4.3,5.4,4.6
		C5.3,4.7,5.3,4.8,5.3,4.9v6.3c0,0.3,0.3,0.6,0.6,0.6C6,11.8,6.1,11.8,6.2,11.7L6.2,11.7z"/>
</g>
</svg>
