<?xml version="1.0" encoding="utf-8"?>
<!-- Generator: Adobe Illustrator 23.0.1, SVG Export Plug-In . SVG Version: 6.00 Build 0)  -->
<svg version="1.1" id="Layer_1" xmlns="http://www.w3.org/2000/svg" xmlns:xlink="http://www.w3.org/1999/xlink" x="0px" y="0px"
	 viewBox="0 0 16 16" style="enable-background:new 0 0 16 16;" xml:space="preserve">
<g transform="translate(0 0)">
	<path d="M14,16H2c-1.1,0-2-0.9-2-2V2c0-1.1,0.9-2,2-2h12c1.1,0,2,0.9,2,2v12C16,15.1,15.1,16,14,16z M2,1C1.5,1,1,1.5,1,2V14
		c0,0.6,0.5,1,1,1H14c0.6,0,1-0.5,1-1V2c0-0.6-0.5-1-1-1H2z"/>
	<path d="M5.7,6.8L4.5,8l1.2,1.2C6,9.5,6,9.9,5.7,10.2c-0.3,0.3-0.7,0.3-0.9,0c0,0,0,0,0,0L3.1,8.5c-0.3-0.3-0.3-0.7,0-0.9
		c0,0,0,0,0,0l1.7-1.7C5,5.6,5.5,5.6,5.7,5.9C5.9,6.2,5.9,6.5,5.7,6.8L5.7,6.8z M11.2,5.8c-0.3-0.2-0.7-0.2-0.9,0.1
		c-0.2,0.2-0.2,0.6,0,0.9L11.5,8l-1.2,1.2c-0.3,0.3-0.3,0.7,0,0.9c0.3,0.3,0.7,0.3,0.9,0c0,0,0,0,0,0l1.7-1.7c0.3-0.3,0.3-0.7,0-0.9
		c0,0,0,0,0,0L11.2,5.8z M9.2,5.7C8.9,5.6,8.5,5.7,8.3,6L6.5,9.3c-0.2,0.3-0.1,0.7,0.2,0.9c0.3,0.2,0.7,0.1,0.9-0.2c0,0,0,0,0,0
		l1.8-3.3C9.7,6.3,9.5,5.9,9.2,5.7z"/>
</g>
</svg>
