<svg width="512" height="512" viewBox="0 0 512 512" xmlns="http://www.w3.org/2000/svg">
    <path d="m118 62l-71 0-21 97 75 0c58 0 75-29 75-55 1-18-11-42-58-42z m125 291l-73 0-20 97 75 0c58 0 75-29 75-55 0-18-10-42-57-42z m-150-150l-73 0-20 97 75 0c58 0 75-29 75-55 0-18-11-42-57-42z m335 97l-72 0-21 88 75 0c59 0 76-24 76-50 0-18-11-38-58-38z m27-150l-73 0-20 88 75 0c58 0 75-24 75-50 0-19-11-38-57-38z m-185 53l-72 0-21 97 75 0c59 0 76-29 76-55 0-18-11-42-58-42z m27-141l-73 0-20 97 75 0c58 0 75-29 75-55 0-18-11-42-57-42z"></path>
</svg>