<svg xmlns="http://www.w3.org/2000/svg" xmlns:xlink="http://www.w3.org/1999/xlink" width="30" height="30" viewBox="0 0 30 30"><defs><clipPath id="b"><rect width="30" height="30"/></clipPath></defs><g id="a" clip-path="url(#b)"><g transform="translate(0 -924.36)"><path d="M13.475,954.28a15.218,15.218,0,0,1-9.738-5.018,15,15,0,0,1,0-19.817,15.467,15.467,0,0,1,4.729-3.588,14.99,14.99,0,0,1,14.857,1.028A14.778,14.778,0,0,1,27.5,931.07,15,15,0,0,1,13.475,954.28Zm3.8-.762a14.3,14.3,0,0,0,9.644-6.219,14.174,14.174,0,0,0,0-15.89,14.368,14.368,0,0,0-9.851-6.26,20.955,20.955,0,0,0-4.139,0,14.506,14.506,0,0,0-9.822,6.211A14.163,14.163,0,0,0,.981,942.374a14.423,14.423,0,0,0,10.374,10.842,15.644,15.644,0,0,0,1.573.326c.364.048.774.1.911.122a22.237,22.237,0,0,0,3.435-.146Zm-3.559-1.346A14.05,14.05,0,0,1,8.221,950.3l-.32-.2.462-.054a7.927,7.927,0,0,0,4.255-2.115l.516-.5.219.432a4.561,4.561,0,0,0,1.77,1.7,4.919,4.919,0,0,0,2.408.521,7.283,7.283,0,0,0,5.439-2.441,6.722,6.722,0,0,0,1.874-3.6c.5-2.642-.635-4.732-2.858-5.256a5.417,5.417,0,0,0-2.272,0,8.945,8.945,0,0,0-2.17,1c-.148.113-.269.166-.269.119s.428-2.069.952-4.492.952-4.529.952-4.68c0-.363-.121-.4-.891-.241-.352.071-1.311.207-2.13.3-1.885.221-2.064.268-2.187.565a.607.607,0,0,0,.233.755,1.784,1.784,0,0,0,.614.088.97.97,0,0,1,.677.179c.223.175.227.194.191.89a36.325,36.325,0,0,1-.726,3.856c-.38,1.73-.7,3.156-.709,3.17a3.007,3.007,0,0,1-.444-.424,4.411,4.411,0,0,0-4.19-1.088,8.024,8.024,0,0,0-2.066.949,1.3,1.3,0,0,1-.373.216c0-.022.447-2.111.994-4.643,1.082-5.009,1.079-4.988.551-4.9-1,.173-3.163.471-3.265.451-.2-.039,1.437-1.549,2.3-2.13a13.185,13.185,0,0,1,4.818-2.008,14.753,14.753,0,0,1,4.839,0A12.9,12.9,0,0,1,27.635,936.85a15.785,15.785,0,0,1,0,5.007,12.9,12.9,0,0,1-10.174,10.122,18.605,18.605,0,0,1-3.747.193Zm-6.694-3.4A2.035,2.035,0,0,1,5.768,946.8a28.464,28.464,0,0,1,1.047-4.831c.946-1.94,3.717-2.712,4.9-1.365a3.678,3.678,0,0,1,.6,2.889c-.39,2.781-1.648,4.714-3.429,5.27a3.323,3.323,0,0,1-1.865.01Zm10.15.028a1.961,1.961,0,0,1-1.3-1.972,17.657,17.657,0,0,1,.406-2.5,9.831,9.831,0,0,1,.673-2.443c.9-1.691,3.256-2.505,4.546-1.571a2.724,2.724,0,0,1,.928,2.473c-.018,2.543-1.306,5-3.049,5.814a2.619,2.619,0,0,1-1.224.288,2.792,2.792,0,0,1-.977-.089Zm-14.05-4.48a15.684,15.684,0,0,1-.765-2.564,14.777,14.777,0,0,1,0-4.821A13.373,13.373,0,0,1,4,932.671c.286-.475.287-.476.689-.476a2.194,2.194,0,0,1,.607.078c.277.105.416.552.345,1.1-.047.364-2.31,10.863-2.394,11.108-.016.046-.074-.029-.13-.165Z"/></g></g></svg>