<svg xmlns="http://www.w3.org/2000/svg" xmlns:xlink="http://www.w3.org/1999/xlink" width="30" height="30" viewBox="0 0 30 30"><defs><clipPath id="b"><rect width="30" height="30"/></clipPath></defs><g id="a" clip-path="url(#b)"><g transform="translate(33.913 17.851)"><path d="M16.63,45.221a2.4,2.4,0,0,0,1.668.7,2.29,2.29,0,0,0,1.668-.7l10.977-11,10.977,11a2.4,2.4,0,0,0,1.668.7,2.29,2.29,0,0,0,1.668-.7,2.314,2.314,0,0,0,0-3.3l-10.977-11,10.977-11a2.331,2.331,0,1,0-3.293-3.3l-10.977,11-10.977-11a2.331,2.331,0,1,0-3.293,3.3l10.977,11-10.977,11A2.243,2.243,0,0,0,16.63,45.221Z" transform="translate(-49.862 -33.776)"/></g></g></svg>