<svg xmlns="http://www.w3.org/2000/svg" xmlns:xlink="http://www.w3.org/1999/xlink" width="30" height="30" viewBox="0 0 30 30"><defs><clipPath id="b"><rect width="30" height="30"/></clipPath></defs><g id="a" clip-path="url(#b)"><path d="M24.244,11.531A8.343,8.343,0,0,0,8.389,8.8a4.2,4.2,0,0,0-1.43-.254A4.156,4.156,0,0,0,2.8,12.7v.007a4.224,4.224,0,0,0,.254,1.43A6.1,6.1,0,0,0,0,19.411a6.436,6.436,0,0,0,5.783,6.45H12.71l4.544.032h6.164A7.228,7.228,0,0,0,30,18.68,7.043,7.043,0,0,0,24.244,11.531Zm-3.473,6.752L15.5,23.716a.673.673,0,0,1-.951.034c-.011-.011-.023-.022-.034-.034L9.237,18.283a.694.694,0,0,1,.508-1.176h2.987V10.561l4.544.032v6.514h2.987a.7.7,0,0,1,.508,1.176Z" transform="translate(0 -0.003)"/></g></svg>