<svg xmlns="http://www.w3.org/2000/svg" xmlns:xlink="http://www.w3.org/1999/xlink" width="30" height="30" viewBox="0 0 30 30"><defs><clipPath id="b"><rect width="30" height="30"/></clipPath></defs><g id="a" clip-path="url(#b)"><g transform="translate(-24 -34.6)"><path d="M26.844,23.131A8.343,8.343,0,0,0,10.989,20.4a4.226,4.226,0,0,0-1.43-.254A4.156,4.156,0,0,0,5.4,24.306a4.226,4.226,0,0,0,.254,1.43A6.1,6.1,0,0,0,2.6,31.011a6.436,6.436,0,0,0,5.783,6.45H15.31V30.947H12.323a.7.7,0,0,1-.508-1.176l5.275-5.433a.673.673,0,0,1,.985,0l5.275,5.433a.694.694,0,0,1-.508,1.176H19.854v6.546h6.164A7.229,7.229,0,0,0,32.6,30.28,7.043,7.043,0,0,0,26.844,23.131Z" transform="translate(21.4 23)"/></g></g></svg>