<svg width="512" height="512" viewBox="0 0 512 512" xmlns="http://www.w3.org/2000/svg">
    <path d="m183 256c0-10-4-19-11-26-7-7-16-11-26-11-10 0-18 4-26 11-7 7-10 16-10 26 0 10 3 19 10 26 8 7 16 11 26 11 10 0 19-4 26-11 7-7 11-16 11-26z m110 0c0-10-4-19-11-26-7-7-16-11-26-11-10 0-19 4-26 11-7 7-11 16-11 26 0 10 4 19 11 26 7 7 16 11 26 11 10 0 19-4 26-11 7-7 11-16 11-26z m109 0c0-10-3-19-10-26-8-7-16-11-26-11-10 0-19 4-26 11-7 7-11 16-11 26 0 10 4 19 11 26 7 7 16 11 26 11 10 0 18-4 26-11 7-7 10-16 10-26z m110 0c0 33-11 64-34 92-23 28-54 50-93 66-40 17-83 25-129 25-21 0-41-2-60-5-33 33-75 54-125 65-9 2-18 3-24 4-2 0-5-1-6-2-2-1-4-3-4-5-1-3 1-6 6-11 1-1 3-3 6-6 4-3 6-5 8-6 1-2 3-4 6-8 3-3 6-6 7-9 2-2 4-6 6-10 2-5 4-9 6-14 1-5 2-10 4-16 1-7 2-14 3-21-27-17-49-38-65-62-16-24-24-50-24-77 0-33 11-64 34-92 23-28 54-50 93-66 40-17 83-25 129-25 46 0 89 8 129 25 39 16 70 38 93 66 23 28 34 59 34 92z"></path>
</svg>