<svg width="512" height="512" viewBox="0 0 512 512" xmlns="http://www.w3.org/2000/svg">
    <path d="m512 391l0-375c0-7-6-13-13-13l-486 0c-7 0-13 6-13 13l0 375c0 7 6 13 13 13l99 0 1 87c0 5 3 9 7 12 2 0 4 1 6 1 3 0 6-1 8-3l127-97 238 0c7 0 13-6 13-13z m-26-14l-230 0c-3 0-6 1-8 3l-109 84-1-73c0-8-6-14-13-14l-99 0 0-347 460 0z m-328-177c0 22-18 40-40 40-22 0-39-18-39-40 0-22 17-39 39-39 22 0 40 17 40 39z m137 0c0 22-17 40-39 40-22 0-39-18-39-40 0-22 17-39 39-39 22 0 39 17 39 39z m138 0c0 22-17 40-39 40-22 0-40-18-40-40 0-22 18-39 40-39 22 0 39 17 39 39z"></path>
</svg>