<?xml version="1.0" encoding="utf-8"?>
<!-- Generator: Adobe Illustrator 23.0.1, SVG Export Plug-In . SVG Version: 6.00 Build 0)  -->
<svg version="1.1" id="Layer_1" xmlns="http://www.w3.org/2000/svg" xmlns:xlink="http://www.w3.org/1999/xlink" x="0px" y="0px"
	 viewBox="0 0 30 30" style="enable-background:new 0 0 30 30;" xml:space="preserve">
<path d="M24,0c-0.8,0-1.6,0.5-2,1.2c-0.3,0.5-0.4,1-0.3,1.6C20.5,2.2,19.2,2,18,2.1c-2.4,0.2-4.8,1.5-6.1,3.8l-2.4,4.2h0
	c-1.5,2.5-4.1,2.4-6.3,3.6c0.6,0.1,1.3,0.2,2,0.4c2.8,0.7,6.3,2.1,9.9,4.2c3.6,2.1,6.6,4.3,8.6,6.4c0.5,0.5,0.9,1,1.3,1.5
	c-0.1-2.6-1.5-4.7-0.1-7.3h0l2.4-4.2c2-3.5,1-7.8-2.2-10.1l0,0c0.5-0.2,1-0.6,1.2-1.1c0.3-0.6,0.4-1.2,0.2-1.9
	c-0.2-0.6-0.6-1.2-1.1-1.5C24.9,0.1,24.5,0,24,0L24,0z M24.1,1.1c0.3,0,0.5,0,0.8,0.2c0.3,0.2,0.5,0.5,0.6,0.8c0.1,0.4,0,0.7-0.1,1
	c-0.2,0.3-0.5,0.5-0.8,0.6c-0.4,0.1-0.7,0-1-0.1c-0.3-0.2-0.5-0.5-0.6-0.8c-0.1-0.4,0-0.7,0.1-1C23.2,1.3,23.6,1.1,24.1,1.1
	L24.1,1.1z M2.7,15.6c-0.7,0.1-0.9,0.2-1,0.4c-0.1,0.1-0.1,0.4,0.2,1c0.3,0.6,0.9,1.4,1.7,2.3c1.3,1.4,3.3,3,5.7,4.5v0
	C9,24.8,9,25.9,9.4,27c0.4,1,1.1,1.9,2,2.4c1,0.6,2.2,0.8,3.4,0.5c1.2-0.3,2.2-1,2.8-1.9c0.7,0.2,1.3,0.4,2,0.6
	c1.2,0.3,2.2,0.4,2.8,0.3c0.7-0.1,0.9-0.2,1-0.4c0.1-0.1,0.1-0.4-0.2-1c-0.3-0.6-0.9-1.4-1.7-2.3c-1.7-1.7-4.3-3.8-7.5-5.6
	C11,17.8,7.9,16.5,5.6,16C4.4,15.7,3.4,15.6,2.7,15.6L2.7,15.6z M13.7,22.2c0.6,0,1.2,0.1,1.7,0.4c0.7,0.4,1.2,1.1,1.4,1.9
	c0.2,0.8,0.1,1.6-0.3,2.3c-0.4,0.7-1.1,1.2-1.9,1.4c-0.8,0.2-1.6,0.1-2.3-0.3c-0.7-0.4-1.2-1.1-1.4-1.9c-0.2-0.8-0.1-1.6,0.3-2.3
	C11.7,22.9,12.6,22.3,13.7,22.2L13.7,22.2z"/>
</svg>
