<svg xmlns="http://www.w3.org/2000/svg" xmlns:xlink="http://www.w3.org/1999/xlink" width="30" height="30" viewBox="0 0 30 30"><defs><clipPath id="b"><rect width="30" height="30"/></clipPath></defs><g id="a" clip-path="url(#b)"><g transform="translate(0 2)"><g transform="translate(0)"><path d="M29.422,18.916,19.67,2.954C18.546,1.309,17.1,0,15,0s-3.541,1.309-4.666,2.954L.536,19a4.895,4.895,0,0,0,.151,4.733A4.4,4.4,0,0,0,4.4,25.864H25.612A4.371,4.371,0,0,0,29.3,23.733a4.881,4.881,0,0,0,.117-4.817ZM19.553,12a1.064,1.064,0,0,1,0,1.511L17.27,15.794l2.283,2.266a1.084,1.084,0,0,1,0,1.527l-.755.755a1.084,1.084,0,0,1-1.527,0L15,18.06l-2.283,2.283a1.064,1.064,0,0,1-1.511,0l-.755-.755a1.084,1.084,0,0,1,0-1.527l2.266-2.266-2.266-2.283a1.064,1.064,0,0,1,0-1.511l.755-.755a1.064,1.064,0,0,1,1.511,0L15,13.511l2.266-2.266a1.084,1.084,0,0,1,1.527,0l.755.755Z" transform="translate(0)" fill-rule="evenodd"/></g></g></g></svg>