<svg width="512" height="512" viewBox="0 0 512 512" xmlns="http://www.w3.org/2000/svg">
    <path d="m461 147c-20 89-74 98-77 71-14-109 124-107 116-218-22 81-100 67-143 123-43 55-28-34-21-56-75 34-31 119-59 137-7 4-22 2-29-41-7-44 33-100 51-112-22-1-92 43-96 96-5 52-72 116-91 98-19-19 70-56 57-98-25 67-134 14-153 130-27 159 97 207 97 207 15 8 30 13 45 18-4-4-8-9-12-14-24-34 8-51 34-67-7 24 24 58 34 39 10-18 29-86 59-92-17 26 15 108-22 144 21-2 44-5 69-11 73-18 134-107 154-177-117 104-6-88-13-177z m-413 104c-23 32-23 99-22 114-7-24-14-65 6-113 21-49 101-66 101-66-48 24-70 44-85 65z"></path>
</svg>