<svg xmlns="http://www.w3.org/2000/svg" xmlns:xlink="http://www.w3.org/1999/xlink" width="30" height="30" viewBox="0 0 30 30"><defs><clipPath id="b"><rect width="30" height="30"/></clipPath></defs><g id="a" clip-path="url(#b)"><path d="M31.764,5.78H4.236A1.236,1.236,0,0,0,3,7.016v22.8a1.236,1.236,0,0,0,1.236,1.236H31.764A1.236,1.236,0,0,0,33,29.813V7.016A1.236,1.236,0,0,0,31.764,5.78ZM29.527,23.4c0,3.414-2.749,4.54-7.181,5.181H5.473v-.791l10.694-7.1a7.776,7.776,0,0,0,6.181,2.473c3.132-.318,2.894-.779,5.016-3.1a1.236,1.236,0,0,1,2.114.865Zm-.989-9.654c-2.745,4.228-3.038,6.8-6.277,6.985a5.353,5.353,0,0,1-4.834-2.349,1.236,1.236,0,0,0-1.694-.321L5.473,24.818V8.253h21.99a2.077,2.077,0,0,1,2.065,2.077,6.181,6.181,0,0,1-.989,3.363Zm-13.67-.433a2.324,2.324,0,1,1,0-.049Z" transform="translate(-3 -3.78)"/></g></svg>