<svg version="1.1" id="Layer_1" xmlns="http://www.w3.org/2000/svg" xmlns:xlink="http://www.w3.org/1999/xlink" x="0px" y="0px"
	 width="30px" height="30px" viewBox="0 0 30 30" enable-background="new 0 0 30 30" xml:space="preserve">
<g id="Group_106" transform="translate(3.243 63.236)">
	<path id="Path_69" d="M14.9-45.3c0.8-1.3,1.4-2.6,2-4c0-2.3-3.6-3.8-6-4c-2.2-0.2-4.3,0.5-6,2c-0.4,0.3-0.3,1.6,0,2
		c0.3,0.4,1.6,0.2,2,0c0.8-0.5,1.4-0.7,2,0c0.5,0.6,0.5,1.4,0,2l-4,8c-0.3,0.7,0,1.3,0,2c0,2.2,1.7,4,3.9,4c0,0,0.1,0,0.1,0
		c2.2,0.2,4.3-0.5,6-2c0.4-0.3,0.3-1.6,0-2c-0.3-0.4,0.4-0.2,0,0c-0.8,0.5-1.4,0.7-2,0c-0.5-0.6-0.5-1.4,0-2L14.9-45.3z"/>
	<path id="Path_70" d="M18.9-59.2c0,2.2-1.8,4-4,4s-4-1.8-4-4s1.8-4,4-4S18.9-61.4,18.9-59.2"/>
</g>
</svg>
