<svg xmlns="http://www.w3.org/2000/svg" xmlns:xlink="http://www.w3.org/1999/xlink" width="30" height="30" viewBox="0 0 30 30"><defs><clipPath id="b"><rect width="30" height="30"/></clipPath></defs><g id="a" clip-path="url(#b)"><path d="M-598-402a5,5,0,0,1-5-5v-20a5,5,0,0,1,5-5h20a5,5,0,0,1,5,5v20a5,5,0,0,1-5,5Zm-2.5-25v20a2.5,2.5,0,0,0,2.5,2.5h7.5a15,15,0,0,0,15-15V-422a7.5,7.5,0,0,0-7.5-7.5h-15A2.5,2.5,0,0,0-600.5-427Zm16.247,15.034a6.038,6.038,0,0,1-2.077-.379,5.316,5.316,0,0,1-1.466-.824.474.474,0,0,1-.186-.324.477.477,0,0,1,.105-.358l.774-.935a.465.465,0,0,1,.632-.085,5.229,5.229,0,0,0,.924.53,3.292,3.292,0,0,0,1.36.309,1.843,1.843,0,0,0,1.117-.278.884.884,0,0,0,.365-.748.8.8,0,0,0-.106-.419.976.976,0,0,0-.309-.319,2.549,2.549,0,0,0-.506-.263l-.626-.268-1.38-.586a3.914,3.914,0,0,1-.794-.425,3.394,3.394,0,0,1-.682-.612,2.671,2.671,0,0,1-.48-.814,2.839,2.839,0,0,1-.177-1.046,2.873,2.873,0,0,1,.273-1.233,3.04,3.04,0,0,1,.784-1.012,3.654,3.654,0,0,1,1.183-.7A4.57,4.57,0,0,1-584.01-423a4.949,4.949,0,0,1,1.859.359,4.632,4.632,0,0,1,1.234.723.506.506,0,0,1,.076.672l-.662.814a.469.469,0,0,1-.626.1,4.04,4.04,0,0,0-.693-.379,2.946,2.946,0,0,0-1.157-.217,1.682,1.682,0,0,0-.986.252.81.81,0,0,0-.364.708.691.691,0,0,0,.122.414,1.178,1.178,0,0,0,.338.309,3.583,3.583,0,0,0,.5.263l.637.267,1.364.552a3.8,3.8,0,0,1,1.542,1.092,2.755,2.755,0,0,1,.562,1.809,3.039,3.039,0,0,1-.268,1.259,3.076,3.076,0,0,1-.784,1.046,3.863,3.863,0,0,1-1.248.723,4.911,4.911,0,0,1-1.607.269Zm-10.508-.485a3.5,3.5,0,0,1-1.147-1.077.474.474,0,0,1,.1-.661l.869-.647a.505.505,0,0,1,.662.1,1.885,1.885,0,0,0,.424.4,1.442,1.442,0,0,0,.8.257,1.208,1.208,0,0,0,1.011-.4,2.326,2.326,0,0,0,.333-1.44v-6.414a.476.476,0,0,1,.475-.475h1.446a.471.471,0,0,1,.334.139.473.473,0,0,1,.136.336v6.611a5.008,5.008,0,0,1-.2,1.445,3.338,3.338,0,0,1-.642,1.2,2.916,2.916,0,0,1-1.061.793,3.615,3.615,0,0,1-1.517.293c-.041,0-.083,0-.125,0A4.046,4.046,0,0,1-594.761-412.451Z" transform="translate(603 432)"/></g></svg>