<svg xmlns="http://www.w3.org/2000/svg" xmlns:xlink="http://www.w3.org/1999/xlink" width="30" height="30" viewBox="0 0 30 30"><defs><clipPath id="b"><rect width="30" height="30"/></clipPath></defs><g id="a" clip-path="url(#b)"><path d="M134.816,157.316v19.355h-6.445V157.316Zm.41-5.977a3.092,3.092,0,0,1-.986,2.383,3.681,3.681,0,0,1-2.646.957h-.039a3.525,3.525,0,0,1-2.578-.957A3.2,3.2,0,0,1,128,151.34a3.146,3.146,0,0,1,1.006-2.393,3.676,3.676,0,0,1,2.627-.947,3.572,3.572,0,0,1,2.6.947A3.258,3.258,0,0,1,135.227,151.34ZM158,165.578v11.094h-6.426V166.32a5.65,5.65,0,0,0-.791-3.213,2.778,2.778,0,0,0-2.471-1.162,3.163,3.163,0,0,0-2.061.674,4.154,4.154,0,0,0-1.24,1.67,4.722,4.722,0,0,0-.215,1.582v10.8h-6.426q.039-7.793.039-12.637t-.02-5.781l-.02-.937H144.8v2.813h-.039a8.5,8.5,0,0,1,.8-1.094,8.326,8.326,0,0,1,1.1-1.016,5.074,5.074,0,0,1,1.7-.85,7.742,7.742,0,0,1,2.236-.3,6.937,6.937,0,0,1,5.371,2.217Q158,161.3,158,165.578Z" transform="translate(-128 -147)"/></g></svg>