<svg xmlns="http://www.w3.org/2000/svg" xmlns:xlink="http://www.w3.org/1999/xlink" width="30" height="30" viewBox="0 0 30 30"><defs><clipPath id="b"><rect width="30" height="30"/></clipPath></defs><g id="a" clip-path="url(#b)"><path d="M28.04,16.254v-2.9a10.259,10.259,0,0,0-20.519,0v2.9A3.486,3.486,0,0,0,5,19.589V29.6A3.486,3.486,0,0,0,8.486,33.09h18.59A3.486,3.486,0,0,0,30.562,29.6V19.589A3.486,3.486,0,0,0,28.04,16.254ZM17.781,5.414a7.947,7.947,0,0,1,7.936,7.936V16.1H9.845V13.349a7.947,7.947,0,0,1,7.936-7.936Zm10.457,14.9A10.457,10.457,0,0,1,17.781,30.766h-9.3A1.162,1.162,0,0,1,7.324,29.6V19.589a1.162,1.162,0,0,1,1.162-1.162h18.59a1.162,1.162,0,0,1,1.162,1.162ZM19.524,22.97a1.766,1.766,0,0,1-.581,1.29V26.8a1.162,1.162,0,0,1-2.324,0V24.26a1.766,1.766,0,0,1-.581-1.29,1.743,1.743,0,1,1,3.486,0Z" transform="translate(-3 -3.09)"/></g></svg>