<svg xmlns="http://www.w3.org/2000/svg" xmlns:xlink="http://www.w3.org/1999/xlink" width="30" height="30" viewBox="0 0 30 30"><defs><clipPath id="b"><rect width="30" height="30"/></clipPath></defs><g id="a" clip-path="url(#b)"><path d="M23.775,14.525A4.475,4.475,0,0,0,19.5,17.75H11A1.25,1.25,0,0,0,9.75,19v3.225a1.25,1.25,0,0,0,2.5,0V20.25H13.5v1.975a1.25,1.25,0,0,0,2.5,0V20.25h3.5a4.463,4.463,0,1,0,4.275-5.725Zm0,6.45A1.975,1.975,0,1,1,25.75,19a1.975,1.975,0,0,1-1.975,1.975ZM29,4H9A5,5,0,0,0,4,9V29a5,5,0,0,0,5,5H29a5,5,0,0,0,5-5V9A5,5,0,0,0,29,4Zm2.5,12.5a15,15,0,0,1-15,15H9A2.5,2.5,0,0,1,6.5,29V9A2.5,2.5,0,0,1,9,6.5H24A7.5,7.5,0,0,1,31.5,14Z" transform="translate(-4 -4)"/></g></svg>