<svg xmlns="http://www.w3.org/2000/svg" xmlns:xlink="http://www.w3.org/1999/xlink" width="30" height="30" viewBox="0 0 30 30"><defs><clipPath id="b"><rect width="30" height="30"/></clipPath></defs><g id="a" clip-path="url(#b)"><path d="M75.314,3.074A11.5,11.5,0,0,0,67.267,0a12.649,12.649,0,0,0-9.329,3.6,10.629,10.629,0,0,0-3.145,7.367c0,3.339,1.4,5.9,3.736,6.856a1.237,1.237,0,0,0,.47.1,1.045,1.045,0,0,0,1.02-.841c.079-.3.262-1.03.341-1.348a1.265,1.265,0,0,0-.339-1.368,4.36,4.36,0,0,1-.992-2.979A7.5,7.5,0,0,1,66.8,3.832c4.007,0,6.5,2.277,6.5,5.943a12.347,12.347,0,0,1-1.4,6.033,4.15,4.15,0,0,1-3.433,2.4,2.276,2.276,0,0,1-1.81-.827,2.081,2.081,0,0,1-.365-1.808c.179-.756.422-1.545.658-2.307a14.278,14.278,0,0,0,.836-3.757,2.728,2.728,0,0,0-2.746-3c-2.087,0-3.722,2.12-3.722,4.825a7.175,7.175,0,0,0,.512,2.7c-.263,1.114-1.825,7.736-2.122,8.985-.171.729-1.2,6.486.5,6.946,1.92.516,3.636-5.092,3.81-5.725.142-.516.637-2.464.94-3.662a5.8,5.8,0,0,0,3.871,1.5,8.634,8.634,0,0,0,6.932-3.468,13.922,13.922,0,0,0,2.606-8.513A9.818,9.818,0,0,0,75.314,3.074Z" transform="translate(-51.793)"/></g></svg>