<svg width="512" height="512" viewBox="0 0 512 512" xmlns="http://www.w3.org/2000/svg">
    <path d="m366 393l0-18c0-3-1-5-3-7c-2-1-4-2-6-2l-202 0c-2 0-4 1-6 2c-2 2-3 4-3 7l0 18c0 3 1 5 3 7c2 1 4 2 6 2l202 0c2 0 4-1 6-2c2-2 3-4 3-7z m0-73l0-18c0-3-1-5-3-7c-2-2-4-2-6-2l-202 0c-2 0-4 0-6 2c-2 2-3 4-3 7l0 18c0 3 1 5 3 7c2 1 4 2 6 2l202 0c2 0 4-1 6-2c2-2 3-4 3-7z m73-101l0 229c0 8-3 14-8 19c-5 6-12 8-20 8l-310 0c-8 0-15-2-20-8c-5-5-8-11-8-19l0-384c0-8 3-14 8-19c5-6 12-8 20-8l155 0l0 155c0 8 3 14 8 19c5 6 12 8 19 8z m-1-36l-145 0l0-146c15 3 28 9 37 19l89 89c10 10 16 22 19 38z"></path>
</svg>