<svg width="512" height="512" viewBox="0 0 512 512" xmlns="http://www.w3.org/2000/svg">
    <path d="m111 444c-27 0-52-9-76-26-23-18-35-39-35-63 0-74 29-140 87-199 58-59 97-88 118-88 20 0 31 2 31 6 0 4-20 28-59 71-38 43-58 78-58 103 0 25 12 49 37 70 24 21 36 37 36 47 0 53-27 79-81 79m276 0c-27 0-52-9-77-26-24-18-36-39-36-63 0-74 29-140 88-199 58-59 101-88 128-88 15 0 22 2 22 7-7 9-17 20-28 32-12 12-23 25-34 37-38 40-57 74-57 101 0 28 12 52 36 73 25 21 37 37 37 47 0 53-26 79-79 79"></path>
</svg>