<svg xmlns="http://www.w3.org/2000/svg" xmlns:xlink="http://www.w3.org/1999/xlink" width="30" height="30" viewBox="0 0 30 30"><defs><clipPath id="b"><rect width="30" height="30"/></clipPath></defs><g id="a" clip-path="url(#b)"><path d="M63.2,62.879a4.252,4.252,0,0,1-1.193,2.909A3.941,3.941,0,0,1,59.1,66.981a3.827,3.827,0,0,1-2.909-1.193,4.142,4.142,0,0,1,0-5.817A3.827,3.827,0,0,1,59.1,58.777a3.941,3.941,0,0,1,2.909,1.193A4.252,4.252,0,0,1,63.2,62.879Zm10.889,2.61a1.4,1.4,0,0,1-.373,1.044,1.2,1.2,0,0,1-.97.447H69.841a1.235,1.235,0,0,1-.895-.373,1.063,1.063,0,0,1-.447-.895,13.334,13.334,0,0,0-3.953-8.353,13.07,13.07,0,0,0-8.353-3.878,1.778,1.778,0,0,1-.82-.447A1.086,1.086,0,0,1,55,52.14V49.231a1.2,1.2,0,0,1,.447-.97,1,1,0,0,1,.895-.373h.149A18.217,18.217,0,0,1,62.98,49.6,18.957,18.957,0,0,1,68.5,53.482,18.015,18.015,0,0,1,72.377,59,19.919,19.919,0,0,1,74.092,65.489Zm10.889.075a1.028,1.028,0,0,1-.373.97,1.2,1.2,0,0,1-.97.447H80.581a1.571,1.571,0,0,1-.97-.373,1.376,1.376,0,0,1-.373-.895,25.027,25.027,0,0,0-2.163-8.726A23.858,23.858,0,0,0,64.994,44.905a23.488,23.488,0,0,0-8.726-2.163,1.063,1.063,0,0,1-.895-.447A1.376,1.376,0,0,1,55,41.4V38.342a1.2,1.2,0,0,1,.447-.97A1,1,0,0,1,56.342,37h.075a27.62,27.62,0,0,1,10.665,2.536,29.2,29.2,0,0,1,9.1,6.265,31.594,31.594,0,0,1,6.265,9.024A29.775,29.775,0,0,1,84.981,65.564Z" transform="translate(-55 -37)"/></g></svg>