<svg xmlns="http://www.w3.org/2000/svg" xmlns:xlink="http://www.w3.org/1999/xlink" width="30" height="30" viewBox="0 0 30 30"><defs><clipPath id="b"><rect width="30" height="30"/></clipPath></defs><g id="a" clip-path="url(#b)"><g transform="translate(-5.7 -5)"><g transform="translate(5.7 5)"><path d="M24.867,14.5a9.567,9.567,0,1,0,9.567,9.567A9.588,9.588,0,0,0,24.867,14.5Z" transform="translate(-12.1 -11.333)" fill="none"/><path d="M28.967,25.733a13.192,13.192,0,1,0-3.1,2.9l.067.067L31.6,34.367A2.181,2.181,0,0,0,33.1,35a2.043,2.043,0,0,0,1.5-.633,2.112,2.112,0,0,0,0-3Zm-10.333.9a8.7,8.7,0,1,1,8.7-8.7A8.706,8.706,0,0,1,18.633,26.633Z" transform="translate(-5.7 -5)"/></g></g></g></svg>