<?xml version="1.0" encoding="utf-8"?>
<!-- Generator: Adobe Illustrator 23.0.1, SVG Export Plug-In . SVG Version: 6.00 Build 0)  -->
<svg version="1.1" id="Layer_1" xmlns="http://www.w3.org/2000/svg" xmlns:xlink="http://www.w3.org/1999/xlink" x="0px" y="0px"
	 viewBox="0 0 30 30" style="enable-background:new 0 0 30 30;" xml:space="preserve">
<g>
	<path d="M28.5,1.5c-2-2-5.3-2-7.4,0c-0.7,0.7-1.4,1.8-1.9,3C18.4,6.7,17.8,8,16,9.9L13.8,12l4.2,4.2l2.2-2.2
		c1.8-1.8,3.2-2.4,5.4-3.3c1.2-0.5,2.3-1.2,3-1.9c1-1,1.5-2.3,1.5-3.7C30,3.8,29.5,2.5,28.5,1.5L28.5,1.5z"/>
	<path d="M14.2,15.8l-2.9-2.9l0,0l-3-3c-1.1-1.1-2.9-1.1-4,0l-2.9,2.9l15.8,15.8l2.9-2.9c1.1-1.1,1.1-2.9,0-4L14.2,15.8z"/>
	<path d="M0.5,19.3l10.3,10.3c0.6,0.6,1.6,0.6,2.2,0l0.9-0.9L1.3,16.2l-0.9,0.9C-0.2,17.7-0.2,18.7,0.5,19.3z"/>
</g>
</svg>
