<svg xmlns="http://www.w3.org/2000/svg" xmlns:xlink="http://www.w3.org/1999/xlink" width="30" height="30" viewBox="0 0 30 30"><defs><clipPath id="b"><rect width="30" height="30"/></clipPath></defs><g id="a" clip-path="url(#b)"><path d="M7.918,15.655ZM7.918,15.655ZM7.918,15.655Zm24.128-1.073-6.607,5.4,2.148,2.145a6.3,6.3,0,0,1,0,8.921l-1.263,1.262a3.759,3.759,0,0,1-4.674.53,4.817,4.817,0,0,1-6.683-.151L5.53,23.213a4.829,4.829,0,0,1-.152-6.625,3.782,3.782,0,0,1,.543-4.656L7.185,10.67a6.321,6.321,0,0,1,8.931,0l2.148,2.145L23.7,6.241a5.9,5.9,0,1,1,8.312,8.3ZM17.3,28.614,7.084,18.406a2.345,2.345,0,0,0,.227,3.028l6.961,6.953a2.352,2.352,0,0,0,3.032.227Zm7.251-5.956L14.31,12.424a3.793,3.793,0,0,0-5.293,0L7.754,13.686a1.261,1.261,0,0,0,0,1.767l.253.252h0l.088.1h0l13.429,13.4a1.264,1.264,0,0,0,1.794,0l1.263-1.262a3.783,3.783,0,0,0-.025-5.287ZM31.6,10.279a3.279,3.279,0,0,0-.985-2.65,3.337,3.337,0,0,0-2.527-1,3.374,3.374,0,0,0-2.451,1.262l-5.6,6.675a5.614,5.614,0,0,0,7.58.353L30.24,12.8A3.646,3.646,0,0,0,31.6,10.279Z" transform="translate(-4.138 -4.115)"/></g></svg>