<svg xmlns="http://www.w3.org/2000/svg" xmlns:xlink="http://www.w3.org/1999/xlink" width="30" height="30"
     viewBox="0 0 30 30">
    <defs>
        <clipPath id="b">
            <rect width="30" height="30"/>
        </clipPath>
    </defs>
    <g id="a" clip-path="url(#b)">
        <g transform="translate(4 0.5)">
            <g transform="translate(-4)">
                <g transform="translate(0 0.5)">
                    <path d="M629.809,259.987l-8.463,1.223-.178.036a1.556,1.556,0,0,0-.692,2.624l6.123,5.93-1.445,8.376-.021.171a1.569,1.569,0,0,0,2.3,1.471L635,275.865l7.569,3.952.159.074a1.567,1.567,0,0,0,2.118-1.716L643.4,269.8l6.125-5.93.123-.133a1.557,1.557,0,0,0-.993-2.526l-8.465-1.223-3.783-7.619a1.574,1.574,0,0,0-2.814,0Z"
                          transform="translate(-620 -251.5)"/>
                </g>
            </g>
        </g>
    </g>
</svg>