<svg xmlns="http://www.w3.org/2000/svg" xmlns:xlink="http://www.w3.org/1999/xlink" width="30" height="30" viewBox="0 0 30 30"><defs><clipPath id="b"><rect width="30" height="30"/></clipPath></defs><g id="a" clip-path="url(#b)"><path d="M-640-443a5,5,0,0,1-5-5v-20a5,5,0,0,1,5-5h20a5,5,0,0,1,5,5v20a5,5,0,0,1-5,5Zm-2.5-25v20a2.5,2.5,0,0,0,2.5,2.5h7.5a15,15,0,0,0,15-15V-463a7.5,7.5,0,0,0-7.5-7.5h-15A2.5,2.5,0,0,0-642.5-468Zm10.842,19.206a1.609,1.609,0,0,1-.563-2.2l3.218-5.407h-4.828a1.608,1.608,0,0,1-1.4-.812,1.611,1.611,0,0,1,.013-1.617l4.683-7.836a1.609,1.609,0,0,1,2.111-.445,1.609,1.609,0,0,1,.657,2.054l-3.218,5.406h4.827a1.61,1.61,0,0,1,1.384.853,1.609,1.609,0,0,1,0,1.608l-4.683,7.836a1.608,1.608,0,0,1-1.383.788A1.705,1.705,0,0,1-631.658-448.794Z" transform="translate(645 473)"/></g></svg>