<?xml version="1.0" encoding="utf-8"?>
<!-- Generator: Adobe Illustrator 23.0.1, SVG Export Plug-In . SVG Version: 6.00 Build 0)  -->
<svg version="1.1" id="Layer_1" xmlns="http://www.w3.org/2000/svg" xmlns:xlink="http://www.w3.org/1999/xlink" x="0px" y="0px"
	 viewBox="0 0 30 30" style="enable-background:new 0 0 30 30;" xml:space="preserve">
<path d="M19.5,14.6c-0.3,0-0.5,0.1-0.7,0.3c-0.2,0.2-0.3,0.5-0.3,0.7v0.6v0c0,0.4-0.2,0.8-0.4,1c-0.3,0.3-0.6,0.4-1,0.4
	c-0.4,0-0.7,0.2-0.9,0.5c-0.2,0.3-0.2,0.7,0,1c0.2,0.3,0.5,0.5,0.9,0.5c0.9,0,1.9-0.4,2.5-1c0.7-0.7,1-1.6,1-2.5v-0.6
	c0-0.3-0.1-0.5-0.3-0.7C20.1,14.7,19.8,14.6,19.5,14.6L19.5,14.6z"/>
<path d="M8.6,11.5h1.2l-0.6-1.4L8.6,11.5z"/>
<path d="M26.6,8.4h-8.1V6.9c0-0.9-0.4-1.8-1-2.4c-0.6-0.6-1.5-1-2.4-1H3.4c-0.9,0-1.8,0.4-2.4,1C0.4,5.2,0,6,0,6.9v13.6
	c0,0.3,0.1,0.6,0.3,0.7c0.2,0.2,0.5,0.3,0.8,0.3c0.3,0,0.6-0.1,0.7-0.3l3.6-3.6l6.2,0v1.5c0,0.9,0.4,1.8,1,2.4c0.6,0.6,1.5,1,2.4,1
	h9.7l3.6,3.6c0.2,0.2,0.5,0.3,0.7,0.3c0.3,0,0.6-0.1,0.8-0.3c0.2-0.2,0.3-0.5,0.3-0.7V11.8c0-0.9-0.4-1.8-1-2.4
	C28.4,8.8,27.5,8.4,26.6,8.4L26.6,8.4z M12.4,14.8L12.4,14.8c-0.3,0.1-0.5,0.1-0.8,0c-0.3-0.1-0.5-0.3-0.6-0.6l-0.3-0.6l-3,0
	l-0.3,0.6v0c-0.1,0.3-0.5,0.6-0.8,0.6c-0.4,0-0.7-0.1-1-0.4s-0.3-0.7-0.1-1L6,12.1l0,0l2.2-5.2c0.1-0.3,0.3-0.5,0.6-0.6
	c0.3-0.1,0.5-0.1,0.8,0c0.3,0.1,0.5,0.3,0.6,0.6l2.2,5.2l0,0l0.5,1.3c0.1,0.3,0.1,0.5,0,0.8C12.8,14.5,12.6,14.7,12.4,14.8
	L12.4,14.8z M27.9,22.8l-2.1-2.1c-0.2-0.2-0.5-0.3-0.8-0.3H15c-0.3,0-0.7-0.1-0.9-0.4c-0.2-0.2-0.4-0.6-0.4-0.9v-1.5H15v0
	c0.9,0,1.7-0.3,2.4-1c0.6-0.6,1-1.5,1-2.4H21v2c0,0.9,0.4,1.9,1,2.5c0.7,0.7,1.6,1,2.5,1c0.4,0,0.7-0.2,0.9-0.5c0.2-0.3,0.2-0.7,0-1
	c-0.2-0.3-0.5-0.5-0.9-0.5c-0.4,0-0.8-0.2-1-0.4c-0.3-0.3-0.4-0.6-0.4-1v-2h1.3c0.4,0,0.7-0.2,0.9-0.5c0.2-0.3,0.2-0.7,0-1
	c-0.2-0.3-0.5-0.5-0.9-0.5h-2.6v-0.1c0-0.3-0.1-0.6-0.3-0.8C21.3,11.1,21,11,20.7,11c-0.3,0-0.6,0.1-0.8,0.3
	c-0.2,0.2-0.3,0.5-0.3,0.8v0.1h-1.2v-1.7l8.1,0c0.3,0,0.7,0.1,0.9,0.4c0.2,0.2,0.4,0.6,0.4,0.9L27.9,22.8z"/>
</svg>
