<svg xmlns="http://www.w3.org/2000/svg" xmlns:xlink="http://www.w3.org/1999/xlink" width="30" height="30" viewBox="0 0 30 30"><defs><clipPath id="b"><rect width="30" height="30"/></clipPath></defs><g id="a" clip-path="url(#b)"><g transform="translate(-2 -2)"><g transform="translate(3 2)"><path d="M9.316,6.737V5.158A3.158,3.158,0,0,1,12.474,2h9.474a3.158,3.158,0,0,1,3.158,3.158V6.737h6.316V9.895H28.263V28.842A3.452,3.452,0,0,1,24.579,32H9.842a3.452,3.452,0,0,1-3.684-3.158V9.895H3V6.737Zm0,3.158V28.842H25.105V9.895Zm3.158,3.158h3.158V25.684H12.474Zm6.316,0h3.158V25.684H18.789ZM12.474,6.737h9.474V5.158H12.474Z" transform="translate(-3 -2)"/></g></g></g></svg>