<svg xmlns="http://www.w3.org/2000/svg" xmlns:xlink="http://www.w3.org/1999/xlink" width="30" height="30" viewBox="0 0 30 30"><defs><clipPath id="b"><rect width="30" height="30"/></clipPath></defs><g id="a" clip-path="url(#b)"><path d="M61,75.933a13.682,13.682,0,0,1-3.067,3.133v.8A15.532,15.532,0,0,1,57.2,84.8,16.1,16.1,0,0,1,55,89.533,18.379,18.379,0,0,1,51.533,93.6,16.013,16.013,0,0,1,46.6,96.333,17.211,17.211,0,0,1,40.467,97.4,16.94,16.94,0,0,1,31,94.6a9.986,9.986,0,0,0,1.467.133,12.318,12.318,0,0,0,7.667-2.667,5.85,5.85,0,0,1-3.6-1.2,5.988,5.988,0,0,1-2.2-3.067,9.368,9.368,0,0,0,1.2.133,4.482,4.482,0,0,0,1.6-.267A6.2,6.2,0,0,1,33.6,85.6a6.049,6.049,0,0,1-1.4-3.933V81.6a5.846,5.846,0,0,0,2.8.733A5.581,5.581,0,0,1,33,80.2a5.81,5.81,0,0,1-.733-2.933,6.261,6.261,0,0,1,.8-3.133A17.676,17.676,0,0,0,45.8,80.6a6.158,6.158,0,0,1,10.467-5.667A12.231,12.231,0,0,0,60.2,73.467a6.008,6.008,0,0,1-2.733,3.4A13.87,13.87,0,0,0,61,75.933Z" transform="translate(-31 -70)"/></g></svg>