<svg xmlns="http://www.w3.org/2000/svg" width="30" height="26.713" viewBox="0 0 30 26.713"><path d="M54.827,56.171A24.613,24.613,0,0,1,49.173,67.8a44.9,44.9,0,0,1-8.188,7.928,3.15,3.15,0,0,1-2.664.52,4.371,4.371,0,0,1-2.209-1.235A7.135,7.135,0,0,1,34.682,73a73.705,73.705,0,0,1-2.6-7.993A58.358,58.358,0,0,0,29.614,57.6a1.359,1.359,0,0,0-1.235-.195,7.82,7.82,0,0,0-1.495.715l-.65.455L25,56.951q.585-.682,1.56-1.755a24.727,24.727,0,0,1,3.314-2.924A10.71,10.71,0,0,1,34.032,50a2.322,2.322,0,0,1,1.755.26,2.55,2.55,0,0,1,1.17,1.17,5.916,5.916,0,0,1,.78,2.014c.195.78.39,1.56.52,2.274a24.5,24.5,0,0,0,.39,2.534c.13.91.26,1.69.39,2.209.325,1.17.585,2.079.715,2.664.195.585.325,1.17.585,1.819a4.981,4.981,0,0,0,.585,1.3.9.9,0,0,0,.585.325c.91,0,2.274-1.819,4.224-5.523q1.365-2.534.195-4.094c-.78-1.1-2.079-1.1-3.7-.065a8.277,8.277,0,0,1,4.614-6.238c2.339-1.235,4.354-1.3,6.043-.325q2.729,1.56,1.949,5.848" transform="translate(-25 -49.651)"/></svg>