<?xml version="1.0" encoding="utf-8"?>
<!-- Generator: Adobe Illustrator 23.0.1, SVG Export Plug-In . SVG Version: 6.00 Build 0)  -->
<svg version="1.1" id="Layer_1" xmlns="http://www.w3.org/2000/svg" xmlns:xlink="http://www.w3.org/1999/xlink" x="0px" y="0px"
	 viewBox="0 0 30 30" style="enable-background:new 0 0 30 30;" xml:space="preserve">
<path d="M15,0C6.7,0,0,6.7,0,15s6.7,15,15,15s15-6.7,15-15S23.3,0,15,0z M12.9,7.1c0-1.1,0.9-2,2-2c0.6,0,1.1,0.2,1.5,0.6
	c0.4,0.4,0.6,0.9,0.6,1.5v8.9c0,1.2-1,2.1-2.1,2.1c-1.1,0-2-0.9-2-2V7.1z M17.5,22.7c-0.1,1.2-1.1,2.2-2.3,2.3
	c-1.6,0.2-3-1.2-2.8-2.8c0.1-1.2,1.1-2.2,2.3-2.3C16.4,19.7,17.7,21,17.5,22.7z"/>
</svg>
