<svg xmlns="http://www.w3.org/2000/svg" width="156" height="40" viewBox="0 0 156 40"><g transform="translate(-51 -87)"><rect width="156" height="40" transform="translate(51 87)" fill="rgba(255,255,255,0)"/><path d="M-50.364-5.672H-52.23a1.846,1.846,0,0,0-.209-.646,1.646,1.646,0,0,0-.4-.484,1.786,1.786,0,0,0-.569-.307,2.2,2.2,0,0,0-.7-.107,2.081,2.081,0,0,0-1.18.335,2.166,2.166,0,0,0-.78.972,3.866,3.866,0,0,0-.277,1.545A3.9,3.9,0,0,0-56.068-2.8a2.112,2.112,0,0,0,.782.959,2.1,2.1,0,0,0,1.163.324,2.322,2.322,0,0,0,.688-.1,1.782,1.782,0,0,0,.565-.288,1.646,1.646,0,0,0,.411-.462,1.837,1.837,0,0,0,.228-.622l1.866.009a3.383,3.383,0,0,1-.36,1.157,3.5,3.5,0,0,1-.771.993,3.61,3.61,0,0,1-1.151.69,4.214,4.214,0,0,1-1.506.254,4.106,4.106,0,0,1-2.086-.528,3.733,3.733,0,0,1-1.449-1.53,5.121,5.121,0,0,1-.531-2.425,5.08,5.08,0,0,1,.537-2.429A3.756,3.756,0,0,1-56.223-8.32a4.1,4.1,0,0,1,2.071-.526,4.5,4.5,0,0,1,1.408.213,3.592,3.592,0,0,1,1.153.62,3.252,3.252,0,0,1,.82,1A3.727,3.727,0,0,1-50.364-5.672Zm4.981,5.8A3.328,3.328,0,0,1-47.1-.3a2.866,2.866,0,0,1-1.114-1.185A3.8,3.8,0,0,1-48.6-3.247a3.823,3.823,0,0,1,.392-1.775A2.866,2.866,0,0,1-47.1-6.207a3.328,3.328,0,0,1,1.715-.424,3.328,3.328,0,0,1,1.715.424,2.866,2.866,0,0,1,1.114,1.185,3.823,3.823,0,0,1,.392,1.775,3.8,3.8,0,0,1-.392,1.766A2.866,2.866,0,0,1-43.668-.3,3.328,3.328,0,0,1-45.383.128Zm.009-1.406a1.122,1.122,0,0,0,.754-.258,1.586,1.586,0,0,0,.458-.705,3.093,3.093,0,0,0,.156-1.018,3.093,3.093,0,0,0-.156-1.018,1.6,1.6,0,0,0-.458-.707,1.117,1.117,0,0,0-.754-.26,1.148,1.148,0,0,0-.765.26,1.575,1.575,0,0,0-.464.707A3.093,3.093,0,0,0-46.76-3.26,3.093,3.093,0,0,0-46.6-2.241a1.56,1.56,0,0,0,.464.705A1.154,1.154,0,0,0-45.375-1.278Zm6.945-2.506V0h-1.815V-6.545h1.73v1.155h.077a1.837,1.837,0,0,1,.729-.906,2.216,2.216,0,0,1,1.24-.335,2.3,2.3,0,0,1,1.189.3,2.03,2.03,0,0,1,.788.85,2.863,2.863,0,0,1,.281,1.315V0h-1.815V-3.844a1.323,1.323,0,0,0-.307-.94,1.1,1.1,0,0,0-.857-.339,1.29,1.29,0,0,0-.646.158,1.084,1.084,0,0,0-.435.458A1.59,1.59,0,0,0-38.43-3.784Zm9.86-2.761v1.364h-3.942V-6.545Zm-3.047-1.568H-29.8v6.1a.814.814,0,0,0,.077.39.42.42,0,0,0,.215.194.862.862,0,0,0,.322.055,1.415,1.415,0,0,0,.256-.023l.2-.036.286,1.351q-.136.043-.384.1a3.205,3.205,0,0,1-.6.07,2.744,2.744,0,0,1-1.148-.175,1.6,1.6,0,0,1-.765-.622,1.9,1.9,0,0,1-.268-1.065ZM-23.743.128a3.471,3.471,0,0,1-1.737-.411A2.782,2.782,0,0,1-26.6-1.451a3.846,3.846,0,0,1-.392-1.792A3.826,3.826,0,0,1-26.6-5.016,2.894,2.894,0,0,1-25.492-6.2a3.209,3.209,0,0,1,1.677-.426,3.464,3.464,0,0,1,1.208.207,2.723,2.723,0,0,1,.98.62,2.824,2.824,0,0,1,.654,1.038,4.145,4.145,0,0,1,.234,1.46v.5h-5.527V-3.933h3.818a1.391,1.391,0,0,0-.17-.695,1.24,1.24,0,0,0-.471-.475,1.374,1.374,0,0,0-.7-.173,1.4,1.4,0,0,0-.731.19,1.36,1.36,0,0,0-.5.507,1.444,1.444,0,0,0-.183.705V-2.8a1.821,1.821,0,0,0,.181.839,1.3,1.3,0,0,0,.513.545,1.551,1.551,0,0,0,.788.192,1.717,1.717,0,0,0,.554-.085,1.15,1.15,0,0,0,.43-.256,1.112,1.112,0,0,0,.273-.418l1.679.111A2.289,2.289,0,0,1-21.3-.82a2.623,2.623,0,0,1-1.014.7A3.812,3.812,0,0,1-23.743.128Zm6.736-3.912V0h-1.815V-6.545h1.73v1.155h.077a1.837,1.837,0,0,1,.729-.906,2.216,2.216,0,0,1,1.24-.335,2.3,2.3,0,0,1,1.189.3,2.03,2.03,0,0,1,.788.85,2.863,2.863,0,0,1,.281,1.315V0H-14.6V-3.844a1.323,1.323,0,0,0-.307-.94,1.1,1.1,0,0,0-.857-.339,1.29,1.29,0,0,0-.646.158,1.084,1.084,0,0,0-.435.458A1.59,1.59,0,0,0-17.006-3.784Zm9.86-2.761v1.364h-3.942V-6.545Zm-3.047-1.568h1.815v6.1a.814.814,0,0,0,.077.39.42.42,0,0,0,.215.194.862.862,0,0,0,.322.055A1.415,1.415,0,0,0-7.509-1.4l.2-.036.286,1.351q-.136.043-.384.1a3.205,3.205,0,0,1-.6.07A2.744,2.744,0,0,1-9.16-.085a1.6,1.6,0,0,1-.765-.622,1.9,1.9,0,0,1-.268-1.065ZM-1.685,0V-8.727H1.758A3.519,3.519,0,0,1,3.45-8.35,2.6,2.6,0,0,1,4.517-7.306,3.123,3.123,0,0,1,4.886-5.77a3.069,3.069,0,0,1-.375,1.534A2.589,2.589,0,0,1,3.426-3.2a3.664,3.664,0,0,1-1.715.371H-.484V-4.308h1.9a1.857,1.857,0,0,0,.88-.185,1.215,1.215,0,0,0,.52-.516,1.619,1.619,0,0,0,.173-.761,1.6,1.6,0,0,0-.173-.761,1.194,1.194,0,0,0-.522-.507A1.918,1.918,0,0,0,1.4-7.219H.16V0ZM6.785,0V-6.545h1.76V-5.4h.068a1.7,1.7,0,0,1,.6-.923,1.587,1.587,0,0,1,.972-.313,2.746,2.746,0,0,1,.294.017,2.07,2.07,0,0,1,.277.047v1.611a2.372,2.372,0,0,0-.354-.068,3.178,3.178,0,0,0-.413-.03,1.454,1.454,0,0,0-.714.173,1.282,1.282,0,0,0-.494.479A1.365,1.365,0,0,0,8.6-3.7V0Zm8.287.128A3.328,3.328,0,0,1,13.357-.3a2.866,2.866,0,0,1-1.114-1.185,3.8,3.8,0,0,1-.392-1.766,3.823,3.823,0,0,1,.392-1.775,2.866,2.866,0,0,1,1.114-1.185,3.328,3.328,0,0,1,1.715-.424,3.328,3.328,0,0,1,1.715.424A2.866,2.866,0,0,1,17.9-5.022a3.823,3.823,0,0,1,.392,1.775A3.8,3.8,0,0,1,17.9-1.481,2.866,2.866,0,0,1,16.788-.3,3.328,3.328,0,0,1,15.073.128Zm.009-1.406a1.122,1.122,0,0,0,.754-.258,1.586,1.586,0,0,0,.458-.705,3.093,3.093,0,0,0,.156-1.018,3.093,3.093,0,0,0-.156-1.018,1.6,1.6,0,0,0-.458-.707,1.117,1.117,0,0,0-.754-.26,1.148,1.148,0,0,0-.765.26,1.575,1.575,0,0,0-.464.707A3.093,3.093,0,0,0,13.7-3.26a3.093,3.093,0,0,0,.156,1.018,1.56,1.56,0,0,0,.464.705A1.154,1.154,0,0,0,15.081-1.278Zm8.611-5.267v1.364H19.751V-6.545ZM20.646-8.114h1.815v6.1a.814.814,0,0,0,.077.39.42.42,0,0,0,.215.194.862.862,0,0,0,.322.055A1.415,1.415,0,0,0,23.33-1.4l.2-.036.286,1.351q-.136.043-.384.1a3.205,3.205,0,0,1-.6.07,2.744,2.744,0,0,1-1.148-.175,1.6,1.6,0,0,1-.765-.622,1.9,1.9,0,0,1-.268-1.065ZM28.52.128a3.471,3.471,0,0,1-1.737-.411,2.782,2.782,0,0,1-1.119-1.168,3.846,3.846,0,0,1-.392-1.792,3.826,3.826,0,0,1,.392-1.773A2.894,2.894,0,0,1,26.77-6.2a3.209,3.209,0,0,1,1.677-.426,3.464,3.464,0,0,1,1.208.207,2.723,2.723,0,0,1,.98.62,2.824,2.824,0,0,1,.654,1.038,4.145,4.145,0,0,1,.234,1.46v.5H26V-3.933h3.818a1.391,1.391,0,0,0-.17-.695,1.24,1.24,0,0,0-.471-.475,1.374,1.374,0,0,0-.7-.173,1.4,1.4,0,0,0-.731.19,1.36,1.36,0,0,0-.5.507,1.444,1.444,0,0,0-.183.705V-2.8a1.821,1.821,0,0,0,.181.839,1.3,1.3,0,0,0,.513.545,1.551,1.551,0,0,0,.788.192,1.717,1.717,0,0,0,.554-.085,1.15,1.15,0,0,0,.43-.256,1.112,1.112,0,0,0,.273-.418l1.679.111A2.289,2.289,0,0,1,30.964-.82a2.623,2.623,0,0,1-1.014.7A3.812,3.812,0,0,1,28.52.128Zm7.878,0A3.328,3.328,0,0,1,34.67-.3a2.849,2.849,0,0,1-1.108-1.191,3.84,3.84,0,0,1-.386-1.756,3.821,3.821,0,0,1,.39-1.766A2.884,2.884,0,0,1,34.676-6.2a3.291,3.291,0,0,1,1.713-.428,3.409,3.409,0,0,1,1.5.311,2.507,2.507,0,0,1,1.018.874,2.567,2.567,0,0,1,.413,1.321H37.608a1.339,1.339,0,0,0-.381-.79,1.109,1.109,0,0,0-.808-.3,1.216,1.216,0,0,0-.735.228,1.472,1.472,0,0,0-.488.663,2.824,2.824,0,0,0-.175,1.053,2.917,2.917,0,0,0,.173,1.065,1.464,1.464,0,0,0,.488.669,1.217,1.217,0,0,0,.737.23,1.21,1.21,0,0,0,.56-.128,1.093,1.093,0,0,0,.413-.373,1.42,1.42,0,0,0,.215-.59h1.713a2.683,2.683,0,0,1-.407,1.319,2.481,2.481,0,0,1-1,.888A3.346,3.346,0,0,1,36.4.128Zm8.3-6.673v1.364H40.761V-6.545ZM41.656-8.114h1.815v6.1a.814.814,0,0,0,.077.39.42.42,0,0,0,.215.194.862.862,0,0,0,.322.055A1.415,1.415,0,0,0,44.34-1.4l.2-.036.286,1.351q-.136.043-.384.1a3.205,3.205,0,0,1-.6.07,2.744,2.744,0,0,1-1.148-.175,1.6,1.6,0,0,1-.765-.622,1.9,1.9,0,0,1-.268-1.065ZM49.5.128A3.328,3.328,0,0,1,47.789-.3a2.866,2.866,0,0,1-1.114-1.185,3.8,3.8,0,0,1-.392-1.766,3.823,3.823,0,0,1,.392-1.775,2.866,2.866,0,0,1,1.114-1.185A3.328,3.328,0,0,1,49.5-6.631a3.328,3.328,0,0,1,1.715.424,2.866,2.866,0,0,1,1.114,1.185,3.823,3.823,0,0,1,.392,1.775,3.8,3.8,0,0,1-.392,1.766A2.866,2.866,0,0,1,51.219-.3,3.328,3.328,0,0,1,49.5.128Zm.009-1.406a1.122,1.122,0,0,0,.754-.258,1.586,1.586,0,0,0,.458-.705A3.093,3.093,0,0,0,50.88-3.26a3.093,3.093,0,0,0-.156-1.018,1.6,1.6,0,0,0-.458-.707,1.117,1.117,0,0,0-.754-.26,1.148,1.148,0,0,0-.765.26,1.575,1.575,0,0,0-.464.707,3.093,3.093,0,0,0-.156,1.018,3.093,3.093,0,0,0,.156,1.018,1.56,1.56,0,0,0,.464.705A1.154,1.154,0,0,0,49.513-1.278ZM54.642,0V-6.545H56.4V-5.4h.068a1.7,1.7,0,0,1,.6-.923,1.587,1.587,0,0,1,.972-.313,2.746,2.746,0,0,1,.294.017,2.07,2.07,0,0,1,.277.047v1.611a2.372,2.372,0,0,0-.354-.068,3.178,3.178,0,0,0-.413-.03,1.454,1.454,0,0,0-.714.173,1.282,1.282,0,0,0-.494.479,1.365,1.365,0,0,0-.181.707V0Z" transform="translate(141 111)" fill="#fff"/><path d="M4507.121-3675.765h0a16.726,16.726,0,0,1-7.4-5.425,13.963,13.963,0,0,1-2.958-8.542v-6.757c.095,0,.2,0,.312,0a12.493,12.493,0,0,0,10.493-5.41,11.51,11.51,0,0,0,9.755,5.408h.147v6.757a13.966,13.966,0,0,1-2.958,8.542,16.718,16.718,0,0,1-7.4,5.425Zm-3.225-13.987a.373.373,0,0,0-.259.119.373.373,0,0,0-.1.266v5.051a.371.371,0,0,0,.1.267.365.365,0,0,0,.258.118h6.433a.365.365,0,0,0,.258-.118.375.375,0,0,0,.1-.267v-5.064a.355.355,0,0,0-.087-.268.355.355,0,0,0-.256-.117h-.515a.14.14,0,0,1-.131-.143v-1.313a2.728,2.728,0,0,0-2.477-2.854l-.094,0a2.7,2.7,0,0,0-2.583,2.8v1.383a.139.139,0,0,1-.132.142Zm4.891,0h-3.322a.14.14,0,0,1-.134-.143v-1.383h.015a1.861,1.861,0,0,1,1.779-1.929l.093,0a1.91,1.91,0,0,1,1.7,1.982v1.328A.138.138,0,0,1,4508.788-3689.751Z" transform="translate(-4440.137 3795.331)" fill="#fff"/></g></svg>