<svg xmlns="http://www.w3.org/2000/svg" width="300" height="208" viewBox="0 0 300 208"><g transform="translate(-242 -368)"><rect width="300" height="208" transform="translate(242 368)" fill="#d60000"/><g transform="translate(5202 -4076)"><g transform="translate(0 -29)"><path d="M3,0H206a3,3,0,0,1,3,3V168a0,0,0,0,1,0,0H0a0,0,0,0,1,0,0V3A3,3,0,0,1,3,0Z" transform="translate(-4914 4513)" fill="#fff"/><path d="M3,0H206a3,3,0,0,1,3,3V17a0,0,0,0,1,0,0H0a0,0,0,0,1,0,0V3A3,3,0,0,1,3,0Z" transform="translate(-4914 4513)" fill="#f5f7f9"/><circle cx="2.5" cy="2.5" r="2.5" transform="translate(-4908 4519)" fill="#d8d8d8"/><circle cx="2.5" cy="2.5" r="2.5" transform="translate(-4901 4519)" fill="#d8d8d8"/><circle cx="2.5" cy="2.5" r="2.5" transform="translate(-4894 4519)" fill="#d8d8d8"/></g><rect width="44" height="45" transform="translate(-4764 4513)" fill="#f5f7f9"/><rect width="44" height="52" transform="translate(-4764 4564)" fill="#f5f7f9"/><rect width="44" height="29" transform="translate(-4764 4623)" fill="#f5f7f9"/><g transform="translate(-2 -3)"><rect width="119" height="5" transform="translate(-4898 4537)" fill="#eeeff3"/><rect width="119" height="5" transform="translate(-4898 4527)" fill="#eeeff3"/><rect width="119" height="5" transform="translate(-4898 4517)" fill="#eeeff3"/><rect width="119" height="5" transform="translate(-4898 4547)" fill="#eeeff3"/><rect width="114" height="5" transform="translate(-4898 4557)" fill="#eeeff3"/><rect width="106" height="5" transform="translate(-4898 4567)" fill="#eeeff3"/><rect width="126" height="5" transform="translate(-4898 4587)" fill="#eeeff3"/><rect width="119" height="5" transform="translate(-4898 4597)" fill="#eeeff3"/><rect width="70" height="5" transform="translate(-4898 4607)" fill="#eeeff3"/><rect width="119" height="5" transform="translate(-4898 4627)" fill="#eeeff3"/><rect width="128" height="5" transform="translate(-4898 4637)" fill="#eeeff3"/><rect width="80" height="5" transform="translate(-4898 4647)" fill="#eeeff3"/></g><g transform="translate(-3 -3)"><rect width="98" height="10" transform="translate(-4873 4534)" fill="#3390ff"/><rect width="125" height="11" transform="translate(-4900 4544)" fill="#3390ff"/><rect width="125" height="11" transform="translate(-4900 4554)" fill="#3390ff"/><rect width="125" height="12" transform="translate(-4900 4564)" fill="#3390ff"/><rect width="81" height="11" transform="translate(-4900 4584)" fill="#3390ff"/><rect width="92" height="5" transform="translate(-4870 4537)" fill="#fff"/><rect width="23" height="5" transform="translate(-4897 4537)" fill="#fff"/><rect width="24" height="5" transform="translate(-4897 4537)" fill="#eeeff3"/><rect width="119" height="5" transform="translate(-4897 4547)" fill="#fff"/><rect width="119" height="5" transform="translate(-4897 4557)" fill="#fff"/><rect width="119" height="5" transform="translate(-4897 4567)" fill="#fff"/><rect width="75" height="5" transform="translate(-4897 4587)" fill="#fff"/></g><g transform="translate(-4834.581 4556.224)"><rect width="52" height="68" rx="26" transform="translate(-4.419 -5.224)" fill="#fff"/><g transform="translate(-0.419)"><path d="M229.4,68.137h-2.922a20.644,20.644,0,0,0-20.621,20.619v17.314a20.643,20.643,0,0,0,20.621,20.619H229.4a20.642,20.642,0,0,0,20.619-20.619V88.756A20.642,20.642,0,0,0,229.4,68.137Zm-2.5,16.431h2.878a.978.978,0,0,1,.965.965v9.394a.979.979,0,0,1-.965.965H226.9a.978.978,0,0,1-.965-.965V85.533A.978.978,0,0,1,226.9,84.568Zm-.7-12.128h1.743v7.892h-1.743a5.258,5.258,0,0,0-4.549,5.2V88.7h-11.5a16.34,16.34,0,0,1,16.045-16.264Zm3.2,49.961h-2.922a16.35,16.35,0,0,1-16.332-16.33V92.995h11.5v1.933a5.261,5.261,0,0,0,5.255,5.255h2.878a5.261,5.261,0,0,0,5.254-5.255V92.995h10.7V106.07A16.35,16.35,0,0,1,229.4,122.4Z" transform="translate(-205.856 -68.137)" fill="#4f6d84"/><path d="M21.917,4.188v8.026s7.039-.987,7.2,4.757v7.906H39.927C41.1,2.257,21.917,4.188,21.917,4.188Z"/></g></g><g transform="translate(1.089 -2.411)"><ellipse cx="26" cy="25.5" rx="26" ry="25.5" transform="translate(-4805.089 4538.411)" fill="#fff"/><circle cx="21" cy="21" r="21" transform="translate(-4800.089 4543.411)" fill="#d60000"/><rect width="33" height="9" rx="1" transform="translate(-4796.089 4559.411)" fill="#fff"/></g></g></g></svg>