<svg xmlns="http://www.w3.org/2000/svg" width="90" height="90" viewBox="0 0 90 90"><g transform="translate(-322 -118)"><rect width="90" height="90" transform="translate(322 118)" fill="#d60000"/><path d="M161.993,22.426a1.973,1.973,0,0,0-.74.226l-23.026,12.5A1.973,1.973,0,0,0,137.2,36.9c0,14.982,3.12,24.711,7.771,31.558s10.72,10.683,16.16,14.165a1.975,1.975,0,0,0,2.138,0c5.44-3.483,11.508-7.318,16.16-14.165S187.2,51.882,187.2,36.9a1.974,1.974,0,0,0-1.028-1.748l-23.027-12.5h0a1.975,1.975,0,0,0-1.151-.226Z" transform="translate(204.801 110.325)" fill="#fff"/><path d="M121.25,61.1a15.643,15.643,0,1,1,15.643,15.645A15.646,15.646,0,0,1,121.25,61.1Zm2.72,0A12.922,12.922,0,1,0,136.894,48.18,12.944,12.944,0,0,0,123.97,61.1Z" transform="translate(230.99 101.5)" fill="#d60000"/><path d="M242.515,174.916a8.155,8.155,0,1,1,5.769-13.922l-1.913,1.915a5.449,5.449,0,1,0,0,7.7h0l1.913,1.913a8.135,8.135,0,0,1-5.763,2.389Z" transform="translate(125.368 -4.156)" fill="#d60000"/></g></svg>