<svg xmlns="http://www.w3.org/2000/svg" xmlns:xlink="http://www.w3.org/1999/xlink" width="90" height="90" viewBox="0 0 90 90"><defs><clipPath id="b"><rect width="90" height="90"/></clipPath></defs><g id="a" clip-path="url(#b)"><rect width="90" height="90" fill="#0247eb"/><path d="M57.249,24.249v16h-16v16h-16v16h48v-48Z" transform="translate(-5.249 -4.249)" fill="#fff"/><g transform="translate(-8 -7)"><circle cx="12.5" cy="12.5" r="12.5" transform="translate(59 58)" fill="#0247eb"/><path d="M11.569,11A10.534,10.534,0,0,1,22.18,21.5a11.946,11.946,0,0,1-.689,4.141l1.967,5.144L18.022,29.77c-.67.893-3.865,2.23-6.453,2.23a10.5,10.5,0,1,1,0-21Z" transform="translate(60 49)" fill="#fff"/></g><path d="M313.1,240.841a1.269,1.269,0,1,0,1.795,1.8l2.074-2.073v7.37a1.27,1.27,0,0,0,2.54,0v-7.37l2.072,2.073h0a1.269,1.269,0,1,0,1.794-1.8l-4.239-4.241a1.268,1.268,0,0,0-1.8,0L313.1,240.84Z" transform="translate(-254.735 -179.199)" fill="#0247eb" fill-rule="evenodd"/></g></svg>