<svg width="512" height="512" viewBox="0 0 512 512" xmlns="http://www.w3.org/2000/svg">
    <path d="m512 114l0-113-512 0 0 510 119 0 0-42-77 0 0-428 428 0 0 73z m-277 394l0-32-60 0 0-20 51-83 39 0 0 79 16 0 0 24-16 0 0 32z m0-56l0-29c0-9 0-17 1-26l-1 0c-4 9-8 17-13 26l-18 29 0 0z m159-12c0 42-17 71-51 71-35 0-51-32-51-70 0-39 17-70 52-70 36 0 50 32 50 69z m-70 1c0 31 7 46 20 46 12 0 19-16 19-46 0-30-7-46-20-46-11 0-19 15-19 46z m142 67l0-32-60 0 0-20 51-83 39 0 0 79 16 0 0 24-16 0 0 32z m0-56l0-29c0-9 0-17 1-26l-1 0c-4 9-8 17-12 26l-19 29 0 0z"></path>
</svg>