<svg width="512" height="512" viewBox="0 0 512 512" xmlns="http://www.w3.org/2000/svg">
    <path d="m512 114l0-113-512 0 0 510 119 0 0-42-77 0 0-428 428 0 0 73z m-351 323c6 0 12-2 17-5l43 36c0 2-1 3-1 5 0 21 17 38 38 38 21 0 38-17 38-38 0-6-2-12-4-17 21-31 47-71 63-95 3 0 5 1 8 1 9 0 17-3 23-9 15 9 33 19 49 29 0 0 0 1 0 1 0 21 17 38 38 38 21 0 38-17 38-38 0-21-17-38-38-38-9 0-17 4-24 10l-49-29c0 0 1-1 1-2 0-21-17-38-38-38-21 0-38 17-38 38 0 7 2 14 5 19-19 30-45 69-62 94-3-1-6-2-10-2-8 0-15 3-21 7-12-10-27-22-40-33 1-4 2-7 2-10 0-21-17-38-38-38-21 0-38 17-38 38 0 21 17 38 38 38z"></path>
</svg>