<?xml version="1.0" encoding="utf-8"?>
<!-- Generator: Adobe Illustrator 23.0.1, SVG Export Plug-In . SVG Version: 6.00 Build 0)  -->
<svg version="1.1" id="Layer_1" xmlns="http://www.w3.org/2000/svg" xmlns:xlink="http://www.w3.org/1999/xlink" x="0px" y="0px"
	 viewBox="0 0 512 512" style="enable-background:new 0 0 512 512;" xml:space="preserve">
<path d="M161.3,97H78.5C64.5,97,51,102.6,41,112.5c-9.9,9.9-15.5,23.4-15.5,37.5v212v0c0,14.1,5.6,27.5,15.5,37.5
	C51,409.4,64.5,415,78.5,415h82.8c8.9,0,17.1-4.4,22.1-11.8l88.3-132.5c2.9-4.4,4.4-9.5,4.4-14.7s-1.5-10.3-4.4-14.7l-88.3-132.5
	C178.5,101.4,170.2,97,161.3,97L161.3,97z M382.3,97H287c-6.4,0-12.6,2.3-17.5,6.6c-4.8,4.2-8,10.1-8.8,16.4
	c-0.8,6.4,0.7,12.8,4.2,18.2l68.7,103.1c2.9,4.4,4.5,9.5,4.5,14.7s-1.5,10.3-4.5,14.7L265,373.8c-3.6,5.4-5.1,11.8-4.2,18.2
	c0.8,6.4,4,12.2,8.8,16.4c4.8,4.2,11,6.6,17.5,6.6h95.3c8.9,0,17.1-4.4,22-11.8l68.7-103.1c8.7-13.1,13.4-28.4,13.4-44.1
	s-4.6-31-13.4-44.1l-68.7-103.1C399.5,101.4,391.2,97,382.3,97L382.3,97z"/>
</svg>
