<?xml version="1.0" encoding="utf-8"?>
<!-- Generator: Adobe Illustrator 23.0.1, SVG Export Plug-In . SVG Version: 6.00 Build 0)  -->
<svg version="1.1" id="Layer_1" xmlns="http://www.w3.org/2000/svg" xmlns:xlink="http://www.w3.org/1999/xlink" x="0px" y="0px"
	 width="30px" height="30px" viewBox="0 0 30 30" enable-background="new 0 0 30 30" xml:space="preserve">
<g>
	<path d="M15,0.725c-6.489,0-11.766,1.903-11.766,4.326v3.461c0,2.422,5.277,4.326,11.766,4.326s11.766-1.903,11.766-4.326V5.051
		C26.766,2.628,21.489,0.725,15,0.725z"/>
	<path d="M15,14.827c-6.143,0-11.333-1.73-11.766-3.98c0,0.173,0,5.883,0,5.883c0,2.336,5.277,4.239,11.766,4.239
		s11.766-1.903,11.766-4.239c0,0,0-5.71,0-5.883C26.333,13.097,21.229,14.827,15,14.827z"/>
	<path d="M26.766,19.153c-0.433,2.249-5.537,3.98-11.766,3.98c-6.143,0-11.333-1.73-11.766-3.98v5.797
		c0,2.422,5.277,4.326,11.766,4.326s11.766-1.903,11.766-4.326V19.153z"/>
</g>
</svg>
