<?xml version="1.0" encoding="utf-8"?>
<!-- Generator: Adobe Illustrator 23.0.1, SVG Export Plug-In . SVG Version: 6.00 Build 0)  -->
<svg version="1.1" id="Layer_1" xmlns="http://www.w3.org/2000/svg" xmlns:xlink="http://www.w3.org/1999/xlink" x="0px" y="0px"
	 width="512px" height="512px" viewBox="0 0 512 512" style="enable-background:new 0 0 512 512;" xml:space="preserve">
<path d="M49.9,142.1l115.4,113.6L49.9,371.2c-5.2,7-5.2,17.5,0,24.5l66.4,66.4c7,5.2,17.5,5.2,24.5,0l115.4-115.4l115.4,115.4
	c5.2,5.2,17.5,5.2,24.5,0l64.7-66.4c7-7,7-17.5,0-24.5L345.4,255.8l115.4-113.6c7-7,7-19.2,0-24.5l-64.7-66.4c-7-7-19.2-7-24.5,0
	L256.2,166.6L140.8,51.2c-7-7-17.5-7-24.5,0l-66.4,66.4C44.7,122.9,44.7,135.2,49.9,142.1z"/>
</svg>
