<?xml version="1.0" encoding="utf-8"?>
<!-- Generator: Adobe Illustrator 23.0.1, SVG Export Plug-In . SVG Version: 6.00 Build 0)  -->
<svg version="1.1" id="Layer_1" xmlns="http://www.w3.org/2000/svg" xmlns:xlink="http://www.w3.org/1999/xlink" x="0px" y="0px"
	 width="30px" height="30px" viewBox="0 0 30 30" enable-background="new 0 0 30 30" xml:space="preserve">
<path d="M28.594,12.844l-2.904-0.44c-0.264-0.88-0.528-1.672-0.968-2.464l1.936-2.288c0.352-0.528,0.352-1.232-0.088-1.672
	l-1.144-1.32c-0.44-0.44-1.144-0.528-1.672-0.264l-2.464,1.584c-1.056-0.792-2.288-1.32-3.607-1.672l-0.528-2.904
	C17.068,0.79,16.54,0.35,15.924,0.35h-1.76c-0.616,0-1.144,0.44-1.232,1.056l-0.528,2.904c-1.056,0.264-2.112,0.704-3.08,1.32
	L6.949,3.958C6.421,3.606,5.805,3.606,5.365,4.046L4.133,5.277c-0.44,0.44-0.528,1.144-0.176,1.672l1.672,2.376
	c-0.528,0.968-0.968,1.936-1.232,3.08l-2.992,0.44C0.79,12.932,0.35,13.46,0.35,14.164v1.672c0,0.616,0.44,1.144,1.056,1.32
	l2.992,0.44c0.176,0.88,0.528,1.76,0.968,2.552l-1.848,2.288c-0.44,0.528-0.352,1.232,0,1.672l1.144,1.32
	c0.44,0.44,1.144,0.528,1.672,0.176l2.552-1.584c1.056,0.792,2.2,1.32,3.519,1.584l0.528,2.992c0.088,0.616,0.616,1.056,1.232,1.056
	h1.76c0.616,0,1.144-0.44,1.232-1.056l0.528-2.992c1.056-0.264,2.112-0.616,2.992-1.232l2.464,1.76
	c0.528,0.352,1.232,0.352,1.672-0.088l1.232-1.232c0.44-0.44,0.44-1.144,0.088-1.672l-1.76-2.464c0.616-0.968,1.056-1.936,1.32-3.08
	l2.904-0.44c0.616-0.176,1.056-0.704,1.056-1.32v-1.672C29.65,13.46,29.21,12.932,28.594,12.844z M15.044,20.499
	c-2.992,0-5.455-2.464-5.455-5.543c0-2.992,2.464-5.455,5.455-5.455c3.08,0,5.543,2.464,5.543,5.455
	C20.587,18.036,18.124,20.499,15.044,20.499z"/>
</svg>
