<svg width="512" height="512" viewBox="0 0 512 512" xmlns="http://www.w3.org/2000/svg">
    <path d="m512 114l0-113-512 0 0 510 119 0 0-42-77 0 0-428 428 0 0 73z m-161 74c-89 0-162 72-162 161 0 89 73 162 162 162 89 0 161-73 161-162 0-89-72-161-161-161z m0 279c-65 0-118-53-118-118 0-65 53-117 118-117 65 0 118 52 118 117 0 65-53 118-118 118z m0-218c-56 0-101 45-101 100 0 56 45 101 101 101 55 0 100-45 100-101 0-55-45-100-100-100z m0 157c-32 0-57-25-57-57 0-31 25-57 57-57 31 0 57 26 57 57 0 32-26 57-57 57z m29-57c0 17-13 30-29 30-17 0-30-13-30-30 0-16 13-29 30-29 16 0 29 13 29 29z"></path>
</svg>