<?xml version="1.0" encoding="utf-8"?>
<!-- Generator: Adobe Illustrator 23.0.1, SVG Export Plug-In . SVG Version: 6.00 Build 0)  -->
<svg version="1.1" id="Layer_1" xmlns="http://www.w3.org/2000/svg" xmlns:xlink="http://www.w3.org/1999/xlink" x="0px" y="0px"
	 width="30px" height="30px" viewBox="0 0 30 30" enable-background="new 0 0 30 30" xml:space="preserve">
<g>
	<path d="M28.5,16.5c0.4,0.8,0.6,1.6,0.6,2.5c0,1.7-0.5,2.9-1.6,3.8c-0.9,1-2.2,1.6-3.8,1.8c-0.7,0.1-1.9,0.1-2.5,0
		c-2.6-0.4-4.6-1.6-5.8-3.7c-0.1-0.3-0.2-0.4-0.1-0.4c0-0.1,3.1-1.8,3.2-1.8c0,0,0.1,0.1,0.3,0.3c0.9,1.5,2.1,2.1,3.7,2.1
		c1,0,1.8-0.3,2.2-0.7c0.2-0.2,0.4-0.4,0.4-0.5c0.4-0.7,0.2-1.6-0.3-2.1c-0.5-0.4-1.1-0.7-2.7-1.5c-1.3-0.6-2-0.9-2.5-1.2
		c-2-1.3-3-2.9-3-5.2c0-1.6,0.6-2.7,1.5-3.7c0.9-0.8,2.2-1.4,3.7-1.6c0.6,0,0.7,0,1.3,0c1.3,0.1,2.2,0.5,3.1,1
		c0.5,0.4,1.2,1.1,1.6,1.7C27.7,7.7,27.9,8,27.9,8s-2.9,1.9-3.1,2c0,0-0.1-0.1-0.2-0.4c-0.1-0.1-0.4-0.5-0.6-0.7
		c-0.6-0.5-1-0.7-1.8-0.7c-0.7-0.1-1.1,0.1-1.6,0.6c-0.3,0.3-0.4,0.6-0.4,1c-0.1,0.6,0.1,1,0.5,1.4c0.4,0.5,0.9,0.7,2.6,1.5
		c2.2,0.9,3.3,1.7,4.1,2.4C27.9,15.5,28.2,15.9,28.5,16.5z"/>
	<path d="M10.9,5h2v7.2c0,4.8,0,7.3,0,7.5c-0.4,2.2-1.4,3.8-3.2,4.6c-1.6,0.6-3.6,0.7-5.2,0.1C3,23.8,1.8,22.7,1,21.3V21l1.6-1
		c0.9-0.6,1.7-1,1.7-1s0.1,0.2,0.3,0.4c0.7,1.3,1.3,1.8,2.3,1.8c0.7,0,1.2-0.2,1.6-0.6c0.2-0.2,0.4-0.5,0.5-0.9l0-0.5V12V5H10.9z"/>
</g>
</svg>
