<?xml version="1.0" encoding="utf-8"?>
<!-- Generator: Adobe Illustrator 23.0.1, SVG Export Plug-In . SVG Version: 6.00 Build 0)  -->
<svg version="1.1" id="Layer_1" xmlns="http://www.w3.org/2000/svg" xmlns:xlink="http://www.w3.org/1999/xlink" x="0px" y="0px"
	 width="30px" height="30px" viewBox="0 0 30 30" enable-background="new 0 0 30 30" xml:space="preserve">
<path d="M20.517,0c-5.259,0-9.483,4.224-9.483,9.483c0,1.121,0.259,2.155,0.603,3.276L0,24.397V30h5.517v-3.362h3.276v-3.276h3.362
	l5-5c1.034,0.259,2.069,0.517,3.362,0.517c5.172,0,9.397-4.224,9.397-9.397C29.914,4.224,25.69,0,20.517,0z M23.276,10
	c-1.897,0-3.362-1.466-3.362-3.362c0-1.81,1.466-3.276,3.362-3.276s3.276,1.466,3.276,3.276C26.552,8.534,25.172,10,23.276,10z"/>
</svg>
