<svg width="512" height="512" viewBox="0 0 512 512" xmlns="http://www.w3.org/2000/svg">
    <path d="m512 114l0-113-512 0 1 510 118 0 0-42-77 0 0-428 428 0 0 73z m-14 120l-44-43c-20-19-51-19-70 0l-49 47c-19 19-19 50 0 69l28-27c-3-8 0-18 7-25l31-30c10-9 26-9 35 0l26 26c10 10 10 25 0 35l-31 30c-6 6-17 10-25 8l-27 26c19 19 50 19 70 0l48-47c20-19 20-50 1-69z m-178 173c2 9-1 19-8 26l-29 28c-10 10-26 10-36 0l-26-26c-10-10-10-26 0-35l29-29c7-6 17-10 25-7l28-28c-19-19-51-19-71 0l-47 46c-20 19-20 51 0 70l44 44c20 20 52 20 72 0l47-45c19-20 19-51 0-71z m-30-12c6 7 17 7 23 0l80-79c7-7 7-18 0-24-6-7-17-7-23-1l-80 80c-7 7-7 17 0 24z"></path>
</svg>