<?xml version="1.0" encoding="utf-8"?>
<!-- Generator: Adobe Illustrator 23.0.1, SVG Export Plug-In . SVG Version: 6.00 Build 0)  -->
<svg version="1.1" id="Layer_1" xmlns="http://www.w3.org/2000/svg" xmlns:xlink="http://www.w3.org/1999/xlink" x="0px" y="0px"
	 width="512px" height="512px" viewBox="0 0 512 512" style="enable-background:new 0 0 512 512;" xml:space="preserve">
<path d="M486.5,0H184.7c-14.5,0-25.5,10.9-25.5,25.5v50.9c0,14.5,10.9,25.5,25.5,25.5h301.9c14.5,0,25.5-10.9,25.5-25.5V25.5
	C512,10.9,501.1,0,486.5,0z M486.5,203.7H184.7c-14.5,0-25.5,10.9-25.5,25.5V280c0,14.5,10.9,25.5,25.5,25.5h301.9
	c14.5,0,25.5-10.9,25.5-25.5v-50.9C512,214.6,501.1,203.7,486.5,203.7z M486.5,409.2H184.7c-14.5,0-25.5,10.9-25.5,25.5v50.9
	c0,12.7,10.9,25.5,25.5,25.5h301.9c14.5,0,25.5-12.7,25.5-25.5v-50.9C512,420.1,501.1,409.2,486.5,409.2z M77.4,0H26.5
	C11.9,0,1,10.9,1,25.5v50.9c0,14.5,10.9,25.5,25.5,25.5h50.9c14.5,0,25.5-10.9,25.5-25.5V25.5C102.8,10.9,91.9,0,77.4,0z
	 M77.4,203.7H26.5C11.9,203.7,1,214.6,1,229.1V280c0,14.5,10.9,25.5,25.5,25.5h50.9c14.5,0,25.5-10.9,25.5-25.5v-50.9
	C102.8,214.6,91.9,203.7,77.4,203.7z M77.4,409.2H26.5C11.9,409.2,1,420.1,1,434.6v50.9C1,498.3,11.9,511,26.5,511h50.9
	c14.5,0,25.5-12.7,25.5-25.5v-50.9C102.8,420.1,91.9,409.2,77.4,409.2z"/>
</svg>
