<?xml version="1.0" encoding="utf-8"?>
<!-- Generator: Adobe Illustrator 23.0.1, SVG Export Plug-In . SVG Version: 6.00 Build 0)  -->
<svg version="1.1" id="Layer_1" xmlns="http://www.w3.org/2000/svg" xmlns:xlink="http://www.w3.org/1999/xlink" x="0px" y="0px"
	 width="512px" height="512px" viewBox="0 0 512 512" enable-background="new 0 0 512 512" xml:space="preserve">
<g>
	<path d="M416,224h-32v-96C384,57.6,326.4,0,256,0S128,57.6,128,128v96H96c-16,0-32,16-32,32v224c0,16,16,32,32,32h320
		c16,0,32-16,32-32V256C448,240,432,224,416,224z M288,448h-64l12.8-70.4c-16-6.4-28.8-25.6-28.8-41.6c0-25.6,22.4-48,48-48
		s48,22.4,48,48c0,19.2-9.6,35.2-28.8,41.6L288,448z M320,224H192v-96c0-35.2,28.8-64,64-64s64,28.8,64,64V224z"/>
</g>
</svg>
