<svg width="512" height="512" viewBox="0 0 512 512" xmlns="http://www.w3.org/2000/svg">
    <path d="m512 187l0 279c0 13-4 24-13 33-9 9-20 13-33 13l-420 0c-13 0-24-4-33-13-9-9-13-20-13-33l0-279c0-3 1-5 3-7 2-1 5-5 11-10 6-5 10-9 12-10 2-2 6-5 13-11 7-5 13-11 20-16 7-5 16-12 28-21 11-8 25-19 41-30 15-12 34-25 55-40 1-1 6-5 15-12 9-7 15-12 20-15 5-3 11-6 18-10 8-3 14-5 20-5 6 0 12 2 20 5 7 4 14 7 18 10 5 4 12 9 21 15 8 7 13 11 14 12 21 15 40 28 55 40 16 11 30 22 41 30 12 9 21 16 28 21 7 5 13 11 20 16 7 6 11 9 13 11 2 1 6 5 12 10 6 5 9 9 11 10 2 2 3 4 3 7z m-161 167c50-36 83-60 98-72 3-2 4-3 4-6 0-2 0-4-2-7l-11-14c-1-3-3-4-6-4-2 0-4 0-7 2-44 32-76 56-98 71-1 1-5 5-14 11-9 7-16 12-21 15-5 4-11 7-18 10-8 4-14 6-20 6-6 0-12-2-20-6-7-3-13-6-18-10-5-3-12-8-21-15-9-6-13-10-14-11-36-25-69-49-98-71-3-2-5-2-7-2-3 0-5 1-6 4l-11 14c-2 3-2 5-2 7 0 3 1 4 4 6 15 12 48 36 98 72 2 2 7 5 14 11 8 6 14 10 19 13 5 4 11 7 18 12 8 4 15 7 22 9 8 2 15 3 22 3 7 0 14-1 22-3 7-2 14-5 22-10 8-4 14-8 19-11 4-3 10-8 18-14 8-6 13-9 14-10z"></path>
</svg>