<?xml version="1.0" encoding="utf-8"?>
<!-- Generator: Adobe Illustrator 23.0.1, SVG Export Plug-In . SVG Version: 6.00 Build 0)  -->
<svg version="1.1" id="Layer_1" xmlns="http://www.w3.org/2000/svg" xmlns:xlink="http://www.w3.org/1999/xlink" x="0px" y="0px"
	 width="30px" height="30px" viewBox="0 0 30 30" enable-background="new 0 0 30 30" xml:space="preserve">
<g>
	<path d="M0.422,18.305c-0.64,0.64-0.64,1.663,0,2.303l0.895,0.768l2.047-0.768l-0.768,1.92l4.095,4.095l3.198-1.791l-1.535,3.455
		l1.28,1.28c0.64,0.64,1.663,0.64,2.303,0l7.421-7.421L7.971,10.757L0.422,18.305z"/>
	<path d="M29.081,1.033c-0.768-0.768-1.791-1.023-2.943-0.895c-2.174,0.384-4.605,2.815-6.268,6.525
		c-0.384,1.023-1.152,1.535-2.047,1.791c-1.791,0.256-3.966-1.023-5.246-2.303c-0.256-0.256-0.768-0.256-1.023,0l-1.28,1.28
		l2.047,2.047c0.256,0.256,0.256,0.64,0,1.023c-0.256,0.256-0.64,0.256-1.023,0L9.251,8.454L8.867,8.966
		c-0.256,0.256-0.256,0.64,0,1.023l11.259,11.386c0.256,0.256,0.64,0.256,1.023,0l2.687-2.815c0.256-0.256,0.256-0.64,0-1.023
		c-1.28-1.28-2.558-3.455-2.175-5.246c0.128-1.023,0.64-1.535,1.791-2.047c3.583-1.663,6.013-3.966,6.397-6.27
		C30.233,2.824,29.85,1.801,29.081,1.033z"/>
</g>
</svg>
