<svg width="512" height="512" viewBox="0 0 512 512" xmlns="http://www.w3.org/2000/svg">
    <path d="m512 114l0-113-512 0 0 510 119 0 0-42-77 0 0-428 428 0 0 73z m-98 348c0 27 22 49 49 49 27 0 49-22 49-49 0-27-22-49-49-49-27 0-49 22-49 49z m0-118c0 27 22 49 49 49 27 0 49-22 49-49 0-26-22-48-49-48-27 0-49 22-49 48z m-122 118c0 27 22 49 49 49 27 0 49-22 49-49 0-27-22-49-49-49-27 0-49 22-49 49z m179-284c-2-1-4-2-6-1-7 3-27 14-81 57-38 31-83 70-110 96-14 14-27 28-38 41-1 1-2 3-2 4 1 2 2 3 3 4 4 3 8 6 12 10 5 5 9 11 11 17 1 1 2 3 4 3 1 0 3 0 4-1 15-11 30-25 44-38 27-27 67-70 100-107 45-52 57-72 60-79 1-2 0-4-1-6z m-285 250c-2 9-3 17-9 24-2 1-2 3-2 5 1 2 3 3 5 4 25 5 47 0 61-14 15-14 15-35 0-50-7-8-14-12-22-12-8-1-14 4-18 7-3 3-6 7-8 12-4 9-6 17-7 24z"></path>
</svg>