<svg width="512" height="512" viewBox="0 0 512 512" xmlns="http://www.w3.org/2000/svg">
    <path d="m512 114l0-113-512 0 0 510 119 0 0-42-77 0 0-428 428 0 0 73z m-7 127c-1-1-2-2-4-3-2 0-3 1-4 2-6 9-14 12-23 15-8 3-15 5-24 11-11 9-16 20-14 31l0 0c-5-7-10-13-16-19-26-28-63-44-100-45-2 0-3 0-5 0-42 0-82 18-110 51-28 33-40 75-34 116 0 4 1 7 2 11 10 45 37 79 72 94 9 4 18 6 26 6 22 0 41-12 52-32 4-8 7-15 8-23 1-5 1-10 0-14 0-5-1-9 0-14 2-10 9-16 19-16 3 0 6 0 9 1-4 7-7 13-10 18-5 13-10 23-12 30-1 5-4 17 4 23 3 2 6 3 10 2 3 0 13-2 40-34 8-8 16-18 24-29 22-7 39-25 43-46 1-5 2-11 2-17 8-12 15-24 22-36 0 0 0-1 0-1 11-3 19-11 25-22 7-17 7-38-2-60z m-116 78c-4 6-11 10-18 10-3 0-7-1-10-3-5-3-8-8-9-13-2-5-1-11 2-15 4-6 10-10 17-10 4 0 8 1 11 3 5 3 8 8 9 13 1 5 0 11-2 15z m26 37c10-15 21-30 31-44 2 2 4 3 6 5 3 2 7 4 10 5-8 15-18 30-29 47-19 27-38 52-55 71-9 11-17 19-23 24 2-8 7-18 13-31 12-22 28-50 47-77z m-180 0c-4 0-8-1-11-3-5-3-8-8-9-13-1-5 0-11 3-15 3-6 10-10 17-10 4 0 7 1 11 3 9 6 12 19 6 28-4 6-10 10-17 10z m-22 45c4-6 11-10 18-10 3 0 7 1 10 3 5 3 8 8 9 13 2 5 1 11-2 15-4 6-10 10-17 10-4 0-8-1-11-3-5-3-8-8-9-13-1-5 0-11 2-15z m65-121c4-6 11-9 18-9 3 0 7 1 10 3 10 6 13 18 7 28-4 6-10 9-17 9-4 0-8-1-11-3-5-3-8-7-9-13-1-5 0-10 2-15z"></path>
</svg>