<svg width="512" height="512" viewBox="0 0 512 512" xmlns="http://www.w3.org/2000/svg">
    <path d="m512 114l0-113-512 0 0 510 119 0 0-42-77 0 0-428 428 0 0 73z m0 232c0 2-1 4-3 5-2 2-4 2-6 1l-113-38c-3-1-4-3-5-6 0-2 1-5 3-6l26-19 5-3c-8-7-17-12-27-15-9-3-20-5-31-5-13 0-25 2-36 7-11 5-21 12-29 20-9 9-16 18-21 30-4 11-7 23-7 36 0 13 3 25 7 36 5 11 12 21 21 30 8 8 18 15 29 20 11 5 23 7 36 7 16 0 31-3 44-11 14-7 25-17 34-30 1-2 3-3 5-4 3 0 5 0 6 2l40 27c2 1 3 3 3 5 1 2 0 4-1 6-7 11-16 21-25 30-10 8-20 15-32 21-11 6-23 11-35 14-13 3-26 5-39 5-21 0-42-4-61-13-19-8-36-19-50-34-14-14-26-30-34-50-8-19-13-39-13-61 0-22 5-42 13-61 8-20 20-36 34-51 14-14 31-25 50-33 19-9 40-13 61-13 22 0 42 4 61 13 19 8 36 19 50 34l2-2 27-19c2-1 4-2 7-1 2 2 4 4 4 6z"></path>
</svg>