<?xml version="1.0" encoding="utf-8"?>
<!-- Generator: Adobe Illustrator 23.0.1, SVG Export Plug-In . SVG Version: 6.00 Build 0)  -->
<svg version="1.1" id="Layer_1" xmlns="http://www.w3.org/2000/svg" xmlns:xlink="http://www.w3.org/1999/xlink" x="0px" y="0px"
	 width="30px" height="30px" viewBox="0 0 30 30" enable-background="new 0 0 30 30" xml:space="preserve">
<path d="M22.1,9.3c0.4,0.9,0.6,1.8,0.7,2.7c0-0.1,0-0.3-0.1-0.4c0.1,1,0.1,2,0,3c0-0.1,0-0.3,0.1-0.4c-0.1,1-0.4,2-0.8,2.9
	c0.1-0.1,0.1-0.2,0.2-0.4c-0.4,0.9-0.9,1.7-1.4,2.5c0.1-0.1,0.2-0.2,0.2-0.3c-0.6,0.8-1.3,1.5-2.1,2.1c0.1-0.1,0.2-0.2,0.3-0.2
	c-0.8,0.6-1.6,1.1-2.5,1.5c0.1-0.1,0.2-0.1,0.4-0.2c-0.9,0.4-1.9,0.6-2.9,0.8c0.1,0,0.3,0,0.4-0.1c-1,0.1-2,0.1-3,0
	c0.1,0,0.3,0,0.4,0.1c-1-0.1-1.9-0.4-2.9-0.8c0.1,0.1,0.2,0.1,0.4,0.2c-0.9-0.4-1.7-0.9-2.5-1.5c0.1,0.1,0.2,0.2,0.3,0.2
	c-0.8-0.6-1.5-1.3-2.1-2.1c0.1,0.1,0.2,0.2,0.2,0.3c-0.6-0.8-1.1-1.6-1.5-2.5c0.1,0.1,0.1,0.2,0.2,0.4c-0.4-0.9-0.6-1.9-0.8-2.9
	c0,0.1,0,0.3,0.1,0.4c-0.1-1-0.1-2,0-3c0,0.1,0,0.3-0.1,0.4c0.1-1,0.4-1.9,0.8-2.9C4.1,9.3,4.1,9.4,4,9.5C4.4,8.6,4.9,7.8,5.5,7
	C5.4,7.1,5.3,7.2,5.2,7.3c0.6-0.8,1.3-1.5,2.1-2.1C7.2,5.3,7.1,5.4,7,5.5C7.8,4.9,8.6,4.4,9.5,4C9.4,4.1,9.3,4.1,9.1,4.2
	C10.1,3.8,11,3.5,12,3.4c-0.1,0-0.3,0-0.4,0.1c1-0.1,2-0.1,3,0c-0.1,0-0.3,0-0.4-0.1c1,0.1,2,0.4,2.9,0.8C17,4.1,16.9,4.1,16.7,4
	c0.1,0,0.2,0.1,0.3,0.1c0.2,0.1,0.4,0.2,0.6,0.2c0.2,0,0.4,0,0.6,0c0.4-0.1,0.7-0.4,0.9-0.7c0.2-0.4,0.3-0.8,0.2-1.2
	c-0.1-0.4-0.3-0.7-0.7-0.9c-1.1-0.5-2.2-0.9-3.3-1c-1.2-0.2-2.3-0.3-3.5-0.1c-1.2,0.1-2.3,0.4-3.4,0.8C7.8,1.5,7.2,1.7,6.6,2.1
	C6.1,2.4,5.5,2.8,5,3.2C3.2,4.7,1.9,6.6,1.1,8.8c-0.4,1-0.6,2.1-0.7,3.2c-0.1,1.1,0,2.2,0.1,3.3c0.2,1.1,0.5,2.1,1,3.2
	c0.5,1,1.1,2,1.8,2.9c1.5,1.8,3.4,3.1,5.5,3.8c1,0.4,2.1,0.6,3.2,0.7c1.1,0.1,2.2,0,3.3-0.2c2.2-0.4,4.3-1.4,6-2.8
	c1.8-1.5,3.2-3.6,3.9-5.9c0.7-2.2,0.7-4.7,0.2-7c-0.1-0.5-0.3-1-0.5-1.5c0-0.2-0.1-0.4-0.3-0.5c-0.1-0.2-0.2-0.3-0.4-0.4
	c-0.3-0.2-0.8-0.3-1.2-0.2c-0.4,0.1-0.7,0.3-0.9,0.7C22.1,8.4,21.9,8.9,22.1,9.3L22.1,9.3z"/>
<path d="M29.2,27.1c-0.8-0.8-1.6-1.6-2.4-2.4c-1.3-1.3-2.6-2.6-3.8-3.8c-0.3-0.3-0.6-0.6-0.9-0.9c-0.3-0.3-0.7-0.4-1.1-0.4
	c-0.4,0-0.8,0.2-1.1,0.4c-0.3,0.3-0.5,0.7-0.4,1.1c0,0.4,0.2,0.8,0.4,1.1c0.8,0.8,1.6,1.6,2.4,2.4c1.3,1.3,2.6,2.6,3.8,3.8
	c0.3,0.3,0.6,0.6,0.9,0.9c0.3,0.3,0.7,0.4,1.1,0.4c0.4,0,0.8-0.2,1.1-0.4c0.3-0.3,0.5-0.7,0.4-1.1C29.7,27.8,29.5,27.4,29.2,27.1
	L29.2,27.1z"/>
<path d="M9.3,16.7c0.7-0.7,1.4-1.4,2-2c1.1-1.1,2.2-2.2,3.3-3.3c0.2-0.2,0.5-0.5,0.7-0.7h-2.1l1.4,1.4c0.8,0.8,1.5,1.5,2.3,2.3
	c0.2,0.2,0.3,0.3,0.5,0.5c0.6,0.6,1.6,0.6,2.1,0c0.3-0.3,0.6-0.6,1-1c0.8-0.8,1.5-1.5,2.3-2.3c0.9-0.9,1.9-1.9,2.8-2.8
	c0.8-0.8,1.6-1.6,2.4-2.4c0.4-0.4,0.8-0.8,1.2-1.2c0,0,0,0,0,0c0.3-0.3,0.4-0.7,0.4-1.1c0-0.4-0.2-0.8-0.4-1.1
	c-0.3-0.3-0.7-0.5-1.1-0.4c-0.4,0-0.8,0.2-1.1,0.4c-0.3,0.3-0.6,0.6-1,1c-0.8,0.8-1.5,1.5-2.3,2.3c-0.9,0.9-1.9,1.9-2.8,2.8
	c-0.8,0.8-1.6,1.6-2.4,2.4c-0.4,0.4-0.8,0.8-1.2,1.2c0,0,0,0,0,0h2.1l-4.2-4.2c-0.6-0.6-1.6-0.6-2.1,0c-0.7,0.7-1.4,1.4-2,2
	c-1.1,1.1-2.2,2.2-3.3,3.3c-0.2,0.2-0.5,0.5-0.7,0.7c-0.3,0.3-0.4,0.7-0.4,1.1c0,0.4,0.2,0.8,0.4,1.1c0.3,0.3,0.7,0.5,1.1,0.4
	C8.6,17.1,9,17,9.3,16.7L9.3,16.7z"/>
<path d="M23.6,5.6h4h0.6c-0.5-0.5-1-1-1.5-1.5v4v0.6c0,0.4,0.2,0.8,0.4,1.1c0.3,0.3,0.7,0.5,1.1,0.4c0.4,0,0.8-0.1,1.1-0.4
	c0.3-0.3,0.4-0.7,0.4-1.1v-4V4c0-0.8-0.7-1.5-1.5-1.5h-4h-0.6c-0.4,0-0.8,0.2-1.1,0.4c-0.3,0.3-0.5,0.7-0.4,1.1
	c0,0.4,0.1,0.8,0.4,1.1C22.9,5.4,23.2,5.6,23.6,5.6L23.6,5.6z"/>
</svg>
