<?xml version="1.0" encoding="utf-8"?>
<!-- Generator: Adobe Illustrator 23.0.1, SVG Export Plug-In . SVG Version: 6.00 Build 0)  -->
<svg version="1.1" id="Layer_1" xmlns="http://www.w3.org/2000/svg" xmlns:xlink="http://www.w3.org/1999/xlink" x="0px" y="0px"
	 width="30px" height="30px" viewBox="0 0 30 30" enable-background="new 0 0 30 30" xml:space="preserve">
<g>
	<path d="M8.5,10l8.3,9.8c-0.5,0.3-0.9,1.1-1.1,1.2c-1,1.1-1.5,2.4-1.6,3.9c-0.2,1.4,1.1,3,0.7,4.5c-0.3,0.8-1.2,0.8-1.8,0.5
		c-0.2-0.1-0.8-1.4-1.1-1.8c-0.1-0.2-0.4-0.3-0.5-0.1c-0.7,0.4-1.9,0.5-2.7-1c0-0.2-0.2-0.4-0.4-0.3c-1.1,0.5-1.8-0.3-1.8-1.3
		C6.4,25.1,6.2,25,6,25c-1.1,0.3-1.4-0.8-1.2-1.6c0.1-0.2-0.1-0.3-0.3-0.3c-0.4,0.1-1.1-0.1-1.3-0.8c0,0-0.1-0.3,0-1
		c0,0-1.3,0.3-1.6-1.1c0,0,0-0.4,0.1-0.7c0.1-0.1-0.1-0.2-0.2-0.3c-0.4-0.1-1-0.5-1.1-0.6c-0.5-0.4-0.4-0.9-0.3-1.4
		C0.8,14.3,7.4,10.5,8.5,10L8.5,10z"/>
	<path d="M21.2,14.5l-6.7-7.9c-0.8-0.9-2.2-1-3.1-0.3L9.6,7.9C9.4,8,9.4,8.3,9.5,8.4l9,10.6c0.2,0.2,0.4,0.2,0.5,0.1l1.8-1.5
		C21.8,16.8,21.9,15.4,21.2,14.5L21.2,14.5z"/>
	<path d="M29.4,0.7c2.6,3.6-5.8,8.2-8.4,9.6c-0.3,0.2-0.6,0.1-0.8-0.2l-1.6-1.9c-0.2-0.2-0.2-0.6,0-0.8C20.5,5.2,26.3-2.5,29.4,0.7
		L29.4,0.7z"/>
</g>
</svg>
