<?xml version="1.0" encoding="utf-8"?>
<!-- Generator: Adobe Illustrator 23.0.1, SVG Export Plug-In . SVG Version: 6.00 Build 0)  -->
<svg version="1.1" id="Layer_1" xmlns="http://www.w3.org/2000/svg" xmlns:xlink="http://www.w3.org/1999/xlink" x="0px" y="0px"
	 width="30px" height="30px" viewBox="0 0 30 30" style="enable-background:new 0 0 30 30;" xml:space="preserve">
<path d="M21.2,1.1l-2,1.9L22.1,6l-2.9,2.9L16.3,6l-9.9,10c-1.8,1.8-2.1,4.6-0.8,6.7L1,27.1l2,2l4.3-4.4c0.8,0.6,1.8,0.8,2.8,0.8
	c1.5,0,2.9-0.6,3.9-1.7l10-10L21,11L24,8.1l3.1,2.9L29,8.9L21.2,1.1z M16.3,17.7l-6.4-1.3l6.4-6.5l3.9,3.9L16.3,17.7z"/>
</svg>
