<?xml version="1.0" encoding="utf-8"?>
<!-- Generator: Adobe Illustrator 23.0.1, SVG Export Plug-In . SVG Version: 6.00 Build 0)  -->
<svg version="1.1" id="Layer_1" xmlns="http://www.w3.org/2000/svg" xmlns:xlink="http://www.w3.org/1999/xlink" x="0px" y="0px"
	 width="30px" height="30px" viewBox="0 0 30 30" enable-background="new 0 0 30 30" xml:space="preserve">
<g opacity="0.25">
	<path d="M17.323,23H7.316c-0.466,0.762-0.832,1.594-1.076,2.484c-0.076,0.489-0.334,1.194-1.145,1.694
		c-0.467,0.347-1.059,0.547-1.644,0.547c-0.682,0-1.14-0.263-1.36-0.389l-0.745-0.371l-0.304-0.813
		c-0.079-0.128-0.136-0.226-0.194-0.342l-0.155-0.417C0.497,24.609,0.388,23.808,0.319,23H0v7h30v-7H17.808
		c-0.084,0.009-0.162,0.023-0.254,0.023C17.477,23.023,17.401,23.007,17.323,23z"/>
	<path d="M14.737,5.49c0-0.713,0.296-1.435,0.793-1.929c0.488-0.49,1.208-0.787,1.921-0.787c0.982,0,1.591,0.372,1.965,0.804
		L23.741,7H30V0H0v7h13.433c0.431-0.078,0.862-0.156,1.304-0.207V5.49z"/>
	<path d="M29.673,12.848c0,0.717-0.311,1.699-1.164,2.259L22,20.22v0.58h8V9.4h-3.226l1.388,1.098
		C29.073,10.846,29.673,11.729,29.673,12.848z"/>
	<path d="M14.84,18.527c-1.67,0.083-3.333,0.634-4.742,1.595c-0.316,0.206-0.611,0.437-0.896,0.678h5.687
		c-0.031-0.163-0.05-0.328-0.05-0.492V18.527z"/>
	<path d="M3.467,12.569c1.003-1.235,2.232-2.296,3.625-3.169H0v11.4h0.285c0.043-0.799,0.124-1.603,0.287-2.415
		C1.059,16.187,2.03,14.244,3.467,12.569z"/>
</g>
<path d="M27.673,12.848c0,0.204-0.102,0.511-0.307,0.613l-9.3,7.358c-0.204,0.102-0.307,0.204-0.511,0.204s-0.409-0.102-0.511-0.204
	s-0.204-0.307-0.204-0.511V16.63c-2.759-0.409-5.621,0.307-7.869,1.84c-2.35,1.533-3.986,3.883-4.701,6.643
	c0,0.204-0.102,0.307-0.307,0.409c-0.102,0.102-0.307,0.204-0.511,0.204l0,0c-0.204,0-0.307-0.102-0.511-0.204
	c-0.102-0.307-0.204-0.409-0.307-0.613c-0.511-2.044-0.511-4.088-0.102-6.132c0.409-1.84,1.226-3.475,2.453-4.905
	c2.657-3.27,7.051-5.11,11.752-5.212V5.49c0-0.204,0.102-0.409,0.204-0.511c0.102-0.102,0.307-0.204,0.511-0.204
	s0.409,0,0.511,0.204l9.3,7.358C27.571,12.337,27.673,12.542,27.673,12.848L27.673,12.848z"/>
</svg>
