<?xml version="1.0" encoding="utf-8"?>
<!-- Generator: Adobe Illustrator 23.0.1, SVG Export Plug-In . SVG Version: 6.00 Build 0)  -->
<svg version="1.1" id="Layer_1" xmlns="http://www.w3.org/2000/svg" xmlns:xlink="http://www.w3.org/1999/xlink" x="0px" y="0px"
	 width="30px" height="30px" viewBox="0 0 30 30" style="enable-background:new 0 0 30 30;" xml:space="preserve">
<path d="M28.2,6.1l-3.7-3.7c-1.7-1.6-4.3-1.6-5.9,0l-4.2,3.9c-1.6,1.6-1.6,4.2,0,5.8l2.3-2.3c-0.2-0.7,0-1.5,0.6-2.1L20,5.1
	c0.9-0.7,2.2-0.7,2.9,0l2.2,2.5c0.9,0.9,0.9,2.1,0,2.9l-2.6,2.6c-0.5,0.5-1.5,0.9-2.1,0.7L18.2,16c1.6,1.6,4.2,1.6,5.9,0l4-3.9
	C29.8,10.4,29.8,7.7,28.2,6.1z M13.3,20.7c0.1,0.7-0.1,1.6-0.7,2.2l-2.5,2.3c-0.9,0.9-2.2,0.9-3.1,0L4.8,23c-0.9-0.9-0.9-2.2,0-2.9
	l2.5-2.5c0.6-0.5,1.5-0.9,2.1-0.6l2.3-2.3c-1.6-1.6-4.3-1.6-6,0l-3.8,3.9c-1.7,1.6-1.7,4.3,0,5.9l3.7,3.7c1.7,1.7,4.4,1.7,6.1,0
	l3.9-3.8c1.6-1.7,1.6-4.3,0-6L13.3,20.7z M10.7,19.7c0.5,0.6,1.5,0.6,2,0l6.7-6.6c0.6-0.6,0.6-1.5,0-2.1c-0.5-0.6-1.5-0.6-2-0.1
	l-6.7,6.7C10.1,18.2,10.1,19.1,10.7,19.7z"/>
</svg>
