<?xml version="1.0" encoding="utf-8"?>
<!-- Generator: Adobe Illustrator 23.0.1, SVG Export Plug-In . SVG Version: 6.00 Build 0)  -->
<svg version="1.1" id="Layer_1" xmlns="http://www.w3.org/2000/svg" xmlns:xlink="http://www.w3.org/1999/xlink" x="0px" y="0px"
	 width="30px" height="30px" viewBox="0 0 30 30" style="enable-background:new 0 0 30 30;" xml:space="preserve">
<path d="M26.4,16.9l-3.8-5.6c0.5-1,0.5-2.1-0.2-2.9c-0.6-0.8-1.6-1.3-2.6-1.3L16,1.5c-0.1-0.3-0.5-0.5-0.7-0.5
	c-0.3,0.1-0.5,0.5-0.5,1C15,8.5,8.7,12.3,8.6,12.5L4.5,15c-0.7,0.6-2,2.1-0.7,4l2,2.7c0,0.1,1.3,2,3,1.5c0.2-0.1,0.6-0.2,0.8-0.5
	c0,0,0.5-0.5,1.2,0.7l3.3,4.9c0.1,0.2,0.7,0.7,1.4,0.6c0.1,0,0.2-0.1,0.3-0.1c0,0,1.3-0.7,1.3-1.5c0-1.3-2.2-3.6-2.8-4.3
	c-2.4-2.1-0.6-3.4-0.6-3.4c1.6-1,3-1.7,4.8-2.1c4.3-1.2,7.1,0.3,7.2,0.3c0,0,0.5,0.2,0.7,0.1s0.2-0.1,0.3-0.2
	C26.6,17.2,26.5,17.1,26.4,16.9z"/>
</svg>
