<?xml version="1.0" encoding="utf-8"?>
<!-- Generator: Adobe Illustrator 23.0.1, SVG Export Plug-In . SVG Version: 6.00 Build 0)  -->
<svg version="1.1" id="Layer_1" xmlns="http://www.w3.org/2000/svg" xmlns:xlink="http://www.w3.org/1999/xlink" x="0px" y="0px"
	 width="30px" height="30px" viewBox="0 0 30 30" style="enable-background:new 0 0 30 30;" xml:space="preserve">
<path d="M26.1,1.9H3.9c-0.4,0-0.8,0.3-0.8,0.8v6c0,0.4,0.3,0.8,0.8,0.8h3.4c0.4,0,0.8-0.3,0.8-0.8V6.8h4.4v16.3h-1.8
	c-0.4,0-0.8,0.3-0.8,0.8v3.5c0,0.4,0.3,0.8,0.8,0.8h8.5c0.4,0,0.8-0.3,0.8-0.8v-3.5c0-0.4-0.3-0.8-0.8-0.8h-1.8V6.8h4.4v1.8
	c0,0.4,0.3,0.8,0.8,0.8h3.5c0.4,0,0.8-0.3,0.8-0.8v-6C26.9,2.2,26.6,1.9,26.1,1.9L26.1,1.9z"/>
</svg>
