<?xml version="1.0" encoding="utf-8"?>
<!-- Generator: Adobe Illustrator 23.0.1, SVG Export Plug-In . SVG Version: 6.00 Build 0)  -->
<svg version="1.1" id="b19cf5a6-3db4-449b-998a-9ddae0c21e71"
	 xmlns="http://www.w3.org/2000/svg" xmlns:xlink="http://www.w3.org/1999/xlink" x="0px" y="0px" width="30.1px" height="30.2px"
	 viewBox="0 0 30.1 30.2" style="enable-background:new 0 0 30.1 30.2;" xml:space="preserve">
<path d="M28.9,12.4L28.9,12.4l-3.2-0.6c-0.2,0-0.3-0.1-0.4-0.3c-0.1-0.4-0.3-0.8-0.5-1.2c-0.1-0.1-0.1-0.3,0-0.5l1.8-2.7
	c0.3-0.4,0.2-0.9-0.1-1.3l-2.4-2.4c-0.3-0.3-0.9-0.4-1.3-0.1l-2.7,1.8c-0.1,0.1-0.3,0.1-0.5,0c-0.4-0.2-0.8-0.3-1.2-0.5
	c-0.2-0.1-0.3-0.2-0.3-0.4l-0.6-3.2c-0.1-0.5-0.5-0.8-1-0.8l-3.4,0c-0.5,0-0.9,0.3-1,0.8l-0.6,3.2c0,0.2-0.1,0.3-0.3,0.4
	c-0.4,0.1-0.8,0.3-1.2,0.5c-0.1,0.1-0.3,0.1-0.5,0L7.2,3.4C6.8,3.1,6.2,3.2,5.9,3.5L3.5,5.9C3.1,6.3,3.1,6.8,3.4,7.2l1.8,2.7
	c0.1,0.1,0.1,0.3,0,0.5c-0.2,0.4-0.3,0.8-0.5,1.2c-0.1,0.2-0.2,0.3-0.4,0.3l-3.2,0.6c-0.5,0.1-0.8,0.5-0.8,1v3.4
	c0,0.5,0.3,0.9,0.8,1l3.2,0.6c0.2,0,0.3,0.1,0.4,0.3c0.1,0.4,0.3,0.8,0.5,1.2c0.1,0.1,0.1,0.3,0,0.5L3.4,23
	c-0.3,0.4-0.2,0.9,0.1,1.3l2.4,2.4c0.3,0.3,0.9,0.4,1.3,0.1L9.8,25c0.1-0.1,0.3-0.1,0.5,0c0.4,0.2,0.8,0.3,1.2,0.5
	c0.2,0.1,0.3,0.2,0.3,0.4l0.6,3.2c0.1,0.5,0.5,0.8,1,0.8h3.4c0.5,0,0.9-0.3,1-0.8l0.6-3.2c0-0.2,0.1-0.3,0.3-0.4
	c0.4-0.1,0.8-0.3,1.2-0.5c0.1-0.1,0.3-0.1,0.5,0l2.7,1.8c0.4,0.3,0.9,0.2,1.3-0.1l2.4-2.4c0.3-0.3,0.4-0.9,0.1-1.3L25,20.3
	c-0.1-0.1-0.1-0.3,0-0.5c0.2-0.4,0.3-0.8,0.5-1.2v0c0.1-0.2,0.2-0.3,0.4-0.3l3.2-0.6c0.5-0.1,0.8-0.5,0.8-1v-3.4
	C29.8,12.9,29.4,12.5,28.9,12.4z M15.1,20.9c-3.2,0-5.8-2.6-5.8-5.8s2.6-5.8,5.8-5.8s5.8,2.6,5.8,5.8C20.9,18.3,18.3,20.9,15.1,20.9
	z"/>
</svg>
