<?xml version="1.0" encoding="utf-8"?>
<!-- Generator: Adobe Illustrator 23.0.1, SVG Export Plug-In . SVG Version: 6.00 Build 0)  -->
<svg version="1.1" id="Layer_1" xmlns="http://www.w3.org/2000/svg" xmlns:xlink="http://www.w3.org/1999/xlink" x="0px" y="0px"
	 width="30px" height="30px" viewBox="0 0 30 30" enable-background="new 0 0 30 30" xml:space="preserve">
<path d="M30,9.718H12.009l-1.485-3.136c-0.165-0.413-0.495-0.66-0.908-0.66h-0.33c-0.413,0-0.825,0.248-0.99,0.66L6.892,9.718h-7.18
	v0.33h7.015L1.281,21.849c-0.083,0.33-0.083,0.743,0.083,0.99c0.083,0.165,0.165,0.248,0.33,0.33h-1.981v0.33H30v-0.33h-1.981
	c0-0.083,0.083-0.083,0.165-0.165c0.165-0.165,0.248-0.413,0.248-0.743v-7.51c-0.083-2.723-1.733-4.456-4.374-4.704H30V9.718z
	 M9.286,10.048h0.33l2.888,6.272H6.397L9.286,10.048z M3.096,23.17c0.165-0.083,0.33-0.248,0.413-0.413l1.898-4.126h8.17
	l1.898,4.126c0.083,0.165,0.248,0.33,0.413,0.413H3.096z M26.616,23.17h-2.723c0.825-0.165,1.568-0.495,2.228-0.99v0.165
	C26.121,22.675,26.369,23.005,26.616,23.17z M22.242,21.024c-1.155,0-2.393-0.495-2.393-1.898c0-1.403,1.816-1.568,2.888-1.568
	h3.384v1.073C25.378,20.281,24.223,21.024,22.242,21.024z M26.121,14.752v0.495h-3.384c-3.796,0-5.199,1.981-5.199,3.879
	c0,1.981,1.32,3.549,3.301,4.044h-3.549c0.165-0.083,0.248-0.165,0.33-0.33c0.165-0.248,0.165-0.66,0.083-0.99l-5.529-11.801h10.563
	c-1.403,0.083-2.723,0.66-4.126,1.733c-0.413,0.413-0.495,0.99-0.165,1.485l0.083,0.165c0.165,0.248,0.413,0.413,0.743,0.413
	c0.248,0,0.495,0,0.743-0.165c1.238-0.99,2.228-1.403,3.384-1.403C25.791,12.276,26.121,13.679,26.121,14.752z"/>
</svg>
