<?xml version="1.0" encoding="utf-8"?>
<!-- Generator: Adobe Illustrator 23.0.1, SVG Export Plug-In . SVG Version: 6.00 Build 0)  -->
<svg version="1.1" id="Layer_1" xmlns="http://www.w3.org/2000/svg" xmlns:xlink="http://www.w3.org/1999/xlink" x="0px" y="0px"
	 width="512px" height="512px" viewBox="0 0 512 512" style="enable-background:new 0 0 512 512;" xml:space="preserve">
<g>
	<path d="M320,224v-96c0-35.2-28.8-64-64-64s-64,28.8-64,64h-64C128,57.3,185.3,0,256,0s128,57.3,128,128v96h32
		c17.6,0,32,14.4,32,32v224c0,17.6-14.4,32-32,32H96c-17.6,0-32-14.4-32-32V256c0-17.6,14.4-32,32-32H320z M288,448l-11.5-68.8
		c16.3-7.7,27.5-24,27.5-43.2c0-26.6-21.4-48-48-48s-48,21.4-48,48c0,19.2,11.2,35.5,27.5,43.2L224,448H288z"/>
</g>
</svg>
