<?xml version="1.0" encoding="utf-8"?>
<!-- Generator: Adobe Illustrator 23.0.1, SVG Export Plug-In . SVG Version: 6.00 Build 0)  -->
<svg version="1.1" id="Layer_1" xmlns="http://www.w3.org/2000/svg" xmlns:xlink="http://www.w3.org/1999/xlink" x="0px" y="0px"
	 width="30px" height="30px" viewBox="0 0 30 30" style="enable-background:new 0 0 30 30;" xml:space="preserve">
<path d="M0.9,25.9l9.7-9.7c0.5-0.5,1.3-0.8,2-0.7l2.2-2.2l-2.8-2.8c-0.9,0.6-2.1,0.4-2.8-0.3C8.3,9.2,8.3,7.8,9.2,6.9l6.3-6.3
	c0.9-0.9,2.3-0.9,3.2,0.1c0.8,0.8,0.9,2,0.3,2.8l7.2,7.2c0.9-0.6,2.1-0.4,2.8,0.3c0.9,0.9,0.9,2.3,0,3.2l-6.2,6.3
	c-0.9,0.9-2.3,0.9-3.2-0.1c-0.9-0.8-0.9-2-0.4-2.8l-2.7-2.8l-2.1,2c0.4,0.9,0.3,2-0.5,2.7l-9.6,9.7C3.9,29.7,3.3,30,2.7,30
	s-1.2-0.3-1.7-0.7C0,28.4,0,26.8,0.9,25.9z"/>
</svg>
