<?xml version="1.0" encoding="utf-8"?>
<!-- Generator: Adobe Illustrator 23.0.1, SVG Export Plug-In . SVG Version: 6.00 Build 0)  -->
<svg version="1.1" id="Layer_1" xmlns="http://www.w3.org/2000/svg" xmlns:xlink="http://www.w3.org/1999/xlink" x="0px" y="0px"
	 width="30px" height="30px" viewBox="0 0 30 30" enable-background="new 0 0 30 30" xml:space="preserve">
<g id="Page-1">
	<path id="Fill-41" fill-rule="evenodd" clip-rule="evenodd" d="M23.5,7.7c-2.1-0.2-2.9,0.3-3.9,0.5c1,0.5,2.3,1,4,0.9
		c-1.5,0.6-4,0.4-5.7-0.6c-0.4-0.3-0.9-0.7-1.3-1c-1.4-1.2-2.4-3.6-6.8-3.8c-5.5-0.2-9.7,3.8-9.9,9c-0.2,5.2,4.1,9.5,9.6,9.8
		c0.1,0,0.1,0,0.2,0c1.4-0.1,3.3-0.7,4.8-1.5c-0.7,1.1-3.5,2.2-5,2.5c0.1,1.2,0.8,1.7,1.3,2.1c1.1,0.8,2.5-0.3,5.5-0.3
		c1.7,0,3.5,0.5,4.9,1.3l1.5-5.3c3.8,0.1,7.1-2.8,7.2-6.4C30.1,11,27.4,8,23.5,7.7L23.5,7.7z"/>
</g>
</svg>
