<svg xmlns="http://www.w3.org/2000/svg" xmlns:xlink="http://www.w3.org/1999/xlink" width="90" height="90" viewBox="0 0 90 90"><defs><clipPath id="b"><rect width="90" height="90"/></clipPath></defs><g id="a" clip-path="url(#b)"><rect width="90" height="90" fill="#0247eb"/><path d="M57.249,24.249v16h-16v16h-16v16h48v-48Z" transform="translate(-5.249 -4.249)" fill="#fff"/><g transform="translate(-8 -7)"><circle cx="12.5" cy="12.5" r="12.5" transform="translate(59 58)" fill="#0247eb"/><path d="M11.569,11A10.534,10.534,0,0,1,22.18,21.5a11.946,11.946,0,0,1-.689,4.141l1.967,5.144L18.022,29.77c-.67.893-3.865,2.23-6.453,2.23a10.5,10.5,0,1,1,0-21Z" transform="translate(60 49)" fill="#fff"/></g><path d="M86.15,7.334l-3.453-2L84.437,1.17A.79.79,0,0,0,84.523.8a.817.817,0,0,0-.8-.8.8.8,0,0,0-.514.171l-.057.057L77.075,5.993a.777.777,0,0,0-.257.685.751.751,0,0,0,.4.6l3.453,2L78.9,13.5a.813.813,0,0,0,.285.97.947.947,0,0,0,.457.143.906.906,0,0,0,.571-.228l6.079-5.765a.777.777,0,0,0,.257-.685A.751.751,0,0,0,86.15,7.334Z" transform="translate(-18.184 56.194)" fill="#0247eb"/></g></svg>