<svg width="14" height="14" viewBox="0 0 14 14" fill="none" xmlns="http://www.w3.org/2000/svg">
<path d="M8.042 13.1544H5.70058C5.46358 13.1544 5.2714 13.3437 5.2714 13.5772C5.2714 13.8107 5.46358 14 5.70058 14H8.042C8.279 14 8.47118 13.8107 8.47118 13.5772C8.47118 13.3437 8.279 13.1544 8.042 13.1544ZM6.87129 1.67342C7.10829 1.67342 7.30047 1.48409 7.30047 1.2506V0.422819C7.30047 0.189329 7.10829 0 6.87129 0C6.63429 0 6.44211 0.189329 6.44211 0.422819V1.2506C6.44211 1.48409 6.63429 1.67342 6.87129 1.67342ZM12.9823 5.54785H12.1421C11.9051 5.54785 11.7129 5.73718 11.7129 5.97067C11.7129 6.20416 11.9051 6.39349 12.1421 6.39349H12.9823C13.2194 6.39349 13.4115 6.20416 13.4115 5.97067C13.4115 5.73718 13.2198 5.54785 12.9823 5.54785ZM1.6 5.54785H0.760235C0.523232 5.54785 0.331055 5.73718 0.331055 5.97067C0.331055 6.20416 0.523232 6.39349 0.760235 6.39349H1.60048C1.83748 6.39349 2.02966 6.20416 2.02966 5.97067C2.02966 5.73718 1.837 5.54785 1.6 5.54785ZM3.17986 2.93201C3.26379 3.0147 3.37347 3.05604 3.48363 3.05604C3.59378 3.05604 3.70346 3.0147 3.78739 2.93201C3.95525 2.76711 3.95525 2.49933 3.78739 2.33443L3.19274 1.74859C3.02488 1.58322 2.75306 1.58322 2.58568 1.74859C2.41783 1.91349 2.41783 2.18128 2.58568 2.34617L3.17986 2.93201ZM10.5498 1.74859L9.95567 2.33396C9.78781 2.49886 9.78781 2.76664 9.95567 2.93154C10.0396 3.01423 10.1493 3.05557 10.2594 3.05557C10.3696 3.05557 10.4793 3.01423 10.5632 2.93154L11.1574 2.34617C11.3252 2.18128 11.3252 1.91349 11.1574 1.74859C10.9895 1.58369 10.7172 1.58369 10.5498 1.74859ZM6.87129 2.97946C4.71347 2.97617 2.95812 4.70503 2.95812 6.83463C2.95812 7.85973 3.36632 8.79228 4.03393 9.48054C4.47694 9.93765 4.75209 10.5272 4.75209 11.1591V11.5195C4.75209 11.7788 4.96573 11.9893 5.22896 11.9893H6.87129H8.51362C8.77685 11.9893 8.99049 11.7788 8.99049 11.5195V11.1591C8.99049 10.5272 9.26517 9.93765 9.70865 9.48054C10.3758 8.79228 10.7845 7.8602 10.7845 6.83463C10.7845 4.70503 9.02912 2.9757 6.87129 2.97946ZM6.48741 5.32658C5.92757 5.46376 5.47741 5.9096 5.34007 6.46255C5.29191 6.65564 5.11642 6.7853 4.92376 6.7853C4.88991 6.7853 4.8551 6.78107 4.82124 6.77309C4.59091 6.71765 4.45024 6.48886 4.50651 6.26195C4.72205 5.39423 5.40159 4.72148 6.27998 4.50584C6.50983 4.4504 6.74349 4.58711 6.80024 4.81403C6.85746 5.04094 6.71726 5.2702 6.48741 5.32658Z" fill="#5454A5"/>
</svg>
