<svg xmlns="http://www.w3.org/2000/svg" width="90" height="90" viewBox="0 0 90 90"><g transform="translate(-322 -118)"><rect width="90" height="90" transform="translate(322 118)" fill="#d60000"/><path d="M5316.143-2622.2h0a40.691,40.691,0,0,1-9.668-5.235,38.018,38.018,0,0,1-7.714-7.517,32.826,32.826,0,0,1-6.954-20.077v-15.885c.227.005.473.008.732.008,10.129,0,19.81-4.992,24.663-12.717a27.069,27.069,0,0,0,22.934,12.711l.346,0v15.885a32.825,32.825,0,0,1-6.953,20.077,37.98,37.98,0,0,1-7.714,7.517,40.667,40.667,0,0,1-9.671,5.235Zm5.482-37.422v13.5h3.038v-4.669l1.462.056c.148.011.3.017.44.017a5.555,5.555,0,0,0,3.5-1.255,4.242,4.242,0,0,0,1.464-3.32c0-2.874-1.723-4.332-5.12-4.332Zm-11.143,3.337h0a7.153,7.153,0,0,0,.222,1.485l0,.01v.006l2.25,8.665h3.376l3.545-13.5h-3.039l-1.858,9a7.127,7.127,0,0,0-.225,1.519h-.056a12.885,12.885,0,0,0-.225-1.462l-2.194-9.059h-3.263l-2.476,8.946a6.992,6.992,0,0,0-.282,1.575h-.056a6.974,6.974,0,0,0-.169-1.519l-1.913-9h-3.32l3.545,13.5h3.545l2.363-8.665A14.006,14.006,0,0,0,5310.482-2656.288Zm15.363,3.188h-1.182v-4.219h1.182c1.628,0,2.419.681,2.419,2.081C5328.264-2653.819,5327.45-2653.1,5325.845-2653.1Z" transform="translate(-4948.806 2815.626)" fill="#fff"/></g></svg>