<svg width="512" height="512" viewBox="0 0 512 512" xmlns="http://www.w3.org/2000/svg">
    <path d="m465 291l-69-102c8-18 6-38-5-54-10-16-28-25-47-24l-70-102c-3-6-7-8-12-7-6 2-8 9-9 20 3 117-111 186-112 187l-74 47c-14 11-35 39-13 71l33 50c1 1 24 35 57 26 5-1 10-4 15-7 0 0 7-7 21 13l61 90c2 5 10 14 22 11 3-1 5-2 7-3 0 0 23-14 23-28 0-21-43-67-54-76-45-41-9-63-9-63 28-19 57-33 86-41 78-21 132 6 132 7 0 0 9 4 15 1 3-1 5-4 5-5 2-4-1-9-3-11z m-215 179l6-5-5-6 7-5 14 19-18 14-5-6 6-5z"></path>
</svg>