<?xml version="1.0" encoding="utf-8"?>
<!-- Generator: Adobe Illustrator 23.0.1, SVG Export Plug-In . SVG Version: 6.00 Build 0)  -->
<svg version="1.1" id="Layer_1" xmlns="http://www.w3.org/2000/svg" xmlns:xlink="http://www.w3.org/1999/xlink" x="0px" y="0px"
	 width="30px" height="30px" viewBox="0 0 30 30" style="enable-background:new 0 0 30 30;" xml:space="preserve">
<path d="M27.3,17l-4.1-6c0.5-1.1,0.4-2.2-0.3-3.2c-0.6-0.9-1.7-1.4-2.8-1.4l-4.1-6C15.9,0.1,15.6,0,15.3,0c-0.4,0.2-0.5,0.5-0.5,1.1
	c0.2,7-6.6,11-6.7,11.1L3.8,15c-0.8,0.6-2,2.3-0.8,4.2l2,2.9c0,0.1,1.3,2.1,3.3,1.6c0.3-0.1,0.6-0.3,0.9-0.4c0,0,0.4-0.4,1.2,0.8
	l3.5,5.3c0.2,0.3,0.7,0.8,1.4,0.6c0.1,0,0.3-0.1,0.4-0.2c0,0,1.3-0.8,1.3-1.6c0-1.3-2.5-4-3.1-4.6c-2.6-2.4-0.6-3.6-0.6-3.7
	c1.7-1.1,3.3-1.9,5.1-2.4c4.6-1.2,7.8,0.4,7.8,0.4c0,0,0.4,0.3,0.8,0.1c0.3-0.1,0.3-0.2,0.4-0.3C27.6,17.5,27.4,17.2,27.3,17z"/>
</svg>
