<svg width="512" height="512" viewBox="0 0 512 512" xmlns="http://www.w3.org/2000/svg">
    <path d="m512 114l0-113-512 0 0 510 119 0 0-42-77 0 0-428 428 0 0 73z m-366 212c11 0 21-4 28-12l98 39c3 19 19 34 40 34 21 0 39-17 39-39 0-1 0-2 0-3l95-55c7 6 16 10 26 10 22 0 40-18 40-40 0-22-18-40-40-40-22 0-39 18-39 40 0 2 0 4 0 6l-93 54c-7-7-17-12-28-12-14 0-27 7-34 18l-92-36c0-1 0-2 0-3 0-22-18-40-40-40-22 0-40 18-40 40 0 21 18 39 40 39z m326-79c7 0 13 6 13 13 0 7-6 13-13 13-7 0-13-6-13-13 0-7 6-13 13-13z m-160 88c7 0 12 6 12 13 0 7-5 13-12 13-8 0-13-6-13-13 0-7 5-13 13-13z m-166-61c7 0 13 5 13 13 0 7-6 12-13 12-7 0-13-5-13-12 0-8 6-13 13-13z m306 77c-9 0-17-2-24-6l-67 39c-2 22-7 30-29 34l0 93 149 0 0-166c-6 4-21 6-29 6z m-181 42l-70-27c-8 5-17 8-26 8-8 0-11-3-17-7l0 144 143 0 0-93c-17-2-25-6-30-25z"></path>
</svg>