<?xml version="1.0" encoding="utf-8"?>
<!-- Generator: Adobe Illustrator 23.0.1, SVG Export Plug-In . SVG Version: 6.00 Build 0)  -->
<svg version="1.1" id="Layer_1" xmlns="http://www.w3.org/2000/svg" xmlns:xlink="http://www.w3.org/1999/xlink" x="0px" y="0px"
	 width="512px" height="512px" viewBox="0 0 512 512" style="enable-background:new 0 0 512 512;" xml:space="preserve">
<path d="M480.4,150.5c0,8.5-2.8,14.2-8.5,19.8L222.7,419.5c-5.7,5.7-11.3,8.5-19.8,8.5c-7.1,0-14.2-2.8-19.8-8.5l-143-144.4
	c-5.7-5.7-8.5-11.3-8.5-19.8c0-7.1,2.8-14.2,8.5-19.8l38.2-39.6c5.7-4.2,12.7-7.1,19.8-7.1c8.5,0,14.2,2.8,19.8,7.1l84.9,86.4
	L392.6,91.1c5.7-4.2,12.7-7.1,19.8-7.1c8.5,0,14.2,2.8,19.8,7.1l39.6,39.6C477.5,136.4,480.4,143.5,480.4,150.5z"/>
</svg>
