<?xml version="1.0" encoding="utf-8"?>
<!-- Generator: Adobe Illustrator 23.0.1, SVG Export Plug-In . SVG Version: 6.00 Build 0)  -->
<svg version="1.1" id="Layer_1" xmlns="http://www.w3.org/2000/svg" xmlns:xlink="http://www.w3.org/1999/xlink" x="0px" y="0px"
	 width="30px" height="30px" viewBox="0 0 30 30" enable-background="new 0 0 30 30" xml:space="preserve">
<path d="M12,28H8.9c-2.1,0-3.8-1.2-3.8-4.3v-5c0-1.8-2.4-2-3.2-2v-3.3c0.7,0,3.2-0.2,3.2-2V6.2c0-3,1.6-4.2,3.8-4.2H12v3.3h-1.4
	c-1.8,0-1.9,1.1-1.9,1.9v4.7c0,2.7-1.7,2.9-2.9,3V15c1.2,0.1,2.9,0.3,2.9,3v4.7c0,0.8,0.1,1.9,1.9,1.9H12V28z"/>
<path d="M18,2h3.2c2,0,3.7,1.2,3.7,4.3v5c0,1.8,2.3,2,3.2,2v3.3c-0.8,0-3.2,0.2-3.2,2v5.1c0,3-1.6,4.2-3.8,4.2H18v-3.3h1.4
	c1.8,0,1.9-1.1,1.9-1.9v-4.7c0-2.7,1.7-2.9,2.9-3V15c-1.2-0.1-2.9-0.3-2.9-3V7.2c0-0.8-0.1-1.9-1.9-1.9H18L18,2z"/>
</svg>
