<?xml version="1.0" encoding="utf-8"?>
<!-- Generator: Adobe Illustrator 23.0.1, SVG Export Plug-In . SVG Version: 6.00 Build 0)  -->
<svg version="1.1" id="Layer_1" xmlns="http://www.w3.org/2000/svg" xmlns:xlink="http://www.w3.org/1999/xlink" x="0px" y="0px"
	 width="30px" height="30px" viewBox="0 0 30 30" enable-background="new 0 0 30 30" xml:space="preserve">
<g>
	<path d="M27,24H3c-0.6,0-1,0.4-1,1v1.3c0,0.6,0.5,1,1,1H27c0.6,0,1-0.4,1-1V25C28,24.4,27.5,24,27,24z"/>
	<path d="M22.6,4.3C22.5,4.2,22.2,4,22,4c-0.2,0-0.5,0.1-0.6,0.3l-6.2,6.1c-0.3,0.4-0.3,0.9,0,1.3l0.9,0.8c0.3,0.4,0.9,0.4,1.2,0
		l3.2-3.1v11.8c0,0.5,0.5,0.9,0.9,0.9h1.2c0.5,0,0.9-0.4,0.9-0.9V9.3l3.2,3.1c0.3,0.4,0.9,0.4,1.2,0l0.9-0.8c0.3-0.4,0.3-0.9,0-1.3
		L22.6,4.3z"/>
	<path d="M7.4,21.8C7.5,21.9,7.8,22,8,22c0.2,0,0.5-0.1,0.7-0.2l6.1-6.1c0.3-0.3,0.3-0.9,0-1.2l-0.8-0.9c-0.4-0.3-1-0.3-1.3,0
		l-3.2,3.1V4.9C9.5,4.4,9.1,4,8.6,4H7.4C6.9,4,6.5,4.4,6.5,4.9v11.8l-3.1-3.1c-0.4-0.3-1-0.3-1.3,0l-0.8,0.9c-0.4,0.3-0.4,0.9,0,1.3
		L7.4,21.8z"/>
</g>
</svg>
