<svg width="512" height="512" viewBox="0 0 512 512" xmlns="http://www.w3.org/2000/svg">
    <path d="m512 114l0-113-512 0 0 510 119 0 0-42-77 0 0-428 428 0 0 73z m-9 264l-23-4c-1-7-4-14-7-20l15-18c3-4 3-9 0-13l-10-10c-3-4-8-5-13-2l-19 12c-9-6-19-10-29-13l-4-23c-1-5-5-9-10-9l-14 0c-5 0-9 4-10 9l-4 23c-9 2-17 6-24 10l-19-13c-4-3-10-3-13 1l-10 10c-3 3-4 9-1 13l13 18c-4 8-8 16-10 25l-23 4c-5 0-8 5-8 10l0 13c0 5 3 10 8 10l23 4c2 7 5 14 8 21l-15 18c-3 4-3 9 1 13l9 10c3 4 9 5 13 2l20-12c8 5 18 10 28 12l4 23c1 5 5 9 10 9l14 0c5 0 9-4 10-9l4-23c8-2 16-5 24-10l19 14c4 3 10 2 13-1l10-10c4-3 4-9 1-13l-14-19c5-8 8-16 10-25l24-4c4 0 8-5 8-10l0-13c0-5-4-10-9-10z m-107 60c-24 0-43-19-43-43 0-25 19-44 43-44 24 0 44 19 44 44 0 24-20 43-44 43z m95-257l-10 6c-3-2-6-4-9-6l0-12c0-2-2-5-4-5l-7-2c-3 0-5 1-6 4l-4 11c-6 0-11 1-16 3l-9-8c-2-2-5-2-7 0l-5 4c-2 2-3 4-2 7l6 10c-3 4-5 8-7 12l-12 0c-2 0-4 2-5 5l-1 7c0 2 1 5 4 5l11 4c0 4 2 9 3 13l-8 9c-2 1-2 4 0 6l4 6c1 2 4 3 7 1l10-5c3 2 6 4 10 6l-1 12c0 2 2 4 4 5l7 1c3 1 5 0 6-3l4-11c6 0 11-2 16-4l9 9c1 1 4 1 6 0l6-4c2-2 3-5 1-7l-5-11c3-3 5-7 7-11l12 0c2 0 5-2 5-5l1-7c0-2-1-5-4-5l-11-4c-1-5-2-9-4-13l9-9c1-2 1-5 0-7l-4-5c-2-2-5-3-7-2z m-25 58c-10 7-24 6-31-4-8-10-6-24 4-32 10-7 24-5 31 5 8 10 6 24-4 31z m-205 60l-12 6c-3-2-6-4-10-6l1-13c0-3-2-6-5-6l-7-2c-3 0-6 1-7 4l-5 12c-6 0-11 2-17 4l-10-9c-2-2-5-2-7 0l-6 4c-2 2-3 5-2 7l6 12c-3 4-5 8-7 13l-13 0c-3 0-5 2-6 5l-1 8c0 3 1 5 4 6l13 4c0 5 1 10 3 14l-9 10c-2 2-2 5 0 7l4 7c2 2 5 2 8 1l11-6c3 3 7 5 11 7l-1 13c0 2 2 5 5 5l7 2c3 1 6-1 7-4l5-12c5 0 11-2 16-4l10 9c2 2 5 2 7 1l7-5c2-2 3-5 1-7l-6-12c3-4 6-8 8-13l13 0c3 0 5-2 6-5l1-8c0-2-2-5-4-6l-13-4c-1-5-2-10-4-14l9-10c2-2 2-5 1-7l-5-6c-2-2-5-3-7-2z m-28 64c-11 8-26 6-34-5-8-11-6-26 5-35 10-8 26-6 34 5 8 11 6 26-5 35z"></path>
</svg>