<svg xmlns="http://www.w3.org/2000/svg" xmlns:xlink="http://www.w3.org/1999/xlink" width="30" height="30" viewBox="0 0 30 30"><defs><clipPath id="b"><rect width="30" height="30"/></clipPath></defs><g id="a" clip-path="url(#b)"><g transform="translate(-5 -5)"><g transform="translate(5 5)"><path d="M20,957.362a15,15,0,1,0,15,15,15.015,15.015,0,0,0-15-15Zm-1,2.2V965.7H14.875a16.2,16.2,0,0,1,1.042-2.792A6.384,6.384,0,0,1,19,959.56Zm2,0a6.383,6.383,0,0,1,3.083,3.344,16.2,16.2,0,0,1,1.042,2.792H21Zm-5.844.74a12.468,12.468,0,0,0-1.031,1.719,18.734,18.734,0,0,0-1.333,3.677H8.833a13.026,13.026,0,0,1,6.323-5.4Zm9.687,0a13.026,13.026,0,0,1,6.323,5.4H27.208a18.735,18.735,0,0,0-1.333-3.677,12.461,12.461,0,0,0-1.031-1.719ZM7.865,967.7h4.51a28.09,28.09,0,0,0-.354,3.667H7.042A12.971,12.971,0,0,1,7.865,967.7Zm6.552,0H19v3.667H14.021A25.9,25.9,0,0,1,14.417,967.7Zm6.583,0h4.583a25.9,25.9,0,0,1,.4,3.667H21Zm6.625,0h4.51a12.97,12.97,0,0,1,.823,3.667H27.979a28.1,28.1,0,0,0-.354-3.667ZM7.042,973.362h4.979a27.938,27.938,0,0,0,.354,3.667H7.865A12.965,12.965,0,0,1,7.042,973.362Zm6.979,0H19v3.667H14.417A25.742,25.742,0,0,1,14.021,973.362Zm6.979,0h4.979a25.742,25.742,0,0,1-.4,3.667H21Zm6.979,0h4.979a12.963,12.963,0,0,1-.823,3.667h-4.51A27.938,27.938,0,0,0,27.979,973.362ZM8.823,979.029h3.969a18.646,18.646,0,0,0,1.333,3.677,12.59,12.59,0,0,0,1.031,1.729A13.023,13.023,0,0,1,8.823,979.029Zm6.052,0H19v6.146a6.448,6.448,0,0,1-3.083-3.365A16.124,16.124,0,0,1,14.875,979.029Zm6.125,0h4.125a16.129,16.129,0,0,1-1.042,2.781A6.447,6.447,0,0,1,21,985.174Zm6.208,0h3.969a13.023,13.023,0,0,1-6.333,5.406,12.587,12.587,0,0,0,1.031-1.729,18.646,18.646,0,0,0,1.333-3.677Z" transform="translate(-5 -957.362)"/></g></g></g></svg>