<svg width="512" height="512" viewBox="0 0 512 512" xmlns="http://www.w3.org/2000/svg">
    <path d="m512 114l0-113-512 0 0 510 119 0 0-42-77 0 0-428 428 0 0 73z m-274 171c-1-7 4-13 11-14l175-16c7-1 14 5 14 12l14 156c1 7-4 13-11 13l-175 16c-7 1-14-4-14-11z m16 225l208-18c7-1 13-7 12-14l-21-228c0-6-7-12-13-11l-209 19c-7 1-12 7-11 14l21 227c0 7 6 12 13 11m248-293l-206-39c-7-1-13 3-14 10l-8 39c-1 7 15 9 16 2l5-24c1-6 8-11 15-10l173 33c7 1 11 8 10 15l-16 84c-1 6-2 18-1 25l3 34c1 7 2 7 4 1l29-156c1-7-3-13-10-14"></path>
</svg>