<?xml version="1.0" encoding="utf-8"?>
<!-- Generator: Adobe Illustrator 23.0.1, SVG Export Plug-In . SVG Version: 6.00 Build 0)  -->
<svg version="1.1" id="Layer_1" xmlns="http://www.w3.org/2000/svg" xmlns:xlink="http://www.w3.org/1999/xlink" x="0px" y="0px"
	 width="30px" height="30px" viewBox="0 0 30 30" enable-background="new 0 0 30 30" xml:space="preserve">
<rect opacity="0.25" enable-background="new    " width="30" height="19"/>
<path d="M3,21.5L3,21.5c1.7,0,3,1.3,3,3v0c0,1.7-1.3,3-3,3h0c-1.7,0-3-1.3-3-3v0C0,22.8,1.3,21.5,3,21.5z"/>
<path d="M11,21.5L11,21.5c1.7,0,3,1.3,3,3v0c0,1.7-1.3,3-3,3h0c-1.7,0-3-1.3-3-3v0C8,22.8,9.3,21.5,11,21.5z"/>
</svg>
