<?xml version="1.0" encoding="utf-8"?>
<!-- Generator: Adobe Illustrator 23.0.1, SVG Export Plug-In . SVG Version: 6.00 Build 0)  -->
<svg version="1.1" id="Layer_1" xmlns="http://www.w3.org/2000/svg" xmlns:xlink="http://www.w3.org/1999/xlink" x="0px" y="0px"
	 width="30px" height="30px" viewBox="0 0 30 30" style="enable-background:new 0 0 30 30;" xml:space="preserve">
<style type="text/css">
	.st0{opacity:0.25;}
</style>
<path d="M3.9,11h0.2C6.3,11,8,12.7,8,14.8v0.4C8,17.3,6.3,19,4.1,19H3.9C1.7,19,0,17.3,0,15.2l0-0.4C0,12.7,1.7,11,3.9,11z"/>
<path class="st0" d="M15,11h0.2c2.2,0,3.9,1.7,3.9,3.8v0.4c0,2.1-1.7,3.8-3.9,3.8H15c-2.2,0-3.9-1.7-3.9-3.8v-0.4
	C11.1,12.7,12.9,11,15,11z"/>
<path class="st0" d="M25.9,11h0.2c2.2,0,3.9,1.7,3.9,3.8v0.4c0,2.1-1.7,3.8-3.9,3.8h-0.2c-2.2,0-3.9-1.7-3.9-3.8v-0.4
	C22,12.7,23.7,11,25.9,11z"/>
</svg>
