<?xml version="1.0" encoding="utf-8"?>
<!-- Generator: Adobe Illustrator 23.0.1, SVG Export Plug-In . SVG Version: 6.00 Build 0)  -->
<svg version="1.1" id="Layer_1" xmlns="http://www.w3.org/2000/svg" xmlns:xlink="http://www.w3.org/1999/xlink" x="0px" y="0px"
	 width="30px" height="30px" viewBox="0 0 30 30" enable-background="new 0 0 30 30" xml:space="preserve">
<g>
	<path d="M25.289,12.569L25.289,12.569L12.246,29.624c-0.274,0.359-0.764,0.476-1.171,0.28c-0.407-0.196-0.62-0.651-0.511-1.09
		l2.714-10.855H5.469c-0.361,0-0.691-0.204-0.853-0.527c-0.161-0.323-0.126-0.71,0.09-0.998L16.746,0.381
		c0.266-0.354,0.738-0.479,1.144-0.301c0.405,0.177,0.635,0.609,0.557,1.044l-1.802,9.913h7.887c0.363,0,0.694,0.206,0.855,0.531
		C25.547,11.892,25.509,12.28,25.289,12.569z"/>
</g>
</svg>
