<svg xmlns="http://www.w3.org/2000/svg" xmlns:xlink="http://www.w3.org/1999/xlink" width="30" height="30" viewBox="0 0 30 30"><defs><clipPath id="b"><rect width="30" height="30"/></clipPath></defs><g id="a" clip-path="url(#b)"><path d="M-544.483-81.2a15.154,15.154,0,0,1,12.8-14.975,15.131,15.131,0,0,1,.964,5.332,15.154,15.154,0,0,1-12.8,14.975A15.137,15.137,0,0,1-544.483-81.2ZM-561-90.844a15.148,15.148,0,0,1,.963-5.332,15.155,15.155,0,0,1,12.8,14.976,15.118,15.118,0,0,1-.964,5.329A15.152,15.152,0,0,1-561-90.844Zm9.634-9.644A5.509,5.509,0,0,1-545.859-106a5.508,5.508,0,0,1,5.505,5.512,5.508,5.508,0,0,1-5.505,5.51A5.509,5.509,0,0,1-551.366-100.489Z" transform="translate(560.859 105.87)"/></g></svg>