<?xml version="1.0" encoding="utf-8"?>
<!-- Generator: Adobe Illustrator 23.0.1, SVG Export Plug-In . SVG Version: 6.00 Build 0)  -->
<svg version="1.1" id="Layer_1" xmlns="http://www.w3.org/2000/svg" xmlns:xlink="http://www.w3.org/1999/xlink" x="0px" y="0px"
	 width="30px" height="30px" viewBox="0 0 30 30" enable-background="new 0 0 30 30" xml:space="preserve">
<rect y="20.6" opacity="0.25" width="10" height="9.4"/>
<rect x="20" y="15" opacity="0.6" width="10" height="15"/>
<rect x="10" y="11.1" width="10" height="18.9"/>
<path d="M18,10.6c-0.1,0-0.2,0-0.3-0.1L15,9.1l-2.6,1.4c-0.2,0.1-0.5,0.1-0.8-0.1c-0.2-0.2-0.3-0.4-0.3-0.7l0.5-2.9L9.7,4.7
	C9.5,4.5,9.4,4.2,9.5,4c0.1-0.3,0.3-0.4,0.6-0.5L13,3.1l1.3-2.7C14.5,0.2,14.7,0,15,0c0.3,0,0.5,0.2,0.6,0.4L17,3.1l2.9,0.4
	c0.3,0,0.5,0.2,0.6,0.5c0.1,0.3,0,0.5-0.2,0.7l-2.1,2.1l0.5,2.9c0,0.3-0.1,0.5-0.3,0.7C18.3,10.5,18.1,10.6,18,10.6L18,10.6z"/>
</svg>
