<svg width="512" height="512" viewBox="0 0 512 512" xmlns="http://www.w3.org/2000/svg">
    <path d="m505 245c0 3-1 6-4 8-3 3-7 3-10 2l-183-62c-4-2-7-5-7-9-1-4 0-8 4-10l43-31 7-5c-13-10-27-18-43-24-15-5-32-8-50-8-20 0-40 4-58 12-18 8-34 19-48 32-14 14-24 30-32 48-8 18-12 38-12 58 0 21 4 40 12 59 8 18 18 34 32 47 14 14 30 25 48 33 18 8 38 12 58 12 26 0 49-6 71-18 22-11 40-28 54-49 2-3 5-5 9-6 4 0 7 0 10 3l64 44c3 1 4 4 5 8 1 3 0 6-2 9-12 18-25 34-41 48-15 14-32 26-50 35-19 10-38 17-58 22-20 5-41 8-62 8-35 0-68-7-99-20-31-14-58-32-81-55-23-23-41-50-54-81-14-31-20-64-20-99 0-35 6-68 20-99 13-31 31-58 54-81 23-23 50-41 81-54 31-14 64-20 99-20 35 0 68 6 99 20 30 13 57 31 80 55l4-3 42-31c4-2 7-2 12-1 4 3 6 6 6 10z"></path>
</svg>