<?xml version="1.0" encoding="utf-8"?>
<!-- Generator: Adobe Illustrator 23.0.1, SVG Export Plug-In . SVG Version: 6.00 Build 0)  -->
<svg version="1.1" id="Layer_1" xmlns="http://www.w3.org/2000/svg" xmlns:xlink="http://www.w3.org/1999/xlink" x="0px" y="0px"
	 width="30px" height="30px" viewBox="0 0 30 30" style="enable-background:new 0 0 30 30;" xml:space="preserve">
<path d="M30,12.4c0,0.2-0.1,0.6-0.4,0.7l-11,8.7c-0.2,0.1-0.4,0.2-0.6,0.2c-0.2,0-0.5-0.1-0.6-0.2c-0.1-0.1-0.2-0.4-0.2-0.6v-4.4
	c-3.3-0.5-6.6,0.4-9.3,2.2c-2.8,1.8-4.7,4.6-5.6,7.9c0,0.2-0.1,0.4-0.4,0.5c-0.1,0.1-0.4,0.2-0.6,0.2l0,0c-0.2,0-0.4-0.1-0.6-0.2
	c-0.1-0.4-0.2-0.5-0.4-0.7c-0.6-2.4-0.6-4.8-0.1-7.3c0.5-2.2,1.5-4.1,2.9-5.8c3.1-3.9,8.3-6,13.9-6.2V3.7c0-0.2,0.1-0.5,0.2-0.6
	c0.1-0.1,0.4-0.2,0.6-0.2s0.5,0,0.6,0.2l11,8.7C29.9,11.8,30,12,30,12.4L30,12.4z"/>
</svg>
