<?xml version="1.0" encoding="utf-8"?>
<!-- Generator: Adobe Illustrator 23.0.1, SVG Export Plug-In . SVG Version: 6.00 Build 0)  -->
<svg version="1.1" id="Layer_1" xmlns="http://www.w3.org/2000/svg" xmlns:xlink="http://www.w3.org/1999/xlink" x="0px" y="0px"
	 width="30px" height="30px" viewBox="0 0 30 30" enable-background="new 0 0 30 30" xml:space="preserve">
<rect y="23" opacity="0.3" enable-background="new    " width="30" height="7"/>
<rect opacity="0.3" enable-background="new    " width="30" height="7"/>
<rect x="22" y="9.4" opacity="0.3" enable-background="new    " width="8" height="11.4"/>
<rect y="9.4" opacity="0.3" enable-background="new    " width="19" height="11.4"/>
<path fill="#FFFFFF" d="M24.312,25.691H5.689c-1.1,0-2-0.9-2-2V6.325c0-1.1,0.9-2,2-2h18.623c1.1,0,2,0.9,2,2v17.366
	C26.312,24.791,25.412,25.691,24.312,25.691z"/>
<path d="M6.24,5.225c-0.876,0-1.598,0.723-1.598,1.598v11.768c0.966-1.116,2.057-2.183,3.001-3.364
	c0.4-0.508,0.978-0.782,1.568-0.814c0.59-0.032,1.194,0.177,1.647,0.638l2.091,2.127c1.152-1.463,2.384-3.029,3.153-4.004
	c0.4-0.507,0.976-0.781,1.566-0.813c0.59-0.032,1.194,0.178,1.648,0.635l6.045,6.09V6.823c0-0.876-0.723-1.598-1.598-1.598
	L6.24,5.225z M12.698,8.102C13.963,8.102,15,9.14,15,10.404s-1.037,2.302-2.302,2.302s-2.302-1.037-2.302-2.302
	S11.434,8.103,12.698,8.102L12.698,8.102z M17.728,13.468c-0.261,0.013-0.515,0.154-0.724,0.419
	c-2.85,3.639-5.729,7.266-8.576,10.904h15.332c0.876,0,1.598-0.723,1.598-1.598v-2.472l-6.862-6.913
	C18.258,13.568,17.989,13.454,17.728,13.468L17.728,13.468z M9.271,15.52c-0.261,0.014-0.516,0.155-0.725,0.42
	c-1.38,1.621-2.581,2.889-3.905,4.376v2.877c0,0.876,0.723,1.598,1.598,1.598h0.671c1.931-2.288,3.771-4.734,5.319-6.701
	l-2.193-2.231C9.8,15.618,9.532,15.505,9.271,15.52L9.271,15.52z"/>
</svg>
