<?xml version="1.0" encoding="utf-8"?>
<!-- Generator: Adobe Illustrator 23.0.1, SVG Export Plug-In . SVG Version: 6.00 Build 0)  -->
<svg version="1.1" id="Layer_1" xmlns="http://www.w3.org/2000/svg" xmlns:xlink="http://www.w3.org/1999/xlink" x="0px" y="0px"
	 width="512px" height="512px" viewBox="0 0 512 512" enable-background="new 0 0 512 512" xml:space="preserve">
<rect x="392" y="392" width="120" height="120"/>
<rect x="141" width="230" height="160"/>
<rect x="237" y="160" width="38" height="140"/>
<rect x="433" y="262" width="38" height="130"/>
<polygon opacity="0.25" points="237,300 237,262 79,262 41,262 41,392 0,392 0,512 120,512 120,392 79,392 79,300 "/>
<rect x="275" y="262" width="158" height="38"/>
<polygon opacity="0.25" points="275,392 275,300 237,300 237,392 196,392 196,512 316,512 316,392 "/>
</svg>
