<?xml version="1.0" encoding="utf-8"?>
<!-- Generator: Adobe Illustrator 23.0.1, SVG Export Plug-In . SVG Version: 6.00 Build 0)  -->
<svg version="1.1" id="Layer_1" xmlns="http://www.w3.org/2000/svg" xmlns:xlink="http://www.w3.org/1999/xlink" x="0px" y="0px"
	 width="30px" height="30px" viewBox="0 0 30 30" style="enable-background:new 0 0 30 30;" xml:space="preserve">
<style type="text/css">
	.st0{opacity:0.25;}
	.st1{fill-rule:evenodd;clip-rule:evenodd;}
</style>
<g class="st0">
	<path class="st1" d="M25.5,27.2h-21c-0.9,0-1.7-0.7-1.7-1.7V23H0v7h30v-7h-2.9v2.6C27.1,26.5,26.4,27.2,25.5,27.2z"/>
	<path class="st1" d="M4.5,3h20.9c0.9,0,1.7,0.7,1.7,1.7V7H30V0H0v7h2.9V4.6C2.9,3.7,3.6,3,4.5,3z"/>
	<rect x="27.1" y="7" class="st1" width="2.9" height="16.8"/>
	<rect y="5.8" class="st1" width="2.9" height="17.4"/>
</g>
<g>
	<path class="st1" d="M25.3,5.3c0-0.3-0.2-0.5-0.5-0.5H5.2C4.9,4.8,4.7,5,4.7,5.3v19.6c0,0.3,0.2,0.5,0.5,0.5h19.6
		c0.3,0,0.5-0.2,0.5-0.5V5.3z M24.3,5.8v18.6H5.7V5.8H24.3z"/>
	<path class="st1" d="M9.1,5.3v3.9H5.2V5.3H9.1z"/>
	<path class="st1" d="M9.1,13.1V17H5.2v-3.9H9.1z"/>
	<path class="st1" d="M9.1,21v3.9H5.2V21H9.1z"/>
	<path class="st1" d="M13,9.2v3.9H9.1V9.2H13z"/>
	<path class="st1" d="M13,17.1V21H9.1v-3.9H13z"/>
	<path class="st1" d="M17,5.3v3.9h-4V5.3H17z"/>
	<path class="st1" d="M17,13.1V17h-4v-3.9H17z"/>
	<path class="st1" d="M17,21v3.9h-4V21H17z"/>
	<path class="st1" d="M20.9,9.2v3.9H17V9.2H20.9z"/>
	<path class="st1" d="M20.9,17.1V21H17v-3.9H20.9z"/>
	<path class="st1" d="M24.8,5.3v3.9h-3.9V5.3H24.8z"/>
	<path class="st1" d="M24.8,13.1V17h-3.9v-3.9H24.8z"/>
	<path class="st1" d="M24.8,21v3.9h-3.9V21H24.8z"/>
</g>
</svg>
