<?xml version="1.0" encoding="utf-8"?>
<!-- Generator: Adobe Illustrator 23.0.1, SVG Export Plug-In . SVG Version: 6.00 Build 0)  -->
<svg version="1.1" id="Layer_1" xmlns="http://www.w3.org/2000/svg" xmlns:xlink="http://www.w3.org/1999/xlink" x="0px" y="0px"
	 width="30px" height="30px" viewBox="0 0 30 30" style="enable-background:new 0 0 30 30;" xml:space="preserve">
<path d="M20.8,9.9l1.4,1.3c0.4,0.4,0.4,0.9,0,1.3L15.7,19L14,20.7c-0.4,0.3-0.9,0.3-1.3,0l-4.9-4.9c-0.4-0.4-0.4-0.9,0-1.3l1.4-1.4
	c0.4-0.4,0.9-0.4,1.3,0l2.9,2.9l6.1-6.1C19.9,9.5,20.5,9.5,20.8,9.9L20.8,9.9z M15,0L1.8,4.6v5C1.8,19.7,7.1,25.8,15,30
	c7.9-4.2,13.2-10.3,13.2-20.4v-5L15,0z"/>
</svg>
