<?xml version="1.0" encoding="utf-8"?>
<!-- Generator: Adobe Illustrator 23.0.1, SVG Export Plug-In . SVG Version: 6.00 Build 0)  -->
<svg version="1.1" id="Layer_1" xmlns="http://www.w3.org/2000/svg" xmlns:xlink="http://www.w3.org/1999/xlink" x="0px" y="0px"
	 width="30px" height="30px" viewBox="0 0 30 30" style="enable-background:new 0 0 30 30;" xml:space="preserve">
<path d="M24.1,14.3c0.1,2.6-0.7,5.3-2.6,7.2c-3.2,3.2-8,3.6-11.6,1.4c1.2-1.2,2.6-2.6,2.6-2.6c1.1-1.2-0.1-1.8-0.7-1.8H5.2
	c-0.3,0-0.5,0-0.5,0s-0.3,0-0.7,0H2.7c-0.3,0-0.5,0.3-0.5,0.5v9.1c-0.1,0.9,0.9,1.6,1.8,0.7c0,0,1.6-1.6,2.6-2.6
	c5.5,4.1,13.2,3.6,18.3-1.4c2.9-2.9,4.3-6.7,4.1-10.5L24.1,14.3L24.1,14.3z"/>
<path d="M8.5,8.6c3.2-3.2,7.9-3.6,11.5-1.4c-1.2,1.2-2.6,2.6-2.6,2.6c-0.9,1.2,0.1,1.8,0.8,1.8h6.6c0.4,0,0.7,0,0.7,0s0.3,0,0.7,0
	h1.2c0.4,0,0.7-0.3,0.7-0.5V2.1c0-0.9-0.9-1.6-1.8-0.7c0,0-1.6,1.6-2.6,2.6C17.9-0.2,10.1,0.3,5.2,5.3c-2.9,2.9-4.3,6.7-4.1,10.5
	h4.6C5.5,13.3,6.5,10.6,8.5,8.6z"/>
</svg>
