<svg width="512" height="512" viewBox="0 0 512 512" xmlns="http://www.w3.org/2000/svg">
    <path d="m512 114l0-113-512 0 0 510 119 0 0-42-77 0 0-428 428 0 0 73z m-344 283l-37 0 0-28 106 0 0 28-37 0 0 112-32 0z m117-16c0 8-6 15-16 15-10 0-17-7-17-15 0-9 7-16 17-16 10 0 16 7 16 16z m-31 128l0-100 30 0 0 100z m89-129l0 29 22 0 0 23-22 0 0 36c0 12 3 17 12 17 4 0 7 0 9 0l1 23c-4 2-12 3-21 3-10 0-18-4-23-9-6-6-9-15-9-30l0-40-13 0 0-23 13 0 0-22z m35-17l29 0 0 146-29 0z m69 106c1 12 13 19 28 19 10 0 19-2 27-4l5 21c-11 4-23 6-37 6-34 0-53-20-53-51 0-26 16-54 50-54 33 0 45 26 45 50 0 6-1 10-1 13z m36-22c0-7-3-20-17-20-13 0-19 12-20 20z"></path>
</svg>