<?xml version="1.0" encoding="utf-8"?>
<!-- Generator: Adobe Illustrator 23.0.1, SVG Export Plug-In . SVG Version: 6.00 Build 0)  -->
<svg version="1.1" id="Layer_1" xmlns="http://www.w3.org/2000/svg" xmlns:xlink="http://www.w3.org/1999/xlink" x="0px" y="0px"
	 width="30px" height="30px" viewBox="0 0 30 30" enable-background="new 0 0 30 30" xml:space="preserve">
<path d="M8.833,16.364c-2.095,1.95-4.44,3.613-6.973,4.943c-0.397,0.213-0.878,0.198-1.262-0.04
	c-0.383-0.238-0.611-0.662-0.597-1.112c0.014-0.451,0.268-0.86,0.665-1.073c2.123-1.121,4.106-2.488,5.907-4.075L4.4,13.705
	c-0.386-0.232-0.619-0.653-0.612-1.104c0.008-0.451,0.255-0.863,0.649-1.082C4.832,11.3,5.313,11.308,5.7,11.54l2.727,1.636v0
	c1.806-1.995,3.198-4.328,4.095-6.865H1.262c-0.451,0-0.868-0.241-1.093-0.631s-0.225-0.872,0-1.262s0.642-0.631,1.093-0.631h6.311
	V1.262c0-0.451,0.24-0.868,0.631-1.093c0.391-0.225,0.872-0.225,1.262,0c0.391,0.225,0.631,0.642,0.631,1.093v2.524h6.69
	c0.451,0,0.868,0.241,1.093,0.631s0.225,0.872,0,1.262s-0.642,0.631-1.093,0.631h-1.613c-0.938,3.012-2.489,5.797-4.555,8.181
	l1.39,0.834h0c0.289,0.171,0.499,0.451,0.582,0.777c0.083,0.326,0.032,0.672-0.141,0.96c-0.173,0.288-0.454,0.496-0.781,0.576
	c-0.327,0.08-0.672,0.027-0.959-0.148L8.833,16.364z M29.04,29.816c-0.412,0.206-0.889,0.24-1.326,0.095
	c-0.437-0.146-0.798-0.459-1.005-0.871l-2.661-5.323c-2.812,1.417-6.129,1.417-8.941,0l-2.661,5.323
	c-0.278,0.555-0.83,0.92-1.45,0.957c-0.62,0.037-1.212-0.259-1.554-0.777c-0.342-0.518-0.382-1.179-0.104-1.734l7.132-14.265l0,0
	c0.387-0.773,1.048-1.375,1.855-1.687c0.807-0.312,1.701-0.312,2.507,0c0.806,0.312,1.468,0.914,1.854,1.687l7.132,14.263h0
	c0.206,0.412,0.24,0.889,0.094,1.326c-0.146,0.437-0.459,0.798-0.871,1.004L29.04,29.816z M22.494,20.609l-2.917-5.834l-2.917,5.834
	C18.495,21.53,20.658,21.53,22.494,20.609L22.494,20.609z"/>
</svg>
