<svg width="512" height="512" viewBox="0 0 512 512" xmlns="http://www.w3.org/2000/svg">
    <path d="m512 114l0-113-512 0 0 510 119 0 0-42-77 0 0-428 428 0 0 73z m-8 271c-6-11-15-17-27-20-4 0-7-1-10-1-16 0-29 9-39 26-9 14-14 30-14 48 0 13 3 24 8 33 7 11 16 18 28 20 3 1 6 1 9 1 16 0 30-8 40-25 9-15 13-31 13-48 0-14-3-25-8-34z m-22 47c-2 11-6 20-12 25-5 5-10 7-14 6-4-1-8-5-10-11-2-6-3-11-3-16 0-4 0-8 1-12 1-7 4-14 9-20 5-9 11-12 18-11 4 1 7 5 10 11 2 5 3 11 3 16 0 4-1 8-2 12z m-85-47c-6-11-15-17-27-20-3 0-6-1-9-1-16 0-30 9-40 26-9 14-13 30-13 48 0 13 3 24 8 33 6 11 15 18 27 20 3 1 6 1 9 1 17 0 30-8 40-25 9-15 13-31 13-48 0-14-2-25-8-34z m-21 47c-2 11-7 20-13 25-5 5-10 7-14 6-4-1-7-5-10-11-2-6-3-11-3-16 0-4 1-8 1-12 2-7 5-14 9-20 6-9 12-12 18-11 4 1 8 5 10 11 2 5 3 11 3 16 0 4 0 8-1 12z m-237-74c2-3 6-4 10-5 9 0 14 4 15 12 5 36 11 66 17 91l37-71c4-7 8-10 13-10 8-1 12 4 14 14 4 22 10 42 16 58 5-43 12-74 23-93 2-5 6-8 11-8 4 0 7 1 11 3 3 3 5 6 5 10 0 3 0 6-2 8-6 13-12 33-16 62-5 27-6 49-5 64 0 5 0 8-2 12-2 3-5 5-9 6-5 0-9-2-14-7-15-16-28-40-37-72-11 22-19 38-25 49-10 19-18 29-25 30-5 0-9-4-12-12-9-22-18-65-28-129-1-5 0-8 3-12z"></path>
</svg>